<?xml version="1.0" encoding="UTF-8"?><svg id="Layer_1" xmlns="http://www.w3.org/2000/svg" viewBox="0 0 199 39"><defs><style>.cls-1{fill:#0675c1;}</style></defs><path id="Union_17" class="cls-1" d="M21.96,34.58c-.17-.03-.32-.14-.4-.3-.14-.21-.17-.46-.1-.7l.2-.5-.1-1.49c-.2,.1-.4,.2-.9,.4-.4,.1-.8,.3-1.19,.4-.6,.1-1.1,.2-1.69,.3h-1c-.4-.02-.81-.08-1.19-.2-.44-.15-.85-.39-1.19-.7-.4-.28-.69-.71-.79-1.19-.17-.44-.24-.92-.2-1.39,.03-.44,.09-.87,.2-1.29,.2-.91,.53-1.78,.99-2.59,.88-1.52,1.95-2.92,3.18-4.18,1.02-1.04,2.19-1.91,3.48-2.59,.88-.51,1.87-.82,2.89-.9h.2c-.46-.78-.83-1.62-1.1-2.49-.39-1.08-.21-2.28,.5-3.18,1.06-1.35,2.66-2.15,4.38-2.19h.3c2.67-.13,4.94,1.94,5.07,4.62,0,.05,0,.11,0,.16,.1,1.67-.65,3.28-1.99,4.28-.85,.59-1.85,.94-2.89,.99h-.3c-1.29,.04-2.54-.51-3.38-1.49-.24,0-.47,.02-.7,.1-.87,.22-1.71,.55-2.49,1-1.17,.68-2.24,1.51-3.18,2.49-1.16,1.13-2.14,2.44-2.89,3.88-.37,.73-.66,1.5-.89,2.29-.23,.67-.26,1.4-.1,2.09,.07,.26,.21,.5,.4,.7,.22,.15,.45,.29,.7,.4,.42,.13,.85,.2,1.29,.2h.4c.5,0,1.01-.07,1.49-.2,.34,0,.68-.08,.99-.2l.3-.1c.6-.1,.8-.2,.9-.2v-1.1c-.2,0-.3,.1-.5,.1-.32,.1-.66,.16-.99,.2-.3,0-.4-.2-.4-.3,0-.3,.1-.4,1.1-.8l2.49-1,.7-.3,.4-.4,.2-.2c-.21-.19-.45-.36-.7-.5l-.4-.2-.2-.1c-.2,0-.3-.1-.5-.1-.26-.08-.53-.11-.8-.1-.17,.02-.33,.06-.5,.1h-.2l-.3-.2c-.2,.1-.3,.3-.5,.4l-.7,.5-.7,.7-.2,.3-.3,.6v.5c.1,.11,.17,.25,.2,.4l.3,.4v.1c.05,0,.1,.04,.1,.1h0c0,.1,.1,.1,.1,.2,.09,.17,.05,.38-.1,.5h-.19c-.1,0-.3-.2-.3-.2l-.1-.1h-.1l-.1-.1-.4-.4v-.1l-.4-.8v-.8q.1-.1,.1-.2c.1-.2,.2-.5,.3-.7l.3-.4c.01-.08,.05-.15,.1-.2l.4-.4,.5-.4c0-.05,.04-.1,.1-.1h0l.6-.4c.47-.4,1.14-.48,1.69-.2v.1c.05-.05,.12-.09,.2-.1v-1.69l.1-.1v-.1l.2-.1c-.19-.05-.36-.16-.5-.3v-.3c.1-.3,.3-.2,.7-.2,.33,0,.67,.03,.99,.1l1.99,.2h1.2l1.89-.1h.2c.27,.08,.54,.18,.8,.3l.5,.2c0,.05,.04,.1,.09,.1h0c1.1,.7,1.4,.9,1.29,1.19l.1-.2c0-.2,.3-.3,.9-.7l.7-.4c.2-.1,.3-.2,.5-.2s.4-.1,.6-.1h.2c.5-.1,.99-.2,1.59-.3h.3c.4-.1,.9-.1,1.29-.2l.5-.1c.3,0,.6-.1,.8-.1h.1q.1-.1,.2-.1h.7c.25-.12,.52-.19,.8-.2l.3,.2c.1,.2,0,.3-.1,.4l.3,.2v.2l.2,.1,.3,5.07c.28,.09,.55,.23,.8,.4,.56,.32,1.03,.76,1.4,1.29,.22,.3,.39,.64,.5,1,.11,.18,.18,.39,.2,.6v.8l-.1,.3c-.1,.1-.1,.2-.2,.3h.4c.4-.1,.9-.1,1.59-.2,.7-.2,1.4-.3,1.99-.5,.76-.27,1.49-.6,2.19-.99,.75-.49,1.43-1.09,1.99-1.79,.64-.76,1.11-1.64,1.4-2.59,.37-1.02,.54-2.1,.5-3.18-.03-2.1-.51-4.17-1.4-6.07-.75-1.55-1.8-2.94-3.08-4.08-.52-.43-1.08-.8-1.69-1.1-.44-.23-.91-.39-1.4-.5-.3,0-.6-.1-.8-.1-.38,.91-.96,1.73-1.69,2.39-1.17,.92-2.6,1.44-4.08,1.49h-.3c-3.18,0-5.37-2.09-6.57-6.47-.45-1.5-.15-3.13,.8-4.38,1.33-1.68,3.33-2.69,5.47-2.79h.4c3.54-.08,6.48,2.72,6.56,6.26,0,.07,0,.14,0,.2,.09,.77,.02,1.55-.2,2.29h.7c.58,.04,1.15,.17,1.69,.4,.73,.23,1.41,.6,1.99,1.1,1.5,1.22,2.73,2.74,3.59,4.48,.52,.98,.92,2.01,1.19,3.08,.3,1.14,.47,2.31,.5,3.48,.04,1.21-.12,2.42-.5,3.58-.31,1.13-.85,2.18-1.59,3.08-.62,.87-1.44,1.59-2.39,2.09-.82,.43-1.69,.77-2.59,.99-.72,.19-1.45,.32-2.19,.4-.39,.08-.79,.12-1.19,.1h-.5c-.4,0-.7-.1-.99-.1-.27,.29-.57,.56-.9,.8-.28,.17-.58,.31-.9,.4-.26,.09-.53,.12-.8,.1h-.1c-.6-.03-1.18-.2-1.69-.5l-.3-.1c0,.1-.1,.1-.3,.1-1.14-.1-2.27-.27-3.38-.5-1.19-.3-2.29-.5-2.89-.7l-.2,.2-.99,.1-.2-.1h-.2l-1.89,.3c-1.19,.2-2.79,.4-4.48,.7-.4,.1-.9,.2-1.29,.3-.08,.08-.19,.11-.3,.1h-.1l-.2-.3,.1,.3-.2,.1c-.08,.08-.19,.11-.3,.1h-.1Zm13.63-3.38c.54,.2,1.07,.44,1.59,.7l2.29,1.09c.37,.19,.78,.29,1.19,.3,.42,.04,.84-.06,1.19-.3,.31-.21,.58-.48,.8-.8,.1-.2,.2-.3,.3-.5,.05-.05,.09-.12,.1-.2l.1-.2v-.1c.05,0,.1-.04,.1-.1h0v-.1c0-.14-.03-.28-.1-.4-.09-.28-.23-.55-.4-.8-.22-.45-.57-.83-.99-1.1-.28-.2-.58-.37-.9-.5h-.2c-.2,.02-.38-.13-.4-.33,0-.02,0-.05,0-.07,0-.08,.04-.15,.1-.2l-.3-4.48-8.76,1.99,.7,6.87c1.04,.07,2.07,.24,3.08,.5,.4,.1,.9,.2,1.29,.3-.5-.3-.99-.6-1.29-.8-.5-.4-.6-.5-.6-.6l.1-.3c.06-.07,.16-.11,.25-.11,.26,.04,.51,.11,.74,.21Zm-13.63-6.37h.5c.2-.02,.41,.02,.6,.1,.1,0,.2,.1,.3,.1l.4,.2,.2,.1c.35,.16,.69,.36,.99,.6l.3,.3c.1,0,.2,.1,.2,.3v.4c0,.1-.1,.1-.1,.2s-.1,.2-.2,.3l-.3,.3c-.25,.17-.49,.37-.7,.6l-.8,.6-.8,.3c-.2,.1-.4,.1-.6,.2,.16,.65,.26,1.32,.3,1.99,0,.3,.1,.6,.1,.99l.1,.6v.2h.1c.4-.1,.9-.2,1.4-.3,1.59-.2,3.28-.4,4.97-.6,.49-.08,.99-.11,1.49-.1l-.8-6.97-7.66-1.29v.9Zm7.66-.5l-.6-.3h-.1c0,.1-.1,0-.1,0l-.7-.3c-.1-.1-.3-.1-.4-.2h-.7c-.36,.09-.73,.12-1.1,.1l3.68,.7Zm-4.68-9.35c.3,2.79,1.29,3.78,3.58,3.78,.86,.05,1.72-.12,2.49-.5,.9-.6,.99-1.59,.6-3.58,0-.4-.8-3.78-3.28-3.78h-.2c-2.48,.39-3.48,1.59-3.18,4.08Zm10.15-6.47c.4,3.88,1.59,5.37,4.68,5.37h.1c1.69,0,2.79-.3,3.48-.9,.9-.8,1.09-2.29,.6-4.78-.1-.6-1.1-5.37-4.38-5.37h-.3c-3.28,.5-4.58,2.19-4.18,5.67Zm.9,22.59c-.34,.05-.7-.02-.99-.2l-.1-.3c0-.3,.3-.3,.7-.4,.1,0,.2-.1,.4-.1,.3-.1,1.1-.2,2.09-.5,.71-.15,1.41-.35,2.09-.6,.3-.1,.4-.2,.5-.2l.1-.1c.1,0,.2-.1,.3-.1h.1c.2,0,.3,.2,.3,.4-.1,.2-.1,.3-.2,.4-.2,.1-.4,.3-.7,.5-.66,.36-1.36,.63-2.09,.8-.75,.22-1.51,.35-2.29,.4h-.2Z"/><path class="cls-1" d="M64.3,32.34h1.14c-.53,1.4-1.93,2.28-3.34,2.19-1.92,0-3.6-1.49-3.6-3.51v-.27c-.08-1.93,1.5-3.6,3.42-3.69h.18c1.5-.08,2.81,.8,3.34,2.2h-1.14c-.35-.88-1.31-1.4-2.2-1.4-1.49,0-2.63,1.14-2.63,2.63v.26c-.09,1.49,.97,2.72,2.37,2.9h.26c.97,.09,1.84-.44,2.2-1.31Z"/><path class="cls-1" d="M69.3,28.66c-1.58,0-2.81,1.31-2.81,2.89,0,.09,0,.18-.09,.27,0,1.58,1.32,2.72,2.81,2.72h.27c1.58-.09,2.81-1.4,2.72-2.99v-.08c0-1.59-1.31-2.81-2.9-2.81Zm1.93,3.07c0,1.14-.88,1.93-1.93,1.93h-.26c-.97-.18-1.75-1.05-1.59-2.11v-.35c0-1.05,.88-1.84,1.93-1.84h.18c1.06,.09,1.75,1.05,1.67,2.11v.26Z"/><path class="cls-1" d="M78.7,30.76v3.69h-.97v-3.24c0-1.14-.61-1.76-1.58-1.76s-1.67,.61-1.67,1.84v3.16h-.97v-5.71h.97v.8c.44-.62,1.14-.97,1.84-.88,1.23-.09,2.29,.88,2.37,2.1Z"/><path class="cls-1" d="M85.28,30.76v3.69h-.96v-3.24c0-1.14-.62-1.76-1.59-1.76s-1.67,.61-1.67,1.84v3.16h-.97v-5.71h.97v.8c.44-.62,1.14-.97,1.84-.88,1.23-.09,2.29,.88,2.37,2.1Z"/><path class="cls-1" d="M92.04,31.11c-.09-1.4-1.32-2.54-2.72-2.46h-.35c-1.5,.08-2.55,1.4-2.46,2.89v.35c0,1.49,1.32,2.72,2.81,2.63,1.23,.09,2.28-.7,2.63-1.84h-1.06c-.18,.7-.88,1.14-1.58,1.05h-.09c-.97,0-1.75-.79-1.75-1.76h4.56v-.88Zm-4.56,.09c0-.97,.79-1.76,1.84-1.76h.18c.88,.09,1.58,.79,1.58,1.76h-3.6Z"/><path class="cls-1" d="M98.36,32.6c-.27,1.23-1.41,2.02-2.63,1.93-1.5,0-2.72-1.14-2.81-2.63v-.35c-.09-1.49,.97-2.81,2.46-2.89h.27c1.23-.09,2.37,.7,2.63,1.92h-1.05c-.18-.7-.88-1.14-1.58-1.14-1.06,0-1.84,.7-1.84,2.1s.79,2.2,1.84,2.2c.7,.09,1.4-.44,1.58-1.14h1.14Z"/><polygon class="cls-1" points="104.41 33.13 103.27 35.93 102.57 35.93 103.36 33.13 104.41 33.13"/><path class="cls-1" d="M100.81,29.53v3.33c0,.52,.18,.79,.79,.79h.71v.79h-.88c-1.05,0-1.59-.44-1.59-1.58v-3.33h-.7v-.8h.7v-1.4h.97v1.4h1.5v.8h-1.5Z"/><polygon class="cls-1" points="111.7 33.66 111.7 34.44 108.19 34.44 108.19 27.16 109.15 27.16 109.15 33.66 111.7 33.66"/><path class="cls-1" d="M117.93,31.11c-.09-1.4-1.31-2.54-2.72-2.46h-.35c-1.5,.08-2.55,1.4-2.46,2.89v.35c0,1.49,1.32,2.72,2.81,2.63,1.23,.09,2.28-.7,2.63-1.84h-1.05c-.17,.7-.88,1.14-1.58,1.05h-.09c-.97,0-1.75-.79-1.75-1.76h4.56v-.88Zm-4.56,.09c0-.97,.79-1.76,1.84-1.76h.18c.88,.09,1.58,.79,1.58,1.76h-3.6Z"/><path class="cls-1" d="M123.64,28.74v1.05c-.44-.7-1.23-1.14-2.11-1.14h-.27c-1.49,.08-2.54,1.4-2.46,2.89v.18c0,1.58,1.23,2.81,2.72,2.81,.88,.09,1.67-.44,2.11-1.14v1.05h.97v-5.71h-.97Zm0,3.16c-.09,1.05-1.05,1.84-2.11,1.75-1.05-.09-1.84-1.05-1.75-2.11v-.17c0-1.05,.88-1.93,1.93-1.93h.17c1.05,.09,1.85,1.05,1.76,2.1v.35Z"/><path class="cls-1" d="M128.99,28.66v.97h-.27c-.88,0-1.58,.44-1.58,1.75v3.07h-.97v-5.71h.97v.97c.35-.71,1.06-1.05,1.84-1.05Z"/><path class="cls-1" d="M135.22,30.76v3.69h-.97v-3.24c0-1.14-.62-1.76-1.59-1.76s-1.67,.61-1.67,1.84v3.16h-.96v-5.71h.96v.8c.44-.62,1.14-.97,1.84-.88,1.23-.09,2.29,.88,2.37,2.1Z"/><path class="cls-1" d="M144.61,32.69c.18-.18,.35-.35,.44-.61l.88-1.5h-1.06l-.7,1.23c-.09,.09-.09,.18-.18,.27l-2.2-2.2c-.52-.52-.79-.88-.79-1.31v-.09c.09-.53,.53-.88,.97-.79h.18c.44,0,.79,.44,.7,.88h.97v-.27c-.09-.88-.88-1.49-1.75-1.4h-.18c-.97,0-1.75,.7-1.75,1.67,0,.61,.27,1.14,.62,1.49-.97,.35-1.67,1.23-1.67,2.29,0,1.31,1.05,2.19,2.55,2.1,.87,.09,1.84-.35,2.46-1.05l.97,.97h1.22l-1.67-1.67Zm-2.98,1.05h-.09c-.79,0-1.5-.61-1.5-1.4s.44-1.32,1.32-1.59l2.11,2.11c-.44,.52-1.14,.88-1.84,.88Z"/><polygon class="cls-1" points="150.84 27.95 150.84 30.41 153.47 30.41 153.47 31.2 150.84 31.2 150.84 33.66 153.83 33.66 153.83 34.44 149.96 34.44 149.96 27.16 153.83 27.16 153.83 27.95 150.84 27.95"/><polygon class="cls-1" points="157.51 31.55 159.36 34.44 158.3 34.44 156.98 32.34 155.67 34.44 154.7 34.44 156.55 31.63 154.7 28.74 155.76 28.74 157.07 30.85 158.39 28.74 159.36 28.74 157.51 31.55"/><path class="cls-1" d="M163.39,28.66c-.88,0-1.67,.44-2.1,1.14v-1.05h-.97v8.43l.97,.09v-3.78c.44,.71,1.22,1.14,2.1,1.14h.18c1.58-.18,2.63-1.49,2.54-2.99v-.26c0-1.5-1.23-2.72-2.72-2.72Zm1.67,3.24c-.09,1.05-1.05,1.84-2.1,1.75-1.06-.09-1.84-1.05-1.75-2.11v-.17c0-1.05,.88-1.93,1.92-1.93h.18c1.05,.09,1.84,1.05,1.75,2.1v.35Z"/><rect class="cls-1" x="167.34" y="26.72" width=".97" height="7.72"/><path class="cls-1" d="M172.43,28.66c-1.58,0-2.9,1.31-2.9,2.89v.27c0,1.58,1.32,2.81,2.81,2.72h.27c1.53-.08,2.72-1.31,2.72-2.82v-.16c0-1.58-1.32-2.89-2.9-2.89Zm1.84,3.07c0,1.14-.88,1.93-1.93,1.93h-.27c-.97-.18-1.75-1.05-1.58-2.11v-.35c0-1.05,.88-1.84,1.93-1.84h.18c1.05,.09,1.75,1.05,1.67,2.11v.26Z"/><path class="cls-1" d="M179.36,28.66v.97h-.26c-.88,0-1.59,.44-1.59,1.75v3.07h-.96v-5.71h.96v.97c.35-.71,1.05-1.05,1.84-1.05Z"/><path class="cls-1" d="M185.6,31.11c-.1-1.4-1.32-2.54-2.72-2.46h-.35c-1.49,.08-2.54,1.4-2.46,2.89v.35c0,1.49,1.31,2.72,2.81,2.63,1.22,.09,2.28-.7,2.63-1.84h-1.05c-.18,.7-.89,1.14-1.58,1.05h-.09c-.97,0-1.75-.79-1.75-1.76h4.56v-.88Zm-4.56,.09c0-1.05,.88-1.76,1.84-1.76h.17c.88,.09,1.58,.79,1.58,1.76h-3.59Z"/><path class="cls-1" d="M185.6,18.04c0,2.94-2.29,4.4-4.77,4.4-2.11,.09-4.22-1.01-5.41-2.85l1.56-1.19c.74,1.47,2.3,2.3,3.86,2.3,1.56,.09,2.94-1.01,3.03-2.57,0-1.93-2-2.23-3.99-2.71-2-.49-3.99-1.15-3.99-3.82s2.39-4.03,4.6-4.03,3.85,.82,4.68,2.66l-1.57,.92c-.55-1.28-1.74-2.02-3.11-2.02-1.29,0-2.85,.82-2.85,2.3,0,3.76,7.99,.82,7.99,6.61Z"/><path class="cls-1" d="M174.96,7.76l-.19,1.83c-.19-.09-.46-.09-.65-.09-3.03,0-4.4,2.2-4.4,4.95v7.71l-1.83-.09V11.98c0-1.01-.09-3.21-.09-3.95h1.74c0,1.01,.09,2.21,.09,2.48,.73-1.74,2.39-2.85,4.32-2.85,.27,0,.64,.09,1.01,.09Z"/><path class="cls-1" d="M157.61,7.67c-4.23,0-7.16,3.11-7.16,7.43s3.04,7.43,7.16,7.43,7.16-3.12,7.16-7.43-3.11-7.43-7.16-7.43Zm-.09,13.21c-3.21,0-5.32-2.65-5.32-5.77s2.11-5.78,5.32-5.78,5.32,2.66,5.32,5.78-2.11,5.77-5.32,5.77Z"/><path class="cls-1" d="M148.8,21.89c-.73,.27-1.47,.45-2.29,.55-2.48,.09-3.39-1.47-3.39-3.58V9.68h-2.94v-1.73h2.94V3.9h1.74V7.94h3.86v1.65h-3.86v9.18c-.09,1.01,.55,1.83,1.56,2.02h.28c.73,0,1.37-.19,2.02-.56l.09,1.66Z"/><path class="cls-1" d="M137.79,22.07h-1.74c0-1-.09-2.2-.09-2.48h-.09c-.83,1.74-2.66,2.85-4.59,2.85-4.03,0-5.05-3.03-5.05-6.06V7.94h1.75v8.26c0,2.29,.64,4.5,3.3,4.5s4.59-1.93,4.59-5.78V7.94h1.74v10.19c0,.5,.05,1.3,.09,2.07,.05,.77,.09,1.5,.09,1.87Z"/><path class="cls-1" d="M124.12,21.89c-.74,.27-1.47,.45-2.3,.55-2.47,.09-3.39-1.47-3.39-3.58V9.68h-2.94v-1.73h2.94V3.9h1.74V7.94h3.86v1.65h-3.86v9.18c-.09,1.01,.55,1.83,1.56,2.02h.28c.73,0,1.37-.19,2.02-.56l.09,1.66Z"/><path class="cls-1" d="M114.03,14.27c0-3.31-2.2-6.61-6.24-6.61s-6.7,3.21-6.7,7.43,2.67,7.43,6.79,7.53c2.38,.09,4.59-1.01,5.88-3.03l-1.37-1.19c-.93,1.56-2.67,2.47-4.5,2.47-4.13,0-5.14-3.75-5.14-5.32h11.29v-1.28Zm-11.19-.46c0-.73,1.09-4.59,4.95-4.59,2.47,0,4.6,2.02,4.6,4.59h-9.55Z"/><path class="cls-1" d="M99.9,7.76l-.18,1.83c-.19-.09-.46-.09-.65-.09-3.02,0-4.4,2.2-4.4,4.95v7.71l-1.74-.09V11.98c0-.51-.05-1.31-.09-2.07-.05-.77-.09-1.5-.09-1.87h1.75c0,1.01,.09,2.21,.09,2.48,.73-1.74,2.38-2.85,4.31-2.85,.27,0,.55,.09,1.01,.09Z"/><path class="cls-1" d="M88.73,19.18c-.08-.99-.12-1.97-.12-2.98v-3.49c0-3.58-2.11-5.13-5.33-5.13-1.92,0-3.76,.73-5.14,2.02l1.1,1.19c1.09-1.01,2.57-1.56,4.03-1.56,2.11,0,3.77,1.1,3.77,3.49v.83h-2.02c-2.66,0-7.43,.37-7.43,4.69,0,3.02,2.47,4.31,4.77,4.31s3.75-.92,4.68-2.66h.18c0,.73,.09,1.56,.19,2.29h1.65c-.14-1.01-.25-1.99-.33-2.98Zm-1.6-3.16c0,2.29-.92,4.77-4.68,4.77-1.46,0-3.02-.92-3.02-2.66,0-2.39,2.85-3.12,5.78-3.03h1.93v.92Z"/><path class="cls-1" d="M73.28,17.97l1.59,1.48c-1.82,2-4.16,3.09-6.61,3.09-5.65,0-9.75-4.26-9.75-10.14s4.01-10.14,9.75-10.14c2.49,0,4.92,1.12,6.72,3.08l-1.7,1.38c-1.22-1.53-3.03-2.47-5.02-2.6-4.35,0-7.63,3.56-7.63,8.27s3.21,8.27,7.64,8.27c2-.13,3.81-1.11,5-2.7Z"/></svg>