<svg xmlns="http://www.w3.org/2000/svg" xmlns:xlink="http://www.w3.org/1999/xlink" width="21.465" height="21.465" viewBox="0 0 21.465 21.465">
  <defs>
    <clipPath id="clip-path">
      <circle id="Ellipse_180" data-name="Ellipse 180" cx="10.733" cy="10.733" r="10.733" transform="translate(18.32 157)" fill="#f2f5fc"/>
    </clipPath>
  </defs>
  <g id="Mask_Group_5" data-name="Mask Group 5" transform="translate(-18.32 -157)" clip-path="url(#clip-path)">
    <g id="Group_2246" data-name="Group 2246" transform="translate(14.377 156.67)">
      <path id="Path_43320" data-name="Path 43320" d="M0,0H30.416V22.264H0Z" transform="translate(-0.057 0.33)" fill="#0675c1"/>
      <g id="Group_2245" data-name="Group 2245" transform="translate(8.943 6.33)">
        <g id="Group_2244" data-name="Group 2244" transform="translate(0 0)">
          <path id="Path_43321" data-name="Path 43321" d="M40.968,83.55a4.108,4.108,0,0,0-.345-.892,3.889,3.889,0,0,0-1.036-1.295,1.622,1.622,0,0,0-.575-.316,1.512,1.512,0,0,0-.489-.115h-.2a1.678,1.678,0,0,0,.058-.662,1.855,1.855,0,0,0-1.9-1.87h-.115a2.135,2.135,0,0,0-1.582.806,1.417,1.417,0,0,0-.23,1.266c.345,1.266.978,1.87,1.9,1.87h.086a2.028,2.028,0,0,0,1.18-.432,1.9,1.9,0,0,0,.489-.69c.058,0,.144.029.23.029a1.663,1.663,0,0,1,.4.144,2.347,2.347,0,0,1,.489.316,3.753,3.753,0,0,1,.892,1.18,4.327,4.327,0,0,1,.4,1.755,2.472,2.472,0,0,1-.144.921,2.078,2.078,0,0,1-.4.748,2.473,2.473,0,0,1-.575.518,4.235,4.235,0,0,1-.633.288c-.173.058-.374.086-.575.144-.2.029-.345.029-.46.058h-.115c.029-.029.029-.058.058-.086l.029-.086h0v-.23a.409.409,0,0,0-.058-.173.9.9,0,0,0-.144-.288,1.228,1.228,0,0,0-.4-.374.861.861,0,0,0-.23-.115L36.883,84.5l-.058-.029v-.058l-.086-.058c.029-.029.058-.058.029-.115l-.086-.058a.573.573,0,0,0-.23.058l-.259.086c-.029,0-.029,0-.058.029h-.029c-.058,0-.144.029-.23.029l-.144.029c-.115.029-.259.029-.374.058h-.086c-.173.029-.316.058-.46.086h-.058c-.058,0-.115.029-.173.029s-.086.029-.144.058l-.2.115c-.173.115-.259.144-.259.2l-.029.058h0c.029-.086-.058-.144-.374-.345h0a.028.028,0,0,1-.029-.029l-.144-.058a1.985,1.985,0,0,0-.23-.086h-.058l-.547.029h-.345l-.575-.058a.424.424,0,0,0-.345-.144c-.115,0-.173-.029-.2.058v.086a.308.308,0,0,0,.144.086l-.058.029v.029l-.029.029v.489a.1.1,0,0,0-.058.029h0v-.029c-.058-.086-.144-.029-.345.086l-.173.115a.028.028,0,0,0-.029.029l-.144.115-.115.115a.1.1,0,0,0-.029.058l-.058.115c-.029.058-.058.144-.086.2,0,.029,0,.029-.029.058v.23l.115.23h0v.029h0l.115.115h0l.029.029h.029l.029.029s.058.058.086.058h.058a.114.114,0,0,0,.029-.144c0-.029-.029-.029-.029-.058a.028.028,0,0,0-.029-.029v-.029h0l-.086-.115a.218.218,0,0,0-.058-.115V86.11l.086-.173.058-.086h0l.2-.2.2-.144c.058-.029.086-.086.144-.115l.086.058h.058a1.246,1.246,0,0,1,.144-.029.715.715,0,0,1,.23.029c.058,0,.086.029.144.029l.058.029.115.058a1.218,1.218,0,0,1,.2.144l-.058.058-.115.115-.2.173-.719.288c-.288.115-.316.144-.316.23,0,.029.029.086.115.086A1.656,1.656,0,0,0,31.1,86.6c.058,0,.086-.029.144-.029v.316h0c-.029,0-.086.029-.259.058l-.086.029a.851.851,0,0,1-.288.058,1.741,1.741,0,0,1-.432.058h-.115a1.277,1.277,0,0,1-.374-.058.441.441,0,0,1-.316-.316,1.107,1.107,0,0,1,.029-.6,3.9,3.9,0,0,1,.259-.662,4.377,4.377,0,0,1,.834-1.122,4.214,4.214,0,0,1,.921-.719,2.771,2.771,0,0,1,.719-.288.561.561,0,0,1,.2-.029,1.246,1.246,0,0,0,.978.432H33.4a1.611,1.611,0,0,0,.834-.288,1.428,1.428,0,0,0,.575-1.237,1.4,1.4,0,0,0-1.467-1.381h-.086a1.65,1.65,0,0,0-1.266.633.96.96,0,0,0-.144.921,3.366,3.366,0,0,0,.316.719h-.058a1.957,1.957,0,0,0-.834.259,3.974,3.974,0,0,0-1.007.748,6.108,6.108,0,0,0-.921,1.208,2.671,2.671,0,0,0-.288.748,1.98,1.98,0,0,0-.058.374.914.914,0,0,0,.058.4.573.573,0,0,0,.23.345,1,1,0,0,0,.345.2,1.444,1.444,0,0,0,.345.058h.288c.173-.029.316-.058.489-.086.115-.029.23-.086.345-.115.144-.058.2-.086.259-.115h0l.029.432-.058.144a.236.236,0,0,0,.029.2.154.154,0,0,0,.115.086H31.5a.106.106,0,0,0,.086-.029l.058-.029-.029-.086h0l.058.086H31.7a.106.106,0,0,0,.086-.029c.115-.029.259-.058.374-.086.489-.086.949-.144,1.295-.2l.547-.086h.058l.058.029.288-.029.058-.058c.173.058.489.115.834.2a8.607,8.607,0,0,0,.978.144c.058,0,.086,0,.086-.029l.086.029a1.06,1.06,0,0,0,.489.144h.029a.561.561,0,0,0,.23-.029,1.022,1.022,0,0,0,.259-.115,1.861,1.861,0,0,0,.259-.23c.086,0,.173.029.288.029h.144a1.4,1.4,0,0,0,.345-.029,4.127,4.127,0,0,0,.633-.115,3.355,3.355,0,0,0,.748-.288,2.019,2.019,0,0,0,.69-.6,2.393,2.393,0,0,0,.46-.892,3.011,3.011,0,0,0,.144-1.036A10.637,10.637,0,0,0,40.968,83.55Zm-6.933-.4a1.421,1.421,0,0,1-.719.144h0c-.662,0-.949-.288-1.036-1.093-.086-.719.2-1.064.921-1.18h.058c.719,0,.949.978.949,1.093C34.322,82.715,34.293,83,34.035,83.147Zm3.567-1.5a1.512,1.512,0,0,1-1.007.259h-.029c-.892,0-1.237-.432-1.352-1.554-.115-1.007.259-1.5,1.208-1.64h.086c.949,0,1.237,1.381,1.266,1.554C37.918,80.989,37.861,81.421,37.6,81.651ZM35.07,86.887l-.029.086c0,.029.029.058.173.173.086.058.23.144.374.23-.115-.029-.259-.058-.374-.086a4.971,4.971,0,0,0-.892-.144l-.2-1.985,2.532-.575.086,1.295a.089.089,0,0,0-.029.058.105.105,0,0,0,.115.115h.058a1.263,1.263,0,0,1,.259.144.785.785,0,0,1,.288.316.861.861,0,0,1,.115.23.217.217,0,0,1,.029.115v.029a.028.028,0,0,1-.029.029v.029L37.516,87a.1.1,0,0,1-.029.058c-.029.058-.058.086-.086.144a.876.876,0,0,1-.23.23.519.519,0,0,1-.345.086.766.766,0,0,1-.345-.086l-.662-.316a4.542,4.542,0,0,0-.46-.2C35.185,86.829,35.128,86.8,35.07,86.887Zm-3.539.374c0-.115-.029-.2-.029-.288a3.028,3.028,0,0,0-.086-.575c.058-.029.115-.029.173-.058l.23-.086.23-.173a1.251,1.251,0,0,1,.2-.173l.086-.086h0c.029-.029.058-.058.058-.086s.029-.029.029-.058v-.115c0-.058-.029-.086-.058-.086l-.086-.086a1.524,1.524,0,0,0-.288-.173l-.058-.029-.115-.058c-.029,0-.058-.029-.086-.029a.365.365,0,0,0-.173-.029h-.144v-.259l2.215.374.23,2.014a2.485,2.485,0,0,0-.432.029c-.489.058-.978.115-1.438.173-.144.029-.288.058-.4.086H31.56v-.058h0Zm1.036-2.56h0a1.078,1.078,0,0,0,.316-.029h.2c.029.029.086.029.115.058l.2.086h0s.029.029.029,0h.029l.173.086-1.064-.2Z" transform="translate(-29 -78.4)" fill="#fff"/>
          <path id="Path_43322" data-name="Path 43322" d="M52.026,105.671c.086-.057.143-.114.2-.143.029-.029.029-.057.057-.114,0-.057-.029-.114-.086-.114h-.029c-.029,0-.057.029-.086.029l-.029.029c-.029,0-.057.029-.143.057a4.062,4.062,0,0,1-.6.171c-.285.086-.514.114-.6.143-.057,0-.086.029-.114.029-.114.029-.2.029-.2.114l.029.086a.428.428,0,0,0,.285.057h.057a2.885,2.885,0,0,0,.656-.114A1.643,1.643,0,0,0,52.026,105.671Z" transform="translate(-44.234 -97.546)" fill="#fff"/>
        </g>
      </g>
    </g>
  </g>
</svg>
