<svg id="Group_4" data-name="Group 4" xmlns="http://www.w3.org/2000/svg" width="20" height="20" viewBox="0 0 20 20">
  <circle id="Ellipse_2" data-name="Ellipse 2" cx="10" cy="10" r="10" fill="#0675c1"/>
  <path id="Path_2" data-name="Path 2" d="M45.68,7.89c-.09.24-.19.48-.29.72-.06.17-.06.17-.24.19a3.644,3.644,0,0,1-2.55-.53,2.112,2.112,0,0,1-.31-.21.763.763,0,0,0-.11-.08,3.9,3.9,0,0,1-.59-.63c-.02-.01-.03-.03-.05-.05a.139.139,0,0,1-.01-.14.031.031,0,0,1,.01-.02c.1-.24.19-.48.29-.73l.03-.06c.22.18.44.37.66.55.32.27.65.54.97.8a.2.2,0,0,0,.08.04c.68.04,1.35.09,2.03.14A.22.22,0,0,1,45.68,7.89Z" transform="translate(-31.5)" fill="#fff"/>
  <path id="Path_3" data-name="Path 3" d="M47.17,7.87l-.44-.03c-.36-.02-.72-.05-1.07-.07h-.01l-.41-.03-.12-.01c-.5-.03-.99-.07-1.49-.1a.247.247,0,0,1-.09-.04c-.26-.22-.52-.43-.78-.65l-.93-.77c-.32-.27-.65-.54-.97-.81l-.03-.03V5.32l.51.03c.47.04.94.07,1.4.1l1.61.12a.188.188,0,0,1,.09.04c.89.74,1.78,1.47,2.68,2.21Z" transform="translate(-31.5)" fill="#fff"/>
  <path id="Path_4" data-name="Path 4" d="M42.191,10.821c.044.005.1.012.152.015a.155.155,0,0,0,.167-.118c.012-.037.02-.074.031-.111a.265.265,0,0,1,.387-.166c.054.028.108.056.16.088a.179.179,0,0,0,.2,0c.051-.031.1-.06.159-.087a.264.264,0,0,1,.381.158c.013.04.022.082.036.123a.153.153,0,0,0,.162.115c.058,0,.117-.013.175-.015a.264.264,0,0,1,.266.326c-.012.052-.025.1-.04.157a.166.166,0,0,0,.049.178c.054.054.109.107.162.162a.265.265,0,0,1,0,.382c-.052.053-.1.106-.158.157a.172.172,0,0,0-.053.19c.015.047.025.1.037.144a.264.264,0,0,1-.277.332c-.054,0-.108-.012-.161-.014a.152.152,0,0,0-.163.114c-.014.043-.024.087-.038.129a.262.262,0,0,1-.372.155,1.657,1.657,0,0,1-.166-.09.184.184,0,0,0-.209,0c-.052.032-.106.061-.16.088a.264.264,0,0,1-.379-.163c-.009-.028-.017-.056-.025-.084-.035-.124-.083-.158-.209-.149-.047,0-.094.013-.141.013a.26.26,0,0,1-.264-.309c.01-.057.027-.113.041-.17a.174.174,0,0,0-.051-.184c-.056-.053-.11-.107-.163-.163a.262.262,0,0,1,0-.376c.053-.056.107-.11.162-.163a.173.173,0,0,0,.052-.184c-.013-.05-.028-.1-.038-.15A.265.265,0,0,1,42.191,10.821Zm2.02,1.017a1.024,1.024,0,1,0-1.031,1.021A1.026,1.026,0,0,0,44.211,11.838Z" transform="translate(-31.5)" fill="#fff"/>
  <path id="Path_5" data-name="Path 5" d="M42.419,14.018c0-.178,0-.356,0-.534a.124.124,0,0,1,.043-.1.136.136,0,0,1,.1.021.428.428,0,0,0,.433.014.337.337,0,0,1,.376,0,.413.413,0,0,0,.448-.026c.068-.045.131-.012.134.072,0,.065,0,.13,0,.2q0,.432,0,.865c0,.059-.005.115-.066.143a.135.135,0,0,1-.147-.035c-.141-.106-.284-.208-.428-.309a.209.209,0,0,0-.258,0q-.223.157-.443.321a.123.123,0,0,1-.131.023.11.11,0,0,1-.066-.115C42.42,14.378,42.419,14.2,42.419,14.018Z" transform="translate(-31.5)" fill="#fff"/>
  <rect id="Rectangle_1" data-name="Rectangle 1" width="6.334" height="0.21" transform="translate(5.542 9.554)" fill="#fff"/>
  <rect id="Rectangle_2" data-name="Rectangle 2" width="6.336" height="0.216" transform="translate(5.547 8.805)" fill="#fff"/>
  <path id="Path_6" data-name="Path 6" d="M42.173,8.275H37.042V8.056h4.845a.008.008,0,0,0,.008.009,1.315,1.315,0,0,0,.11.084C42.055,8.191,42.114,8.233,42.173,8.275Z" transform="translate(-31.5)" fill="#fff"/>
  <rect id="Rectangle_3" data-name="Rectangle 3" width="4.689" height="0.213" transform="translate(5.547 11.049)" fill="#fff"/>
  <rect id="Rectangle_4" data-name="Rectangle 4" width="4.329" height="0.21" transform="translate(5.547 11.797)" fill="#fff"/>
  <path id="Path_7" data-name="Path 7" d="M43.189,10.944a.892.892,0,1,1-.892.886A.894.894,0,0,1,43.189,10.944Z" transform="translate(-31.5)" fill="#fff"/>
  <path id="Path_8" data-name="Path 8" d="M41.737,12.926h-5.91V7.139h5.488a.222.222,0,0,0,.028.215h-5.3v5.359H41.7A.173.173,0,0,0,41.737,12.926Z" transform="translate(-31.5)" fill="#fff"/>
  <path id="Path_9" data-name="Path 9" d="M46.063,8.446c-.12.3-.24.6-.357.894l.115.044-.37.909-.091.225-.421-.169.449-1.134.115.045.534-1.35.043,0,.084.005h0l.07,0,.037,0Z" transform="translate(-31.5)" fill="#fff"/>
  <path id="Path_10" data-name="Path 10" d="M44.6,10.773l-.217-.137,0-1.635H44.6Z" transform="translate(-31.5)" fill="#fff"/>
  <rect id="Rectangle_5" data-name="Rectangle 5" width="5.283" height="0.219" transform="translate(5.542 10.302)" fill="#fff"/>
</svg>
