<?xml version="1.0" encoding="utf-8"?>
<!-- Generator: Adobe Illustrator 26.3.0, SVG Export Plug-In . SVG Version: 6.00 Build 0)  -->
<svg version="1.1" id="Layer_1" xmlns="http://www.w3.org/2000/svg" xmlns:xlink="http://www.w3.org/1999/xlink" x="0px" y="0px"
	 viewBox="0 0 23 23" style="enable-background:new 0 0 23 23;" xml:space="preserve">
<style type="text/css">
	.st0{fill:#0675C1;}
	.st1{fill:#ECB365;}
	.st2{fill:#FFFFFF;}
	.st3{fill:#151D3B;}
</style>
<circle class="st0" cx="11.5" cy="11.5" r="11.5"/>
<circle class="st1" cx="41.5" cy="-15.3" r="10"/>
<path class="st2" d="M45.7-17.4c-0.1,0.2-0.2,0.5-0.3,0.7c-0.1,0.2-0.1,0.2-0.2,0.2c-0.9,0.1-1.8,0-2.6-0.5
	c-0.1-0.1-0.2-0.1-0.3-0.2c0,0-0.1-0.1-0.1-0.1c-0.2-0.2-0.4-0.4-0.6-0.6c0,0,0,0-0.1,0c0,0,0-0.1,0-0.1c0,0,0,0,0,0
	c0.1-0.2,0.2-0.5,0.3-0.7c0,0,0,0,0-0.1c0.2,0.2,0.4,0.4,0.7,0.5c0.3,0.3,0.6,0.5,1,0.8c0,0,0,0,0.1,0
	C44.2-17.5,44.9-17.5,45.7-17.4C45.6-17.4,45.7-17.4,45.7-17.4z"/>
<path class="st2" d="M47.2-17.5c-0.1,0-0.3,0-0.4,0c-0.4,0-0.7,0-1.1-0.1c0,0,0,0,0,0c-0.1,0-0.3,0-0.4,0l-0.1,0
	c-0.5,0-1-0.1-1.5-0.1c0,0-0.1,0-0.1,0c-0.3-0.2-0.5-0.4-0.8-0.6l-0.9-0.8c-0.3-0.3-0.7-0.5-1-0.8c0,0,0,0,0,0v0c0.2,0,0.3,0,0.5,0
	c0.5,0,0.9,0.1,1.4,0.1c0.5,0,1.1,0.1,1.6,0.1c0,0,0.1,0,0.1,0C45.3-19,46.2-18.2,47.2-17.5C47.1-17.5,47.2-17.5,47.2-17.5z"/>
<path class="st2" d="M42.2-14.5c0,0,0.1,0,0.2,0c0.1,0,0.1,0,0.2-0.1c0,0,0-0.1,0-0.1c0.1-0.2,0.2-0.2,0.4-0.2
	c0.1,0,0.1,0.1,0.2,0.1c0.1,0,0.1,0,0.2,0c0.1,0,0.1-0.1,0.2-0.1c0.2-0.1,0.3,0,0.4,0.2c0,0,0,0.1,0,0.1c0,0.1,0.1,0.1,0.2,0.1
	c0.1,0,0.1,0,0.2,0c0.2,0,0.3,0.2,0.3,0.3c0,0.1,0,0.1,0,0.2c0,0.1,0,0.1,0,0.2c0.1,0.1,0.1,0.1,0.2,0.2c0.1,0.1,0.1,0.3,0,0.4
	c-0.1,0.1-0.1,0.1-0.2,0.2c-0.1,0.1-0.1,0.1-0.1,0.2c0,0,0,0.1,0,0.1c0,0.2-0.1,0.3-0.3,0.3c-0.1,0-0.1,0-0.2,0
	c-0.1,0-0.1,0-0.2,0.1c0,0,0,0.1,0,0.1c-0.1,0.2-0.2,0.2-0.4,0.2c-0.1,0-0.1-0.1-0.2-0.1c-0.1,0-0.1,0-0.2,0c-0.1,0-0.1,0.1-0.2,0.1
	c-0.2,0.1-0.3,0-0.4-0.2c0,0,0-0.1,0-0.1c0-0.1-0.1-0.2-0.2-0.1c0,0-0.1,0-0.1,0c-0.2,0-0.3-0.1-0.3-0.3c0-0.1,0-0.1,0-0.2
	c0-0.1,0-0.1-0.1-0.2c-0.1-0.1-0.1-0.1-0.2-0.2c-0.1-0.1-0.1-0.3,0-0.4c0.1-0.1,0.1-0.1,0.2-0.2c0.1-0.1,0.1-0.1,0.1-0.2
	c0,0,0-0.1,0-0.2C41.9-14.4,42-14.5,42.2-14.5z M44.2-13.5c0-0.6-0.5-1-1-1c-0.6,0-1,0.5-1,1c0,0.6,0.5,1,1,1
	C43.7-12.5,44.2-12.9,44.2-13.5z"/>
<path class="st2" d="M42.4-11.3c0-0.2,0-0.4,0-0.5c0,0,0-0.1,0-0.1c0,0,0.1,0,0.1,0c0.1,0.1,0.3,0.1,0.4,0c0.1-0.1,0.2-0.1,0.4,0
	c0.1,0.1,0.3,0.1,0.4,0c0.1,0,0.1,0,0.1,0.1c0,0.1,0,0.1,0,0.2c0,0.3,0,0.6,0,0.9c0,0.1,0,0.1-0.1,0.1c-0.1,0-0.1,0-0.1,0
	c-0.1-0.1-0.3-0.2-0.4-0.3c-0.1-0.1-0.2-0.1-0.3,0c-0.1,0.1-0.3,0.2-0.4,0.3c0,0-0.1,0-0.1,0c0,0-0.1-0.1-0.1-0.1
	C42.4-11,42.4-11.1,42.4-11.3z"/>
<rect x="37" y="-15.8" class="st2" width="6.3" height="0.2"/>
<rect x="37" y="-16.5" class="st2" width="6.3" height="0.2"/>
<path class="st2" d="M42.2-17.1H37v-0.2h4.8c0,0,0,0,0,0c0,0,0.1,0.1,0.1,0.1C42.1-17.1,42.1-17.1,42.2-17.1z"/>
<rect x="37" y="-14.3" class="st2" width="4.7" height="0.2"/>
<rect x="37" y="-13.5" class="st2" width="4.3" height="0.2"/>
<path class="st2" d="M43.2-14.4c0.5,0,0.9,0.4,0.9,0.9c0,0.5-0.4,0.9-0.9,0.9c-0.5,0-0.9-0.4-0.9-0.9C42.3-14,42.7-14.4,43.2-14.4z"
	/>
<path class="st2" d="M41.7-12.4h-5.9v-5.8h5.5c0,0.1,0,0.1,0,0.2H36v5.4h0.1c1.8,0,3.5,0,5.3,0h0.2C41.7-12.6,41.6-12.5,41.7-12.4z"
	/>
<path class="st2" d="M46.1-16.9c-0.1,0.3-0.2,0.6-0.4,0.9l0.1,0L45.5-15l-0.1,0.2L44.9-15l0.4-1.1l0.1,0l0.5-1.4l0,0l0.1,0h0l0.1,0
	l0,0L46.1-16.9z"/>
<polygon class="st2" points="44.6,-14.6 44.4,-14.7 44.4,-16.3 44.6,-16.3 "/>
<rect x="37" y="-15" class="st2" width="5.3" height="0.2"/>
<g>
	<path class="st2" d="M-6.9,33.3c0,0.9-0.3,1.8-0.9,2.5c-0.9,1-1.9,1.5-3,1.5c-0.5,0-1-0.1-1.3-0.3c0,0-0.1,0-0.1-0.1
		c0,0-0.1,0-0.1-0.1c-0.8-0.6-1.1-1.4-1.1-1.9c0,0,0,0,0,0v-0.1c0-0.5,0-2.7,0-4.5h-1.8v-1.3h1.8c0-0.5,0-0.8,0-0.8
		c0-0.1-0.1-0.6-0.8-0.5c-0.3,0-0.6,0.2-0.9,0.4l-1.1-1.7c0.7-0.5,1.4-0.7,2.1-0.7c0.5,0,1,0.1,1.3,0.3c0,0,0.1,0,0.1,0.1
		c0,0,0.1,0,0.1,0.1c0.9,0.6,1.1,1.4,1.1,1.9c0,0,0,0,0,0v0c0,0,0,0,0,0v0.9h2v1.3h-2v4.1c0,0,0,0.2,0,0.2c0,0.1,0.1,0.6,0.8,0.5
		c0.4,0,0.9-0.3,1.3-0.7c0.1-0.1,0.2-0.3,0.3-0.6c-0.6-0.1-1.1-0.5-1.5-1c-0.1-0.2-0.2-0.5-0.2-0.7c0-0.3,0.1-0.6,0.3-0.9
		c0.4-0.5,0.9-0.7,1.4-0.7c0.1,0,0.3,0,0.4,0c0.8,0.3,1.4,0.9,1.6,1.9C-6.9,32.8-6.9,33-6.9,33.3z"/>
</g>
<circle class="st3" cx="11.5" cy="-15.3" r="10"/>
<path class="st2" d="M9.9-18c0,0,0,0.3,0,0.7H8.5v1.1h1.5c0,1.4,0,3.3,0,3.7v0c0,0,0,0,0,0c0,0.4,0.2,1.1,0.9,1.5
	c0,0,0.1,0.1,0.2,0.1c0.3,0.2,0.7,0.3,1.1,0.3c0.9,0,1.7-0.4,2.4-1.2c0.5-0.6,0.8-1.3,0.8-2c0-0.2,0-0.4,0-0.6
	c-0.2-0.8-0.6-1.3-1.3-1.5c-0.1,0-0.2,0-0.3,0c-0.4,0-0.8,0.2-1.1,0.6c-0.2,0.2-0.2,0.5-0.2,0.7c0,0.2,0.1,0.4,0.1,0.6
	c0.3,0.5,0.7,0.7,1.2,0.8c-0.1,0.2-0.2,0.3-0.3,0.5c-0.3,0.4-0.7,0.6-1.1,0.6c-0.5,0.1-0.6-0.3-0.6-0.4s0-0.2,0-0.2v-3.4h1.7v-1.1
	h-1.7v-0.8c0-0.4-0.2-1.1-0.9-1.5l-0.2-0.1C10.2-19.9,9.8-20,9.4-20c-0.6,0-1.2,0.2-1.7,0.6l0.9,1.4c0,0,0.5-0.3,0.7-0.3
	c0.2,0,0.3,0,0.5,0.1C9.8-18.3,9.9-18.1,9.9-18z"/>
<g>
	<rect x="-18.1" y="-23.4" class="st2" width="4.3" height="1"/>
	<path class="st2" d="M-12-20.3c0,0.7-0.2,1.3-0.7,1.8c-0.7,0.7-1.4,1.1-2.2,1.1c-0.4,0-0.7-0.1-1-0.2c0,0,0,0-0.1,0
		c0,0-0.1,0-0.1,0c-0.6-0.4-0.8-1-0.8-1.4c0,0,0,0,0,0c0,0,0,0,0,0c0,0,0,0,0,0c0-0.6,0-4.9,0-4.9c0-0.1-0.1-0.4-0.6-0.4
		c-0.2,0-0.4,0.1-0.7,0.3l-0.8-1.2c0.5-0.3,1-0.5,1.5-0.5c0.4,0,0.7,0.1,1,0.2c0,0,0,0,0.1,0c0,0,0.1,0,0.1,0c0.6,0.4,0.8,1,0.8,1.4
		c0,0,0,0,0,0c0,0,0,0,0,0c0,0,0,0,0,0v0.1l0,4.6c0,0,0,0.1,0,0.2s0.1,0.4,0.6,0.4c0.3,0,0.6-0.2,1-0.5c0.1-0.1,0.2-0.2,0.2-0.4
		c-0.5-0.1-0.8-0.4-1.1-0.8c-0.1-0.2-0.1-0.3-0.1-0.5c0-0.2,0.1-0.5,0.2-0.7c0.3-0.4,0.6-0.5,1-0.5c0.1,0,0.2,0,0.3,0
		c0.6,0.2,1,0.7,1.2,1.4C-12-20.7-12-20.5-12-20.3z"/>
</g>
<path class="st2" d="M8.6-18.1"/>
<g>
	<path class="st2" d="M11.5,17.3c-1.8,0-3.6,0-5.4,0c-0.3,0-0.4-0.1-0.4-0.4c0-2.1,0-4.3,0-6.4c0-0.1,0-0.2,0.1-0.3
		c0.3-0.8,0.7-1.6,1-2.4c0-0.1,0-0.1,0-0.2c0-0.5,0-0.9,0-1.4c0-0.3,0.1-0.4,0.4-0.4c2.9,0,5.8,0,8.7,0c0.3,0,0.4,0.1,0.4,0.4
		c0,0.5,0,1,0,1.4c0,0.1,0,0.1,0,0.2c0.3,0.8,0.7,1.6,1,2.4c0,0.1,0.1,0.2,0.1,0.3c0,2.1,0,4.3,0,6.4c0,0.3-0.1,0.4-0.4,0.4
		C15.1,17.3,13.3,17.3,11.5,17.3z M16.7,10.9c-0.1,0-0.1,0-0.2,0.1c-1.6,0.7-3.3,1.4-4.9,2.1c-0.2,0.1-0.3,0.1-0.5,0
		C9.5,12.4,8,11.7,6.5,11c0,0-0.1,0-0.1-0.1c0,1.9,0,3.8,0,5.7c3.4,0,6.9,0,10.3,0C16.7,14.7,16.7,12.8,16.7,10.9z M7.4,6.4
		C7.4,6.4,7.4,6.5,7.4,6.4c0,1.5,0,2.8,0,4.2c0,0.1,0,0.1,0.1,0.1c1.2,0.6,2.5,1.1,3.7,1.7c0.1,0,0.1,0,0.2,0c1.3-0.6,2.7-1.2,4-1.7
		c0.1,0,0.1-0.1,0.1-0.2c0-1.3,0-2.6,0-4c0,0,0-0.1,0-0.1C12.8,6.4,10.1,6.4,7.4,6.4z M6.7,10.3c0-0.3,0-0.6,0-0.8c0,0,0,0,0,0
		c-0.1,0.2-0.2,0.5-0.3,0.7C6.5,10.2,6.6,10.3,6.7,10.3z M16.6,10.2c-0.1-0.2-0.2-0.4-0.3-0.7c0,0,0,0,0,0c0,0.3,0,0.5,0,0.8
		C16.4,10.3,16.5,10.2,16.6,10.2z"/>
	<path class="st2" d="M13.6,9.4c0,1.1-0.9,2.1-2.1,2.1c-1.2,0-2.1-0.9-2.2-2.1c0-1.2,0.9-2.1,2.1-2.1C12.6,7.3,13.6,8.2,13.6,9.4z
		 M12.9,9.4c0-0.8-0.6-1.4-1.4-1.4c-0.8,0-1.4,0.6-1.4,1.4c0,0.8,0.6,1.4,1.4,1.4C12.3,10.9,12.9,10.2,12.9,9.4z"/>
	<path class="st2" d="M11.3,9.4C11.5,9.2,11.8,9,12,8.8c0.2-0.2,0.5-0.1,0.6,0.2c0,0.1,0,0.2-0.1,0.3c-0.3,0.3-0.7,0.6-1,0.8
		c-0.2,0.1-0.3,0.1-0.5,0c-0.2-0.2-0.3-0.3-0.5-0.5c-0.2-0.2-0.2-0.4,0-0.5c0.1-0.1,0.4-0.1,0.5,0C11.1,9.2,11.2,9.3,11.3,9.4z"/>
</g>
<g>
</g>
<g>
</g>
<g>
</g>
<g>
</g>
<g>
</g>
<g>
</g>
</svg>
