<svg xmlns="http://www.w3.org/2000/svg" xmlns:xlink="http://www.w3.org/1999/xlink" width="21.465" height="21.465" viewBox="0 0 21.465 21.465">
  <defs>
    <clipPath id="clip-path">
      <rect width="21.465" height="21.465" fill="none"/>
    </clipPath>
  </defs>
  <g id="Group_2473" data-name="Group 2473" transform="translate(-136 -882)">
    <g id="Group_2243" data-name="Group 2243" transform="translate(-5 411)">
      <g id="_001-facebook" data-name="001-facebook" transform="translate(141 471)" clip-path="url(#clip-path)">
        <ellipse id="Ellipse_125" data-name="Ellipse 125" cx="10.733" cy="10.733" rx="10.733" ry="10.733" fill="#0675c1"/>
      </g>
    </g>
    <g id="link" transform="translate(141.961 888)">
      <g id="Group_2248" data-name="Group 2248" transform="translate(0.039 3.119)">
        <g id="Group_2247" data-name="Group 2247">
          <path id="Path_43323" data-name="Path 43323" d="M5.849,165.264a2.159,2.159,0,0,0-.373-.3,2.222,2.222,0,0,0-2.769.3l-2.018,2.02a2.222,2.222,0,0,0,3.14,3.144l1.666-1.666a.159.159,0,0,0-.113-.271H5.319a2.671,2.671,0,0,1-1.016-.2.159.159,0,0,0-.173.035l-1.2,1.2a.953.953,0,0,1-1.347-1.347l2.026-2.025a.952.952,0,0,1,1.346,0,.651.651,0,0,0,.892,0,.629.629,0,0,0,0-.892Z" transform="translate(-0.039 -164.614)" fill="#e9e9f0"/>
        </g>
      </g>
      <g id="Group_2250" data-name="Group 2250" transform="translate(3.619 0)">
        <g id="Group_2249" data-name="Group 2249" transform="translate(0 0)">
          <path id="Path_43324" data-name="Path 43324" d="M194.849.651a2.222,2.222,0,0,0-3.142,0l-1.665,1.663a.159.159,0,0,0,.116.271h.059a2.666,2.666,0,0,1,1.014.2.159.159,0,0,0,.173-.035L192.6,1.555A.953.953,0,1,1,193.946,2.9L192.458,4.39l-.013.014-.52.517a.952.952,0,0,1-1.346,0,.651.651,0,0,0-.892,0,.633.633,0,0,0,0,.895,2.2,2.2,0,0,0,.635.444c.033.016.067.029.1.043s.068.025.1.038.068.024.1.033l.094.025c.063.016.127.029.192.04a2.208,2.208,0,0,0,.236.022h.121l.1-.011c.035,0,.071-.01.113-.01h.054l.11-.016.051-.01.092-.019h.017a2.221,2.221,0,0,0,1.03-.584l2.02-2.02A2.222,2.222,0,0,0,194.849.651Z" transform="translate(-189.502 0)" fill="#e9e9f0"/>
        </g>
      </g>
    </g>
  </g>
</svg>
