<svg xmlns="http://www.w3.org/2000/svg" xmlns:xlink="http://www.w3.org/1999/xlink" width="21.465" height="21.465" viewBox="0 0 21.465 21.465">
  <defs>
    <clipPath id="clip-path">
      <rect width="21.465" height="21.465" fill="none"/>
    </clipPath>
  </defs>
  <g id="Group_2470" data-name="Group 2470" transform="translate(-156 -651)">
    <g id="Group_2239" data-name="Group 2239" transform="translate(15 180)">
      <g id="_001-facebook" data-name="001-facebook" transform="translate(141 471)" clip-path="url(#clip-path)">
        <ellipse id="Ellipse_125" data-name="Ellipse 125" cx="10.733" cy="10.733" rx="10.733" ry="10.733" fill="#0675c1"/>
      </g>
    </g>
    <g id="help" transform="translate(162 657)">
      <path id="Path_43316" data-name="Path 43316" d="M204.6,201.475a3.138,3.138,0,0,0-1.721-2.795,4.268,4.268,0,0,1-4.2,4.2,3.13,3.13,0,0,0,4.387,1.286l1.523.421-.421-1.523a3.118,3.118,0,0,0,.435-1.592Zm0,0" transform="translate(-195.023 -195.024)" fill="#e9e9f0"/>
      <path id="Path_43317" data-name="Path 43317" d="M7.392,3.7A3.7,3.7,0,1,0,.513,5.575l-.5,1.8,1.8-.5A3.7,3.7,0,0,0,7.392,3.7Zm-4.263-.86H2.562a1.134,1.134,0,1,1,1.9.837l-.482.441v.442H3.412V3.864l.666-.61a.561.561,0,0,0,.185-.419.567.567,0,1,0-1.134,0Zm.284,2.288H3.98v.567H3.412Zm0,0" transform="translate(0)" fill="#e9e9f0"/>
    </g>
  </g>
</svg>
