<svg xmlns="http://www.w3.org/2000/svg" xmlns:xlink="http://www.w3.org/1999/xlink" width="21.465" height="21.465" viewBox="0 0 21.465 21.465">
  <defs>
    <clipPath id="clip-path">
      <rect width="21.465" height="21.465" fill="none"/>
    </clipPath>
  </defs>
  <g id="_005-google-plus" data-name="005-google-plus" clip-path="url(#clip-path)">
    <g id="Group_690" data-name="Group 690">
      <ellipse id="XMLID_30_" cx="10.733" cy="10.733" rx="10.733" ry="10.733" fill="#dc4e41"/>
    </g>
    <g id="Group_692" data-name="Group 692" transform="translate(3.734 6.781)">
      <path id="Path_43119" data-name="Path 43119" d="M19.52,39.877A4.423,4.423,0,0,0,22.5,44.061a4.365,4.365,0,0,0,4.771-1.272,5,5,0,0,0,.9-3.539c-1.411-.013-2.823-.008-4.232-.006,0,.5,0,1,0,1.506.845.023,1.69.013,2.535.03a2.445,2.445,0,0,1-1.437,1.675A2.8,2.8,0,1,1,23.156,37.2a3.108,3.108,0,0,1,2.616.511c.393-.368.761-.761,1.122-1.158a4.449,4.449,0,0,0-7.374,3.328Z" transform="translate(-19.517 -35.446)" fill="#dc4e41"/>
      <path id="Path_43120" data-name="Path 43120" d="M73.716,48.668c0,.421-.009.843-.011,1.263-.423,0-.843.006-1.263.008V51.2c.421,0,.843,0,1.263.009,0,.421,0,.841.008,1.263.418,0,.839,0,1.259,0,0-.423,0-.843.009-1.266l1.263-.006V49.94c-.42,0-.843,0-1.263-.008,0-.421-.006-.843-.009-1.263Z" transform="translate(-62.316 -46.138)" fill="#dc4e41"/>
      <g id="Group_691" data-name="Group 691">
        <path id="Path_43121" data-name="Path 43121" d="M19.52,39.876a4.449,4.449,0,0,1,7.374-3.328c-.361.4-.729.79-1.122,1.158a3.108,3.108,0,0,0-2.616-.511,2.8,2.8,0,1,0,1.883,5.259,2.445,2.445,0,0,0,1.437-1.675c-.845-.017-1.69-.006-2.535-.03,0-.5,0-1,0-1.506,1.409,0,2.821-.006,4.232.006a5,5,0,0,1-.9,3.539A4.365,4.365,0,0,1,22.5,44.06,4.423,4.423,0,0,1,19.52,39.876Z" transform="translate(-19.517 -35.445)" fill="#fff"/>
        <path id="Path_43122" data-name="Path 43122" d="M73.716,48.668h1.257c0,.421.006.843.009,1.263.42,0,.843.006,1.263.008V51.2l-1.263.006c0,.423-.006.843-.009,1.266-.42,0-.841,0-1.259,0,0-.423,0-.843-.008-1.263-.42,0-.843-.006-1.263-.009V49.94c.421,0,.841,0,1.263-.008C73.708,49.511,73.712,49.089,73.716,48.668Z" transform="translate(-62.316 -46.138)" fill="#fff"/>
      </g>
    </g>
  </g>
</svg>
