<?xml version="1.0" encoding="UTF-8"?><svg id="Group_4" xmlns="http://www.w3.org/2000/svg" viewBox="0 0 20 20"><circle id="Ellipse_2" cx="10" cy="10" r="10" fill="#0675c1"/><g><path d="M12.08,7.97c-.03-.24-.21-.42-.45-.44l-.66-.06c-.36-.03-.53-.45-.3-.72l.42-.51c.15-.18,.15-.44,0-.62-.21-.25-.44-.49-.7-.69-.19-.15-.44-.14-.62,0l-.5,.42c-.27,.23-.69,.06-.73-.3l-.06-.66c-.02-.24-.2-.42-.44-.44-.33-.03-.65-.03-.98,0-.24,.03-.42,.21-.44,.45l-.06,.66c-.03,.36-.45,.53-.72,.3l-.51-.42c-.18-.15-.44-.15-.62,0-.25,.21-.49,.44-.69,.7-.15,.19-.14,.44,0,.62l.42,.5c.23,.27,.06,.69-.3,.73l-.66,.06c-.24,.02-.42,.2-.44,.44-.03,.33-.03,.65,0,.98,.03,.24,.21,.42,.45,.44l.66,.06c.36,.03,.53,.45,.3,.72l-.42,.51c-.15,.18-.15,.44,0,.62,.21,.25,.44,.49,.7,.69,.19,.15,.44,.14,.62,0l.5-.42c.27-.23,.69-.06,.73,.3l.06,.66c.02,.24,.2,.42,.44,.44,.33,.03,.65,.03,.98,0,.24-.03,.42-.21,.44-.45l.06-.66c.03-.36,.45-.53,.72-.3l.51,.42c.18,.15,.44,.15,.62,0,.25-.21,.49-.44,.69-.7,.15-.19,.14-.44,0-.62l-.42-.5c-.23-.27-.06-.69,.3-.73l.66-.06c.24-.02,.42-.2,.44-.44,.03-.33,.03-.65,0-.98Zm-4.51,2.54c-1.12,0-2.04-.91-2.04-2.04s.91-2.04,2.04-2.04,2.04,.91,2.04,2.04-.91,2.04-2.04,2.04Z" fill="#fff" fill-rule="evenodd"/><path d="M16.95,11.91c-.02-.14-.13-.25-.27-.26l-.39-.03c-.21-.02-.32-.27-.18-.44l.25-.3c.09-.11,.09-.26,0-.38-.12-.15-.26-.29-.42-.41-.11-.09-.27-.09-.38,0l-.3,.25c-.16,.14-.42,.04-.44-.18l-.04-.39c-.01-.14-.12-.25-.26-.27h0c-.2-.02-.39-.02-.59,0-.14,.02-.25,.13-.26,.27l-.03,.39c-.02,.21-.27,.32-.44,.18l-.3-.25c-.11-.09-.26-.09-.38,0-.15,.12-.29,.26-.41,.42-.09,.11-.09,.27,0,.38l.25,.3c.14,.16,.04,.42-.18,.44l-.39,.04c-.14,.01-.25,.12-.27,.26-.02,.2-.02,.39,0,.59,.02,.14,.13,.25,.27,.26l.39,.03c.21,.02,.32,.27,.18,.44l-.25,.3c-.09,.11-.09,.26,0,.38,.12,.15,.26,.29,.42,.41,.11,.09,.27,.09,.38,0l.3-.25c.16-.14,.42-.04,.44,.18l.04,.39c.01,.14,.12,.25,.26,.27,.2,.02,.39,.02,.59,0,.14-.02,.25-.13,.26-.27l.03-.39c.02-.21,.27-.32,.44-.18l.3,.25c.11,.09,.26,.09,.38,0,.15-.12,.29-.26,.41-.42,.09-.11,.09-.27,0-.38l-.25-.3c-.14-.16-.04-.42,.18-.44l.39-.04c.14-.01,.25-.12,.27-.26,.02-.2,.02-.39,0-.59Zm-2.71,1.53c-.68,0-1.22-.55-1.22-1.22s.55-1.22,1.22-1.22,1.22,.55,1.22,1.22-.55,1.22-1.22,1.22Z" fill="#fff" fill-rule="evenodd"/><path d="M11.37,14.36c0-.08-.07-.14-.15-.15l-.22-.02c-.12-.01-.18-.15-.1-.24l.14-.17c.05-.06,.05-.15,0-.21-.07-.09-.15-.16-.23-.23-.06-.05-.15-.05-.21,0l-.17,.14c-.09,.08-.23,.02-.24-.1l-.02-.22c0-.08-.07-.14-.15-.15h0c-.11-.01-.22-.01-.33,0-.08,0-.14,.07-.15,.15l-.02,.22c-.01,.12-.15,.18-.24,.1l-.17-.14c-.06-.05-.15-.05-.21,0-.09,.07-.16,.15-.23,.23-.05,.06-.05,.15,0,.21l.14,.17c.08,.09,.02,.23-.1,.24l-.22,.02c-.08,0-.14,.07-.15,.15-.01,.11-.01,.22,0,.33,0,.08,.07,.14,.15,.15l.22,.02c.12,.01,.18,.15,.1,.24l-.14,.17c-.05,.06-.05,.15,0,.21,.07,.09,.15,.16,.23,.23,.06,.05,.15,.05,.21,0l.17-.14c.09-.08,.23-.02,.24,.1l.02,.22c0,.08,.07,.14,.15,.15,.11,.01,.22,.01,.33,0,.08,0,.14-.07,.15-.15l.02-.22c.01-.12,.15-.18,.24-.1l.17,.14c.06,.05,.15,.05,.21,0,.09-.07,.16-.15,.23-.23,.05-.06,.05-.15,0-.21l-.14-.17c-.08-.09-.02-.23,.1-.24l.22-.02c.08,0,.14-.07,.15-.15,.01-.11,.01-.22,0-.33Zm-1.52,.86c-.38,0-.68-.31-.68-.68s.31-.68,.68-.68,.68,.31,.68,.68-.31,.68-.68,.68Z" fill="#fff" fill-rule="evenodd"/></g></svg>