<svg id="instagram_1_" data-name="instagram (1)" xmlns="http://www.w3.org/2000/svg" xmlns:xlink="http://www.w3.org/1999/xlink" width="21.47" height="21.037" viewBox="0 0 21.47 21.037">
  <defs>
    <linearGradient id="linear-gradient" x1="0.5" x2="0.5" y2="1" gradientUnits="objectBoundingBox">
      <stop offset="0" stop-color="#e09b3d"/>
      <stop offset="0.3" stop-color="#c74c4d"/>
      <stop offset="0.6" stop-color="#c21975"/>
      <stop offset="1" stop-color="#7024c4"/>
    </linearGradient>
  </defs>
  <ellipse id="Ellipse_243" data-name="Ellipse 243" cx="10.735" cy="10.518" rx="10.735" ry="10.518" fill="url(#linear-gradient)"/>
  <g id="Group_3333" data-name="Group 3333" transform="translate(4.714 4.498)">
    <path id="Path_44256" data-name="Path 44256" d="M117.922,109.468h-4.867a3.591,3.591,0,0,0-3.587,3.587v4.867a3.591,3.591,0,0,0,3.587,3.587h4.867a3.591,3.591,0,0,0,3.587-3.587v-4.867a3.591,3.591,0,0,0-3.587-3.587Zm2.376,8.454a2.376,2.376,0,0,1-2.376,2.376h-4.867a2.376,2.376,0,0,1-2.376-2.376v-4.867a2.376,2.376,0,0,1,2.376-2.376h4.867a2.376,2.376,0,0,1,2.376,2.376Z" transform="translate(-109.468 -109.468)" fill="#fff"/>
    <path id="Path_44257" data-name="Path 44257" d="M183.316,180.2a3.114,3.114,0,1,0,3.114,3.114,3.118,3.118,0,0,0-3.114-3.114Zm0,5.017a1.9,1.9,0,1,1,1.9-1.9,1.9,1.9,0,0,1-1.9,1.9Z" transform="translate(-177.296 -177.296)" fill="#fff"/>
  </g>
</svg>
