<svg xmlns="http://www.w3.org/2000/svg" width="21.465" height="21.465" viewBox="0 0 21.465 21.465">
  <g id="Group_2231" data-name="Group 2231" transform="translate(-135 -412)">
    <g id="_001-facebook" data-name="001-facebook" transform="translate(135 412)">
      <ellipse id="Ellipse_126" data-name="Ellipse 126" cx="10.733" cy="10.733" rx="10.733" ry="10.733" fill="#f36d73"/>
    </g>
    <g id="messenger" transform="translate(141 418)">
      <path id="Path_42997" data-name="Path 42997" d="M4.815,0a4.7,4.7,0,0,0-4.79,4.59,4.5,4.5,0,0,0,1.6,3.417V9.381a.2.2,0,0,0,.305.169l1.112-.695a4.942,4.942,0,0,0,1.775.326A4.7,4.7,0,0,0,9.6,4.591,4.7,4.7,0,0,0,4.815,0Z" transform="translate(-0.025 0)" fill="#ebebeb"/>
    </g>
  </g>
</svg>
