<?xml version="1.0" encoding="UTF-8"?><svg id="Layer_1" xmlns="http://www.w3.org/2000/svg" viewBox="0 0 99.18 99.18"><circle cx="49.59" cy="49.59" r="49.59" fill="#0675c1"/><g><path d="M20.96,75.86c-1.04-.35-1.41-1.1-1.39-2.16,.05-2.39,0-4.78,.1-7.17,.13-2.82,1.1-5.39,2.71-7.7,2-2.87,4.67-4.86,7.99-5.98,1.63-.55,3.31-.79,5.02-.79,3.13,0,6.26-.05,9.38,.07,3.5,.12,6.58,1.44,9.25,3.71,2.22,1.89,3.78,4.24,4.71,7,.55,1.66,.78,3.37,.79,5.11,.01,1.92-.02,3.83,.01,5.75,.02,1.06-.35,1.81-1.39,2.16H20.96Z" fill="#fff"/><path d="M28.53,39.78c-.02-6.06,4.95-11.04,11.03-11.04,6.07,0,11.04,4.96,11.04,11.03,0,6.06-4.89,10.95-11.01,11.02-6.02,.07-11.04-4.93-11.06-11.01Z" fill="#fff"/><path d="M59.8,43c-.88-.2-1.67-.55-2.35-1.11-1.34-1.1-2.04-2.53-2.05-4.26-.02-2.94-.02-5.87,0-8.81,.02-2.78,1.99-5.03,4.74-5.44,.29-.04,.58-.06,.87-.06,4.32,0,8.64,0,12.96,0,2.73,0,4.94,1.77,5.5,4.4,.08,.38,.12,.77,.12,1.15,0,2.89,.01,5.79,0,8.68-.01,2.73-1.84,4.94-4.51,5.46-.38,.07-.77,.09-1.15,.09-1.94,0-3.88,0-5.82,.01-.17,0-.36,.06-.5,.15-2.01,1.33-4.01,2.67-6.02,4.01-.7,.46-1.53,.19-1.74-.56-.04-.14-.04-.29-.04-.43,0-.99,0-1.97,0-2.96,0-.09,0-.19,0-.31Zm7.69-10.89c1.6,0,3.19,0,4.79,0,.61,0,1.22,0,1.83,0,.53,0,.99-.41,1.06-.92,.08-.55-.22-1.06-.73-1.21-.18-.05-.37-.07-.56-.07-4.26,0-8.52,0-12.78,0-.09,0-.17,0-.26,0-.47,.05-.81,.28-.98,.72-.28,.73,.26,1.47,1.08,1.48,2.18,0,4.36,0,6.54,0Zm0,4.39c1.25,0,2.51,0,3.76,0,.23,0,.46,0,.7,0,.73-.03,1.21-.73,1-1.42-.15-.49-.56-.76-1.15-.76-2.86,0-5.72,0-8.58,0-.07,0-.14,0-.21,0-.48,.03-.88,.38-.98,.85-.15,.71,.35,1.33,1.11,1.33,1.45,0,2.9,0,4.35,0Z" fill="#fff"/></g></svg>