<svg id="Group_3" data-name="Group 3" xmlns="http://www.w3.org/2000/svg" width="20" height="20" viewBox="0 0 20 20">
  <circle id="Ellipse_3" data-name="Ellipse 3" cx="10" cy="10" r="10" fill="#0675c1"/>
  <path id="Path_11" data-name="Path 11" d="M9.94,7.34V8H8.48V9.09H9.94c0,1.44,0,3.28.01,3.66v.06a2.021,2.021,0,0,0,.91,1.52c.03.02.13.08.16.1a2.28,2.28,0,0,0,1.09.26,3.276,3.276,0,0,0,2.43-1.2,3.184,3.184,0,0,0,.75-2.05,2.842,2.842,0,0,0-.05-.58,1.862,1.862,0,0,0-1.29-1.55.991.991,0,0,0-.34-.04,1.488,1.488,0,0,0-1.14.58,1.174,1.174,0,0,0-.25.73,1.263,1.263,0,0,0,.14.57,1.755,1.755,0,0,0,1.19.84,1.542,1.542,0,0,1-.26.46,1.755,1.755,0,0,1-1.07.6.49.49,0,0,1-.64-.39V9.09h1.67V8H11.58V7.19a1.977,1.977,0,0,0-.91-1.52l-.16-.1a2.171,2.171,0,0,0-1.09-.26,2.959,2.959,0,0,0-1.71.56l.87,1.36a2.549,2.549,0,0,1,.73-.28.647.647,0,0,1,.45.09S9.94,7.193,9.94,7.34Z" transform="translate(-1.5)" fill="#fff"/>
  <path id="Path_12" data-name="Path 12" d="M8.58,7.23" transform="translate(-1.5)" fill="#fff"/>
</svg>
