<svg xmlns="http://www.w3.org/2000/svg" xmlns:xlink="http://www.w3.org/1999/xlink" width="21.465" height="21.465" viewBox="0 0 21.465 21.465">
  <defs>
    <clipPath id="clip-path">
      <rect width="21.465" height="21.465" fill="none"/>
    </clipPath>
  </defs>
  <g id="Group_2230" data-name="Group 2230" transform="translate(-141 -471)">
    <g id="_001-facebook" data-name="001-facebook" transform="translate(141 471)" clip-path="url(#clip-path)">
      <ellipse id="Ellipse_125" data-name="Ellipse 125" cx="10.733" cy="10.733" rx="10.733" ry="10.733" fill="#0675c1"/>
    </g>
    <path id="user_1_" data-name="user (1)" d="M13.549,6.848l-1.525-.763a.42.42,0,0,1-.233-.378v-.54c.037-.045.075-.1.115-.152a3.654,3.654,0,0,0,.472-.926.634.634,0,0,0,.372-.578V2.874a.637.637,0,0,0-.16-.419V1.606A1.431,1.431,0,0,0,12.254.564,2.01,2.01,0,0,0,10.672,0,2.01,2.01,0,0,0,9.09.564a1.432,1.432,0,0,0-.334,1.042v.849a.637.637,0,0,0-.16.419v.639a.635.635,0,0,0,.239.5,3.351,3.351,0,0,0,.559,1.156v.528a.422.422,0,0,1-.22.37L7.751,6.84A1.44,1.44,0,0,0,7,8.1v.517c0,.758,2.4.958,3.672.958s3.672-.2,3.672-.958V8.136A1.433,1.433,0,0,0,13.549,6.848Z" transform="translate(141 477)" fill="#e9e9f0"/>
  </g>
</svg>
