<svg xmlns="http://www.w3.org/2000/svg" xmlns:xlink="http://www.w3.org/1999/xlink" width="21.465" height="21.465" viewBox="0 0 21.465 21.465">
  <defs>
    <clipPath id="clip-path">
      <rect width="21.465" height="21.465" fill="none"/>
    </clipPath>
  </defs>
  <g id="Group_2469" data-name="Group 2469" transform="translate(-136 -592)">
    <g id="Group_2238" data-name="Group 2238" transform="translate(-5 121)">
      <g id="_001-facebook" data-name="001-facebook" transform="translate(141 471)" clip-path="url(#clip-path)">
        <ellipse id="Ellipse_125" data-name="Ellipse 125" cx="10.733" cy="10.733" rx="10.733" ry="10.733" fill="#0675c1"/>
      </g>
    </g>
    <path id="Path_43315" data-name="Path 43315" d="M9.431,4.189c-.077-.049-.681-.41-.921-.52l-.3-.718c.088-.238.258-.9.287-1.019a.32.32,0,0,0-.086-.3l-.468-.466a.318.318,0,0,0-.3-.086c-.088.02-.766.192-1.019.287l-.718-.3c-.1-.23-.456-.819-.52-.921A.318.318,0,0,0,5.12,0H4.46a.321.321,0,0,0-.271.149c-.049.077-.41.681-.52.921l-.718.3c-.238-.088-.9-.258-1.019-.287a.32.32,0,0,0-.3.086l-.466.468a.318.318,0,0,0-.086.3c.02.088.192.766.287,1.019l-.3.718c-.23.1-.819.456-.921.52A.318.318,0,0,0,0,4.46v.658a.321.321,0,0,0,.149.271c.077.049.681.41.921.52l.3.718c-.088.238-.258.9-.287,1.019a.32.32,0,0,0,.086.3l.466.466a.318.318,0,0,0,.3.086c.088-.02.766-.192,1.019-.287l.718.3c.1.23.456.819.52.921a.318.318,0,0,0,.274.153h.658a.321.321,0,0,0,.271-.149c.049-.077.41-.681.52-.921l.718-.3c.238.088.9.258,1.019.287a.32.32,0,0,0,.3-.086l.466-.466a.318.318,0,0,0,.086-.3c-.02-.088-.192-.766-.287-1.019l.3-.718c.23-.1.819-.456.921-.52A.318.318,0,0,0,9.58,5.12V4.46a.316.316,0,0,0-.149-.271ZM4.79,6.876A2.087,2.087,0,1,1,6.879,4.79,2.087,2.087,0,0,1,4.79,6.876Z" transform="translate(142 598)" fill="#e9e9f0"/>
  </g>
</svg>
