<svg xmlns="http://www.w3.org/2000/svg" width="27.519" height="24.611" viewBox="0 0 27.519 24.611">
  <g id="Group_2496" data-name="Group 2496" transform="translate(-1452 -5283)">
    <path id="Path_43422" data-name="Path 43422" d="M192.108,22.9a7.249,7.249,0,0,0,2.126-5.067c0-4.325-4.342-7.831-9.285-7.831S176,13.506,176,17.831l8.949,7.831a11.867,11.867,0,0,0,4.039-.7,5.578,5.578,0,0,0,4.127,1.819A3.955,3.955,0,0,1,192.108,22.9Zm0,0" transform="translate(1285.285 5273)" fill="rgba(34,34,34,0.5)"/>
    <path id="Path_43423" data-name="Path 43423" d="M23.9,151.119a7.689,7.689,0,0,1,4.338,6.712c0,4.325-4.006,7.831-8.949,7.831a11.867,11.867,0,0,1-4.039-.7,5.578,5.578,0,0,1-4.127,1.819,3.955,3.955,0,0,0,1.007-3.882A7.249,7.249,0,0,1,10,157.831c0-4.325,4.342-7.831,9.285-7.831A9.879,9.879,0,0,1,23.9,151.119Zm0,0" transform="translate(1442 5140.831)" fill="#757575"/>
    <path id="Path_43424" data-name="Path 43424" d="M246.559,100a.559.559,0,1,0,.559.559A.56.56,0,0,0,246.559,100Zm0,0" transform="translate(1219.2 5188.035)" fill="#f2f5fc"/>
    <path id="Path_43425" data-name="Path 43425" d="M80.559,261.119a.559.559,0,1,0-.559-.559A.56.56,0,0,0,80.559,261.119Zm0,0" transform="translate(1375.915 5036.984)" fill="#f2f5fc"/>
    <path id="Path_43427" data-name="Path 43427" d="M127.607,260h-7.048a.559.559,0,0,0,0,1.119h7.048a.559.559,0,1,0,0-1.119Zm0,0" transform="translate(1338.152 5036.984)" fill="#f2f5fc"/>
    <path id="Path_43428" data-name="Path 43428" d="M89.844,320H80.559a.559.559,0,0,0,0,1.119h9.285a.559.559,0,0,0,0-1.119Zm0,0" transform="translate(1375.915 4980.34)" fill="#f2f5fc"/>
    <path id="Path_43429" data-name="Path 43429" d="M293.607,100h-7.048a.559.559,0,0,0,0,1.119h7.048a.559.559,0,1,0,0-1.119Zm0,0" transform="translate(1181.438 5188.035)" fill="#f2f5fc"/>
    <path id="Path_43430" data-name="Path 43430" d="M293.607,100h-7.048a.559.559,0,0,0,0,1.119h7.048a.559.559,0,1,0,0-1.119Zm0,0" transform="translate(1182.333 5191.391)" fill="#f2f5fc"/>
  </g>
</svg>
