<?xml version="1.0" encoding="UTF-8"?><svg id="Layer_1" xmlns="http://www.w3.org/2000/svg" viewBox="0 0 99.17 99.17"><circle cx="49.59" cy="49.59" r="49.59" fill="#0675c1"/><g><path d="M68.32,58.48l-12.5,12.47c-.25,.28-.42,.62-.49,.98l-.94,5.55c-.22,1.22,.86,2.27,2.08,2.08l5.55-.94c.36-.07,.7-.24,.96-.49l12.49-12.5-7.15-7.15Zm11.76-4.63c-1.97-1.97-5.18-1.97-7.16,0l-2.34,2.35,7.17,7.16,2.33-2.34c1.99-1.99,1.99-5.18,0-7.17ZM58.77,19.58h-18.43c-1.75,0-3.17,1.42-3.17,3.18v4.83c0,1.75,1.42,3.17,3.17,3.17h18.43c1.75,0,3.17-1.42,3.17-3.17v-4.83c0-1.76-1.42-3.18-3.17-3.18Z" fill="#fff"/><path d="M67.89,25.18h-2.73v2.41c-.01,3.52-2.86,6.38-6.39,6.38h-18.43c-3.52,0-6.38-2.86-6.38-6.38v-2.41h-2.71c-4.22,0-7.65,3.43-7.65,7.65v39.1c0,4.22,3.43,7.65,7.65,7.65h20.26c-.34-.84-.44-1.76-.29-2.65l.94-5.53c.17-.99,.62-1.89,1.3-2.63l13.64-13.62,3.54-3.57c1.3-1.29,3.01-2.11,4.83-2.32v-16.41c.02-4.21-3.37-7.65-7.58-7.67Zm-21.67,42.72h-9.3c-1.06,0-1.92-.86-1.92-1.93s.86-1.92,1.92-1.93h9.3c1.07,0,1.93,.87,1.93,1.93s-.87,1.93-1.93,1.93Zm7.56-10.94h-16.86c-1.06,0-1.92-.86-1.92-1.93s.86-1.92,1.92-1.93h16.86c.89,0,1.61,.86,1.61,1.93s-.72,1.93-1.61,1.93Zm3.82-10.94h-20.67c-1.07,0-1.93-.87-1.93-1.93s.86-1.93,1.93-1.93h20.67c1.07,0,1.93,.86,1.93,1.93s-.86,1.93-1.93,1.93Z" fill="#fff"/><path d="M35,55.03c0,1.07,.86,1.93,1.92,1.93h-.32c-.89,0-1.6-.87-1.6-1.93Z" fill="#fff"/><path d="M35,55.03c0-1.07,.71-1.93,1.6-1.93h.32c-1.06,0-1.92,.87-1.92,1.93Z" fill="#fff"/></g></svg>