<svg id="Group_4580" data-name="Group 4580" xmlns="http://www.w3.org/2000/svg" width="15.596" height="12.797" viewBox="0 0 15.596 12.797">
  <path id="Path_43310" data-name="Path 43310" d="M27.816,31.134l.141-.234.256-.1a1.393,1.393,0,0,0,.828-.833l1.686-4.631a1.4,1.4,0,0,0-.836-1.792l-7.929-2.886a1.4,1.4,0,0,0-1.792.836l-.941,2.586H18.181a1.4,1.4,0,0,0-1.4,1.4v4.928a1.4,1.4,0,0,0,1.4,1.4h8.438A1.4,1.4,0,0,0,27.816,31.134Zm-1.2,1.459H18.181A2.181,2.181,0,0,1,16,30.411V25.483A2.181,2.181,0,0,1,18.181,23.3h.5l.754-2.071a2.181,2.181,0,0,1,2.8-1.3l7.929,2.886a2.181,2.181,0,0,1,1.3,2.8L29.778,30.24a2.176,2.176,0,0,1-1.292,1.3A2.18,2.18,0,0,1,26.619,32.593Z" transform="translate(-16 -19.795)" fill="#0675c1"/>
  <path id="Path_43311" data-name="Path 43311" d="M17.432,48.294V46.8H29.019v1.491Z" transform="translate(-17.127 -40.721)" fill="#0675c1"/>
  <path id="Path_43312" data-name="Path 43312" d="M25.474,65.119a.373.373,0,0,1,0-.746h1.471a.373.373,0,0,1,0,.746Z" transform="translate(-23.163 -54.37)" fill="#0675c1"/>
  <path id="Path_43313" data-name="Path 43313" d="M41.258,65.119a.373.373,0,0,1,0-.746h1.891a.373.373,0,0,1,0,.746Z" transform="translate(-35.261 -54.37)" fill="#0675c1"/>
  <path id="Path_43314" data-name="Path 43314" d="M18.077,36.217a1.331,1.331,0,0,0-1.331,1.331v4.693a1.331,1.331,0,0,0,1.331,1.331h8.035a1.331,1.331,0,0,0,1.331-1.331V37.548a1.331,1.331,0,0,0-1.331-1.331Zm0-.746h8.035a2.077,2.077,0,0,1,2.077,2.077v4.693a2.077,2.077,0,0,1-2.077,2.077H18.077A2.077,2.077,0,0,1,16,42.241V37.548A2.077,2.077,0,0,1,18.077,35.471Z" transform="translate(-16 -31.521)" fill="#0675c1"/>
</svg>
