<svg xmlns="http://www.w3.org/2000/svg" width="114.625" height="85.35" viewBox="0 0 114.625 85.35">
  <g id="Group_4717" data-name="Group 4717" transform="translate(-13732.219 -12834.684)">
    <rect id="Rectangle_2177" data-name="Rectangle 2177" width="89.903" height="54.068" rx="10" transform="translate(13732.845 12861.986) rotate(-17.261)" fill="#fff" stroke="#f2f5fc" stroke-width="1"/>
    <rect id="Rectangle_2178" data-name="Rectangle 2178" width="85.903" height="7.754" rx="3.877" transform="translate(13736.869 12868.197) rotate(-17.261)" fill="#e5f1f9" opacity="0.55"/>
    <rect id="Rectangle_2179" data-name="Rectangle 2179" width="22.843" height="3.353" transform="translate(13752.708 12901.899) rotate(-17.261)" fill="#e5f1f9" opacity="0.55"/>
    <rect id="Rectangle_2180" data-name="Rectangle 2180" width="39.608" height="3.353" transform="translate(13751.029 12896.495) rotate(-17.261)" fill="#e5f1f9" opacity="0.55"/>
    <rect id="Rectangle_2182" data-name="Rectangle 2182" width="89.903" height="54.068" rx="10" transform="translate(13756.44 12865.466)" fill="#fff" stroke="#f2f5fc" stroke-width="1"/>
    <rect id="Rectangle_2183" data-name="Rectangle 2183" width="2.62" height="7.44" transform="translate(13777.82 12891.713)" fill="#e5f1f9" opacity="0.55"/>
    <rect id="Rectangle_2184" data-name="Rectangle 2184" width="2.62" height="7.44" transform="translate(13781.173 12891.713)" fill="#e5f1f9" opacity="0.55"/>
    <rect id="Rectangle_2185" data-name="Rectangle 2185" width="2.62" height="7.44" transform="translate(13784.526 12891.713)" fill="#e5f1f9" opacity="0.55"/>
    <rect id="Rectangle_2186" data-name="Rectangle 2186" width="2.62" height="7.44" transform="translate(13790.394 12891.713)" fill="#e5f1f9" opacity="0.55"/>
    <rect id="Rectangle_2187" data-name="Rectangle 2187" width="2.62" height="7.44" transform="translate(13793.747 12891.713)" fill="#e5f1f9" opacity="0.55"/>
    <rect id="Rectangle_2188" data-name="Rectangle 2188" width="2.62" height="7.44" transform="translate(13797.101 12891.713)" fill="#e5f1f9" opacity="0.55"/>
    <rect id="Rectangle_2189" data-name="Rectangle 2189" width="2.62" height="7.44" transform="translate(13802.967 12891.713)" fill="#e5f1f9" opacity="0.55"/>
    <rect id="Rectangle_2190" data-name="Rectangle 2190" width="2.62" height="7.44" transform="translate(13806.32 12891.713)" fill="#e5f1f9" opacity="0.55"/>
    <rect id="Rectangle_2191" data-name="Rectangle 2191" width="2.62" height="7.44" transform="translate(13809.674 12891.713)" fill="#e5f1f9" opacity="0.55"/>
    <rect id="Rectangle_2192" data-name="Rectangle 2192" width="2.62" height="7.44" transform="translate(13815.542 12891.713)" fill="#e5f1f9" opacity="0.55"/>
    <rect id="Rectangle_2193" data-name="Rectangle 2193" width="2.62" height="7.44" transform="translate(13818.895 12891.713)" fill="#e5f1f9" opacity="0.55"/>
    <rect id="Rectangle_2194" data-name="Rectangle 2194" width="2.62" height="7.44" transform="translate(13822.247 12891.713)" fill="#e5f1f9" opacity="0.55"/>
    <rect id="Rectangle_2195" data-name="Rectangle 2195" width="15.619" height="8.565" rx="4.283" transform="translate(13762.16 12879.63)" fill="#e5f1f9" opacity="0.55"/>
    <rect id="Rectangle_2196" data-name="Rectangle 2196" width="9.573" height="9.573" transform="translate(13822.872 12907.719)" fill="#0675c1" opacity="0.1"/>
    <rect id="Rectangle_2197" data-name="Rectangle 2197" width="9.573" height="9.573" transform="translate(13827.658 12907.719)" fill="#0675c1" opacity="0.1"/>
  </g>
</svg>
