<svg width="83" height="58" viewBox="0 0 83 58" fill="none" xmlns="http://www.w3.org/2000/svg">
<path d="M67.77 21.8503C66.6962 9.64141 55.235 0.000269049 41.3016 0.000269049C35.5668 -0.0242147 29.9795 1.62295 25.3867 4.69202C20.7939 7.7611 17.4462 12.0847 15.851 17.0074C11.2253 18.4457 7.21467 21.134 4.37465 24.6998C1.53463 28.2656 0.00582258 32.5324 0 36.9092C0 48.5381 10.588 58 23.6009 58H61.9524C73.3398 58 82.6032 49.7219 82.6032 39.5455C82.6147 35.557 81.1738 31.6735 78.4979 28.4813C75.822 25.2891 72.0565 22.9616 67.77 21.8503ZM61.9524 52.7273H23.6009C13.839 52.7273 5.90023 45.6329 5.90023 36.9092C5.90576 33.4256 7.19732 30.0409 9.57464 27.2801C11.952 24.5193 15.2822 22.5366 19.0489 21.6394C20.1109 21.3864 20.9281 20.6271 21.17 19.6701C23.2646 11.3287 31.7314 5.27297 41.3016 5.27297C52.1993 5.27297 61.9406 12.9817 61.9406 23.9621C61.9406 25.2512 62.982 26.3506 64.4039 26.5615C67.8452 27.0685 70.9722 28.6533 73.2256 31.0321C75.479 33.411 76.7116 36.4288 76.703 39.5455C76.703 46.814 70.0859 52.7273 61.9524 52.7273Z" fill="#0575C1"/>
<path d="M55.1881 27.1362C55.462 27.381 55.6792 27.6716 55.8275 27.9914C55.9757 28.3112 56.052 28.654 56.052 29.0001C56.052 29.3463 55.9757 29.6891 55.8275 30.0089C55.6792 30.3287 55.462 30.6193 55.1881 30.864C54.9142 31.1088 54.589 31.303 54.2311 31.4354C53.8733 31.5679 53.4897 31.6361 53.1023 31.6361C52.715 31.6361 52.3314 31.5679 51.9736 31.4354C51.6157 31.303 51.2905 31.1088 51.0166 30.864L44.252 24.8189V44.8183C44.252 45.5175 43.9412 46.188 43.3879 46.6824C42.8347 47.1768 42.0843 47.4546 41.3019 47.4546C40.5195 47.4546 39.7691 47.1768 39.2158 46.6824C38.6626 46.188 38.3518 45.5175 38.3518 44.8183V24.8189L31.5872 30.864C31.034 31.3584 30.2837 31.6361 29.5014 31.6361C28.7191 31.6361 27.9689 31.3584 27.4157 30.864C26.8625 30.3697 26.5518 29.6992 26.5518 29.0001C26.5518 28.301 26.8625 27.6306 27.4157 27.1362L39.2162 16.5908C39.7714 16.099 40.5216 15.8231 41.3034 15.8231C42.0852 15.8231 42.8353 16.099 43.3906 16.5908L55.1881 27.1362Z" fill="#0575C1"/>
</svg>
