<svg xmlns="http://www.w3.org/2000/svg" xmlns:xlink="http://www.w3.org/1999/xlink" width="68.147" height="80.434" viewBox="0 0 68.147 80.434">
  <defs>
    <clipPath id="clip-path">
      <ellipse id="Ellipse_212" data-name="Ellipse 212" cx="27.117" cy="25.66" rx="27.117" ry="25.66" transform="translate(0 0)" fill="#f2f5fc"/>
    </clipPath>
  </defs>
  <g id="Group_2901" data-name="Group 2901" transform="translate(-153.643 -473.025)">
    <path id="Path_43484" data-name="Path 43484" d="M50.954,0A34.113,34.113,0,0,0,16.88,34.074c0,10.7,9.46,23.434,15.1,30.071,3.59,4.225,14.782,16.288,18.976,16.288,5.07,0,18.885-16.128,19.022-16.291,5.621-6.63,15.051-19.352,15.051-30.069A34.112,34.112,0,0,0,50.954,0ZM72.5,33.823A21.415,21.415,0,1,1,51.084,12.407,21.44,21.44,0,0,1,72.5,33.823Z" transform="translate(136.762 473.025)" fill="#fff"/>
    <path id="Path_43488" data-name="Path 43488" d="M42.72,0C28.472,0,15.935,5.787,15.935,19.232c-.689,12.549,8.119,21.92,12.395,26.67,2.722,3.024,11.21,11.656,14.39,11.656,3.845,0,14.321-11.541,14.425-11.658,4.263-4.744,12.014-12.339,12.823-25.292C69.969,7.164,56.968,0,42.72,0ZM59.059,24.2c0,8.45-7.285,15.324-16.24,15.324S26.579,32.653,26.579,24.2,33.864,8.878,42.819,8.878,59.059,15.753,59.059,24.2Z" transform="translate(145.526 487.352)" fill="#2980b9"/>
    <g id="Mask_Group_11" data-name="Mask Group 11" transform="translate(161.594 480.162)" clip-path="url(#clip-path)">
      <g id="Group_2883" data-name="Group 2883" transform="translate(-11.681 -0.789)">
        <path id="Path_43485" data-name="Path 43485" d="M0,0H76.848V53.229H0Z" transform="translate(0)" fill="#2980b9"/>
        <g id="Group_2882" data-name="Group 2882" transform="translate(23.213 14.957)">
          <g id="Group_2881" data-name="Group 2881" transform="translate(0 0)">
            <path id="Path_43486" data-name="Path 43486" d="M58.988,90.61a9.431,9.431,0,0,0-.865-2.115,9.334,9.334,0,0,0-2.6-3.07,4.139,4.139,0,0,0-1.442-.75,3.969,3.969,0,0,0-1.225-.273h-.5a3.773,3.773,0,0,0,.144-1.569A4.533,4.533,0,0,0,47.742,78.4h-.288a5.454,5.454,0,0,0-3.965,1.91,3.217,3.217,0,0,0-.577,3c.865,3,2.451,4.434,4.758,4.434h.216a5.257,5.257,0,0,0,2.956-1.023,4.516,4.516,0,0,0,1.225-1.637c.144,0,.36.068.577.068a4.324,4.324,0,0,1,1.009.341,5.93,5.93,0,0,1,1.225.75,8.969,8.969,0,0,1,2.235,2.8A9.8,9.8,0,0,1,58.123,93.2a5.575,5.575,0,0,1-.36,2.183,4.851,4.851,0,0,1-1.009,1.774,6.094,6.094,0,0,1-1.442,1.228,10.912,10.912,0,0,1-1.586.682c-.433.136-.937.2-1.442.341-.5.068-.865.068-1.153.136h-.288c.072-.068.072-.136.144-.2l.072-.2h0v-.546a.934.934,0,0,0-.144-.409,2.092,2.092,0,0,0-.36-.682,3.02,3.02,0,0,0-1.009-.887,2.208,2.208,0,0,0-.577-.273l-.216-3.479-.144-.068v-.136l-.216-.136c.072-.068.144-.136.072-.273l-.216-.136a1.506,1.506,0,0,0-.577.136l-.649.2c-.072,0-.072,0-.144.068h-.072c-.144,0-.36.068-.577.068l-.36.068c-.288.068-.649.068-.937.136h-.216c-.433.068-.793.136-1.153.2h-.144c-.144,0-.288.068-.433.068a.787.787,0,0,0-.36.136l-.5.273c-.433.273-.649.341-.649.477l-.072.136h0c.072-.2-.144-.341-.937-.819h0s-.072,0-.072-.068l-.36-.136a5.152,5.152,0,0,0-.577-.2h-.144l-1.37.068h-.865l-1.442-.136a1.1,1.1,0,0,0-.865-.341c-.288,0-.433-.068-.5.136v.2a.778.778,0,0,0,.36.2l-.144.068v.068l-.072.068v1.16a.256.256,0,0,0-.144.068h0v-.068c-.144-.2-.36-.068-.865.2l-.433.273a.068.068,0,0,0-.072.068l-.36.273-.288.273a.235.235,0,0,0-.072.136l-.144.273c-.072.136-.144.341-.216.478,0,.068,0,.068-.072.136v.546l.288.546h0v.068h0l.288.273h0l.072.068h.072l.072.068s.144.136.216.136h.144a.262.262,0,0,0,.072-.341c0-.068-.072-.068-.072-.136a.068.068,0,0,0-.072-.068v-.068h0L32.6,97.3a.507.507,0,0,0-.144-.273v-.341l.216-.409.144-.2h0l.5-.477.5-.341c.144-.068.216-.2.36-.273l.216.136h.144a3.278,3.278,0,0,1,.36-.068,1.887,1.887,0,0,1,.577.068c.144,0,.216.068.36.068l.144.068.288.136a3.055,3.055,0,0,1,.5.341l-.144.136-.288.273-.5.409-1.8.682c-.721.273-.793.341-.793.546,0,.068.072.2.288.2a4.358,4.358,0,0,0,.721-.136c.144,0,.216-.068.36-.068v.75h0c-.072,0-.216.068-.649.136l-.216.068a2.238,2.238,0,0,1-.721.136A4.6,4.6,0,0,1,31.956,99h-.288a3.367,3.367,0,0,1-.937-.136,1.18,1.18,0,0,1-.5-.273,1.087,1.087,0,0,1-.288-.477,2.491,2.491,0,0,1,.072-1.433,8.962,8.962,0,0,1,.649-1.569,11.693,11.693,0,0,1,4.4-4.366,7.183,7.183,0,0,1,1.8-.682,1.481,1.481,0,0,1,.5-.068,3.2,3.2,0,0,0,2.451,1.023h.216a4.187,4.187,0,0,0,2.091-.682A3.321,3.321,0,0,0,43.561,87.4a3.434,3.434,0,0,0-3.676-3.274h-.216a4.215,4.215,0,0,0-3.172,1.5,2.179,2.179,0,0,0-.36,2.183,7.773,7.773,0,0,0,.793,1.705h-.144a5.114,5.114,0,0,0-2.091.614,9.942,9.942,0,0,0-2.523,1.774,14.6,14.6,0,0,0-2.307,2.865,6.13,6.13,0,0,0-.721,1.774,4.461,4.461,0,0,0-.144.887,2.062,2.062,0,0,0,.144.955,1.357,1.357,0,0,0,.577.819,2.528,2.528,0,0,0,.865.477,3.806,3.806,0,0,0,.865.136h.721c.433-.068.793-.136,1.225-.2.288-.068.577-.2.865-.273.36-.136.5-.2.649-.273h0l.072,1.023-.144.341a.535.535,0,0,0,.072.478.386.386,0,0,0,.288.2h.072a.275.275,0,0,0,.216-.068l.144-.068-.072-.2h0l.144.2h.072a.275.275,0,0,0,.216-.068c.288-.068.649-.136.937-.2,1.225-.2,2.379-.341,3.244-.477l1.37-.2h.144l.144.068.721-.068.144-.136c.433.136,1.225.273,2.091.478a22.715,22.715,0,0,0,2.451.341c.144,0,.216,0,.216-.068l.216.068a2.77,2.77,0,0,0,1.225.341h.072a1.48,1.48,0,0,0,.577-.068,2.635,2.635,0,0,0,.649-.273,4.59,4.59,0,0,0,.649-.546c.216,0,.433.068.721.068h.36a3.705,3.705,0,0,0,.865-.068,10.875,10.875,0,0,0,1.586-.273,8.7,8.7,0,0,0,1.874-.682,4.983,4.983,0,0,0,1.73-1.432,5.573,5.573,0,0,0,1.153-2.115,6.783,6.783,0,0,0,.36-2.456A24,24,0,0,0,58.988,90.61Zm-17.373-.955a3.729,3.729,0,0,1-1.8.341h0c-1.658,0-2.379-.682-2.6-2.592-.216-1.705.5-2.524,2.307-2.8h.144c1.8,0,2.379,2.319,2.379,2.592C42.336,88.632,42.264,89.314,41.615,89.655Zm8.939-3.547a3.949,3.949,0,0,1-2.523.614h-.072c-2.235,0-3.1-1.023-3.388-3.684-.288-2.387.649-3.547,3.028-3.888h.216c2.379,0,3.1,3.274,3.172,3.684C51.347,84.539,51.2,85.563,50.554,86.108ZM44.21,98.523l-.072.2c0,.068.072.136.433.409.216.136.577.341.937.546-.288-.068-.649-.136-.937-.2a13.113,13.113,0,0,0-2.235-.341l-.5-4.707,6.344-1.364.216,3.07a.206.206,0,0,0-.072.136.258.258,0,0,0,.288.273h.144a3.223,3.223,0,0,1,.649.341,1.907,1.907,0,0,1,.721.75,2,2,0,0,1,.288.546.493.493,0,0,1,.072.273v.068a.068.068,0,0,1-.072.068v.068l-.072.136a.235.235,0,0,1-.072.136c-.072.136-.144.2-.216.341a2.14,2.14,0,0,1-.577.546,1.358,1.358,0,0,1-.865.2,2.007,2.007,0,0,1-.865-.2l-1.658-.75a11.727,11.727,0,0,0-1.153-.478C44.5,98.387,44.354,98.319,44.21,98.523Zm-8.867.887c0-.273-.072-.477-.072-.682a6.825,6.825,0,0,0-.216-1.364c.144-.068.288-.068.433-.136l.577-.2.577-.409a3.093,3.093,0,0,1,.5-.409l.216-.2h0c.072-.068.144-.136.144-.2s.072-.068.072-.136v-.273c0-.136-.072-.2-.144-.2l-.216-.2a3.868,3.868,0,0,0-.721-.409l-.144-.068-.288-.136c-.072,0-.144-.068-.216-.068a.96.96,0,0,0-.433-.068h-.36v-.614l5.551.887.577,4.775a6.575,6.575,0,0,0-1.081.068c-1.225.136-2.451.273-3.6.409-.36.068-.721.136-1.009.2h-.072v-.136h0Zm2.6-6.071h0a2.85,2.85,0,0,0,.793-.068h.5c.072.068.216.068.288.136l.5.2h0s.072.068.072,0h.072l.433.2-2.667-.477Z" transform="translate(-29 -78.4)" fill="#fff"/>
            <path id="Path_43487" data-name="Path 43487" d="M54.509,106.187c.216-.136.36-.273.5-.341.072-.068.072-.136.144-.273,0-.136-.072-.273-.216-.273h-.072c-.072,0-.144.068-.216.068l-.072.068a3.512,3.512,0,0,0-.36.136,10.715,10.715,0,0,1-1.514.409c-.721.2-1.3.273-1.514.341-.144,0-.216.068-.288.068-.288.068-.5.068-.5.273l.072.2a1.131,1.131,0,0,0,.721.136h.144A7.666,7.666,0,0,0,53,106.733,4.294,4.294,0,0,0,54.509,106.187Z" transform="translate(-34.973 -86.95)" fill="#fff"/>
          </g>
        </g>
      </g>
    </g>
  </g>
</svg>
