<svg xmlns="http://www.w3.org/2000/svg" width="21.87" height="21.87" viewBox="0 0 21.87 21.87">
    <g id="prefix__phone-call" style="opacity:.31">
        <g id="prefix__Group_4116" data-name="Group 4116">
            <path id="prefix__Path_49642" d="M18.666 3.2a10.935 10.935 0 103.2 7.731 10.935 10.935 0 00-3.2-7.731zM16.56 15.232l-.56.548a2.916 2.916 0 01-2.752.787 9.689 9.689 0 01-2.814-1.261 13 13 0 01-2.22-1.79A13.1 13.1 0 016.561 11.5a10.2 10.2 0 01-1.247-2.518A2.916 2.916 0 016.043 6l.649-.649a.463.463 0 01.655 0L9.4 7.4a.463.463 0 010 .655l-1.2 1.2a.98.98 0 00-.1 1.276 14.067 14.067 0 001.44 1.68 13.981 13.981 0 001.9 1.593.988.988 0 001.261-.109l1.163-1.181a.463.463 0 01.655 0l2.052 2.056a.463.463 0 01-.011.662z" data-name="Path 49642" style="fill:#fff"/>
        </g>
    </g>
</svg>
