<svg xmlns="http://www.w3.org/2000/svg" width="17.105" height="15.68" viewBox="0 0 17.105 15.68">
    <path id="prefix__svgexport-32" d="M9.978 1.425H7.127a.713.713 0 1 1 0-1.425h2.851a.713.713 0 1 1 0 1.425zM1.425 2.851H15.68a1.426 1.426 0 0 1 1.425 1.425v9.978a1.426 1.426 0 0 1-1.425 1.426H1.425A1.426 1.426 0 0 1 0 14.254V4.276a1.426 1.426 0 0 1 1.425-1.425zM5.345 5.7a1.782 1.782 0 1 1-1.781 1.783A1.784 1.784 0 0 1 5.345 5.7zm-2.494 6.59v.539H7.84v-.539a2.411 2.411 0 0 0-2.495-2.312 2.411 2.411 0 0 0-2.494 2.312zm10.691-1.6h-2.851a.713.713 0 1 1 0-1.425h2.851a.713.713 0 1 1 0 1.425zm-2.851-2.85h2.851a.713.713 0 1 0 0-1.425h-2.851a.713.713 0 1 0 0 1.425z" style="fill:#0675c1;fill-rule:evenodd"/>
</svg>
