<svg xmlns="http://www.w3.org/2000/svg" width="14.082" height="18.368" viewBox="0 0 14.082 18.368">
    <path id="prefix__user_1_" d="M19.555 13.129l-2.924-1.462a.805.805 0 0 1-.447-.724V9.908c.07-.086.144-.183.22-.291a7.006 7.006 0 0 0 .9-1.775 1.215 1.215 0 0 0 .712-1.107V5.51a1.221 1.221 0 0 0-.306-.8V3.078a2.744 2.744 0 0 0-.64-2A3.853 3.853 0 0 0 14.041 0a3.854 3.854 0 0 0-3.033 1.081 2.745 2.745 0 0 0-.64 2v1.626a1.221 1.221 0 0 0-.306.8v1.228a1.217 1.217 0 0 0 .458.952A6.425 6.425 0 0 0 11.592 9.9v1.013a.809.809 0 0 1-.422.71l-2.731 1.49A2.761 2.761 0 0 0 7 15.54v.991c0 1.453 4.606 1.837 7.041 1.837s7.041-.384 7.041-1.837V15.6a2.747 2.747 0 0 0-1.527-2.471z" data-name="user (1)" transform="translate(-7)" style="fill:#0675c1"/>
</svg>
