<svg xmlns="http://www.w3.org/2000/svg" xmlns:xlink="http://www.w3.org/1999/xlink" width="21.574" height="21.574" viewBox="0 0 21.574 21.574">
  <defs>
    <clipPath id="clip-path">
      <rect width="21.574" height="21.574" fill="none"/>
    </clipPath>
    <linearGradient id="linear-gradient" x1="0.5" x2="0.5" y2="1" gradientUnits="objectBoundingBox">
      <stop offset="0" stop-color="#ff9a9e"/>
      <stop offset="1" stop-color="#fad0c4"/>
    </linearGradient>
  </defs>
  <g id="Group_2707" data-name="Group 2707" transform="translate(-43 -192)">
    <g id="Group_2692" data-name="Group 2692" transform="translate(-245 -129)">
      <g id="_001-facebook" data-name="001-facebook" transform="translate(288 321)" clip-path="url(#clip-path)">
        <ellipse id="Ellipse_123" data-name="Ellipse 123" cx="10.787" cy="10.787" rx="10.787" ry="10.787" fill="#f2f5fc"/>
      </g>
    </g>
    <g id="telephone-handle-silhouette" transform="translate(46.545 197)">
      <path id="Path_43461" data-name="Path 43461" d="M12.243,9.5q-.052-.157-.662-.461-.165-.1-.47-.261t-.553-.3q-.248-.139-.466-.27-.035-.026-.218-.152a2.447,2.447,0,0,0-.309-.187A.57.57,0,0,0,9.318,7.8a.723.723,0,0,0-.435.248,4.239,4.239,0,0,0-.479.54,5.25,5.25,0,0,1-.461.54.664.664,0,0,1-.4.248.592.592,0,0,1-.2-.043c-.078-.029-.138-.054-.179-.074s-.11-.061-.209-.122-.154-.094-.166-.1A9.15,9.15,0,0,1,4.747,7.523,9.145,9.145,0,0,1,3.232,5.477q-.009-.017-.1-.165T3.01,5.1a1.887,1.887,0,0,1-.074-.178.589.589,0,0,1-.044-.2.664.664,0,0,1,.248-.4,5.244,5.244,0,0,1,.54-.461,4.238,4.238,0,0,0,.54-.479.723.723,0,0,0,.248-.435A.569.569,0,0,0,4.407,2.7a2.42,2.42,0,0,0-.187-.309q-.126-.183-.152-.218-.13-.218-.27-.466t-.3-.553q-.165-.3-.261-.47Q2.927.078,2.77.026A.488.488,0,0,0,2.587,0a2.869,2.869,0,0,0-.614.087,3.448,3.448,0,0,0-.6.183A2.334,2.334,0,0,0,.454,1.332,3.376,3.376,0,0,0,.01,2.952a3.363,3.363,0,0,0,.03.457,3.757,3.757,0,0,0,.109.5q.078.279.126.414t.178.483q.13.348.157.427a7.887,7.887,0,0,0,.723,1.524A12.911,12.911,0,0,0,3.21,9.06a12.916,12.916,0,0,0,2.3,1.876,7.9,7.9,0,0,0,1.524.723q.078.026.427.157t.483.178q.135.048.414.126a3.79,3.79,0,0,0,.5.109,3.23,3.23,0,0,0,2.077-.414A2.333,2.333,0,0,0,12,10.893a3.429,3.429,0,0,0,.183-.6,2.862,2.862,0,0,0,.087-.614A.485.485,0,0,0,12.243,9.5Z" transform="translate(-0.01)" fill="url(#linear-gradient)"/>
    </g>
  </g>
</svg>
