<svg xmlns="http://www.w3.org/2000/svg" xmlns:xlink="http://www.w3.org/1999/xlink" width="21.574" height="21.574" viewBox="0 0 21.574 21.574">
  <defs>
    <clipPath id="clip-path">
      <rect width="21.574" height="21.574" fill="none"/>
    </clipPath>
    <linearGradient id="linear-gradient" x1="0.5" x2="0.5" y2="1" gradientUnits="objectBoundingBox">
      <stop offset="0" stop-color="#eb8b9f"/>
      <stop offset="1" stop-color="#6677e1"/>
    </linearGradient>
  </defs>
  <g id="Group_2708" data-name="Group 2708" transform="translate(-43 -258)">
    <g id="Group_2693" data-name="Group 2693" transform="translate(-245 -63)">
      <g id="_001-facebook" data-name="001-facebook" transform="translate(288 321)" clip-path="url(#clip-path)">
        <ellipse id="Ellipse_123" data-name="Ellipse 123" cx="10.787" cy="10.787" rx="10.787" ry="10.787" fill="#f2f5fc"/>
      </g>
    </g>
    <g id="lock_1_" data-name="lock (1)" transform="translate(48.913 263)">
      <g id="Group_2690" data-name="Group 2690" transform="translate(0)">
        <path id="Path_43460" data-name="Path 43460" d="M72.94,4.6h-.766V3.576a3.576,3.576,0,1,0-7.152,0V4.6h-.766A.255.255,0,0,0,64,4.853v6.385a1.023,1.023,0,0,0,1.022,1.022h7.152a1.023,1.023,0,0,0,1.022-1.022V4.853A.255.255,0,0,0,72.94,4.6ZM69.362,9.933a.255.255,0,0,1-.254.284H68.087a.255.255,0,0,1-.254-.284l.161-1.449a1.01,1.01,0,0,1-.418-.822,1.022,1.022,0,1,1,2.043,0,1.011,1.011,0,0,1-.418.822ZM70.641,4.6H66.554V3.576a2.043,2.043,0,1,1,4.087,0Z" transform="translate(-64 0)" fill="url(#linear-gradient)"/>
      </g>
    </g>
  </g>
</svg>
