<svg xmlns="http://www.w3.org/2000/svg" xmlns:xlink="http://www.w3.org/1999/xlink" width="375" height="815" viewBox="0 0 375 815">
  <defs>
    <clipPath id="clip-path">
      <rect id="Rectangle_1948" data-name="Rectangle 1948" width="375" height="815" fill="#f2f5fc"/>
    </clipPath>
  </defs>
  <g id="Mask_Group_6" data-name="Mask Group 6" clip-path="url(#clip-path)">
    <g id="Group_2254" data-name="Group 2254">
      <g id="XMLID_316_" transform="translate(263.424 73.176)">
        <g id="XMLID_325_">
          <path id="XMLID_332_" d="M253.733,184.042c0-6.549,7.073-11.495,7.073-11.495l-4.244-4.244-4.244-4.244s-4.957,7.073-11.495,7.073-21.631,5.7-7.206,20.127C248.031,205.662,253.733,190.58,253.733,184.042Z" transform="translate(-227.574 -160.997)" fill="#fff"/>
          <path id="XMLID_329_" d="M260.855,170.243l-4.2-4.2-4.2-4.2a1.811,1.811,0,1,0-2.562,2.562l4.2,4.2,4.2,4.2a1.8,1.8,0,0,0,2.562,0A1.822,1.822,0,0,0,260.855,170.243Z" transform="translate(-225.095 -161.31)" fill="#fff"/>
          <path id="XMLID_326_" d="M257.785,172.949c.334-.267.535-.412.535-.412l-4.177-4.177-.033-.033-.033-.033-4.244-4.244s-.145.2-.412.535Z" transform="translate(-225.088 -160.998)" fill="#f2f5fc"/>
        </g>
        <path id="XMLID_324_" d="M252.363,183.117,240.745,171.5c-5.892.033-19.247,5.146-6.393,18S252.318,189,252.363,183.117Z" transform="translate(-227.418 -160.15)" fill="#f2f5fc"/>
        <g id="XMLID_317_" transform="translate(3.712 13.898)">
          <path id="XMLID_323_" d="M234.742,178.862a2.245,2.245,0,1,1,0-3.174A2.239,2.239,0,0,1,234.742,178.862Z" transform="translate(-230.908 -173.646)" fill="#fff"/>
          <path id="XMLID_322_" d="M237.322,185.942a2.245,2.245,0,1,1,0-3.174A2.239,2.239,0,0,1,237.322,185.942Z" transform="translate(-230.614 -172.84)" fill="#fff"/>
          <path id="XMLID_321_" d="M241.682,177.622a2.245,2.245,0,1,1,0-3.174A2.239,2.239,0,0,1,241.682,177.622Z" transform="translate(-230.118 -173.788)" fill="#fff"/>
          <path id="XMLID_320_" d="M242.432,183.692a2.245,2.245,0,1,1,0-3.174A2.239,2.239,0,0,1,242.432,183.692Z" transform="translate(-230.032 -173.097)" fill="#fff"/>
          <ellipse id="XMLID_319_" cx="2.25" cy="2.25" rx="2.25" ry="2.25" transform="translate(15.195 7.477)" fill="#fff"/>
          <path id="XMLID_318_" d="M244.3,191.272a2.245,2.245,0,1,1,0-3.174A2.239,2.239,0,0,1,244.3,191.272Z" transform="translate(-229.819 -172.234)" fill="#fff"/>
        </g>
      </g>
      <g id="XMLID_335_" transform="translate(247.393 319.212)">
        <g id="XMLID_346_" transform="translate(0 0.631)">
          <path id="XMLID_350_" d="M345.252,116.629c5.836,11.183,7.418,21.887,3.553,23.9s-11.74-5.4-17.576-16.585-7.418-21.887-3.553-23.9S339.416,105.446,345.252,116.629Z" transform="translate(-316.317 -96.134)" fill="none" stroke="#fff" stroke-miterlimit="10" stroke-width="0.521"/>
          <path id="XMLID_349_" d="M335.379,112.469c11.183-5.836,21.887-7.418,23.9-3.553s-5.4,11.751-16.585,17.576-21.887,7.418-23.9,3.553S324.207,118.306,335.379,112.469Z" transform="translate(-317.125 -95.327)" fill="none" stroke="#fff" stroke-miterlimit="10" stroke-width="0.521"/>
          <ellipse id="XMLID_348_" cx="22.833" cy="7.908" rx="22.833" ry="7.908" transform="translate(7.528 43.566) rotate(-72.554)" fill="none" stroke="#fff" stroke-miterlimit="10" stroke-width="0.521"/>
          <path id="XMLID_347_" d="M341.552,111.68c12.029,3.787,20.728,10.225,19.414,14.391s-12.13,4.489-24.159.7-20.728-10.225-19.414-14.391S329.523,107.893,341.552,111.68Z" transform="translate(-317.262 -95.073)" fill="none" stroke="#fff" stroke-miterlimit="10" stroke-width="0.521"/>
        </g>
        <g id="XMLID_336_" transform="translate(11.841)">
          <ellipse id="XMLID_343_" cx="6.616" cy="6.616" rx="6.616" ry="6.616" transform="matrix(0.877, -0.481, 0.481, 0.877, 1.11, 22.183)" fill="#f2f5fc"/>
          <path id="XMLID_340_" d="M340.495,100.34a3.014,3.014,0,1,1,4.065,1.281A3.012,3.012,0,0,1,340.495,100.34Z" transform="translate(-326.497 -95.933)" fill="#f2f5fc"/>
          <path id="XMLID_337_" d="M328.235,139.53a3.014,3.014,0,1,1,4.065,1.281A3.012,3.012,0,0,1,328.235,139.53Z" transform="translate(-327.893 -91.472)" fill="#f2f5fc"/>
        </g>
      </g>
      <g id="XMLID_365_" transform="translate(342.061 620.161)">
        <ellipse id="XMLID_373_" cx="19.871" cy="19.871" rx="19.871" ry="19.871" fill="#fff"/>
        <g id="XMLID_366_" transform="translate(0.002 3.471)">
          <path id="XMLID_370_" d="M226.141,210.049c-2.395-2.361-14.123,10.871-15.07,9.323s8.331-7.83,7.073-9.323c-1.014-1.2-13.177,8.911-17.877,12.887a19.861,19.861,0,0,0,8.576,19.782c7.051-6.338,23.257-21.263,21.642-22.978-2.061-2.194-20.907,12.653-20.907,12.653,3.208-3.854-1.014-3.742-1.014-3.742S228.536,212.41,226.141,210.049Z" transform="translate(-200.002 -209.766)" fill="#f2f5fc"/>
          <path id="XMLID_367_" d="M218.945,245.131a19.871,19.871,0,0,0,17.242-27.6c-5.023,4.689-17.186,16.24-16.173,17.12,1.27,1.1,7.83-6.249,8.944-5.146s-12.987,10.771-11.517,12.141,11.35-9.456,12.23-8.421C230.373,234.048,222.2,242.023,218.945,245.131Z" transform="translate(-198.029 -208.882)" fill="#f2f5fc"/>
        </g>
      </g>
      <g id="XMLID_426_" transform="translate(-16.627 541.061)">
        <rect id="XMLID_462_" width="79.505" height="9.356" transform="translate(0 56.218) rotate(-45)" fill="#fff"/>
        <g id="XMLID_427_" transform="translate(1.452 1.444)">
          <line id="XMLID_461_" x2="1.392" y2="1.392" transform="translate(0 53.33)" fill="none" stroke="#f2f5fc" stroke-miterlimit="10" stroke-width="0.46"/>
          <line id="XMLID_460_" x2="2.105" y2="2.105" transform="translate(1.615 51.715)" fill="none" stroke="#f2f5fc" stroke-miterlimit="10" stroke-width="0.46"/>
          <line id="XMLID_459_" x2="1.392" y2="1.392" transform="translate(3.23 50.1)" fill="none" stroke="#f2f5fc" stroke-miterlimit="10" stroke-width="0.46"/>
          <line id="XMLID_458_" x2="2.105" y2="2.105" transform="translate(4.845 48.485)" fill="none" stroke="#f2f5fc" stroke-miterlimit="10" stroke-width="0.46"/>
          <line id="XMLID_457_" x2="1.392" y2="1.392" transform="translate(6.46 46.87)" fill="none" stroke="#f2f5fc" stroke-miterlimit="10" stroke-width="0.46"/>
          <line id="XMLID_456_" x2="2.116" y2="2.105" transform="translate(8.075 45.255)" fill="none" stroke="#f2f5fc" stroke-miterlimit="10" stroke-width="0.46"/>
          <line id="XMLID_455_" x2="1.392" y2="1.381" transform="translate(9.69 43.64)" fill="none" stroke="#f2f5fc" stroke-miterlimit="10" stroke-width="0.46"/>
          <line id="XMLID_454_" x2="2.116" y2="2.116" transform="translate(11.305 42.014)" fill="none" stroke="#f2f5fc" stroke-miterlimit="10" stroke-width="0.46"/>
          <line id="XMLID_453_" x2="1.381" y2="1.392" transform="translate(12.932 40.399)" fill="none" stroke="#f2f5fc" stroke-miterlimit="10" stroke-width="0.46"/>
          <line id="XMLID_452_" x2="2.105" y2="2.116" transform="translate(14.547 38.784)" fill="none" stroke="#f2f5fc" stroke-miterlimit="10" stroke-width="0.46"/>
          <line id="XMLID_451_" x2="1.392" y2="1.392" transform="translate(16.162 37.168)" fill="none" stroke="#f2f5fc" stroke-miterlimit="10" stroke-width="0.46"/>
          <line id="XMLID_450_" x2="2.105" y2="2.105" transform="translate(17.777 35.553)" fill="none" stroke="#f2f5fc" stroke-miterlimit="10" stroke-width="0.46"/>
          <line id="XMLID_449_" x2="1.392" y2="1.392" transform="translate(19.392 33.938)" fill="none" stroke="#f2f5fc" stroke-miterlimit="10" stroke-width="0.46"/>
          <line id="XMLID_448_" x2="2.105" y2="2.105" transform="translate(21.007 32.323)" fill="none" stroke="#f2f5fc" stroke-miterlimit="10" stroke-width="0.46"/>
          <line id="XMLID_447_" x2="1.392" y2="1.392" transform="translate(22.622 30.708)" fill="none" stroke="#f2f5fc" stroke-miterlimit="10" stroke-width="0.46"/>
          <line id="XMLID_446_" x2="2.105" y2="2.105" transform="translate(24.237 29.093)" fill="none" stroke="#f2f5fc" stroke-miterlimit="10" stroke-width="0.46"/>
          <line id="XMLID_445_" x2="1.392" y2="1.392" transform="translate(25.852 27.478)" fill="none" stroke="#f2f5fc" stroke-miterlimit="10" stroke-width="0.46"/>
          <line id="XMLID_444_" x2="2.105" y2="2.105" transform="translate(27.467 25.863)" fill="none" stroke="#f2f5fc" stroke-miterlimit="10" stroke-width="0.46"/>
          <line id="XMLID_443_" x2="1.392" y2="1.381" transform="translate(29.082 24.248)" fill="none" stroke="#f2f5fc" stroke-miterlimit="10" stroke-width="0.46"/>
          <line id="XMLID_442_" x2="2.116" y2="2.105" transform="translate(30.697 22.633)" fill="none" stroke="#f2f5fc" stroke-miterlimit="10" stroke-width="0.46"/>
          <line id="XMLID_441_" x2="1.381" y2="1.392" transform="translate(32.323 21.007)" fill="none" stroke="#f2f5fc" stroke-miterlimit="10" stroke-width="0.46"/>
          <line id="XMLID_440_" x2="2.105" y2="2.116" transform="translate(33.938 19.392)" fill="none" stroke="#f2f5fc" stroke-miterlimit="10" stroke-width="0.46"/>
          <line id="XMLID_439_" x2="1.392" y2="1.392" transform="translate(35.553 17.777)" fill="none" stroke="#f2f5fc" stroke-miterlimit="10" stroke-width="0.46"/>
          <line id="XMLID_438_" x2="2.105" y2="2.105" transform="translate(37.168 16.162)" fill="none" stroke="#f2f5fc" stroke-miterlimit="10" stroke-width="0.46"/>
          <line id="XMLID_437_" x2="1.392" y2="1.392" transform="translate(38.784 14.547)" fill="none" stroke="#f2f5fc" stroke-miterlimit="10" stroke-width="0.46"/>
          <line id="XMLID_436_" x2="2.105" y2="2.105" transform="translate(40.399 12.932)" fill="none" stroke="#f2f5fc" stroke-miterlimit="10" stroke-width="0.46"/>
          <line id="XMLID_435_" x2="1.392" y2="1.392" transform="translate(42.014 11.317)" fill="none" stroke="#f2f5fc" stroke-miterlimit="10" stroke-width="0.46"/>
          <line id="XMLID_434_" x2="2.105" y2="2.105" transform="translate(43.629 9.701)" fill="none" stroke="#f2f5fc" stroke-miterlimit="10" stroke-width="0.46"/>
          <line id="XMLID_433_" x2="1.392" y2="1.392" transform="translate(45.244 8.086)" fill="none" stroke="#f2f5fc" stroke-miterlimit="10" stroke-width="0.46"/>
          <line id="XMLID_432_" x2="2.105" y2="2.105" transform="translate(46.859 6.471)" fill="none" stroke="#f2f5fc" stroke-miterlimit="10" stroke-width="0.46"/>
          <line id="XMLID_431_" x2="1.392" y2="1.392" transform="translate(48.474 4.856)" fill="none" stroke="#f2f5fc" stroke-miterlimit="10" stroke-width="0.46"/>
          <line id="XMLID_430_" x2="2.116" y2="2.105" transform="translate(50.089 3.241)" fill="none" stroke="#f2f5fc" stroke-miterlimit="10" stroke-width="0.46"/>
          <line id="XMLID_429_" x2="1.392" y2="1.392" transform="translate(51.704 1.615)" fill="none" stroke="#f2f5fc" stroke-miterlimit="10" stroke-width="0.46"/>
          <line id="XMLID_428_" x2="2.105" y2="2.116" transform="translate(53.33)" fill="none" stroke="#f2f5fc" stroke-miterlimit="10" stroke-width="0.46"/>
        </g>
      </g>
      <g id="XMLID_519_" transform="translate(-14.321 375.291)">
        <g id="XMLID_530_" transform="translate(4.319 0)">
          <ellipse id="XMLID_538_" cx="14.589" cy="14.589" rx="14.589" ry="14.589" transform="translate(0 25.987) rotate(-62.953)" fill="#fff"/>
          <g id="XMLID_531_" transform="translate(5.042 10.688)">
            <path id="XMLID_535_" d="M213.9,126.009c-.275-.907,5.8-2.007,5.582-3.33s-10.94,2.861-11.178,1.784,5.849-2.133,5.351-3.612c-.312-.929-4.051.059-6.763.922a14.536,14.536,0,0,0-1.553,11.825c.082.275.178.55.275.818,3.53-.617,10.71-2.029,10.256-3.322-.6-1.709-7.232.81-7.551-.26s16.477-4.838,16-6.228S214.174,126.915,213.9,126.009Z" transform="translate(-204.721 -120.476)" fill="#f2f5fc"/>
            <path id="XMLID_532_" d="M237.624,125.25c-3.738,1.167-8.547,2.795-8.369,3.4.3.989,5.894-1.672,6.265-.431s-9.35,3.969-8.948,5.017,7.492-1.345,7.7-.453S222.744,137,223.235,138.2s10.019-2.817,10.465-1.33-4.162,2.059-3.79,3.3c.2.669,3.129.022,5.782-.714a14.58,14.58,0,0,0,2.356-13C237.921,126.045,237.78,125.644,237.624,125.25Z" transform="translate(-209.471 -121.702)" fill="#f2f5fc"/>
          </g>
        </g>
        <path id="XMLID_523_" d="M225.767,117.8a14.89,14.89,0,0,1,1.865,2c2.906.26,4.883,1.13,5.314,2.586.981,3.285-6.1,8.3-15.831,11.215s-18.4,2.609-19.391-.669c-.491-1.628,1.018-3.686,3.842-5.7a14.31,14.31,0,0,1,.505-2.572c-6.83,3.813-10.851,8.436-9.773,12.048,1.576,5.269,13.437,6.377,26.481,2.475s22.349-11.342,20.773-16.618C238.529,119.112,233.073,117.447,225.767,117.8Z" transform="translate(-192.126 -109.09)" fill="#fff"/>
      </g>
      <g id="XMLID_162_" transform="translate(308.812 420.929)">
        <g id="XMLID_174_">
          <path id="XMLID_175_" d="M492.156,204.869h0a24.528,24.528,0,0,1-8.81-1.459,12.015,12.015,0,0,1-6.638-6.048,20.128,20.128,0,0,1-.713-2.038c-.156-.5-.312-1.014-.5-1.5-1.66-4.322-5.992-7.663-12.876-9.924-1.292-.423-2.617-.813-3.932-1.2-4.244-1.236-8.621-2.517-12.252-5.179a.558.558,0,0,1,.657-.9c3.475,2.54,7.763,3.8,11.907,5,1.337.39,2.662.78,3.976,1.214,7.229,2.372,11.784,5.937,13.566,10.593.2.512.356,1.047.523,1.582a16.862,16.862,0,0,0,.668,1.916,10.948,10.948,0,0,0,6.037,5.458,23.416,23.416,0,0,0,8.4,1.381.545.545,0,0,1,.546.568A.556.556,0,0,1,492.156,204.869Z" transform="translate(-446.206 -176.506)" fill="#f2f5fc"/>
        </g>
        <g id="XMLID_163_" transform="translate(43.466 4.673)">
          <g id="XMLID_167_" transform="translate(4.945)">
            <path id="XMLID_171_" d="M506.866,180.833c.991.869-2.072,5.714-6.349,10.57-2.283,2.584-3.91,4.21-4.934,5.168a1.933,1.933,0,0,1-2.606.033h0a1.939,1.939,0,0,1-.29-2.584c.813-1.136,2.228-2.963,4.5-5.558C501.453,183.607,505.864,179.953,506.866,180.833Z" transform="translate(-489.368 -180.702)" fill="#fff"/>
            <path id="XMLID_168_" d="M493.268,195.244h0a1.945,1.945,0,0,0,2.606-.033l-2.818,3.208a1.937,1.937,0,0,1-2.729.178h0a1.937,1.937,0,0,1-.178-2.729l2.818-3.208h.011A1.94,1.94,0,0,0,493.268,195.244Z" transform="translate(-489.67 -179.341)" fill="#f2f5fc"/>
          </g>
          <g id="XMLID_164_" transform="translate(0 17.195)">
            <path id="XMLID_166_" d="M487.981,198.022c.713-1.47,1.57-1.882,2.294-1.882a1.937,1.937,0,0,0,.557,2.049h0a1.947,1.947,0,0,0,1.437.479,3.59,3.59,0,0,1-2.45,3.308c-3.854,1.749-4.589-2.027-4.589-2.027S486.411,201.275,487.981,198.022Z" transform="translate(-485.23 -196.14)" fill="#fff"/>
            <path id="XMLID_165_" d="M485.23,199.616s.847.969,2.072-.746a1.349,1.349,0,0,0,.2.056c.111.011.223,0,.334.022.356.078.535.468.613.824a1.751,1.751,0,0,0,.39.991c.379.334.98.2,1.426.423a.636.636,0,0,1,.178.123c-.189.111-.4.223-.624.334C485.965,203.4,485.23,199.616,485.23,199.616Z" transform="translate(-485.23 -195.829)" fill="#f2f5fc"/>
          </g>
        </g>
      </g>
      <g id="Group_2227" data-name="Group 2227" opacity="0.5">
        <g id="Group_2226" data-name="Group 2226" transform="translate(-0.574 10.578)">
          <path id="XMLID_114_" d="M646.179,107.61a3.52,3.52,0,1,1-3.52-3.52A3.52,3.52,0,0,1,646.179,107.61Z" transform="translate(-407.19 20.905)" fill="#fff"/>
          <path id="XMLID_113_" d="M621.629,123.64a3.52,3.52,0,1,1-3.52-3.52A3.52,3.52,0,0,1,621.629,123.64Z" transform="translate(-425.985 -13.271)" fill="#fff"/>
          <path id="XMLID_112_" d="M558.389,275.48a3.52,3.52,0,1,1-3.52-3.52A3.52,3.52,0,0,1,558.389,275.48Z" transform="translate(-433.183 4.013)" fill="#fff"/>
          <path id="XMLID_112_2" data-name="XMLID_112_" d="M558.389,275.48a3.52,3.52,0,1,1-3.52-3.52A3.52,3.52,0,0,1,558.389,275.48Z" transform="translate(-403.183 -242.987)" fill="#fff"/>
          <path id="XMLID_104_" d="M526.449,219.96a3.52,3.52,0,1,1-3.52-3.52A3.52,3.52,0,0,1,526.449,219.96Z" transform="translate(-436.819 -2.307)" fill="#fff"/>
          <path id="XMLID_102_" d="M526.629,186.08a3.52,3.52,0,1,1-3.52-3.52A3.52,3.52,0,0,1,526.629,186.08Z" transform="translate(-436.798 -6.163)" fill="#fff"/>
          <path id="XMLID_100_" d="M485.539,107.17a3.52,3.52,0,1,1-3.52-3.52A3.52,3.52,0,0,1,485.539,107.17Z" transform="translate(-441.476 -15.145)" fill="#fff"/>
          <path id="XMLID_100_2" data-name="XMLID_100_" d="M485.539,107.17a3.52,3.52,0,1,1-3.52-3.52A3.52,3.52,0,0,1,485.539,107.17Z" transform="translate(-166.476 -42.145)" fill="#fff"/>
          <ellipse id="XMLID_92_" cx="5.447" cy="5.447" rx="5.447" ry="5.447" transform="translate(135.899 130.44)" fill="#fff"/>
          <path id="XMLID_87_" d="M513.963,243.757a5.447,5.447,0,1,1-5.447-5.447A5.448,5.448,0,0,1,513.963,243.757Z" transform="translate(-438.679 0.183)" fill="#fff"/>
          <path id="XMLID_87_2" data-name="XMLID_87_" d="M513.963,243.757a5.447,5.447,0,1,1-5.447-5.447A5.448,5.448,0,0,1,513.963,243.757Z" transform="translate(-408.679 -246.817)" fill="#fff"/>
          <path id="XMLID_87_3" data-name="XMLID_87_" d="M513.963,243.757a5.447,5.447,0,1,1-5.447-5.447A5.448,5.448,0,0,1,513.963,243.757Z" transform="translate(-163.679 -26.817)" fill="#fff"/>
          <path id="XMLID_84_" d="M560.523,253.607a5.447,5.447,0,1,1-5.447-5.447A5.448,5.448,0,0,1,560.523,253.607Z" transform="translate(-433.379 1.304)" fill="#fff"/>
          <path id="XMLID_84_2" data-name="XMLID_84_" d="M560.523,253.607a5.447,5.447,0,1,1-5.447-5.447A5.448,5.448,0,0,1,560.523,253.607Z" transform="translate(-403.379 -245.696)" fill="#fff"/>
          <path id="XMLID_78_" d="M468.193,79.967a5.447,5.447,0,1,1-5.447-5.447A5.448,5.448,0,0,1,468.193,79.967Z" transform="translate(-443.889 -18.461)" fill="#fff"/>
          <path id="XMLID_77_" d="M495.923,136.447A5.447,5.447,0,1,1,490.477,131,5.448,5.448,0,0,1,495.923,136.447Z" transform="translate(-440.732 -12.032)" fill="#fff"/>
          <path id="XMLID_77_2" data-name="XMLID_77_" d="M495.923,136.447A5.447,5.447,0,1,1,490.477,131,5.448,5.448,0,0,1,495.923,136.447Z" transform="translate(-165.732 -39.032)" fill="#fff"/>
          <path id="XMLID_77_3" data-name="XMLID_77_" d="M495.923,136.447A5.447,5.447,0,1,1,490.477,131,5.448,5.448,0,0,1,495.923,136.447Z" transform="translate(-211.732 -1.032)" fill="#fff"/>
          <path id="XMLID_76_" d="M578.163,90.377a5.447,5.447,0,1,1-5.447-5.447A5.448,5.448,0,0,1,578.163,90.377Z" transform="translate(-431.371 -17.276)" fill="#fff"/>
          <path id="XMLID_74_" d="M628.643,182.917a5.447,5.447,0,1,1-5.447-5.447A5.448,5.448,0,0,1,628.643,182.917Z" transform="translate(-425.625 -6.742)" fill="#fff"/>
          <ellipse id="XMLID_53_" cx="2.306" cy="2.306" rx="2.306" ry="2.306" transform="translate(48.107 207.907)" fill="#fff"/>
          <ellipse id="XMLID_53_2" data-name="XMLID_53_" cx="2.306" cy="2.306" rx="2.306" ry="2.306" transform="translate(323.107 180.907)" fill="#fff"/>
          <ellipse id="XMLID_48_" cx="2.306" cy="2.306" rx="2.306" ry="2.306" transform="translate(121.386 215.348)" fill="#fff"/>
          <path id="XMLID_47_" d="M538.671,262a2.306,2.306,0,1,1-2.306-2.306A2.31,2.31,0,0,1,538.671,262Z" transform="translate(-435.151 2.617)" fill="#fff"/>
          <path id="XMLID_47_2" data-name="XMLID_47_" d="M538.671,262a2.306,2.306,0,1,1-2.306-2.306A2.31,2.31,0,0,1,538.671,262Z" transform="translate(-405.151 -244.383)" fill="#fff"/>
          <path id="XMLID_40_" d="M497.781,167.586a2.306,2.306,0,1,1-2.306-2.306A2.31,2.31,0,0,1,497.781,167.586Z" transform="translate(-439.806 -8.13)" fill="#fff"/>
          <path id="XMLID_40_2" data-name="XMLID_40_" d="M497.781,167.586a2.306,2.306,0,1,1-2.306-2.306A2.31,2.31,0,0,1,497.781,167.586Z" transform="translate(-164.806 -35.13)" fill="#fff"/>
          <ellipse id="XMLID_39_" cx="2.306" cy="2.306" rx="2.306" ry="2.306" transform="translate(108.933 139.039)" fill="#fff"/>
          <path id="XMLID_38_" d="M595.8,174.446a2.306,2.306,0,1,1-2.306-2.306A2.31,2.31,0,0,1,595.8,174.446Z" transform="translate(-428.648 -7.349)" fill="#fff"/>
          <ellipse id="XMLID_37_" cx="2.306" cy="2.306" rx="2.306" ry="2.306" transform="translate(168.133 186.288)" fill="#fff"/>
          <path id="XMLID_33_" d="M600.821,79.646a2.306,2.306,0,1,1-2.306-2.306A2.31,2.31,0,0,1,600.821,79.646Z" transform="translate(-428.077 -18.14)" fill="#fff"/>
          <path id="XMLID_16_" d="M515.961,154.7a2.306,2.306,0,1,1-2.306-2.306A2.31,2.31,0,0,1,515.961,154.7Z" transform="translate(-437.736 -9.597)" fill="#fff"/>
          <path id="XMLID_16_2" data-name="XMLID_16_" d="M515.961,154.7a2.306,2.306,0,1,1-2.306-2.306A2.31,2.31,0,0,1,515.961,154.7Z" transform="translate(-162.736 -36.597)" fill="#fff"/>
          <path id="XMLID_15_" d="M550.561,123.106a2.306,2.306,0,1,1-2.306-2.306A2.31,2.31,0,0,1,550.561,123.106Z" transform="translate(-433.798 -13.193)" fill="#fff"/>
          <path id="XMLID_14_" d="M610.691,154.7a2.306,2.306,0,1,1-2.306-2.306A2.31,2.31,0,0,1,610.691,154.7Z" transform="translate(-426.953 -9.597)" fill="#fff"/>
          <path id="XMLID_13_" d="M612.761,99.836a2.306,2.306,0,1,1-2.306-2.306A2.31,2.31,0,0,1,612.761,99.836Z" transform="translate(-426.718 -15.842)" fill="#fff"/>
          <ellipse id="XMLID_11_" cx="2.306" cy="2.306" rx="2.306" ry="2.306" transform="translate(114.926 53.753)" fill="#fff"/>
          <path id="XMLID_10_" d="M654.181,90.056a2.306,2.306,0,1,1-2.306-2.306A2.31,2.31,0,0,1,654.181,90.056Z" transform="translate(-422.003 -16.955)" fill="#fff"/>
          <path id="XMLID_8_" d="M680.531,93.746a2.306,2.306,0,1,1-2.306-2.306A2.31,2.31,0,0,1,680.531,93.746Z" transform="translate(-419.004 -16.535)" fill="#fff"/>
          <path id="XMLID_105_" d="M330.439,149.72a3.52,3.52,0,1,1-3.52-3.52A3.52,3.52,0,0,1,330.439,149.72Z" transform="translate(-107.827 88.223)" fill="#fff"/>
          <path id="XMLID_103_" d="M390.4,162.31a3.52,3.52,0,1,1-3.52-3.52A3.52,3.52,0,0,1,390.4,162.31Z" transform="translate(-101.002 89.656)" fill="#fff"/>
          <ellipse id="XMLID_89_" cx="5.447" cy="5.447" rx="5.447" ry="5.447" transform="translate(281.13 205.434)" fill="#fff"/>
          <ellipse id="XMLID_89_2" data-name="XMLID_89_" cx="5.447" cy="5.447" rx="5.447" ry="5.447" transform="translate(261.895 285.578)" fill="#fff"/>
          <ellipse id="XMLID_89_3" data-name="XMLID_89_" cx="5.447" cy="5.447" rx="5.447" ry="5.447" transform="translate(147.895 443.578)" fill="#fff"/>
          <ellipse id="XMLID_81_" cx="5.447" cy="5.447" rx="5.447" ry="5.447" transform="translate(317.924 285.583)" fill="#fff"/>
          <ellipse id="XMLID_81_2" data-name="XMLID_81_" cx="5.447" cy="5.447" rx="5.447" ry="5.447" transform="translate(203.924 443.583)" fill="#fff"/>
          <ellipse id="XMLID_80_" cx="5.447" cy="5.447" rx="5.447" ry="5.447" transform="translate(235.418 216.527)" fill="#fff"/>
          <path id="XMLID_79_" d="M428.343,161.337a5.447,5.447,0,1,1-5.447-5.447A5.448,5.448,0,0,1,428.343,161.337Z" transform="translate(-109.945 82.914)" fill="#fff"/>
          <path id="XMLID_71_" d="M468.193,325.367a5.447,5.447,0,1,1-5.447-5.447A5.448,5.448,0,0,1,468.193,325.367Z" transform="translate(-112.889 -71.527)" fill="#fff"/>
          <path id="XMLID_58_" d="M426.841,336.636a2.306,2.306,0,1,1-2.306-2.306A2.31,2.31,0,0,1,426.841,336.636Z" transform="translate(-116.881 -69.887)" fill="#fff"/>
          <path id="XMLID_55_" d="M335.361,336.636a2.306,2.306,0,1,1-2.306-2.306A2.31,2.31,0,0,1,335.361,336.636Z" transform="translate(-127.294 -69.887)" fill="#fff"/>
          <path id="XMLID_55_2" data-name="XMLID_55_" d="M335.361,336.636a2.306,2.306,0,1,1-2.306-2.306A2.31,2.31,0,0,1,335.361,336.636Z" transform="translate(-97.294 -316.887)" fill="#fff"/>
          <path id="XMLID_54_" d="M354.031,163.086a2.306,2.306,0,1,1-2.306-2.306A2.31,2.31,0,0,1,354.031,163.086Z" transform="translate(-104.865 89.882)" fill="#fff"/>
          <path id="XMLID_54_2" data-name="XMLID_54_" d="M354.031,163.086a2.306,2.306,0,1,1-2.306-2.306A2.31,2.31,0,0,1,354.031,163.086Z" transform="translate(-74.865 -157.118)" fill="#fff"/>
          <ellipse id="XMLID_52_" cx="2.306" cy="2.306" rx="2.306" ry="2.306" transform="translate(371.544 276.149)" fill="#fff"/>
          <ellipse id="XMLID_51_" cx="2.306" cy="2.306" rx="2.306" ry="2.306" transform="translate(369.238 243.269)" fill="#fff"/>
          <path id="XMLID_49_" d="M464.721,363.326a2.306,2.306,0,1,1-2.306-2.306A2.31,2.31,0,0,1,464.721,363.326Z" transform="translate(-112.569 -66.849)" fill="#fff"/>
          <path id="XMLID_49_2" data-name="XMLID_49_" d="M464.721,363.326a2.306,2.306,0,1,1-2.306-2.306A2.31,2.31,0,0,1,464.721,363.326Z" transform="translate(-226.569 91.151)" fill="#fff"/>
          <path id="XMLID_110_" d="M280.589,168.23a3.52,3.52,0,1,1-3.52-3.52A3.52,3.52,0,0,1,280.589,168.23Z" transform="translate(-212.805 229.805)" fill="#fff"/>
          <path id="XMLID_107_" d="M309.239,122.7a3.52,3.52,0,1,1-3.52-3.52A3.52,3.52,0,0,1,309.239,122.7Z" transform="translate(-209.544 224.623)" fill="#fff"/>
          <path id="XMLID_106_" d="M271.289,77.04a3.52,3.52,0,1,1-3.52-3.52A3.52,3.52,0,0,1,271.289,77.04Z" transform="translate(-213.864 219.425)" fill="#fff"/>
          <path id="XMLID_97_" d="M298.469,190.53a3.52,3.52,0,1,1-3.52-3.52A3.52,3.52,0,0,1,298.469,190.53Z" transform="translate(-210.77 232.344)" fill="#fff"/>
          <path id="XMLID_95_" d="M227.739,283.77a3.52,3.52,0,1,1-3.52-3.52A3.52,3.52,0,0,1,227.739,283.77Z" transform="translate(-218.821 242.957)" fill="#fff"/>
          <path id="XMLID_94_" d="M298.469,325.17a3.52,3.52,0,1,1-3.52-3.52A3.52,3.52,0,0,1,298.469,325.17Z" transform="translate(-210.77 247.669)" fill="#fff"/>
          <path id="XMLID_94_2" data-name="XMLID_94_" d="M298.469,325.17a3.52,3.52,0,1,1-3.52-3.52A3.52,3.52,0,0,1,298.469,325.17Z" transform="translate(-207.77 416.669)" fill="#fff"/>
          <path id="XMLID_90_" d="M273.423,109.177a5.447,5.447,0,1,1-5.447-5.447A5.448,5.448,0,0,1,273.423,109.177Z" transform="translate(-214.059 222.864)" fill="#fff"/>
          <ellipse id="XMLID_75_" cx="5.447" cy="5.447" rx="5.447" ry="5.447" transform="translate(37.455 426.605)" fill="#fff"/>
          <ellipse id="XMLID_70_" cx="5.447" cy="5.447" rx="5.447" ry="5.447" transform="translate(47.635 553.681)" fill="#fff"/>
          <ellipse id="XMLID_70_2" data-name="XMLID_70_" cx="5.447" cy="5.447" rx="5.447" ry="5.447" transform="translate(50.635 722.681)" fill="#fff"/>
          <path id="XMLID_69_" d="M318.243,353.867a5.447,5.447,0,1,1-5.447-5.447A5.448,5.448,0,0,1,318.243,353.867Z" transform="translate(-208.958 250.717)" fill="#fff"/>
          <path id="XMLID_69_2" data-name="XMLID_69_" d="M318.243,353.867a5.447,5.447,0,1,1-5.447-5.447A5.448,5.448,0,0,1,318.243,353.867Z" transform="translate(-205.958 419.717)" fill="#fff"/>
          <ellipse id="XMLID_65_" cx="2.306" cy="2.306" rx="2.306" ry="2.306" transform="translate(36.219 363.896)" fill="#fff"/>
          <path id="XMLID_63_" d="M453.631,206.886a2.306,2.306,0,1,1-2.306-2.306A2.31,2.31,0,0,1,453.631,206.886Z" transform="translate(-192.831 234.344)" fill="#fff"/>
          <path id="XMLID_63_2" data-name="XMLID_63_" d="M453.631,206.886a2.306,2.306,0,1,1-2.306-2.306A2.31,2.31,0,0,1,453.631,206.886Z" transform="translate(-306.831 392.344)" fill="#fff"/>
          <path id="XMLID_63_3" data-name="XMLID_63_" d="M453.631,206.886a2.306,2.306,0,1,1-2.306-2.306A2.31,2.31,0,0,1,453.631,206.886Z" transform="translate(-303.831 561.344)" fill="#fff"/>
          <path id="XMLID_62_" d="M249.551,289.076a2.306,2.306,0,1,1-2.306-2.306A2.31,2.31,0,0,1,249.551,289.076Z" transform="translate(-216.062 243.699)" fill="#fff"/>
          <ellipse id="XMLID_61_" cx="2.306" cy="2.306" rx="2.306" ry="2.306" transform="translate(51.601 595.149)" fill="#fff"/>
          <ellipse id="XMLID_61_2" data-name="XMLID_61_" cx="2.306" cy="2.306" rx="2.306" ry="2.306" transform="translate(54.601 764.149)" fill="#fff"/>
          <path id="XMLID_60_" d="M226.4,252.346a2.306,2.306,0,1,1-2.306-2.306A2.31,2.31,0,0,1,226.4,252.346Z" transform="translate(-218.697 239.518)" fill="#fff"/>
          <path id="XMLID_59_" d="M293.961,363.326a2.306,2.306,0,1,1-2.306-2.306A2.31,2.31,0,0,1,293.961,363.326Z" transform="translate(-211.006 252.151)" fill="#fff"/>
          <path id="XMLID_59_2" data-name="XMLID_59_" d="M293.961,363.326a2.306,2.306,0,1,1-2.306-2.306A2.31,2.31,0,0,1,293.961,363.326Z" transform="translate(-208.006 421.151)" fill="#fff"/>
          <path id="XMLID_56_" d="M257.591,224.726a2.306,2.306,0,1,1-2.306-2.306A2.31,2.31,0,0,1,257.591,224.726Z" transform="translate(-215.146 236.374)" fill="#fff"/>
          <path id="XMLID_46_" d="M223.241,146.426a2.306,2.306,0,1,1-2.306-2.306A2.31,2.31,0,0,1,223.241,146.426Z" transform="translate(-219.056 227.461)" fill="#fff"/>
          <path id="XMLID_45_" d="M308.991,90.056a2.306,2.306,0,1,1-2.306-2.306A2.31,2.31,0,0,1,308.991,90.056Z" transform="translate(-209.296 221.045)" fill="#fff"/>
          <path id="XMLID_43_" d="M383.831,110.416a2.306,2.306,0,1,1-2.306-2.306A2.31,2.31,0,0,1,383.831,110.416Z" transform="translate(-200.777 223.362)" fill="#fff"/>
          <path id="XMLID_42_" d="M439.951,99.836a2.306,2.306,0,1,1-2.306-2.306A2.31,2.31,0,0,1,439.951,99.836Z" transform="translate(-194.389 222.158)" fill="#fff"/>
          <path id="XMLID_42_2" data-name="XMLID_42_" d="M439.951,99.836a2.306,2.306,0,1,1-2.306-2.306A2.31,2.31,0,0,1,439.951,99.836Z" transform="translate(-308.389 380.158)" fill="#fff"/>
          <path id="XMLID_35_" d="M423.951,80.776a2.306,2.306,0,1,1-2.306-2.306A2.31,2.31,0,0,1,423.951,80.776Z" transform="translate(-196.21 219.989)" fill="#fff"/>
          <path id="XMLID_35_2" data-name="XMLID_35_" d="M423.951,80.776a2.306,2.306,0,1,1-2.306-2.306A2.31,2.31,0,0,1,423.951,80.776Z" transform="translate(-310.21 377.989)" fill="#fff"/>
          <path id="XMLID_115_" d="M112.879,110.54a3.52,3.52,0,1,1-3.52-3.52A3.52,3.52,0,0,1,112.879,110.54Z" transform="translate(145.105 277.238)" fill="#fff"/>
          <path id="XMLID_115_2" data-name="XMLID_115_" d="M112.879,110.54a3.52,3.52,0,1,1-3.52-3.52A3.52,3.52,0,0,1,112.879,110.54Z" transform="translate(31.105 435.238)" fill="#fff"/>
          <path id="XMLID_115_3" data-name="XMLID_115_" d="M112.879,110.54a3.52,3.52,0,1,1-3.52-3.52A3.52,3.52,0,0,1,112.879,110.54Z" transform="translate(34.105 604.238)" fill="#fff"/>
          <path id="XMLID_111_" d="M92.279,96.7a3.52,3.52,0,1,1-3.52-3.52A3.52,3.52,0,0,1,92.279,96.7Z" transform="translate(142.76 275.663)" fill="#fff"/>
          <path id="XMLID_111_2" data-name="XMLID_111_" d="M92.279,96.7a3.52,3.52,0,1,1-3.52-3.52A3.52,3.52,0,0,1,92.279,96.7Z" transform="translate(28.76 433.663)" fill="#fff"/>
          <path id="XMLID_109_" d="M184.729,70.91a3.52,3.52,0,1,1-3.52-3.52A3.52,3.52,0,0,1,184.729,70.91Z" transform="translate(153.283 272.727)" fill="#fff"/>
          <path id="XMLID_109_2" data-name="XMLID_109_" d="M184.729,70.91a3.52,3.52,0,1,1-3.52-3.52A3.52,3.52,0,0,1,184.729,70.91Z" transform="translate(39.283 430.727)" fill="#fff"/>
          <path id="XMLID_99_" d="M172.819,102.16a3.52,3.52,0,1,1-3.52-3.52A3.52,3.52,0,0,1,172.819,102.16Z" transform="translate(151.928 276.284)" fill="#fff"/>
          <path id="XMLID_99_2" data-name="XMLID_99_" d="M172.819,102.16a3.52,3.52,0,1,1-3.52-3.52A3.52,3.52,0,0,1,172.819,102.16Z" transform="translate(37.928 434.284)" fill="#fff"/>
          <path id="XMLID_99_3" data-name="XMLID_99_" d="M172.819,102.16a3.52,3.52,0,1,1-3.52-3.52A3.52,3.52,0,0,1,172.819,102.16Z" transform="translate(121.928 491.284)" fill="#fff"/>
          <ellipse id="XMLID_98_" cx="3.52" cy="3.52" rx="3.52" ry="3.52" transform="translate(338.525 416.682)" fill="#fff"/>
          <ellipse id="XMLID_98_2" data-name="XMLID_98_" cx="3.52" cy="3.52" rx="3.52" ry="3.52" transform="translate(224.525 574.682)" fill="#fff"/>
          <ellipse id="XMLID_98_3" data-name="XMLID_98_" cx="3.52" cy="3.52" rx="3.52" ry="3.52" transform="translate(227.525 743.682)" fill="#fff"/>
          <path id="XMLID_96_" d="M213.2,170.66a3.52,3.52,0,1,1-3.52-3.52A3.52,3.52,0,0,1,213.2,170.66Z" transform="translate(156.524 284.082)" fill="#fff"/>
          <path id="XMLID_96_2" data-name="XMLID_96_" d="M213.2,170.66a3.52,3.52,0,1,1-3.52-3.52A3.52,3.52,0,0,1,213.2,170.66Z" transform="translate(42.524 442.082)" fill="#fff"/>
          <path id="XMLID_96_3" data-name="XMLID_96_" d="M213.2,170.66a3.52,3.52,0,1,1-3.52-3.52A3.52,3.52,0,0,1,213.2,170.66Z" transform="translate(45.524 611.082)" fill="#fff"/>
          <ellipse id="XMLID_93_" cx="5.447" cy="5.447" rx="5.447" ry="5.447" transform="translate(276.507 365.1)" fill="#fff"/>
          <ellipse id="XMLID_93_2" data-name="XMLID_93_" cx="5.447" cy="5.447" rx="5.447" ry="5.447" transform="translate(162.507 523.1)" fill="#fff"/>
          <ellipse id="XMLID_91_" cx="5.447" cy="5.447" rx="5.447" ry="5.447" transform="translate(295.387 464.922)" fill="#fff"/>
          <ellipse id="XMLID_91_2" data-name="XMLID_91_" cx="5.447" cy="5.447" rx="5.447" ry="5.447" transform="translate(181.387 622.922)" fill="#fff"/>
          <ellipse id="XMLID_91_3" data-name="XMLID_91_" cx="5.447" cy="5.447" rx="5.447" ry="5.447" transform="translate(184.387 791.922)" fill="#fff"/>
          <path id="XMLID_73_" d="M198.863,210.317a5.447,5.447,0,1,1-5.447-5.447A5.448,5.448,0,0,1,198.863,210.317Z" transform="translate(154.454 288.376)" fill="#fff"/>
          <path id="XMLID_73_2" data-name="XMLID_73_" d="M198.863,210.317a5.447,5.447,0,1,1-5.447-5.447A5.448,5.448,0,0,1,198.863,210.317Z" transform="translate(40.454 446.376)" fill="#fff"/>
          <path id="XMLID_73_3" data-name="XMLID_73_" d="M198.863,210.317a5.447,5.447,0,1,1-5.447-5.447A5.448,5.448,0,0,1,198.863,210.317Z" transform="translate(108.454 466.376)" fill="#fff"/>
          <path id="XMLID_73_4" data-name="XMLID_73_" d="M198.863,210.317a5.447,5.447,0,1,1-5.447-5.447A5.448,5.448,0,0,1,198.863,210.317Z" transform="translate(-50.546 461.376)" fill="#fff"/>
          <path id="XMLID_73_5" data-name="XMLID_73_" d="M198.863,210.317a5.447,5.447,0,1,1-5.447-5.447A5.448,5.448,0,0,1,198.863,210.317Z" transform="translate(145.454 580.376)" fill="#fff"/>
          <path id="XMLID_72_" d="M200.933,268.4a5.447,5.447,0,1,1-5.447-5.447A5.448,5.448,0,0,1,200.933,268.4Z" transform="translate(154.689 294.988)" fill="#fff"/>
          <path id="XMLID_72_2" data-name="XMLID_72_" d="M200.933,268.4a5.447,5.447,0,1,1-5.447-5.447A5.448,5.448,0,0,1,200.933,268.4Z" transform="translate(157.689 463.988)" fill="#fff"/>
          <path id="XMLID_72_3" data-name="XMLID_72_" d="M200.933,268.4a5.447,5.447,0,1,1-5.447-5.447A5.448,5.448,0,0,1,200.933,268.4Z" transform="translate(40.689 452.988)" fill="#fff"/>
          <path id="XMLID_72_4" data-name="XMLID_72_" d="M200.933,268.4a5.447,5.447,0,1,1-5.447-5.447A5.448,5.448,0,0,1,200.933,268.4Z" transform="translate(116.689 478.988)" fill="#fff"/>
          <path id="XMLID_68_" d="M140.181,123.516a2.306,2.306,0,1,1-2.306-2.306A2.31,2.31,0,0,1,140.181,123.516Z" transform="translate(148.489 278.854)" fill="#fff"/>
          <path id="XMLID_68_2" data-name="XMLID_68_" d="M140.181,123.516a2.306,2.306,0,1,1-2.306-2.306A2.31,2.31,0,0,1,140.181,123.516Z" transform="translate(34.489 436.854)" fill="#fff"/>
          <path id="XMLID_68_3" data-name="XMLID_68_" d="M140.181,123.516a2.306,2.306,0,1,1-2.306-2.306A2.31,2.31,0,0,1,140.181,123.516Z" transform="translate(37.489 605.854)" fill="#fff"/>
          <path id="XMLID_67_" d="M156.161,79.646a2.306,2.306,0,1,1-2.306-2.306A2.31,2.31,0,0,1,156.161,79.646Z" transform="translate(150.308 273.86)" fill="#fff"/>
          <path id="XMLID_67_2" data-name="XMLID_67_" d="M156.161,79.646a2.306,2.306,0,1,1-2.306-2.306A2.31,2.31,0,0,1,156.161,79.646Z" transform="translate(36.308 431.86)" fill="#fff"/>
          <ellipse id="XMLID_66_" cx="2.306" cy="2.306" rx="2.306" ry="2.306" transform="translate(279.648 441.832)" fill="#fff"/>
          <ellipse id="XMLID_66_2" data-name="XMLID_66_" cx="2.306" cy="2.306" rx="2.306" ry="2.306" transform="translate(165.648 599.832)" fill="#fff"/>
          <ellipse id="XMLID_66_3" data-name="XMLID_66_" cx="2.306" cy="2.306" rx="2.306" ry="2.306" transform="translate(168.648 768.832)" fill="#fff"/>
          <path id="XMLID_64_" d="M195.4,188.336a2.306,2.306,0,1,1-2.306-2.306A2.31,2.31,0,0,1,195.4,188.336Z" transform="translate(154.775 286.232)" fill="#fff"/>
          <path id="XMLID_64_2" data-name="XMLID_64_" d="M195.4,188.336a2.306,2.306,0,1,1-2.306-2.306A2.31,2.31,0,0,1,195.4,188.336Z" transform="translate(40.775 444.232)" fill="#fff"/>
          <path id="XMLID_44_" d="M325.931,73.756a2.306,2.306,0,1,1-2.306-2.306A2.31,2.31,0,0,1,325.931,73.756Z" transform="translate(-5.367 437.189)" fill="#fff"/>
          <path id="XMLID_44_2" data-name="XMLID_44_" d="M325.931,73.756a2.306,2.306,0,1,1-2.306-2.306A2.31,2.31,0,0,1,325.931,73.756Z" transform="translate(-119.367 595.189)" fill="#fff"/>
          <path id="XMLID_101_" d="M530.159,282.16a3.52,3.52,0,1,1-3.52-3.52A3.52,3.52,0,0,1,530.159,282.16Z" transform="translate(-190.397 -116.226)" fill="#fff"/>
          <path id="XMLID_105_2" data-name="XMLID_105_" d="M330.439,149.72a3.52,3.52,0,1,1-3.52-3.52A3.52,3.52,0,0,1,330.439,149.72Z" transform="translate(-77.827 -158.777)" fill="#fff"/>
        </g>
      </g>
      <g id="XMLID_351_" transform="translate(-19.656 117.554)">
        <ellipse id="XMLID_362_" cx="20.004" cy="20.004" rx="20.004" ry="20.004" transform="translate(0 0.011)" fill="#f2f5fc"/>
        <g id="XMLID_352_" transform="translate(0.123)">
          <path id="XMLID_359_" d="M523.239,110.463c-4.611.334-7.73-.334-10.2-2.8-1.337-1.337-4.11-1.949-6.382-2.228a19.99,19.99,0,0,0-4.934,8.031,28.6,28.6,0,0,0,10.982,3.575c3.13.167,7.9,1.8,12.163,3.62s6.416.824,10.537,1.481c1.481.234,3.319.557,5.068.88a20.156,20.156,0,0,0-.156-7.619,19.183,19.183,0,0,1-4.422-1.648C533.6,112.279,527.839,110.14,523.239,110.463Z" transform="translate(-500.885 -99.615)" fill="#fff"/>
          <path id="XMLID_356_" d="M537.292,129.335c-6.4.256-11.595-2.684-14.357-3.442-3.019-.824-9.813,1.147-13.6-1.971-2.216-1.827-5.792-3.041-8.365-3.731a20.05,20.05,0,0,0,2.963,8.443c2.216.5,4.533,1.17,5.569,2.194,1.971,1.971,9.868,4.277,13.433,3.943a13.318,13.318,0,0,1,6.182,1.381A19.893,19.893,0,0,0,537.292,129.335Z" transform="translate(-500.97 -97.936)" fill="#fff"/>
          <path id="XMLID_353_" d="M536.653,109.6a20.01,20.01,0,0,0-25.573-7.44,6.31,6.31,0,0,0,4.511,2.807c4.277.334,10.191.657,13.076,2.8A12.985,12.985,0,0,0,536.653,109.6Z" transform="translate(-499.819 -100.21)" fill="#fff"/>
        </g>
      </g>
      <g id="XMLID_176_" transform="translate(322.332 274.692)">
        <path id="XMLID_296_" d="M452.32,130.846a4.749,4.749,0,0,0-3.708-1.38,3.939,3.939,0,0,0-4.782-2.279,2.678,2.678,0,0,0-.761-1.583,2.708,2.708,0,0,0-3.352-.378,1.814,1.814,0,0,0-.515-1.03,1.848,1.848,0,0,0-1.145-.526c.219.2.345.307.345.307l-3.182,3.182-3.182,3.182s-.11-.126-.307-.345a1.8,1.8,0,0,0,.526,1.15,1.849,1.849,0,0,0,1.03.515,2.69,2.69,0,0,0,1.961,4.114,3.939,3.939,0,0,0,2.279,4.782,4.759,4.759,0,0,0,8.047,3.774l.005.005a4.822,4.822,0,0,0,6.82-6.82l-.005-.005A4.771,4.771,0,0,0,452.32,130.846Z" transform="translate(-406.782 -98.724)" fill="#fff"/>
        <g id="XMLID_177_" transform="translate(0)">
          <g id="XMLID_293_" transform="translate(1.721 17.391)">
            <path id="XMLID_295_" d="M430.395,133.84c-1.679-1.927-4.74-5.542-7.735-9.51l-3.119,11.055a60.152,60.152,0,0,1,4.683,4.636Z" transform="translate(-416.124 -124.33)" fill="#fff"/>
            <path id="XMLID_294_" d="M416.008,134.028c-.734,1.745,7.039,8.594,7.039,8.594l.773-.773.773-.773C424.6,141.076,417.753,133.293,416.008,134.028Z" transform="translate(-415.959 -124.776)" fill="#fff"/>
          </g>
          <g id="XMLID_290_" transform="translate(17.384 1.738)">
            <path id="XMLID_292_" d="M441.89,122.344c-1.927-1.679-5.542-4.74-9.51-7.735l11.055-3.119a60.168,60.168,0,0,0,4.636,4.683Z" transform="translate(-432.38 -108.084)" fill="#fff"/>
            <path id="XMLID_291_" d="M442.078,107.968c1.746-.734,8.594,7.039,8.594,7.039l-.773.773-.773.773S441.343,109.7,442.078,107.968Z" transform="translate(-432.826 -107.919)" fill="#fff"/>
          </g>
          <g id="XMLID_284_">
            <path id="XMLID_287_" d="M414.751,106.7c-4.368,4.368,16.692,27.775,16.692,27.775l5.542-5.542,5.542-5.542S419.11,102.333,414.751,106.7Z" transform="translate(-414.155 -106.097)" fill="#f2f5fc"/>
            <path id="XMLID_286_" d="M430.92,133.772c.811.935,1.3,1.478,1.3,1.478l5.542-5.542,5.542-5.542s-.544-.486-1.478-1.3Z" transform="translate(-414.929 -106.872)" fill="#fff"/>
            <path id="XMLID_285_" d="M421.962,107.988c-3.281-1.745-5.99-2.518-7.211-1.3s-.448,3.939,1.3,7.211Z" transform="translate(-414.155 -106.097)" fill="#fff"/>
          </g>
          <g id="XMLID_186_" transform="translate(5.42 5.418)">
            <g id="XMLID_216_" transform="translate(3.312 3.322)">
              <g id="XMLID_222_">
                <ellipse id="XMLID_226_" cx="4.035" cy="4.035" rx="4.035" ry="4.035" fill="#f2f5fc"/>
                <path id="XMLID_223_" d="M425.186,121.551a3.129,3.129,0,1,1,4.426,0A3.132,3.132,0,0,1,425.186,121.551Z" transform="translate(-423.354 -115.304)" fill="#f2f5fc"/>
              </g>
              <g id="XMLID_217_" transform="translate(2.652 1.641)">
                <g id="XMLID_220_" transform="translate(0 0)">
                  <path id="XMLID_221_" d="M426.338,120.585a.143.143,0,0,1-.1.038.147.147,0,0,1-.143-.143v-3.357a.143.143,0,1,1,.286,0v3.357A.114.114,0,0,1,426.338,120.585Z" transform="translate(-426.09 -116.98)" fill="#fff"/>
                </g>
                <g id="XMLID_218_" transform="translate(1.335)">
                  <path id="XMLID_219_" d="M427.738,121.9a.144.144,0,0,1-.1.038.147.147,0,0,1-.143-.143v-4.674a.143.143,0,0,1,.286,0V121.8A.144.144,0,0,1,427.738,121.9Z" transform="translate(-427.49 -116.98)" fill="#fff"/>
                </g>
              </g>
            </g>
            <g id="XMLID_200_">
              <g id="XMLID_206_">
                <path id="XMLID_213_" d="M420.46,115.414a2.131,2.131,0,1,1,3.014,0A2.136,2.136,0,0,1,420.46,115.414Z" transform="translate(-419.837 -111.778)" fill="#f2f5fc"/>
                <ellipse id="XMLID_207_" cx="1.612" cy="1.612" rx="1.612" ry="1.612" transform="translate(0.517 0.517)" fill="#f2f5fc"/>
              </g>
              <g id="XMLID_201_" transform="translate(1.366 0.909)">
                <g id="XMLID_204_">
                  <path id="XMLID_205_" d="M421.384,114.361a.073.073,0,0,1-.048.019.065.065,0,0,1-.067-.067V112.8a.067.067,0,0,1,.134,0v1.517C421.4,114.332,421.4,114.352,421.384,114.361Z" transform="translate(-421.27 -112.73)" fill="#fff"/>
                </g>
                <g id="XMLID_202_" transform="translate(0.601 0.01)">
                  <path id="XMLID_203_" d="M422.014,114.962a.073.073,0,0,1-.048.019.065.065,0,0,1-.067-.067v-2.108a.067.067,0,1,1,.134,0v2.108C422.034,114.934,422.024,114.943,422.014,114.962Z" transform="translate(-421.9 -112.74)" fill="#fff"/>
                </g>
              </g>
            </g>
            <g id="XMLID_187_" transform="translate(10.447 10.456)">
              <g id="XMLID_193_">
                <ellipse id="XMLID_197_" cx="2.127" cy="2.127" rx="2.127" ry="2.127" fill="#f2f5fc"/>
                <path id="XMLID_194_" d="M431.807,126.027a1.612,1.612,0,1,1,2.28,0A1.612,1.612,0,0,1,431.807,126.027Z" transform="translate(-430.815 -122.765)" fill="#f2f5fc"/>
              </g>
              <g id="XMLID_188_" transform="translate(1.374 0.906)">
                <g id="XMLID_191_" transform="translate(0 0)">
                  <path id="XMLID_192_" d="M432.344,125.321a.073.073,0,0,1-.048.019.065.065,0,0,1-.067-.067v-1.517a.067.067,0,0,1,.134,0v1.517C432.364,125.292,432.354,125.3,432.344,125.321Z" transform="translate(-432.23 -123.69)" fill="#fff"/>
                </g>
                <g id="XMLID_189_" transform="translate(0.601)">
                  <path id="XMLID_190_" d="M432.975,125.912a.073.073,0,0,1-.048.019.065.065,0,0,1-.067-.067v-2.108a.067.067,0,1,1,.134,0v2.108A.073.073,0,0,1,432.975,125.912Z" transform="translate(-432.86 -123.69)" fill="#fff"/>
                </g>
              </g>
            </g>
          </g>
          <g id="XMLID_178_" transform="translate(19.454 19.442)">
            <path id="XMLID_185_" d="M441.322,126.48l-3.386,3.386-3.386,3.386c3.472,10.435,10.893,10.616,10.893,10.616-1.641-1.04-.734-1.574-.734-1.574a13.367,13.367,0,0,0,7.135,1.469,13.367,13.367,0,0,0-1.469-7.135s.534-.906,1.574.734C451.938,137.373,451.747,129.952,441.322,126.48Z" transform="translate(-434.55 -126.48)" fill="#f2f5fc"/>
            <path id="XMLID_182_" d="M440.867,126.98l-2.919,2.919-2.919,2.919c4.054,8.6,14.307,8.47,14.307,8.47S449.471,131.034,440.867,126.98Z" transform="translate(-434.572 -126.503)" fill="#fff"/>
            <path id="XMLID_179_" d="M440.241,127.67l-2.261,2.261-2.261,2.261c3.148,6.667,11.093,6.562,11.093,6.562S446.918,130.808,440.241,127.67Z" transform="translate(-434.604 -126.535)" fill="#f2f5fc"/>
          </g>
        </g>
      </g>
      <g id="XMLID_297_" transform="translate(12.58 276.544)">
        <g id="XMLID_306_">
          <path id="XMLID_313_" d="M589.726,120.682l-8.309-9.512-4.633,4.634-4.634,4.634,9.512,8.309a2.611,2.611,0,0,1,.724,1.036l7.385,19.8a2.584,2.584,0,0,0,4.244.924l8.732-8.732,8.732-8.732a2.584,2.584,0,0,0-.924-4.244l-19.8-7.385A3,3,0,0,1,589.726,120.682Z" transform="translate(-567.299 -106.319)" fill="#fff"/>
          <path id="XMLID_310_" d="M579.83,107.467l-5.692,5.692-5.692,5.692a2.232,2.232,0,0,0,0,3.152h0a2.232,2.232,0,0,0,3.152,0l5.692-5.692,5.692-5.692a2.232,2.232,0,0,0,0-3.152h0A2.232,2.232,0,0,0,579.83,107.467Z" transform="translate(-567.795 -106.815)" fill="#fff"/>
          <path id="XMLID_307_" d="M581.884,111.7l-.468-.535-4.622,4.634-.033.033-4.6,4.6.535.457Z" transform="translate(-567.298 -106.319)" fill="#f2f5fc"/>
        </g>
        <path id="XMLID_303_" d="M590.1,121.768c-.056-.022-.123-.056-.178-.078l-7.24,7.24c.022.056.056.111.078.178l6.471,17.353a2.269,2.269,0,0,0,3.72.813l7.652-7.652,7.652-7.652a2.265,2.265,0,0,0-.813-3.72Z" transform="translate(-566.101 -105.122)" fill="#f2f5fc"/>
        <path id="XMLID_302_" d="M589.352,128.006a2.536,2.536,0,1,1-3.586,0A2.534,2.534,0,0,1,589.352,128.006Z" transform="translate(-565.834 -104.487)" fill="#fff"/>
        <path id="XMLID_301_" d="M598.053,126.176a2.536,2.536,0,1,1-3.586,0A2.534,2.534,0,0,1,598.053,126.176Z" transform="translate(-564.844 -104.696)" fill="#fff"/>
        <ellipse id="XMLID_300_" cx="2.54" cy="2.54" rx="2.54" ry="2.54" transform="translate(23.764 34.69)" fill="#fff"/>
        <ellipse id="XMLID_299_" cx="2.54" cy="2.54" rx="2.54" ry="2.54" transform="translate(25.824 27.372)" fill="#fff"/>
        <ellipse id="XMLID_298_" cx="2.54" cy="2.54" rx="2.54" ry="2.54" transform="translate(35.136 24.198)" fill="#fff"/>
      </g>
      <g id="XMLID_465_" transform="translate(18.281 194.21)">
        <rect id="XMLID_474_" width="4.979" height="3.587" transform="translate(1.497 5.017) rotate(-45)" fill="#f2f5fc"/>
        <path id="XMLID_473_" d="M279.824,132.4h0a2.494,2.494,0,0,0,0,3.52l.769.769,3.52-3.52-.769-.769A2.494,2.494,0,0,0,279.824,132.4Z" transform="translate(-279.098 -131.677)" fill="#fff"/>
        <path id="XMLID_470_" d="M303.76,159.86l7.039,3.52-3.52-7.039-.1,1.4-1.092-.212.156,1.292-1.136-.312.045,1.325Z" transform="translate(-276.29 -128.87)" fill="#f2f5fc"/>
        <path id="XMLID_469_" d="M307.74,161.623l2.606,1.3-1.3-2.606Z" transform="translate(-275.837 -128.417)" fill="#fff"/>
        <path id="XMLID_466_" d="M282.72,138.82l23.435,23.435,1.392-.022-.045-1.325,1.136.312-.156-1.292,1.092.212.1-1.4L286.24,135.3Z" transform="translate(-278.685 -131.265)" fill="#fff"/>
      </g>
      <g id="XMLID_479_" transform="translate(137.593 277.776)">
        <g id="XMLID_492_" transform="translate(1.647 0)">
          <rect id="XMLID_494_" width="33.448" height="40.777" transform="translate(19.202 0) rotate(28.092)" fill="#fff"/>
          <rect id="XMLID_493_" width="23.145" height="14.268" transform="translate(23.177 7.606) rotate(28.092)" fill="#f2f5fc"/>
        </g>
        <g id="XMLID_481_" transform="translate(0 0.84)">
          <path id="XMLID_491_" d="M555.476,167.846l-4.422-2.361a1.012,1.012,0,0,1-.412-1.37h0a1.012,1.012,0,0,1,1.37-.412l4.422,2.361a1.012,1.012,0,0,1,.412,1.37h0A1.029,1.029,0,0,1,555.476,167.846Z" transform="translate(-534.526 -163.581)" fill="#fff"/>
          <path id="XMLID_490_" d="M553.686,171.206l-4.422-2.361a1.012,1.012,0,0,1-.412-1.37h0a1.012,1.012,0,0,1,1.37-.412l4.422,2.361a1.012,1.012,0,0,1,.412,1.37h0A1.012,1.012,0,0,1,553.686,171.206Z" transform="translate(-534.73 -163.198)" fill="#fff"/>
          <path id="XMLID_489_" d="M551.886,174.566l-4.422-2.361a1.012,1.012,0,0,1-.412-1.37h0a1.012,1.012,0,0,1,1.37-.412l4.422,2.361a1.012,1.012,0,0,1,.412,1.37h0A1.012,1.012,0,0,1,551.886,174.566Z" transform="translate(-534.935 -162.816)" fill="#fff"/>
          <path id="XMLID_488_" d="M550.086,177.926l-4.422-2.361a1.012,1.012,0,0,1-.412-1.37h0a1.012,1.012,0,0,1,1.37-.412l4.422,2.361a1.012,1.012,0,0,1,.412,1.37h0A1.006,1.006,0,0,1,550.086,177.926Z" transform="translate(-535.14 -162.433)" fill="#fff"/>
          <path id="XMLID_487_" d="M548.3,181.3l-4.422-2.361a1.012,1.012,0,0,1-.412-1.37h0a1.012,1.012,0,0,1,1.37-.412l4.422,2.361a1.012,1.012,0,0,1,.412,1.37h0A1.022,1.022,0,0,1,548.3,181.3Z" transform="translate(-535.344 -162.05)" fill="#fff"/>
          <path id="XMLID_486_" d="M546.5,184.656l-4.422-2.361a1.012,1.012,0,0,1-.412-1.37h0a1.012,1.012,0,0,1,1.37-.412l4.422,2.361a1.012,1.012,0,0,1,.412,1.37h0A1.006,1.006,0,0,1,546.5,184.656Z" transform="translate(-535.548 -161.667)" fill="#fff"/>
          <path id="XMLID_485_" d="M544.706,188.016l-4.422-2.361a1.012,1.012,0,0,1-.412-1.37h0a1.012,1.012,0,0,1,1.37-.412l4.422,2.361a1.012,1.012,0,0,1,.412,1.37h0A1.012,1.012,0,0,1,544.706,188.016Z" transform="translate(-535.752 -161.285)" fill="#fff"/>
          <path id="XMLID_483_" d="M542.906,191.386l-4.422-2.361a1.012,1.012,0,0,1-.412-1.37h0a1.012,1.012,0,0,1,1.37-.412l4.422,2.361a1.012,1.012,0,0,1,.412,1.37h0A1.016,1.016,0,0,1,542.906,191.386Z" transform="translate(-535.957 -160.901)" fill="#fff"/>
          <path id="XMLID_482_" d="M541.116,194.746l-4.422-2.361a1.012,1.012,0,0,1-.412-1.37h0a1.012,1.012,0,0,1,1.37-.412l4.422,2.361a1.012,1.012,0,0,1,.412,1.37h0A1.012,1.012,0,0,1,541.116,194.746Z" transform="translate(-536.161 -160.519)" fill="#fff"/>
        </g>
      </g>
      <g id="XMLID_495_" transform="translate(306.554 165.08) rotate(-19)">
        <g id="XMLID_507_">
          <path id="XMLID_516_" d="M244.081,246.29l-3.631,1.771,19.86,40.833a4.043,4.043,0,0,0,7.273-3.531l-19.86-40.833Z" transform="translate(-237.607 -241.62)" fill="#fff"/>
          <path id="XMLID_512_" d="M247.9,242.043l-4.645,2.261-4.645,2.261a1.275,1.275,0,1,0,1.114,2.294l4.645-2.261,4.645-2.261a1.275,1.275,0,1,0-1.114-2.294Z" transform="translate(-237.897 -241.917)" fill="#fff"/>
          <path id="XMLID_508_" d="M248.07,245.254l-.356-.724-3.531,1.715-.056.022-.045.022-3.642,1.771.356.735Z" transform="translate(-237.608 -241.62)" fill="#f2f5fc"/>
        </g>
        <path id="XMLID_504_" d="M247.656,253.765l-2.9,1.4,15.794,32.479a3.215,3.215,0,1,0,5.781-2.818L250.541,252.35Z" transform="translate(-237.116 -240.73)" fill="#f2f5fc"/>
        <g id="XMLID_496_" transform="translate(11.371 13.439)">
          <path id="XMLID_503_" d="M251.53,254.993a1.8,1.8,0,1,1-2.406-.835A1.8,1.8,0,0,1,251.53,254.993Z" transform="translate(-248.106 -253.983)" fill="#fff"/>
          <path id="XMLID_502_" d="M255.47,264.6a1.8,1.8,0,1,1-2.406-.835A1.815,1.815,0,0,1,255.47,264.6Z" transform="translate(-247.658 -252.889)" fill="#fff"/>
          <path id="XMLID_501_" d="M255.97,269.344a1.8,1.8,0,1,1-2.406-.835A1.8,1.8,0,0,1,255.97,269.344Z" transform="translate(-247.601 -252.35)" fill="#fff"/>
          <path id="XMLID_500_" d="M251.57,260.294a1.8,1.8,0,1,1-2.406-.835A1.8,1.8,0,0,1,251.57,260.294Z" transform="translate(-248.102 -253.38)" fill="#fff"/>
          <path id="XMLID_499_" d="M260.9,274.254a1.8,1.8,0,1,1-2.406-.835A1.8,1.8,0,0,1,260.9,274.254Z" transform="translate(-247.04 -251.791)" fill="#fff"/>
          <path id="XMLID_497_" d="M261.79,281.294a1.8,1.8,0,1,1-2.406-.835A1.8,1.8,0,0,1,261.79,281.294Z" transform="translate(-246.939 -250.99)" fill="#fff"/>
        </g>
      </g>
      <g id="XMLID_376_" transform="translate(54.101 29.761)">
        <rect id="XMLID_422_" width="27.378" height="39.073" transform="translate(0 11.458) rotate(-24.74)" fill="#fff"/>
        <g id="XMLID_377_" transform="translate(3.343 3.789)">
          <rect id="XMLID_419_" width="22.934" height="6.794" transform="translate(0 9.598) rotate(-24.74)" fill="#f2f5fc"/>
          <rect id="XMLID_416_" width="4.01" height="4.01" transform="translate(4.116 18.543) rotate(-24.74)" fill="#f2f5fc"/>
          <rect id="XMLID_413_" width="4.01" height="4.01" transform="translate(9.868 15.888) rotate(-24.746)" fill="#f2f5fc"/>
          <rect id="XMLID_410_" width="4.01" height="4.01" transform="translate(15.578 13.262) rotate(-24.74)" fill="#f2f5fc"/>
          <rect id="XMLID_407_" width="4.01" height="4.01" transform="translate(21.32 10.61) rotate(-24.746)" fill="#f2f5fc"/>
          <rect id="XMLID_404_" width="4.01" height="4.01" transform="translate(6.682 24.04) rotate(-24.746)" fill="#f2f5fc"/>
          <rect id="XMLID_401_" width="4.01" height="4.01" transform="translate(12.392 21.411) rotate(-24.74)" fill="#f2f5fc"/>
          <rect id="XMLID_398_" width="4.01" height="4.01" transform="translate(18.117 18.776) rotate(-24.74)" fill="#f2f5fc"/>
          <rect id="XMLID_397_" width="4.01" height="4.01" transform="translate(23.853 16.134) rotate(-24.74)" fill="#f2f5fc"/>
          <rect id="XMLID_394_" width="4.01" height="4.01" transform="translate(9.204 29.567) rotate(-24.74)" fill="#f2f5fc"/>
          <rect id="XMLID_391_" width="4.01" height="4.01" transform="translate(14.931 26.926) rotate(-24.74)" fill="#f2f5fc"/>
          <rect id="XMLID_388_" width="4.01" height="4.01" transform="translate(20.673 24.278) rotate(-24.746)" fill="#f2f5fc"/>
          <rect id="XMLID_385_" width="4.01" height="4.01" transform="translate(11.743 35.081) rotate(-24.74)" fill="#f2f5fc"/>
          <rect id="XMLID_382_" width="4.01" height="4.01" transform="translate(17.486 32.431) rotate(-24.746)" fill="#f2f5fc"/>
          <rect id="XMLID_379_" width="4.01" height="4.01" transform="translate(23.205 29.801) rotate(-24.74)" fill="#f2f5fc"/>
          <rect id="XMLID_378_" width="4.01" height="10.08" transform="translate(26.391 21.649) rotate(-24.74)" fill="#f2f5fc"/>
        </g>
      </g>
    </g>
  </g>
</svg>
