<svg xmlns="http://www.w3.org/2000/svg" xmlns:xlink="http://www.w3.org/1999/xlink" width="107.892" height="107.892" viewBox="0 0 107.892 107.892">
  <defs>
    <clipPath id="clip-path">
      <circle id="Ellipse_174" data-name="Ellipse 174" cx="53.946" cy="53.946" r="53.946" transform="translate(19 157)" fill="#f2f5fc"/>
    </clipPath>
  </defs>
  <g id="Mask_Group_3" data-name="Mask Group 3" transform="translate(-19 -157)" clip-path="url(#clip-path)">
    <g id="Group_2190" data-name="Group 2190" transform="translate(-4.238 155.34)">
      <path id="Path_43306" data-name="Path 43306" d="M0,0H152.881V111.9H0Z" transform="translate(0)" fill="#0675c1"/>
      <g id="Group_2189" data-name="Group 2189" transform="translate(46.18 31.446)">
        <g id="Group_2188" data-name="Group 2188" transform="translate(0 0)">
          <path id="Path_43237" data-name="Path 43237" d="M88.658,104.07a20.474,20.474,0,0,0-1.721-4.446,19.385,19.385,0,0,0-5.163-6.453,8.088,8.088,0,0,0-2.868-1.578,7.538,7.538,0,0,0-2.438-.574h-1a8.363,8.363,0,0,0,.287-3.3A9.245,9.245,0,0,0,66.286,78.4h-.574a10.645,10.645,0,0,0-7.888,4.015,7.065,7.065,0,0,0-1.147,6.31c1.721,6.31,4.876,9.322,9.465,9.322h.43a10.108,10.108,0,0,0,5.88-2.151,9.471,9.471,0,0,0,2.438-3.442c.287,0,.717.143,1.147.143a8.288,8.288,0,0,1,2.008.717,11.7,11.7,0,0,1,2.438,1.577,18.709,18.709,0,0,1,4.446,5.88,21.569,21.569,0,0,1,2.008,8.748,12.321,12.321,0,0,1-.717,4.589,10.356,10.356,0,0,1-2.008,3.729,12.329,12.329,0,0,1-2.868,2.581,21.115,21.115,0,0,1-3.155,1.434c-.86.287-1.864.43-2.868.717-1,.143-1.721.143-2.295.287h-.574c.143-.143.143-.287.287-.43l.143-.43h0v-1.147a2.038,2.038,0,0,0-.287-.86,4.486,4.486,0,0,0-.717-1.434,6.122,6.122,0,0,0-2.008-1.864,4.292,4.292,0,0,0-1.147-.574l-.43-7.314-.287-.143v-.287l-.43-.287c.143-.143.287-.287.143-.574l-.43-.287a2.858,2.858,0,0,0-1.147.287l-1.291.43c-.143,0-.143,0-.287.143h-.143c-.287,0-.717.143-1.147.143l-.717.143c-.574.143-1.291.143-1.864.287h-.43c-.86.143-1.578.287-2.295.43h-.287c-.287,0-.574.143-.86.143s-.43.144-.717.287l-1,.574c-.86.574-1.291.717-1.291,1l-.143.287h0c.143-.43-.287-.717-1.864-1.721h0a.14.14,0,0,1-.143-.143l-.717-.287a9.892,9.892,0,0,0-1.147-.43h-.287l-2.725.143H45.062l-2.868-.287a2.114,2.114,0,0,0-1.721-.717c-.574,0-.86-.143-1,.287v.43a1.533,1.533,0,0,0,.717.43l-.287.143v.143l-.143.143v2.438a.5.5,0,0,0-.287.143h0v-.143c-.287-.43-.717-.143-1.721.43l-.86.574a.14.14,0,0,0-.143.143l-.717.574-.574.574a.5.5,0,0,0-.143.287l-.287.574c-.143.287-.287.717-.43,1,0,.143,0,.143-.143.287v1.147l.574,1.147h0v.143h0l.574.574h0l.143.143h.143l.143.143s.287.287.43.287h.287a.57.57,0,0,0,.143-.717c0-.143-.143-.143-.143-.287a.14.14,0,0,0-.143-.143V118.7h0l-.43-.574a1.087,1.087,0,0,0-.287-.574v-.717l.43-.861.287-.43h0l1-1,1-.717c.287-.143.43-.43.717-.574l.43.287h.287a6.209,6.209,0,0,1,.717-.143,3.563,3.563,0,0,1,1.147.143c.287,0,.43.143.717.143l.287.143.574.287a6.072,6.072,0,0,1,1,.717l-.287.287-.574.574-1,.86-3.585,1.434c-1.434.574-1.578.717-1.578,1.147,0,.143.143.43.574.43a8.253,8.253,0,0,0,1.434-.287c.287,0,.43-.143.717-.143v1.577h0c-.143,0-.43.143-1.291.287l-.43.143a4.242,4.242,0,0,1-1.434.287,8.681,8.681,0,0,1-2.151.287h-.574a6.366,6.366,0,0,1-1.864-.287,2.2,2.2,0,0,1-1.577-1.577,5.52,5.52,0,0,1,.143-3.012,19.456,19.456,0,0,1,1.291-3.3,21.82,21.82,0,0,1,4.159-5.593,21,21,0,0,1,4.589-3.585,13.814,13.814,0,0,1,3.585-1.434,2.8,2.8,0,0,1,1-.143,6.211,6.211,0,0,0,4.876,2.151h.43A8.032,8.032,0,0,0,55.1,103.5a7.12,7.12,0,0,0,2.868-6.167,6.988,6.988,0,0,0-7.314-6.884h-.43a8.224,8.224,0,0,0-6.31,3.155A4.787,4.787,0,0,0,43.2,98.19a16.78,16.78,0,0,0,1.577,3.585h-.287a9.757,9.757,0,0,0-4.159,1.291A19.81,19.81,0,0,0,35.31,106.8a30.445,30.445,0,0,0-4.589,6.023,13.312,13.312,0,0,0-1.434,3.729A9.869,9.869,0,0,0,29,118.411a4.558,4.558,0,0,0,.287,2.008,2.855,2.855,0,0,0,1.147,1.721,4.961,4.961,0,0,0,1.721,1,7.2,7.2,0,0,0,1.721.287H35.31c.86-.143,1.578-.287,2.438-.43.574-.143,1.147-.43,1.721-.574.717-.287,1-.43,1.291-.574h0L40.9,124l-.287.717a1.178,1.178,0,0,0,.143,1,.768.768,0,0,0,.574.43h.143a.527.527,0,0,0,.43-.143l.287-.143-.143-.43h0l.287.43h.143a.527.527,0,0,0,.43-.143c.574-.143,1.291-.287,1.864-.43,2.438-.43,4.733-.717,6.453-1l2.725-.43h.287l.287.143,1.434-.143.287-.287c.86.287,2.438.574,4.159,1a42.9,42.9,0,0,0,4.876.717c.287,0,.43,0,.43-.143l.43.143a5.286,5.286,0,0,0,2.438.717h.143a2.8,2.8,0,0,0,1.147-.143,5.091,5.091,0,0,0,1.291-.574,9.278,9.278,0,0,0,1.291-1.147c.43,0,.86.143,1.434.143H74.6a6.984,6.984,0,0,0,1.721-.143,20.576,20.576,0,0,0,3.155-.574,16.724,16.724,0,0,0,3.729-1.434,10.064,10.064,0,0,0,3.442-3.012,11.929,11.929,0,0,0,2.295-4.446,15.006,15.006,0,0,0,.717-5.163A53.016,53.016,0,0,0,88.658,104.07ZM54.1,102.063a7.081,7.081,0,0,1-3.585.717h0c-3.3,0-4.733-1.434-5.163-5.45-.43-3.585,1-5.306,4.589-5.88h.287c3.585,0,4.733,4.876,4.733,5.45C55.531,99.911,55.387,101.346,54.1,102.063Zm17.783-7.457c-1,.86-2.581,1.291-5.019,1.291h-.143c-4.446,0-6.167-2.151-6.74-7.744C59.4,83.133,61.267,80.695,66,79.977h.43c4.732,0,6.167,6.884,6.31,7.744C73.457,91.307,73.17,93.458,71.879,94.605Zm-12.62,26.1-.143.43c0,.144.143.287.86.861.43.287,1.147.717,1.864,1.147-.574-.143-1.291-.287-1.864-.43A24.78,24.78,0,0,0,55.531,122l-1-9.9,12.62-2.868.43,6.453a.444.444,0,0,0-.143.287.525.525,0,0,0,.574.574h.287a6.292,6.292,0,0,1,1.291.717,3.914,3.914,0,0,1,1.434,1.577,4.294,4.294,0,0,1,.574,1.147,1.084,1.084,0,0,1,.143.574v.143a.14.14,0,0,1-.143.143v.143l-.143.287a.5.5,0,0,1-.143.287c-.143.287-.287.43-.43.717a4.366,4.366,0,0,1-1.147,1.147,2.587,2.587,0,0,1-1.721.43,3.818,3.818,0,0,1-1.721-.43l-3.3-1.577a22.632,22.632,0,0,0-2.295-1C59.833,120.419,59.546,120.276,59.259,120.706ZM41.62,122.57c0-.574-.143-1-.143-1.434a15.094,15.094,0,0,0-.43-2.868c.287-.143.574-.143.86-.287l1.147-.43,1.147-.86a6.236,6.236,0,0,1,1-.861l.43-.43h0c.143-.143.287-.287.287-.43s.143-.143.143-.287v-.574c0-.287-.143-.43-.287-.43l-.43-.43a7.593,7.593,0,0,0-1.434-.86l-.287-.143-.574-.287c-.143,0-.287-.143-.43-.143a1.818,1.818,0,0,0-.86-.143h-.717V110.38l11.043,1.864,1.147,10.039a12.387,12.387,0,0,0-2.151.143c-2.438.287-4.876.574-7.17.86-.717.143-1.434.287-2.008.43h-.143v-.287h0Zm5.163-12.763h0a5.375,5.375,0,0,0,1.578-.143h1c.143.143.43.143.574.287l1,.43h0s.143.143.143,0h.143l.86.43-5.306-1Z" transform="translate(-29 -78.4)" fill="#fff"/>
          <path id="Path_43238" data-name="Path 43238" d="M58.574,107.164c.43-.287.717-.574,1-.717.143-.143.143-.287.287-.574,0-.287-.143-.574-.43-.574h-.143c-.143,0-.287.143-.43.143l-.143.143c-.143,0-.287.143-.717.287a20.416,20.416,0,0,1-3.012.861c-1.434.43-2.581.574-3.012.717-.287,0-.43.143-.574.143-.574.143-1,.143-1,.574l.143.43a2.149,2.149,0,0,0,1.434.287h.287a14.5,14.5,0,0,0,3.3-.574A8.259,8.259,0,0,0,58.574,107.164Z" transform="translate(-19.71 -66.723)" fill="#fff"/>
        </g>
      </g>
    </g>
  </g>
</svg>
