<svg xmlns="http://www.w3.org/2000/svg" width="56.594" height="68.339" viewBox="0 0 56.594 68.339">
    <path d="M2.278 22.681a1.334 1.334 0 1 0 .391.944 1.344 1.344 0 0 0-.391-.944z" data-name="Path 43560"/>
    <path d="M52.589 0H25.583a1.335 1.335 0 1 0 0 2.67h27.006A1.336 1.336 0 0 1 53.924 4v60.335a1.336 1.336 0 0 1-1.335 1.335H4a1.336 1.336 0 0 1-1.335-1.335V28.608a1.335 1.335 0 0 0-2.67 0v35.727a4.009 4.009 0 0 0 4 4h48.594a4.009 4.009 0 0 0 4-4V4a4.009 4.009 0 0 0-4-4z" data-name="Path 43561"/>
    <path d="M28.297 5.339a17.967 17.967 0 0 0-2.713.206 1.335 1.335 0 0 0 .4 2.639 15.268 15.268 0 0 1 2.308-.175 15.074 15.074 0 0 1 11.536 24.788 13.373 13.373 0 0 0-6.968-5.831 6.52 6.52 0 0 0 1.972-4.675v-1.3a6.54 6.54 0 1 0-13.081 0v1.3a6.519 6.519 0 0 0 1.972 4.675 13.376 13.376 0 0 0-6.982 5.855 15.033 15.033 0 0 1-3.324-7.214 1.335 1.335 0 0 0-2.633.442 17.754 17.754 0 1 0 17.513-20.71zm-3.871 15.65a3.871 3.871 0 1 1 7.742 0v1.3a3.871 3.871 0 1 1-7.742 0zm3.871 17.185a15.065 15.065 0 0 1-9.569-3.4 10.676 10.676 0 0 1 19.127-.023 15.013 15.013 0 0 1-9.558 3.423z" data-name="Path 43562"/>
    <path d="M40.624 53.121H21.671a1.335 1.335 0 1 0 0 2.669h18.953a1.335 1.335 0 1 0 0-2.669z" data-name="Path 43563"/>
    <path d="M16.912 46.04a1.334 1.334 0 1 0 .391.944 1.344 1.344 0 0 0-.391-.944z" data-name="Path 43564"/>
    <path d="M16.912 53.514a1.334 1.334 0 1 0 .391.944 1.342 1.342 0 0 0-.391-.944z" data-name="Path 43565"/>
    <path d="M40.624 45.647H21.671a1.335 1.335 0 1 0 0 2.669h18.953a1.335 1.335 0 1 0 0-2.669z" data-name="Path 43566"/>
    <path d="M15.701 7.692a1.335 1.335 0 0 0-1.888 0l-4.347 4.347-1.485-1.485a1.335 1.335 0 0 0-1.888 1.888l2.429 2.429a1.335 1.335 0 0 0 1.888 0l5.291-5.291a1.335 1.335 0 0 0 0-1.888z" data-name="Path 43567"/>
    <path d="M10.945 0A10.945 10.945 0 1 0 21.89 10.945 10.957 10.957 0 0 0 10.945 0zm0 19.22a8.275 8.275 0 1 1 8.275-8.275 8.285 8.285 0 0 1-8.275 8.275z" data-name="Path 43568"/>
</svg>
