<svg xmlns="http://www.w3.org/2000/svg" width="197.167" height="37.632" viewBox="0 0 197.167 37.632">
  <g id="Group_3362" data-name="Group 3362" transform="translate(308.1 45.343)">
    <g id="Group_544" data-name="Group 544" transform="translate(-121.539 -35.08)">
      <path id="Path_42955" data-name="Path 42955" d="M201.295,44.735h-7.184a1.754,1.754,0,0,1-1.711-1.711V23.411a1.754,1.754,0,0,1,1.711-1.711h7.184a1.754,1.754,0,0,1,1.71,1.711V43.025A1.679,1.679,0,0,1,201.295,44.735Z" transform="translate(-192.4 -21.7)" fill="#0675c1"/>
    </g>
    <g id="Group_545" data-name="Group 545" transform="translate(-308.1 -45.343)">
      <path id="Path_42956" data-name="Path 42956" d="M76.467,33.112A16.28,16.28,0,0,0,75.1,29.577a15.414,15.414,0,0,0-4.105-5.132,6.431,6.431,0,0,0-2.281-1.254,6,6,0,0,0-1.939-.456h-.8a6.65,6.65,0,0,0,.228-2.623A7.351,7.351,0,0,0,58.677,12.7h-.456a8.465,8.465,0,0,0-6.272,3.193,5.618,5.618,0,0,0-.912,5.018c1.368,5.018,3.877,7.412,7.526,7.412h.342a8.038,8.038,0,0,0,4.675-1.711,7.531,7.531,0,0,0,1.939-2.737c.228,0,.57.114.912.114a6.594,6.594,0,0,1,1.6.57,9.3,9.3,0,0,1,1.939,1.254A14.877,14.877,0,0,1,73.5,30.489a17.151,17.151,0,0,1,1.6,6.956,9.8,9.8,0,0,1-.57,3.649,8.236,8.236,0,0,1-1.6,2.965,9.8,9.8,0,0,1-2.281,2.053,16.788,16.788,0,0,1-2.509,1.14c-.684.228-1.482.342-2.281.57-.8.114-1.368.114-1.825.228h-.456c.114-.114.114-.228.228-.342l.114-.342h0v-.912a1.621,1.621,0,0,0-.228-.684,3.567,3.567,0,0,0-.57-1.14,4.869,4.869,0,0,0-1.6-1.482,3.414,3.414,0,0,0-.912-.456l-.342-5.816-.228-.114v-.228l-.342-.228c.114-.114.228-.228.114-.456l-.342-.228a2.273,2.273,0,0,0-.912.228h-.8c-.114,0-.114,0-.228.114h-.114c-.228,0-.57.114-.912.114l-.57.114c-.456.114-1.026.114-1.482.228h-.342c-.684.114-1.254.228-1.825.342h-.228c-.228,0-.456.114-.684.114s-.342.114-.57.228l-.8.456c-.684.456-1.026.57-1.026.8l-.114.228h0c.114-.342-.228-.57-1.482-1.368h0a.112.112,0,0,1-.114-.114l-.57-.228a7.858,7.858,0,0,0-.912-.342h-.228l-2.167.114H42.028l-2.281-.228a4.724,4.724,0,0,0-1.14-.114c-.456,0-.684-.114-.8.228v.342a1.219,1.219,0,0,0,.57.342l-.228.114v.114l-.114.114V39.5a.4.4,0,0,0-.228.114h0V39.5a1.749,1.749,0,0,0-1.939.228l-.684.456a.112.112,0,0,0-.114.114l-.57.456-.456.456a.4.4,0,0,0-.114.228l-.342.456c-.114.228-.228.57-.342.8,0,.114,0,.114-.114.228v.912l.456.912h0v.114h0l.456.456h0l.114.114h.114l.114.114s.228.228.342.228h.228a.453.453,0,0,0,.114-.57c0-.114-.114-.114-.114-.228a.112.112,0,0,0-.114-.114v-.114h0l-.342-.456a.864.864,0,0,0-.228-.456v-.57l.342-.684.228-.342h0l.8-.8.8-.57c.228-.114.342-.342.57-.456l.342.228h.228a4.939,4.939,0,0,1,.57-.114,2.834,2.834,0,0,1,.912.114c.228,0,.342.114.57.114l.228.114.456.228a4.827,4.827,0,0,1,.8.57l-.228.228-.456.456-.8.342-2.851,1.14c-1.14.456-1.254.57-1.254.912,0,.114.114.342.456.342a6.563,6.563,0,0,0,1.14-.228c.228,0,.342-.114.57-.114V46h0c-.114,0-.342.114-1.026.228l-.342.114a3.374,3.374,0,0,1-1.14.228,6.9,6.9,0,0,1-1.711.228h-.456a5.061,5.061,0,0,1-1.482-.228,4.958,4.958,0,0,1-.8-.456,1.838,1.838,0,0,1-.456-.8,4.389,4.389,0,0,1,.114-2.395A15.47,15.47,0,0,1,31.423,40.3a17.351,17.351,0,0,1,3.307-4.447A16.7,16.7,0,0,1,38.379,33a10.984,10.984,0,0,1,2.851-1.14,2.226,2.226,0,0,1,.8-.114,4.939,4.939,0,0,0,3.877,1.711h.342a6.387,6.387,0,0,0,3.307-1.14,5.662,5.662,0,0,0,2.281-4.9,5.556,5.556,0,0,0-5.816-5.474h-.342a6.539,6.539,0,0,0-5.018,2.509,3.806,3.806,0,0,0-.57,3.649,13.344,13.344,0,0,0,1.254,2.851h-.228a7.759,7.759,0,0,0-3.307,1.026,15.751,15.751,0,0,0-3.991,2.965,24.21,24.21,0,0,0-3.649,4.789,10.586,10.586,0,0,0-1.14,2.965,7.848,7.848,0,0,0-.228,1.482,3.624,3.624,0,0,0,.228,1.6,2.27,2.27,0,0,0,.912,1.368,3.943,3.943,0,0,0,1.368.8,5.724,5.724,0,0,0,1.368.228h1.14c.684-.114,1.254-.228,1.939-.342.456-.114.912-.342,1.368-.456.57-.228.8-.342,1.026-.456h0l.114,1.711-.228.57a.937.937,0,0,0,.114.8.611.611,0,0,0,.456.342h.114a.419.419,0,0,0,.342-.114l.228-.114-.114-.342h0l.228.342h.114a.419.419,0,0,0,.342-.114c.456-.114,1.026-.228,1.482-.342,1.939-.342,3.763-.57,5.132-.8l2.167-.342h.228l.228.114,1.14-.114.228-.228c.684.228,1.939.456,3.307.8a34.112,34.112,0,0,0,3.877.57c.228,0,.342,0,.342-.114l.342.114a4.2,4.2,0,0,0,1.939.57h.114A2.223,2.223,0,0,0,61.3,50.1a4.05,4.05,0,0,0,1.026-.456,7.379,7.379,0,0,0,1.026-.912c.342,0,.684.114,1.14.114h.57a5.552,5.552,0,0,0,1.368-.114,16.359,16.359,0,0,0,2.509-.456,13.3,13.3,0,0,0,2.965-1.14,8,8,0,0,0,2.737-2.395,9.485,9.485,0,0,0,1.825-3.535,11.931,11.931,0,0,0,.57-4.105A16.844,16.844,0,0,0,76.467,33.112ZM48.984,31.63a5.63,5.63,0,0,1-2.851.57h0c-2.623,0-3.763-1.14-4.105-4.333-.342-2.851.8-4.219,3.649-4.675h.228c2.851,0,3.763,3.877,3.763,4.333C50.125,29.805,50.011,30.946,48.984,31.63Zm14.14-6.044c-.8.684-2.053,1.026-3.991,1.026h-.114c-3.535,0-4.9-1.711-5.36-6.158-.456-3.991,1.026-5.93,4.789-6.5h.342c3.763,0,4.9,5.474,5.018,6.158C64.379,22.963,64.151,24.674,63.125,25.586ZM53.089,46.34l-.114.342c0,.114.114.228.684.684.342.228.912.57,1.482.912-.456-.114-1.026-.228-1.482-.342a19.7,19.7,0,0,0-3.535-.57l-.8-7.868,10.035-2.281.342,5.132a.353.353,0,0,0-.114.228.418.418,0,0,0,.456.456h.228a5,5,0,0,1,1.026.57,3.113,3.113,0,0,1,1.14,1.254,3.414,3.414,0,0,1,.456.912.862.862,0,0,1,.114.456v.114a.112.112,0,0,1-.114.114v.114l-.114.228a.4.4,0,0,1-.114.228c-.114.228-.228.342-.342.57a3.471,3.471,0,0,1-.912.912,2.057,2.057,0,0,1-1.368.342,3.036,3.036,0,0,1-1.368-.342l-2.623-1.254a17.994,17.994,0,0,0-1.825-.8C53.546,46.226,53.318,46.112,53.089,46.34ZM39.063,47.823c0-.456-.114-.8-.114-1.14a12,12,0,0,0-.342-2.281c.228-.114.456-.114.684-.228l.912-.342.912-.684a4.959,4.959,0,0,1,.8-.684l.342-.342h0c.114-.114.228-.228.228-.342s.114-.114.114-.228v-.456c0-.228-.114-.342-.228-.342l-.342-.342a6.04,6.04,0,0,0-1.14-.684l-.228-.114-.456-.228c-.114,0-.228-.114-.342-.114a1.446,1.446,0,0,0-.684-.114h-.57V38.13l8.781,1.482.912,7.982a9.848,9.848,0,0,0-1.711.114c-1.939.228-3.877.456-5.7.684-.57.114-1.14.228-1.6.342h-.114v-.228h0Zm4.105-10.035h0a4.276,4.276,0,0,0,1.254-.114h.8c.114.114.342.114.456.228l.8.342h0s.114.114.114,0H46.7l.684.342-4.219-.8Z" transform="translate(-28.8 -12.7)" fill="#0675c1"/>
      <path id="Path_42957" data-name="Path 42957" d="M56.9,41.182c.342-.228.57-.456.8-.57.114-.114.114-.228.228-.456,0-.228-.114-.456-.342-.456H57.47c-.114,0-.228.114-.342.114l-.114.114c-.114,0-.228.114-.57.228a16.235,16.235,0,0,1-2.395.684c-1.14.342-2.053.456-2.395.57-.228,0-.342.114-.456.114-.456.114-.8.114-.8.456l.114.342a1.709,1.709,0,0,0,1.14.228h.228a11.533,11.533,0,0,0,2.623-.456A9.565,9.565,0,0,0,56.9,41.182Z" transform="translate(-25.768 -8.911)" fill="#0675c1"/>
    </g>
    <g id="Group_546" data-name="Group 546" transform="translate(-256.784 -34.282)">
      <path id="Path_42958" data-name="Path 42958" d="M86.914,39.47a6.628,6.628,0,0,1-5.36,2.623c-4.447,0-7.754-3.421-7.754-8.1s3.193-8.1,7.754-8.1a7.024,7.024,0,0,1,5.474,2.623l-1.6,1.254a5.284,5.284,0,0,0-3.877-2.053c-3.535,0-5.816,2.851-5.816,6.272s2.167,6.272,5.816,6.272A4.87,4.87,0,0,0,85.432,38.1Z" transform="translate(-73.8 -21.909)" fill="#0675c1"/>
      <path id="Path_42959" data-name="Path 42959" d="M98.788,35.251a48.317,48.317,0,0,0,.342,6.5H97.305a17.082,17.082,0,0,1-.228-2.509h-.114c-1.026,1.939-2.623,2.851-5.132,2.851S86.7,40.839,86.7,37.532c0-4.675,5.246-5.132,8.1-5.132h2.167v-.912c0-2.623-1.825-3.763-4.105-3.763a6.393,6.393,0,0,0-4.447,1.711l-1.14-1.368A8.356,8.356,0,0,1,92.858,25.9c3.535,0,5.816,1.711,5.816,5.588v3.763ZM95.025,34c-3.193,0-6.386.8-6.386,3.421,0,1.939,1.711,2.851,3.307,2.851,4.105,0,5.132-2.737,5.132-5.246V34Z" transform="translate(-71.989 -21.909)" fill="#0675c1"/>
      <path id="Path_42960" data-name="Path 42960" d="M101.214,30.675c0-1.14-.114-3.535-.114-4.333h1.939c0,1.14.114,2.395.114,2.737A5.134,5.134,0,0,1,107.828,26c.342,0,.684.114,1.14.114l-.228,1.939a1.7,1.7,0,0,0-.684-.114c-3.307,0-4.789,2.395-4.789,5.36v8.439h-1.939V30.675Z" transform="translate(-69.968 -21.895)" fill="#0675c1"/>
      <path id="Path_42961" data-name="Path 42961" d="M122.9,38.886a7.239,7.239,0,0,1-6.386,3.307c-4.447,0-7.412-3.307-7.412-8.1,0-4.561,3.079-8.1,7.3-8.1,4.447,0,6.842,3.649,6.842,7.184v1.368H110.925c0,1.711,1.14,5.816,5.588,5.816a5.646,5.646,0,0,0,4.9-2.737Zm-1.482-6.158a5.062,5.062,0,0,0-5.018-5.018c-4.105,0-5.36,4.219-5.36,5.018Z" transform="translate(-68.846 -21.895)" fill="#0675c1"/>
      <path id="Path_42962" data-name="Path 42962" d="M132.251,28.672h-4.219V38.707a1.95,1.95,0,0,0,2.053,2.167,5.115,5.115,0,0,0,2.167-.57l.114,1.825a8.952,8.952,0,0,1-2.509.57c-2.737,0-3.763-1.711-3.763-3.991V28.672H122.9V26.847h3.193V22.4h1.939v4.447h4.219Z" transform="translate(-66.909 -22.4)" fill="#0675c1"/>
      <path id="Path_42963" data-name="Path 42963" d="M145.858,37.361c0,1.14.114,3.535.114,4.333h-1.939c0-1.14-.114-2.395-.114-2.737h-.114a5.453,5.453,0,0,1-5.018,3.079c-4.561,0-5.588-3.307-5.588-6.614V26.3h1.939v9.009c0,2.509.684,4.9,3.649,4.9,2.851,0,5.018-2.053,5.018-6.272V26.3h1.939V37.361Z" transform="translate(-65.463 -21.853)" fill="#0675c1"/>
      <path id="Path_42964" data-name="Path 42964" d="M155.737,28.672h-4.105V38.707a1.95,1.95,0,0,0,2.053,2.167,5.115,5.115,0,0,0,2.167-.57l.114,1.825a8.952,8.952,0,0,1-2.509.57c-2.737,0-3.763-1.711-3.763-3.991V28.672H146.5V26.847h3.193V22.4h1.939v4.447h4.219v1.825Z" transform="translate(-63.597 -22.4)" fill="#0675c1"/>
      <path id="Path_42965" data-name="Path 42965" d="M164.054,26c4.447,0,7.754,3.421,7.754,8.1s-3.193,8.1-7.754,8.1c-4.447,0-7.754-3.421-7.754-8.1S159.493,26,164.054,26Zm0,14.368c3.535,0,5.816-2.851,5.816-6.272s-2.167-6.272-5.816-6.272c-3.535,0-5.816,2.851-5.816,6.272S160.519,40.368,164.054,40.368Z" transform="translate(-62.221 -21.895)" fill="#0675c1"/>
      <path id="Path_42966" data-name="Path 42966" d="M173.014,30.675c0-1.14-.114-3.535-.114-4.333h1.939c0,1.14.114,2.395.114,2.737A5.134,5.134,0,0,1,179.628,26c.342,0,.684.114,1.14.114l-.228,1.939a2.006,2.006,0,0,0-.684-.114c-3.307,0-4.789,2.395-4.789,5.36v8.439h-2.053Z" transform="translate(-59.891 -21.895)" fill="#0675c1"/>
      <path id="Path_42967" data-name="Path 42967" d="M181.911,37.76a4.714,4.714,0,0,0,4.219,2.509,3.076,3.076,0,0,0,3.307-2.851c0-4.219-8.667-1.254-8.667-7.07,0-2.965,2.623-4.447,5.018-4.447s4.219.912,5.132,2.851l-1.711,1.026a3.524,3.524,0,0,0-3.421-2.167c-1.368,0-3.079.912-3.079,2.509,0,4.105,8.667.912,8.667,7.184,0,3.193-2.509,4.789-5.246,4.789a6.523,6.523,0,0,1-5.93-3.079Z" transform="translate(-58.867 -21.909)" fill="#0675c1"/>
    </g>
    <g id="Group_547" data-name="Group 547" transform="translate(-118.574 -32.685)">
      <path id="Path_42968" data-name="Path 42968" d="M199.126,41.725a.919.919,0,1,1,1.026-.912A1.1,1.1,0,0,1,199.126,41.725Z" transform="translate(-194.565 -21.54)" fill="#fff"/>
      <path id="Path_42969" data-name="Path 42969" d="M196.482,36.184a1.584,1.584,0,0,0-.57,1.14c0,1.026.8,1.482,1.71,1.482a1.568,1.568,0,0,0,1.711-1.482,1.584,1.584,0,0,0-.57-1.14l.684-.684a2.269,2.269,0,0,1,.8,1.825,2.426,2.426,0,0,1-2.623,2.509A2.488,2.488,0,0,1,195,37.325a2.269,2.269,0,0,1,.8-1.825Z" transform="translate(-195 -22.158)" fill="#fff"/>
      <path id="Path_42970" data-name="Path 42970" d="M195.1,33.309a2.625,2.625,0,1,1,2.623,2.509A2.557,2.557,0,0,1,195.1,33.309Zm4.333,0a1.59,1.59,0,0,0-1.71-1.6,1.53,1.53,0,0,0-1.711,1.6,1.715,1.715,0,0,0,3.421,0Z" transform="translate(-194.986 -22.818)" fill="#fff"/>
      <path id="Path_42971" data-name="Path 42971" d="M195.214,30.87v-.8h.8a1.661,1.661,0,0,1,0-2.965,1.78,1.78,0,0,1-.912-1.482c0-1.482,1.14-1.825,2.167-1.825h2.851v.912h-2.737c-.8,0-1.482.114-1.482,1.026s.57,1.254,1.482,1.254h2.737v.912h-2.623c-.912,0-1.6.114-1.6,1.026,0,.684.456,1.254,1.6,1.254h2.623v.684Z" transform="translate(-194.986 -23.8)" fill="#fff"/>
    </g>
  </g>
</svg>
