<svg xmlns="http://www.w3.org/2000/svg" width="59.897" height="67.284" viewBox="0 0 59.897 67.284">
    <defs>
        <style>
            .cls-1{fill:#2b2b2c}
        </style>
    </defs>
    <g id="businessman-paper-of-the-application-for-a-job" transform="translate(-11.084)">
        <path id="Path_43332" d="M42.316 58.593a1.232 1.232 0 0 1 1.234-1.236h4.243a15.655 15.655 0 0 0 5.939 2.415 1.155 1.155 0 0 1-.264.053h-9.919a1.23 1.23 0 0 1-1.233-1.232zM39.3 48.718h2.2a15.352 15.352 0 0 1-.5-2.469h-1.7a1.235 1.235 0 1 0 0 2.469zm-9.084-31.18a6.172 6.172 0 0 1-2.558-4.845 4.631 4.631 0 1 1 9.262 0 6.169 6.169 0 0 1-2.562 4.845c3.63.92 6.318 4.074 6.318 6.408 0 2.759-16.774 2.759-16.774 0-.002-2.334 2.69-5.486 6.314-6.408zm-.28 6.13l2.352 2.348 2.354-2.348-1.979-4.783h.018l.769-.879a3.477 3.477 0 0 1-1.162.212A3.411 3.411 0 0 1 31.126 18l.767.883h.02zm31 40.923l-.059-.1c-.031 0-.057.008-.085.008H17.8a4.035 4.035 0 0 1-4.031-4.03V6.715A4.035 4.035 0 0 1 17.8 2.686h43a4.034 4.034 0 0 1 4.03 4.029v24.6a15.556 15.556 0 0 1 2.688 2.11V6.715A6.723 6.723 0 0 0 60.8 0h-43a6.723 6.723 0 0 0-6.72 6.715v53.747a6.723 6.723 0 0 0 6.72 6.714h43a6.672 6.672 0 0 0 1.524-.191zm-35.8-21.5h15.83a15.858 15.858 0 0 1 .42-2.47h-16.25a1.235 1.235 0 0 0 0 2.47zm0-11.251h22.183a15.8 15.8 0 0 1 1.372-.9 15.638 15.638 0 0 1 3.849-1.575H25.134a1.236 1.236 0 0 0 0 2.471zm0 5.625h17.415A15.59 15.59 0 0 1 44.081 35H25.134a1.235 1.235 0 0 0 0 2.469zm42.171.751a12.485 12.485 0 1 1-17.061-4.571 12.494 12.494 0 0 1 17.06 4.571zm-1.789 1.034A10.418 10.418 0 1 0 61.7 53.484a10.44 10.44 0 0 0 3.818-14.234zm.355 15.25l-5.367 3.1 4.133 7.154L70 61.659zm4.691 8.132l-5.371 3.1a3.1 3.1 0 1 0 5.371-3.1z" class="cls-1" data-name="Path 43332"/>
    </g>
</svg>
