<svg xmlns="http://www.w3.org/2000/svg" xmlns:xlink="http://www.w3.org/1999/xlink" width="47.361" height="47.362" viewBox="0 0 47.361 47.362">
  <defs>
    <clipPath id="clip-path">
      <ellipse id="Ellipse_434" data-name="Ellipse 434" cx="23.681" cy="23.681" rx="23.681" ry="23.681" transform="translate(0 0)" fill="rgba(6,117,193,0.1)"/>
    </clipPath>
    <clipPath id="clip-path-2">
      <ellipse id="Ellipse_433" data-name="Ellipse 433" cx="19.49" cy="19.49" rx="19.49" ry="19.49" transform="translate(0 0)" fill="#f2f5fc"/>
    </clipPath>
  </defs>
  <g id="Group_3500" data-name="Group 3500" transform="translate(-521.299 -456.62)">
    <g id="Mask_Group_2" data-name="Mask Group 2" transform="translate(521.299 456.62)" clip-path="url(#clip-path)">
      <g id="Group_3413" data-name="Group 3413" transform="translate(-10.201 -0.729)">
        <path id="Path_43578" data-name="Path 43578" d="M0,0H67.11V49.123H0Z" transform="translate(0)" fill="rgba(6,117,193,0.1)"/>
      </g>
    </g>
    <g id="Mask_Group_1" data-name="Mask Group 1" transform="translate(525.489 460.811)" clip-path="url(#clip-path-2)">
      <g id="Group_3410" data-name="Group 3410" transform="translate(-8.396 -0.6)">
        <path id="Path_43575" data-name="Path 43575" d="M0,0H55.234V40.43H0Z" transform="translate(0)" fill="#0675c1"/>
        <g id="Group_3409" data-name="Group 3409" transform="translate(16.684 11.361)">
          <g id="Group_3408" data-name="Group 3408" transform="translate(0 0)">
            <path id="Path_43576" data-name="Path 43576" d="M50.554,87.674a7.4,7.4,0,0,0-.622-1.606,7,7,0,0,0-1.865-2.332,2.922,2.922,0,0,0-1.036-.57,2.723,2.723,0,0,0-.881-.207h-.363a3.021,3.021,0,0,0,.1-1.192,3.34,3.34,0,0,0-3.42-3.368h-.207a3.846,3.846,0,0,0-2.85,1.451A2.553,2.553,0,0,0,39,82.131c.622,2.28,1.762,3.368,3.42,3.368h.155a3.652,3.652,0,0,0,2.124-.777,3.422,3.422,0,0,0,.881-1.243c.1,0,.259.052.414.052a2.994,2.994,0,0,1,.725.259,4.226,4.226,0,0,1,.881.57,6.76,6.76,0,0,1,1.606,2.124,7.793,7.793,0,0,1,.725,3.161,4.452,4.452,0,0,1-.259,1.658,3.742,3.742,0,0,1-.725,1.347,4.454,4.454,0,0,1-1.036.933,7.628,7.628,0,0,1-1.14.518c-.311.1-.674.155-1.036.259-.363.052-.622.052-.829.1H44.7c.052-.052.052-.1.1-.155l.052-.155h0v-.415a.736.736,0,0,0-.1-.311,1.621,1.621,0,0,0-.259-.518,2.212,2.212,0,0,0-.725-.674,1.551,1.551,0,0,0-.415-.207L43.2,89.384l-.1-.052v-.1l-.155-.1c.052-.052.1-.1.052-.207l-.155-.1a1.033,1.033,0,0,0-.415.1l-.466.155c-.052,0-.052,0-.1.052H41.8c-.1,0-.259.052-.414.052l-.259.052c-.207.052-.466.052-.674.1H40.3c-.311.052-.57.1-.829.155h-.1c-.1,0-.207.052-.311.052s-.155.052-.259.1l-.363.207c-.311.207-.466.259-.466.363l-.052.1h0c.052-.155-.1-.259-.674-.622h0a.051.051,0,0,1-.052-.052l-.259-.1a3.573,3.573,0,0,0-.415-.155h-.1l-.984.052H34.8l-1.036-.1a.764.764,0,0,0-.622-.259c-.207,0-.311-.052-.363.1v.155a.554.554,0,0,0,.259.155l-.1.052v.052l-.052.052v.881a.181.181,0,0,0-.1.052h0v-.052c-.1-.155-.259-.052-.622.155l-.311.207a.051.051,0,0,0-.052.052l-.259.207-.207.207a.181.181,0,0,0-.052.1l-.1.207c-.052.1-.1.259-.155.363,0,.052,0,.052-.052.1v.414l.207.414h0v.052h0l.207.207h0l.052.052h.052l.052.052s.1.1.155.1h.1a.206.206,0,0,0,.052-.259c0-.052-.052-.052-.052-.1a.051.051,0,0,0-.052-.052v-.052h0l-.155-.207a.393.393,0,0,0-.1-.207v-.259l.155-.311.1-.155h0l.363-.363.363-.259c.1-.052.155-.155.259-.207l.155.1h.1a2.243,2.243,0,0,1,.259-.052,1.287,1.287,0,0,1,.415.052c.1,0,.155.052.259.052l.1.052.207.1a2.194,2.194,0,0,1,.363.259l-.1.1-.207.207-.363.311-1.3.518c-.518.207-.57.259-.57.415,0,.052.052.155.207.155a2.982,2.982,0,0,0,.518-.1c.1,0,.155-.052.259-.052v.57h0c-.052,0-.155.052-.466.1l-.155.052a1.533,1.533,0,0,1-.518.1,3.136,3.136,0,0,1-.777.1h-.207a2.3,2.3,0,0,1-.674-.1.794.794,0,0,1-.57-.57,1.994,1.994,0,0,1,.052-1.088,7.029,7.029,0,0,1,.466-1.192,7.884,7.884,0,0,1,1.5-2.021,7.589,7.589,0,0,1,1.658-1.3,4.99,4.99,0,0,1,1.3-.518,1.011,1.011,0,0,1,.363-.052,2.244,2.244,0,0,0,1.762.777h.155a2.9,2.9,0,0,0,1.5-.518,2.573,2.573,0,0,0,1.036-2.228,2.525,2.525,0,0,0-2.642-2.487h-.155a2.971,2.971,0,0,0-2.28,1.14,1.73,1.73,0,0,0-.259,1.658,6.063,6.063,0,0,0,.57,1.3h-.1a3.525,3.525,0,0,0-1.5.466,7.157,7.157,0,0,0-1.813,1.347,11,11,0,0,0-1.658,2.176,4.809,4.809,0,0,0-.518,1.347,3.566,3.566,0,0,0-.1.674,1.647,1.647,0,0,0,.1.725,1.031,1.031,0,0,0,.415.622,1.792,1.792,0,0,0,.622.363,2.6,2.6,0,0,0,.622.1h.518c.311-.052.57-.1.881-.155.207-.052.415-.155.622-.207.259-.1.363-.155.466-.207h0l.052.777-.1.259a.426.426,0,0,0,.052.363.278.278,0,0,0,.207.155h.052a.19.19,0,0,0,.155-.052l.1-.052-.052-.155h0l.1.155h.052a.19.19,0,0,0,.155-.052c.207-.052.466-.1.674-.155.881-.155,1.71-.259,2.332-.363l.984-.155h.1l.1.052.518-.052.1-.1c.311.1.881.207,1.5.363a15.5,15.5,0,0,0,1.762.259c.1,0,.155,0,.155-.052l.155.052a1.91,1.91,0,0,0,.881.259h.052a1.01,1.01,0,0,0,.414-.052,1.839,1.839,0,0,0,.466-.207,3.352,3.352,0,0,0,.466-.414c.155,0,.311.052.518.052h.259a2.523,2.523,0,0,0,.622-.052,7.434,7.434,0,0,0,1.14-.207,6.042,6.042,0,0,0,1.347-.518,3.636,3.636,0,0,0,1.243-1.088,4.31,4.31,0,0,0,.829-1.606,5.422,5.422,0,0,0,.259-1.865A19.154,19.154,0,0,0,50.554,87.674Zm-12.487-.725a2.558,2.558,0,0,1-1.3.259h0c-1.192,0-1.71-.518-1.865-1.969-.155-1.3.363-1.917,1.658-2.124h.1c1.3,0,1.71,1.762,1.71,1.969C38.585,86.172,38.533,86.69,38.067,86.949Zm6.425-2.694a2.724,2.724,0,0,1-1.813.466h-.052c-1.606,0-2.228-.777-2.435-2.8-.207-1.813.466-2.694,2.176-2.953h.155c1.71,0,2.228,2.487,2.28,2.8C45.062,83.063,44.958,83.84,44.492,84.255Zm-4.559,9.43-.052.155c0,.052.052.1.311.311.155.1.415.259.674.414-.207-.052-.466-.1-.674-.155a8.953,8.953,0,0,0-1.606-.259l-.363-3.575,4.559-1.036.155,2.332a.16.16,0,0,0-.052.1.19.19,0,0,0,.207.207h.1a2.273,2.273,0,0,1,.466.259,1.414,1.414,0,0,1,.518.57,1.551,1.551,0,0,1,.207.414.392.392,0,0,1,.052.207v.052a.051.051,0,0,1-.052.052v.052l-.052.1a.181.181,0,0,1-.052.1c-.052.1-.1.155-.155.259a1.577,1.577,0,0,1-.414.414.935.935,0,0,1-.622.155,1.38,1.38,0,0,1-.622-.155L41.28,94.1a8.178,8.178,0,0,0-.829-.363C40.14,93.581,40.036,93.529,39.932,93.685Zm-6.373.674c0-.207-.052-.363-.052-.518a5.454,5.454,0,0,0-.155-1.036c.1-.052.207-.052.311-.1l.415-.155.414-.311a2.253,2.253,0,0,1,.363-.311l.155-.155h0c.052-.052.1-.1.1-.155s.052-.052.052-.1V91.3c0-.1-.052-.155-.1-.155l-.155-.155a2.744,2.744,0,0,0-.518-.311l-.1-.052-.207-.1c-.052,0-.1-.052-.155-.052a.657.657,0,0,0-.311-.052h-.259v-.466l3.99.674.415,3.627a4.476,4.476,0,0,0-.777.052c-.881.1-1.762.207-2.591.311-.259.052-.518.1-.725.155h-.052v-.1h0Zm1.865-4.611h0a1.942,1.942,0,0,0,.57-.052h.363c.052.052.155.052.207.1l.363.155h0s.052.052.052,0h.052l.311.155-1.917-.363Z" transform="translate(-29 -78.4)" fill="#fff"/>
            <path id="Path_43577" data-name="Path 43577" d="M53.353,105.974c.155-.1.259-.207.363-.259.052-.052.052-.1.1-.207,0-.1-.052-.207-.155-.207h-.052c-.052,0-.1.052-.155.052l-.052.052c-.052,0-.1.052-.259.1a7.377,7.377,0,0,1-1.088.311c-.518.155-.933.207-1.088.259-.1,0-.155.052-.207.052-.207.052-.363.052-.363.207l.052.155a.777.777,0,0,0,.518.1h.1a5.24,5.24,0,0,0,1.192-.207A2.984,2.984,0,0,0,53.353,105.974Z" transform="translate(-39.312 -91.362)" fill="#fff"/>
          </g>
        </g>
      </g>
    </g>
  </g>
</svg>
