<svg xmlns="http://www.w3.org/2000/svg" width="83.457" height="90.519" viewBox="0 0 83.457 90.519">
  <g id="Group_3503" data-name="Group 3503" transform="translate(-638 -3879)">
    <g id="Group_3441" data-name="Group 3441" transform="translate(150 2943)">
      <circle id="Ellipse_431" data-name="Ellipse 431" cx="41" cy="41" r="41" transform="translate(488 936)" fill="rgba(6,117,193,0.1)"/>
    </g>
    <g id="Group_3443" data-name="Group 3443" transform="translate(-42 140)">
      <g id="Group_573" data-name="Group 573" transform="translate(705.275 3762.036)">
        <g id="Group_572" data-name="Group 572">
          <path id="Path_42999" data-name="Path 42999" d="M99.124,57.34,94.26,49.233a24.081,24.081,0,0,1-3.433-12.39v-7.1A19.853,19.853,0,0,0,76.664,10.75V5.665a5.665,5.665,0,1,0-11.33,0V10.75A19.853,19.853,0,0,0,51.171,29.742v7.1a24.1,24.1,0,0,1-3.43,12.387l-4.864,8.107a1.419,1.419,0,0,0,1.212,2.147H97.908a1.416,1.416,0,0,0,1.215-2.144Z" transform="translate(-42.675 0)" fill="none" stroke="#2b2b2c" stroke-width="3"/>
        </g>
      </g>
      <g id="Group_575" data-name="Group 575" transform="translate(724.679 3824.353)">
        <g id="Group_574" data-name="Group 574" transform="translate(0 -2)">
          <path id="Path_43000" data-name="Path 43000" d="M188.815,469.333a9.854,9.854,0,0,0,17.839,0Z" transform="translate(-188.815 -469.333)" fill="none" stroke="#2b2b2c" stroke-width="3"/>
        </g>
      </g>
    </g>
  </g>
</svg>
