<svg xmlns="http://www.w3.org/2000/svg" width="65.942" height="68.019" viewBox="0 0 65.942 68.019">
    <path d="M55.062 25.974a1.329 1.329 0 1 0-1.879 1.879l.062.06a1.329 1.329 0 0 0 1.817-1.939z" data-name="Path 43548"/>
    <path d="M52.363 23.795a20.8 20.8 0 0 0-2.32-1.369 17.817 17.817 0 0 0-13.511-1.288 1.328 1.328 0 0 0 .788 2.537 15.209 15.209 0 0 1 11.528 1.124 18.5 18.5 0 0 1 2.023 1.194 1.33 1.33 0 1 0 1.492-2.2z" data-name="Path 43549"/>
    <path d="M64.449 40.987a17.094 17.094 0 0 1-1.463-3.66c1.554-3.829.987-8.067-1.6-11.943-3.979-5.961-12.135-10.288-19.392-10.288a23.772 23.772 0 0 0-10.952 2.661 11.372 11.372 0 1 0-17.12 11.75 2.22 2.22 0 0 1 1.283 1.973v7.774a2.693 2.693 0 0 0 2.69 2.69h.452a23.66 23.66 0 0 0 8.012 14.981 5.239 5.239 0 0 1-.363 2.582c-.411 1.43-1.042 3.018-1.6 4.42-.373.938-.694 1.748-.889 2.36a1.329 1.329 0 0 0 1.266 1.731h18.963a2.156 2.156 0 0 0 2.018-1.608 12.986 12.986 0 0 0 .55-2.011c.158-.718.528-2.4.9-2.6a.27.27 0 0 1 .074 0 1.306 1.306 0 0 0 .206.016c1.986 0 3.609.09 5.04.169 4.2.233 6.734.374 8.957-2.829 1.131-1.629 1-4 .867-6.52a23.727 23.727 0 0 1-.014-3.747 11.59 11.59 0 0 1 1.176-.877c1.252-.86 2.435-1.672 2.435-2.907-.002-.932-.57-2.174-1.496-4.117zM15.315 27.241a8.716 8.716 0 1 1 9.092 0 4.834 4.834 0 0 0-2.329 2.846h-4.439a4.837 4.837 0 0 0-2.324-2.846zm6.541 5.5v1.943h-3.994v-1.939zm-3.957 6.543a.038.038 0 0 1-.033-.033v-1.906h3.989v1.909a.038.038 0 0 1-.033.033zm44.109 6.536c-1.143.785-2.131 1.463-2.277 2.49a23.65 23.65 0 0 0-.035 4.467c.1 1.866.215 3.981-.4 4.862-1.322 1.9-2.465 1.923-6.628 1.691-1.373-.076-3.078-.171-5.1-.174a2.832 2.832 0 0 0-2.965 1.757 12.343 12.343 0 0 0-.9 2.91 14.116 14.116 0 0 1-.394 1.533H26.686l.18-.453c1.914-4.819 3.126-8.353 1.281-9.948a21.024 21.024 0 0 1-7.119-13.016h.787a2.693 2.693 0 0 0 2.69-2.69v-7.766a2.221 2.221 0 0 1 1.283-1.976 11.3 11.3 0 0 0 5.4-8.794 21.107 21.107 0 0 1 10.8-2.96c6.33 0 13.717 3.915 17.182 9.106a9.971 9.971 0 0 1 1.319 9.54c-.521 1.255.252 3 1.556 5.731a23.976 23.976 0 0 1 1.2 2.766 12.552 12.552 0 0 1-1.241.927z" data-name="Path 43550"/>
    <path d="M26.372 17.926a5.319 5.319 0 0 0-2.82-3.368 1.329 1.329 0 0 0-1.218 2.362 2.663 2.663 0 0 1 1.473 1.7 4.028 4.028 0 0 1-.369 2.745 1.328 1.328 0 1 0 2.24 1.428 6.659 6.659 0 0 0 .694-4.867z" data-name="Path 43551"/>
    <path d="M19.856 0a1.329 1.329 0 0 0-1.328 1.328v3.788a1.329 1.329 0 0 0 2.657 0V1.328A1.329 1.329 0 0 0 19.856 0z" data-name="Path 43552"/>
    <path d="M5.116 18.528H1.328a1.329 1.329 0 1 0 0 2.657h3.787a1.329 1.329 0 0 0 0-2.657z" data-name="Path 43553"/>
    <path d="M13.636 6.425l-1.893-3.278a1.328 1.328 0 1 0-2.3 1.328l1.893 3.278a1.328 1.328 0 1 0 2.3-1.328z" data-name="Path 43554"/>
    <path d="M7.754 11.335L4.475 9.442a1.328 1.328 0 0 0-1.328 2.3l3.279 1.893a1.328 1.328 0 0 0 1.328-2.3z" data-name="Path 43555"/>
    <path d="M37.053 9.932a1.328 1.328 0 0 0-1.815-.486l-3.278 1.886a1.328 1.328 0 1 0 1.328 2.3l3.279-1.893a1.328 1.328 0 0 0 .486-1.807z" data-name="Path 43556"/>
    <path d="M8.241 26.562a1.328 1.328 0 0 0-1.814-.487l-3.28 1.893a1.329 1.329 0 1 0 1.328 2.3l3.279-1.893a1.328 1.328 0 0 0 .487-1.813z" data-name="Path 43557"/>
    <path d="M12.877 31.941a1.329 1.329 0 0 0-1.815.486l-1.62 2.806a1.329 1.329 0 1 0 2.3 1.328l1.62-2.806a1.328 1.328 0 0 0-.485-1.814z" data-name="Path 43558"/>
    <path d="M29.784 2.66a1.328 1.328 0 0 0-1.815.486l-1.893 3.278a1.328 1.328 0 1 0 2.3 1.328l1.893-3.278a1.328 1.328 0 0 0-.485-1.814z" data-name="Path 43559"/>
</svg>
