<svg xmlns="http://www.w3.org/2000/svg" width="82" height="91.022" viewBox="0 0 82 91.022">
  <g id="Group_3425" data-name="Group 3425" transform="translate(-683 -2108)">
    <circle id="Ellipse_439" data-name="Ellipse 439" cx="41" cy="41" r="41" transform="translate(683 2108)" fill="#0675c1" opacity="0.1"/>
    <g id="reading" transform="translate(619.972 2131.734)">
      <g id="Group_3423" data-name="Group 3423" transform="translate(72.296)">
        <path id="Path_43586" data-name="Path 43586" d="M116.74,44.444v-7l-2.956,1.15-.009-.02-.07-.128a7.609,7.609,0,0,0-5.028-3.365l-7.113-1.294v-.562a10.859,10.859,0,0,0,5.215-7.3,4.343,4.343,0,0,0,3.457-4.246V10.973a6.8,6.8,0,0,0-4.856-6.522l-.542-.542a13.348,13.348,0,0,0-22.785,9.438V21.68a4.343,4.343,0,0,0,3.457,4.246,10.86,10.86,0,0,0,5.215,7.3v.562l-7.112,1.293a7.612,7.612,0,0,0-5.025,3.361l-.065.158-2.973-1.157v7A3.256,3.256,0,0,0,72.3,47.7v4.336a3.256,3.256,0,0,0,3.252,3.252v3.993l20.6,8.011,20.6-8.011V55.283a3.256,3.256,0,0,0,3.252-3.252V47.7A3.256,3.256,0,0,0,116.74,44.444ZM103.6,36.356l4.694.853a5.431,5.431,0,0,1,3.422,2.185l-10.488,4.078ZM92.984,34.215a10.8,10.8,0,0,0,6.32,0l-3.16,2.37Zm1.51,3.842-2.212,2.211-1.435-4.3.691-.125Zm6.257-2.217.691.125-1.435,4.3-2.212-2.211Zm6.233-12.294V19.813a2.149,2.149,0,0,1,0,3.733Zm-21.68,0a2.149,2.149,0,0,1,0-3.733Zm0-7.287V17.5a4.3,4.3,0,0,0-1.084.449v-4.6a11.179,11.179,0,0,1,19.085-7.9l.956.957.292.072a4.633,4.633,0,0,1,3.515,4.5v6.973a4.26,4.26,0,0,0-1.084-.449V16.26h-3.437a9.429,9.429,0,0,1-7.507-3.752l-.862-1.151-2.154,2.155a9.326,9.326,0,0,1-6.636,2.748Zm2.168,7.588v-5.47a11.474,11.474,0,0,0,7.085-3.333l.422-.422a11.612,11.612,0,0,0,8.568,3.8h1.269v5.42a8.672,8.672,0,0,1-17.344,0ZM84,37.209l4.694-.853,2.372,7.116-10.49-4.079A5.429,5.429,0,0,1,84,37.209ZM74.464,52.032V47.7a1.085,1.085,0,0,1,1.084-1.084,3.252,3.252,0,1,1,0,6.5A1.085,1.085,0,0,1,74.464,52.032Zm20.6,12.507L77.716,57.8V54.824a5.409,5.409,0,0,0,0-9.921V40.608L95.06,47.353ZM91.841,43.776l4.3-4.3,4.3,4.3-4.3,1.674Zm22.73,14.018L97.228,64.538V47.353l17.344-6.745V44.9a5.409,5.409,0,0,0,0,9.921Zm3.252-5.762a1.085,1.085,0,0,1-1.084,1.084,3.252,3.252,0,0,1,0-6.5,1.085,1.085,0,0,1,1.084,1.084Z" transform="translate(-72.296 0)" fill="#2b2b2c"/>
      </g>
    </g>
  </g>
</svg>
