<svg xmlns="http://www.w3.org/2000/svg" width="68.019" height="68.019" viewBox="0 0 68.019 68.019">
    <path d="M9.069 13.134l-1.462-1.466-1.6 1.6 3.069 3.069 5.331-5.329-1.6-1.6z" data-name="Path 43569"/>
    <path d="M18 9h17v2H18z" data-name="Rectangle 1932"/>
    <path d="M18 14h17v2H18z" data-name="Rectangle 1933"/>
    <path d="M18 36h21v3H18z" data-name="Rectangle 1934"/>
    <path d="M18 41h21v2H18z" data-name="Rectangle 1935"/>
    <path d="M12.802 35.475l-2.6 2.6-2.6-2.6-1.6 1.6 2.6 2.6-2.6 2.6 1.6 1.6 2.6-2.6 2.6 2.6 1.6-1.6-2.6-2.6 2.6-2.6z" data-name="Path 43570"/>
    <path d="M18 50h19v2H18z" data-name="Rectangle 1936"/>
    <path d="M18 54h19v3H18z" data-name="Rectangle 1937"/>
    <path d="M12.802 49.079l-2.6 2.6-2.6-2.6-1.6 1.6 2.6 2.6-2.6 2.6 1.6 1.6 2.6-2.6 2.6 2.6 1.6-1.6-2.6-2.6 2.6-2.6z" data-name="Path 43571"/>
    <path d="M9.069 26.738l-1.462-1.466-1.6 1.6 3.069 3.069 5.331-5.329-1.6-1.6z" data-name="Path 43572"/>
    <path d="M18 22h25v3H18z" data-name="Rectangle 1938"/>
    <path d="M18 27h25v2H18z" data-name="Rectangle 1939"/>
    <path d="M57.816 38.544h-5.668V37.07a7.935 7.935 0 1 0 2.267-15.531h-2.267V12l-12-12H0v65.751h40.811v2.267h27.208V48.747a10.214 10.214 0 0 0-10.203-10.203zm-3.4 5.4l-1.567-3.133h3.133zm2.194 14.609l-2.194 2.194-2.194-2.194L54.415 44.3zm-2.195-23.41a5.675 5.675 0 0 1-5.668-5.668v-1.134h3.4a10.257 10.257 0 0 1 7.5 3.3 5.675 5.675 0 0 1-5.234 3.5zm5.609-6.253a12.528 12.528 0 0 0-7.877-2.816h-3.4v-2.268h5.668a5.656 5.656 0 0 1 5.609 5.083zM40.811 3.87l7.466 7.466h-7.466zM2.267 63.484V2.267h36.277V13.6H49.88v7.935h-3.4v7.935a7.926 7.926 0 0 0 3.4 6.5v2.633a10.214 10.214 0 0 0-9.069 10.136v14.745zm63.484 2.267H43.078v-17a7.942 7.942 0 0 1 7.255-7.9l1.776 3.549-2.3 14.948 4.608 4.608 4.608-4.608L56.724 44.4l1.776-3.554a7.942 7.942 0 0 1 7.255 7.9z" data-name="Path 43573"/>
</svg>
