<svg xmlns="http://www.w3.org/2000/svg" width="87.492" height="91.022" viewBox="0 0 87.492 91.022">
  <g id="Group_3426" data-name="Group 3426" transform="translate(-470 -2108)">
    <circle id="Ellipse_438" data-name="Ellipse 438" cx="41" cy="41" r="41" transform="translate(470 2108)" fill="#0675c1" opacity="0.1"/>
    <path id="suitcase" d="M61.267,9.674H47.294v-4.3A5.381,5.381,0,0,0,41.92,0H22.572A5.381,5.381,0,0,0,17.2,5.374v4.3H3.225A3.225,3.225,0,0,0,0,12.9V36.824a3.239,3.239,0,0,0,2.15,3.035V54.818a3.225,3.225,0,0,0,3.225,3.225H59.117a3.225,3.225,0,0,0,3.225-3.225V39.86a3.24,3.24,0,0,0,2.15-3.036V12.9a3.225,3.225,0,0,0-3.225-3.225Zm-41.92-4.3A3.225,3.225,0,0,1,22.572,2.15H41.92a3.225,3.225,0,0,1,3.225,3.225v4.3h-2.15v-4.3A1.075,1.075,0,0,0,41.92,4.3H22.572A1.075,1.075,0,0,0,21.5,5.374v4.3h-2.15Zm21.5,4.3h-17.2V6.449h17.2ZM60.192,54.818a1.075,1.075,0,0,1-1.075,1.075H5.374A1.075,1.075,0,0,1,4.3,54.818V40.229L27.946,43.49v2.729a3.225,3.225,0,0,0,3.225,3.225h2.15a3.225,3.225,0,0,0,3.225-3.225V43.49l23.647-3.261Zm-25.8-8.6a1.075,1.075,0,0,1-1.075,1.075h-2.15A1.075,1.075,0,0,1,30.1,46.219V39.77a1.075,1.075,0,0,1,1.075-1.075h2.15A1.075,1.075,0,0,1,34.4,39.77Zm27.946-9.395a1.075,1.075,0,0,1-.924,1.065l-.3.041L36.545,41.32V39.77a3.225,3.225,0,0,0-3.225-3.225h-2.15a3.225,3.225,0,0,0-3.225,3.225v1.55L3.075,37.89a1.075,1.075,0,0,1-.925-1.065V12.9a1.075,1.075,0,0,1,1.075-1.075H61.267A1.075,1.075,0,0,1,62.342,12.9Zm0,0" transform="translate(493 2140.979)" fill="#2b2b2c"/>
  </g>
</svg>
