<svg xmlns="http://www.w3.org/2000/svg" width="94.791" height="91.022" viewBox="0 0 94.791 91.022">
  <g id="Group_3424" data-name="Group 3424" transform="translate(-801 -2108)">
    <circle id="Ellipse_440" data-name="Ellipse 440" cx="41" cy="41" r="41" transform="translate(801 2108)" fill="#0675c1" opacity="0.1"/>
    <path id="positive-vote" d="M65.939,28.826a4.82,4.82,0,0,0-2.985-2.054,4.847,4.847,0,0,0-3.233-6.987,4.859,4.859,0,0,0-.251-4.938,4.816,4.816,0,0,0-2.985-2.054,4.852,4.852,0,0,0-6.975-6.3L44.68,9.69a30.187,30.187,0,0,0-8.156-2.76,22.429,22.429,0,0,0-3.113-3.766l-2-1.937a4.373,4.373,0,0,0-6.69,5.554q.079.119.155.24A30.437,30.437,0,1,0,59.571,47.19a1.046,1.046,0,1,0-1.968-.71A28.381,28.381,0,0,1,21.987,63.754L30.5,58.116h0l7.075-4.685h0a2.854,2.854,0,0,0,.8-3.954l-.093-.142,1.374-.91a4.66,4.66,0,0,1,3.321-.718,6.746,6.746,0,0,0,4.808-1.04l11.4-7.548a28.407,28.407,0,0,1-.386,2.938,1.046,1.046,0,0,0,.838,1.22,1.021,1.021,0,0,0,.192.018,1.046,1.046,0,0,0,1.027-.856,30.6,30.6,0,0,0,.5-4.758l3.212-2.127a4.853,4.853,0,0,0,1.367-6.726ZM42.649,11.035l-3.2,2.117-.629-1.7a22.389,22.389,0,0,0-.9-2.08,28.085,28.085,0,0,1,4.724,1.658ZM9.518,18.288A28.346,28.346,0,0,1,25.879,8.96a12.925,12.925,0,0,1,.652,7.828L23.98,27.808a2.848,2.848,0,0,0-3.652-.426L13.1,32.167h0L2.68,39.07c-.057-.735-.087-1.476-.087-2.216A28.335,28.335,0,0,1,9.518,18.288ZM36.747,51.2a.758.758,0,0,1-.326.484h0L30.207,55.8,18.675,38.6a1.046,1.046,0,0,0-1.738,1.165L28.462,56.955l-8.87,5.874A28.431,28.431,0,0,1,2.953,41.358l10.434-6.887,1.2,1.792A1.046,1.046,0,0,0,16.326,35.1l-1.193-1.779,6.35-4.192a.761.761,0,0,1,1.054.215l14.1,21.288a.754.754,0,0,1,.111.571ZM64.6,32.055a2.742,2.742,0,0,1-1.181,1.752l-3.672,2.432,0,0-13.107,8.68a4.658,4.658,0,0,1-3.321.718,6.75,6.75,0,0,0-4.808,1.04l-1.374.91L25.585,30.153,28.57,17.26a15.032,15.032,0,0,0-1.1-9.868,1.025,1.025,0,0,0-.044-.093,14.8,14.8,0,0,0-.957-1.674,2.281,2.281,0,0,1,3.489-2.9l2,1.937a20.442,20.442,0,0,1,4.906,7.518l1.088,2.932.006.015.008.021c.008.018.015.034.023.048a1.033,1.033,0,0,0,.072.129,1.046,1.046,0,0,0,1.45.295L50.666,8.235a2.76,2.76,0,0,1,3.048,4.6l-.969.642h0l-2.161,1.431-.008.006-.034.025a1.046,1.046,0,0,0,1.2,1.714L53.9,15.224a2.761,2.761,0,0,1,3.047,4.6L53.818,21.9a1.046,1.046,0,1,0,1.155,1.744l.485-.321,1.677-1.11a2.761,2.761,0,0,1,3.048,4.6l-1.564,1.035-.025.016-1.542,1.021a1.046,1.046,0,1,0,1.155,1.745l.485-.321h0L60.37,29.2A2.76,2.76,0,0,1,64.6,32.055Zm0,0" transform="translate(829.044 2131.734)" fill="#2b2b2c"/>
  </g>
</svg>
