<svg xmlns="http://www.w3.org/2000/svg" width="52.8" height="67.956" viewBox="0 0 52.8 67.956">
    <defs>
        <style>
            .cls-1{fill:none;stroke:#2b2b2c;stroke-width:3px}
        </style>
    </defs>
    <path id="user_1_" d="M51.4 46.432l-10.34-5.171a2.848 2.848 0 0 1-1.582-2.56v-3.66c.248-.3.509-.648.778-1.03a24.776 24.776 0 0 0 3.2-6.278 4.3 4.3 0 0 0 2.519-3.916v-4.33a4.317 4.317 0 0 0-1.083-2.842v-5.758a9.7 9.7 0 0 0-2.265-7.064C40.4 1.286 36.794 0 31.9 0s-8.5 1.286-10.727 3.822a9.707 9.707 0 0 0-2.265 7.065v5.758a4.317 4.317 0 0 0-1.083 2.842v4.33a4.3 4.3 0 0 0 1.621 3.366 22.722 22.722 0 0 0 3.792 7.835V38.6a2.861 2.861 0 0 1-1.491 2.512L12.09 46.38A9.763 9.763 0 0 0 7 54.955v3.505c0 5.138 16.288 6.5 24.9 6.5s24.9-1.358 24.9-6.5v-3.294a9.714 9.714 0 0 0-5.4-8.734z" class="cls-1" data-name="user (1)" transform="translate(-5.5 1.5)"/>
</svg>
