<svg xmlns="http://www.w3.org/2000/svg" id="photo-camera" width="10.441" height="8.527" viewBox="0 0 10.441 8.527">
    <defs>
        <style>
            .cls-1{fill:#f2f5fc}
        </style>
    </defs>
    <path id="Path_43446" d="M20.088 20.5a2.088 2.088 0 1 0 2.088 2.088 2.091 2.091 0 0 0-2.088-2.088z" class="cls-1" data-name="Path 43446" transform="translate(-14.868 -17.89)"/>
    <path id="Path_43447" d="M9.606 7.24H8.122l-.7-1.74H3.014l-.7 1.74h-.23v-.87h-1.04v.87H.835A.836.836 0 0 0 0 8.075v5.11a.842.842 0 0 0 .841.841H9.6a.842.842 0 0 0 .841-.841v-5.11a.836.836 0 0 0-.835-.835zm-7.866 0h-.348v-.522h.348zm3.48 6.091A3.132 3.132 0 1 1 8.353 10.2a3.136 3.136 0 0 1-3.133 3.131zm3.828-4a.7.7 0 1 1 .7-.7.7.7 0 0 1-.699.697z" class="cls-1" data-name="Path 43447" transform="translate(0 -5.5)"/>
</svg>
