<svg id="_4" data-name="4" xmlns="http://www.w3.org/2000/svg" width="47.578" height="49.447" viewBox="0 0 47.578 49.447">
  <circle id="Ellipse_430" data-name="Ellipse 430" cx="22.274" cy="22.274" r="22.274" transform="translate(3.03)" fill="#0675c1" opacity="0.1"/>
  <g id="businessman-paper-of-the-application-for-a-job" transform="translate(0 12.894)">
    <path id="Path_43332" data-name="Path 43332" d="M28.051,31.831a.669.669,0,0,1,.67-.671h2.3a8.5,8.5,0,0,0,3.226,1.312.628.628,0,0,1-.143.029H28.721A.668.668,0,0,1,28.051,31.831Zm-1.638-5.365h1.194a8.34,8.34,0,0,1-.272-1.341h-.922a.671.671,0,1,0,0,1.341ZM21.478,9.528A3.353,3.353,0,0,1,20.088,6.9a2.516,2.516,0,1,1,5.032,0,3.352,3.352,0,0,1-1.392,2.632c1.972.5,3.432,2.213,3.432,3.481,0,1.5-9.113,1.5-9.113,0C18.047,11.741,19.509,10.029,21.478,9.528Zm-.152,3.33L22.6,14.133l1.279-1.275-1.075-2.6h.01l.418-.477A1.889,1.889,0,0,1,22.6,9.9a1.853,1.853,0,0,1-.631-.117l.417.48H22.4ZM38.167,35.09l0,0-.032-.056c-.017,0-.031,0-.046,0H14.734a2.192,2.192,0,0,1-2.19-2.189V3.648a2.192,2.192,0,0,1,2.19-2.189H38.091A2.192,2.192,0,0,1,40.28,3.648V17.012a8.451,8.451,0,0,1,1.461,1.146V3.648A3.652,3.652,0,0,0,38.091,0H14.734a3.653,3.653,0,0,0-3.65,3.648v29.2a3.652,3.652,0,0,0,3.65,3.648H38.091a3.624,3.624,0,0,0,.828-.1ZM18.717,23.41h8.6a8.615,8.615,0,0,1,.228-1.342H18.718a.671.671,0,0,0,0,1.342Zm0-6.112H30.769a8.582,8.582,0,0,1,.745-.487,8.5,8.5,0,0,1,2.091-.856H18.717a.671.671,0,0,0,0,1.343Zm0,3.056h9.462a8.47,8.47,0,0,1,.831-1.341H18.717a.671.671,0,0,0,0,1.341Zm22.91.408a6.783,6.783,0,1,1-9.268-2.483A6.788,6.788,0,0,1,41.627,20.761Zm-.971.562a5.66,5.66,0,1,0-2.073,7.733A5.672,5.672,0,0,0,40.656,21.323Zm.193,8.285-2.916,1.684,2.245,3.887L43.093,33.5ZM43.4,34.026l-2.918,1.683A1.684,1.684,0,1,0,43.4,34.026Z" transform="translate(-11.084)" fill="#0675c1"/>
  </g>
</svg>
