<svg xmlns="http://www.w3.org/2000/svg" width="44" height="49.555" viewBox="0 0 44 49.555">
  <g id="_2" data-name="2" transform="translate(-0.355 0.071)">
    <circle id="Ellipse_439" data-name="Ellipse 439" cx="22" cy="22" r="22" transform="translate(0.355 -0.071)" fill="#0675c1" opacity="0.1"/>
    <g id="reading" transform="translate(4.83 12.929)">
      <g id="Group_3423" data-name="Group 3423">
        <path id="Path_43586" data-name="Path 43586" d="M96.44,24.144V20.339l-1.606.625,0-.011-.038-.069a4.134,4.134,0,0,0-2.731-1.828l-3.864-.7v-.305a5.9,5.9,0,0,0,2.833-3.963,2.359,2.359,0,0,0,1.878-2.307V5.961a3.693,3.693,0,0,0-2.638-3.543l-.294-.294A7.251,7.251,0,0,0,77.6,7.251v4.527a2.359,2.359,0,0,0,1.878,2.307,5.9,5.9,0,0,0,2.833,3.963v.305l-3.864.7a4.135,4.135,0,0,0-2.73,1.826l-.035.086-1.615-.628v3.805A1.769,1.769,0,0,0,72.3,25.911v2.356a1.769,1.769,0,0,0,1.767,1.767V32.2l11.189,4.352L96.44,32.2V30.033a1.769,1.769,0,0,0,1.767-1.767V25.911A1.769,1.769,0,0,0,96.44,24.144ZM89.3,19.751l2.55.463A2.95,2.95,0,0,1,93.709,21.4l-5.7,2.215Zm-5.765-1.163a5.867,5.867,0,0,0,3.433,0l-1.717,1.287Zm.82,2.087-1.2,1.2-.78-2.338.375-.068Zm3.4-1.2.375.068-.78,2.338-1.2-1.2Zm3.386-6.679V10.764a1.168,1.168,0,0,1,0,2.028Zm-11.778,0a1.168,1.168,0,0,1,0-2.028Zm0-3.959v.673a2.336,2.336,0,0,0-.589.244v-2.5A6.073,6.073,0,0,1,89.142,2.957l.519.52.158.039a2.517,2.517,0,0,1,1.91,2.446V9.75a2.314,2.314,0,0,0-.589-.244V8.833H89.273A5.122,5.122,0,0,1,85.2,6.8l-.468-.625-1.17,1.171a5.067,5.067,0,0,1-3.605,1.493Zm1.178,4.122V9.984a6.233,6.233,0,0,0,3.849-1.811l.229-.229a6.308,6.308,0,0,0,4.655,2.067h.69v2.944a4.711,4.711,0,0,1-9.422,0Zm-1.887,7.259,2.55-.463,1.288,3.866-5.7-2.216A2.95,2.95,0,0,1,78.654,20.214Zm-5.18,8.052V25.911a.589.589,0,0,1,.589-.589,1.767,1.767,0,1,1,0,3.533A.589.589,0,0,1,73.474,28.267Zm11.189,6.795L75.24,31.4V29.784a2.939,2.939,0,0,0,0-5.39V22.061l9.422,3.664Zm-1.748-11.28,2.337-2.338,2.337,2.337-2.337.909ZM95.263,31.4,85.84,35.061V25.725l9.422-3.664v2.333a2.939,2.939,0,0,0,0,5.39Zm1.767-3.131a.589.589,0,0,1-.589.589,1.767,1.767,0,0,1,0-3.533.589.589,0,0,1,.589.589Z" transform="translate(-72.296 0)" fill="#0675c1"/>
      </g>
    </g>
  </g>
</svg>
