<svg xmlns="http://www.w3.org/2000/svg" width="47.239" height="49.555" viewBox="0 0 47.239 49.555">
  <g id="_3" data-name="3" transform="translate(0.269 0.071)">
    <circle id="Ellipse_438" data-name="Ellipse 438" cx="22" cy="22" r="22" transform="translate(-0.269 -0.071)" fill="#0675c1" opacity="0.1"/>
    <path id="suitcase" d="M33.284,5.255H25.693V2.92A2.923,2.923,0,0,0,22.773,0H12.263a2.923,2.923,0,0,0-2.92,2.92V5.255H1.752A1.752,1.752,0,0,0,0,7.007v13a1.759,1.759,0,0,0,1.168,1.649V29.78A1.752,1.752,0,0,0,2.92,31.532h29.2a1.752,1.752,0,0,0,1.752-1.752V21.654a1.76,1.76,0,0,0,1.168-1.649v-13a1.752,1.752,0,0,0-1.752-1.752ZM10.511,2.92a1.752,1.752,0,0,1,1.752-1.752H22.773A1.752,1.752,0,0,1,24.525,2.92V5.255H23.357V2.92a.584.584,0,0,0-.584-.584H12.263a.584.584,0,0,0-.584.584V5.255H10.511ZM22.189,5.255H12.846V3.5h9.343ZM32.7,29.78a.584.584,0,0,1-.584.584H2.92a.584.584,0,0,1-.584-.584V21.855l12.846,1.772v1.483a1.752,1.752,0,0,0,1.752,1.752H18.1a1.752,1.752,0,0,0,1.752-1.752V23.626L32.7,21.855ZM18.686,25.109a.584.584,0,0,1-.584.584H16.934a.584.584,0,0,1-.584-.584v-3.5a.584.584,0,0,1,.584-.584H18.1a.584.584,0,0,1,.584.584Zm15.182-5.1a.584.584,0,0,1-.5.579l-.162.022-13.35,1.841v-.842A1.752,1.752,0,0,0,18.1,19.854H16.934a1.752,1.752,0,0,0-1.752,1.752v.842L1.671,20.584a.584.584,0,0,1-.5-.579v-13a.584.584,0,0,1,.584-.584H33.284a.584.584,0,0,1,.584.584Zm0,0" transform="translate(11.935 17.951)" fill="#0675c1"/>
  </g>
</svg>
