<svg xmlns="http://www.w3.org/2000/svg" width="51.146" height="49.555" viewBox="0 0 51.146 49.555">
  <g id="_1" data-name="1" transform="translate(-0.322 0.071)">
    <circle id="Ellipse_440" data-name="Ellipse 440" cx="22" cy="22" r="22" transform="translate(0.322 -0.071)" fill="#0675c1" opacity="0.1"/>
    <path id="positive-vote" d="M36.051,15.661a2.618,2.618,0,0,0-1.621-1.116,2.633,2.633,0,0,0-1.756-3.8,2.64,2.64,0,0,0-.136-2.682A2.616,2.616,0,0,0,30.915,6.95a2.636,2.636,0,0,0-3.789-3.424L24.5,5.264a16.4,16.4,0,0,0-4.431-1.5A12.184,12.184,0,0,0,18.38,1.719L17.294.667A2.376,2.376,0,0,0,13.66,3.684l.084.13A16.535,16.535,0,1,0,32.591,25.637a.568.568,0,1,0-1.069-.386,15.419,15.419,0,0,1-19.349,9.384L16.8,31.573h0l3.843-2.545h0a1.55,1.55,0,0,0,.437-2.148l-.051-.077.747-.494a2.532,2.532,0,0,1,1.8-.39,3.665,3.665,0,0,0,2.612-.565l6.192-4.1a15.432,15.432,0,0,1-.209,1.6.568.568,0,0,0,.455.663.554.554,0,0,0,.1.01.569.569,0,0,0,.558-.465,16.622,16.622,0,0,0,.272-2.585l1.745-1.156a2.637,2.637,0,0,0,.742-3.654ZM23.4,6l-1.737,1.15-.342-.921a12.162,12.162,0,0,0-.488-1.13A15.257,15.257,0,0,1,23.4,6Zm-18,3.94a15.4,15.4,0,0,1,8.888-5.068,7.022,7.022,0,0,1,.354,4.253l-1.386,5.987a1.547,1.547,0,0,0-1.984-.231l-3.925,2.6h0L1.685,21.225c-.031-.4-.047-.8-.047-1.2A15.394,15.394,0,0,1,5.4,9.935Zm14.793,17.88a.412.412,0,0,1-.177.263h0l-3.376,2.235L10.374,20.97a.568.568,0,0,0-.944.633l6.261,9.338-4.819,3.191A15.446,15.446,0,0,1,1.833,22.468L7.5,18.727l.652.973a.568.568,0,0,0,.944-.633L8.45,18.1l3.45-2.277a.414.414,0,0,1,.573.117l7.659,11.565a.41.41,0,0,1,.06.31Zm15.13-10.4a1.489,1.489,0,0,1-.642.952l-1.995,1.321h0L25.563,24.4a2.53,2.53,0,0,1-1.8.39,3.667,3.667,0,0,0-2.612.565l-.747.494-6.273-9.472,1.621-7a8.166,8.166,0,0,0-.6-5.361.557.557,0,0,0-.024-.05,8.04,8.04,0,0,0-.52-.909,1.239,1.239,0,0,1,1.9-1.574l1.086,1.053A11.105,11.105,0,0,1,20.254,6.62l.591,1.593,0,.008,0,.011c0,.01.008.019.012.026a.561.561,0,0,0,.039.07.568.568,0,0,0,.788.16l6.062-4.014a1.5,1.5,0,0,1,1.656,2.5l-.526.349h0L27.709,8.1l0,0-.018.014a.568.568,0,0,0,.651.931l1.175-.778a1.5,1.5,0,0,1,1.655,2.5l-1.7,1.126a.568.568,0,1,0,.628.948l.263-.174.911-.6a1.5,1.5,0,0,1,1.656,2.5l-.849.563-.013.009-.838.555a.568.568,0,1,0,.628.948l.263-.174h0l.911-.6a1.5,1.5,0,0,1,2.3,1.549Zm0,0" transform="translate(14.978 12.928)" fill="#0675c1"/>
  </g>
</svg>
