<svg id="_046---Male-User-Account-Unlocked" data-name="046---Male-User-Account-Unlocked" xmlns="http://www.w3.org/2000/svg" width="17.868" height="17.868" viewBox="0 0 17.868 17.868">
  <path id="Shape" d="M10.21,14.393l-.568-.217a1.6,1.6,0,0,1-1.027-1.49v-.638a1.551,1.551,0,0,1,.533-1.2A2.958,2.958,0,0,0,10.21,8.42v-.1a.319.319,0,0,1,.319-.345h.319a.638.638,0,0,0,.638-.638V6.381a.638.638,0,0,0-.638-.638.319.319,0,0,1,0-.638.887.887,0,0,1,.246.032C11.3,4,11.062,2.8,10.025,2.387c-.105-.038-.29-.064-.338-.271C9.336.638,7.658,0,6.126,0,3.574,0,2.4,2.591,3.038,5.121a1.2,1.2,0,0,1,.153-.016.319.319,0,0,1,0,.638.638.638,0,0,0-.638.638v.957a.638.638,0,0,0,.638.638H3.51a.319.319,0,0,1,.319.345v.1a2.964,2.964,0,0,0,1.059,2.428,1.544,1.544,0,0,1,.536,1.2v.638A1.6,1.6,0,0,1,4.394,14.18L1.276,15.363A2.01,2.01,0,0,0,0,17.23v.638H10.529a1.57,1.57,0,0,1-.319-.957Z" transform="translate(0 0)" fill="#e4e4e4"/>
  <path id="Shape-2" data-name="Shape" d="M38.319,22.285a.319.319,0,0,0,.319-.319v-.584a1.6,1.6,0,1,1,3.191-.054v2.234h.638V21.417A2.234,2.234,0,0,0,38,21.328v.638A.319.319,0,0,0,38.319,22.285Z" transform="translate(-25.875 -13.032)" fill="#e4e4e4"/>
  <path id="Shape-3" data-name="Shape" d="M43.989,42.181a.638.638,0,1,0-.7,0,.319.319,0,0,1,.128.361l-.37,1.181a.319.319,0,0,0,.274.475h.638a.319.319,0,0,0,.294-.447c0-.019-.041-.121-.38-1.209A.319.319,0,0,1,43.989,42.181Z" transform="translate(-29.28 -27.925)" fill="#e4e4e4"/>
  <path id="Shape-4" data-name="Shape" d="M40.062,35H34.957a.957.957,0,0,0-.957.957v4.786a.957.957,0,0,0,.957.957h5.105a.957.957,0,0,0,.957-.957V35.957A.957.957,0,0,0,40.062,35Zm-1.356,4.426a.957.957,0,0,1-.877,1.318h-.638a.957.957,0,0,1-.881-1.334l.3-.957a1.276,1.276,0,1,1,1.79,0Z" transform="translate(-23.151 -23.832)" fill="#e4e4e4"/>
</svg>
