<svg xmlns="http://www.w3.org/2000/svg" xmlns:xlink="http://www.w3.org/1999/xlink" width="20.036" height="18" viewBox="0 0 20.036 18">
  <defs>
    <linearGradient id="linear-gradient" x1="0.5" x2="0.5" y2="1" gradientUnits="objectBoundingBox">
      <stop offset="0" stop-color="#5ca9dd"/>
      <stop offset="1" stop-color="#0675c1"/>
    </linearGradient>
  </defs>
  <g id="Group_4486" data-name="Group 4486" transform="translate(-811 -218)">
    <rect id="Rectangle_2169" data-name="Rectangle 2169" width="17" height="12" rx="2" transform="translate(811 218)" fill="url(#linear-gradient)"/>
    <g id="Group_2298" data-name="Group 2298" transform="translate(813.479 219.997)">
      <g id="Group_2297" data-name="Group 2297">
        <path id="Path_43354" data-name="Path 43354" d="M97.257,84.5v.827h-.671V84.5c0-.213-.526-.212-.526,0v2.146c0,.216.526.218.526,0v-.914h.671v.914c0,.217.526.216.526,0V84.5C97.783,84.289,97.257,84.288,97.257,84.5Z" transform="translate(-96.059 -84.341)" fill="#fff"/>
      </g>
    </g>
    <g id="Group_2300" data-name="Group 2300" transform="translate(815.567 219.997)">
      <g id="Group_2299" data-name="Group 2299">
        <path id="Path_43355" data-name="Path 43355" d="M145.182,86.37h-.9V85.8h.506a.133.133,0,0,0,.118-.061.244.244,0,0,0,.04-.138.248.248,0,0,0-.042-.145.134.134,0,0,0-.116-.061h-.506v-.57h.9c.209,0,.215-.459,0-.459h-1.2a.3.3,0,0,0-.162.042.134.134,0,0,0-.067.12v2.142a.133.133,0,0,0,.067.12.3.3,0,0,0,.162.042h1.2C145.4,86.829,145.392,86.37,145.182,86.37Z" transform="translate(-143.751 -84.363)" fill="#fff"/>
      </g>
    </g>
    <g id="Group_2302" data-name="Group 2302" transform="translate(817.383 219.997)">
      <g id="Group_2301" data-name="Group 2301" transform="translate(0 0)">
        <path id="Path_43356" data-name="Path 43356" d="M186.5,86.352h-.769V84.5c0-.212-.526-.213-.526,0,.023,2.259-.054,2.19.067,2.266a.3.3,0,0,0,.162.042H186.5C186.705,86.811,186.705,86.352,186.5,86.352Z" transform="translate(-185.204 -84.344)" fill="#fff"/>
      </g>
    </g>
    <g id="Group_2304" data-name="Group 2304" transform="translate(819.043 219.997)">
      <g id="Group_2303" data-name="Group 2303">
        <path id="Path_43357" data-name="Path 43357" d="M224.409,86.35h-.769V84.5c0-.213-.526-.212-.526,0,.023,2.259-.054,2.19.067,2.266a.3.3,0,0,0,.162.042h1.066C224.611,86.809,224.611,86.35,224.409,86.35Z" transform="translate(-223.11 -84.341)" fill="#fff"/>
      </g>
    </g>
    <g id="Group_2306" data-name="Group 2306" transform="translate(820.642 219.997)">
      <g id="Group_2305" data-name="Group 2305" transform="translate(0 0)">
        <path id="Path_43358" data-name="Path 43358" d="M261.058,84.554a1.039,1.039,0,0,0-1.2,0,.75.75,0,0,0-.226.6v.894a.75.75,0,0,0,.226.6,1.039,1.039,0,0,0,1.2,0,.75.75,0,0,0,.226-.6v-.894A.751.751,0,0,0,261.058,84.554Zm-.3,1.5q0,.337-.3.337t-.3-.337v-.894q0-.337.3-.337t.3.337Z" transform="translate(-259.627 -84.362)" fill="#fff"/>
      </g>
    </g>
    <g id="Group_2308" data-name="Group 2308" transform="translate(813.466 224.809)">
      <g id="Group_2307" data-name="Group 2307">
        <path id="Path_43359" data-name="Path 43359" d="M96.856,194.261a.135.135,0,0,0-.091-.031.211.211,0,0,0-.113.026.31.31,0,0,0-.088.11l-.242.441-.242-.441a.318.318,0,0,0-.087-.11.206.206,0,0,0-.112-.026.135.135,0,0,0-.091.031.121.121,0,0,0-.036.1v1.23c0,.108.256.107.256,0v-.862l.226.425a.09.09,0,0,0,.085.051.092.092,0,0,0,.087-.051l.23-.409v.846c0,.109.256.106.256,0v-1.23A.121.121,0,0,0,96.856,194.261Z" transform="translate(-95.753 -194.23)" fill="#fff"/>
      </g>
    </g>
    <g id="Group_2310" data-name="Group 2310" transform="translate(814.735 225.299)">
      <g id="Group_2309" data-name="Group 2309" transform="translate(0 0)">
        <path id="Path_43360" data-name="Path 43360" d="M125.581,205.457a.216.216,0,0,0-.112-.038.062.062,0,0,0-.067.043l-.191.583-.236-.583q-.014-.043-.073-.043a.207.207,0,0,0-.111.037.1.1,0,0,0-.058.084.091.091,0,0,0,.008.033l.338.718a.28.28,0,0,1-.1.221.3.3,0,0,1-.182.066q-.065,0-.065.111a.11.11,0,0,0,.03.091.388.388,0,0,0,.376-.073q.037-.036.058-.061a1.519,1.519,0,0,0,.152-.338l.287-.735a.074.074,0,0,0,.006-.03A.106.106,0,0,0,125.581,205.457Z" transform="translate(-124.733 -205.419)" fill="#fff"/>
      </g>
    </g>
    <g id="Group_2312" data-name="Group 2312" transform="translate(816.171 224.808)">
      <g id="Group_2311" data-name="Group 2311">
        <path id="Path_43361" data-name="Path 43361" d="M158.235,194.293v.791l-.38-.734a.319.319,0,0,0-.083-.11c-.064-.044-.236-.037-.236.055v1.277c0,.108.256.107.256,0v-.791l.423.791c.067.125.275.09.275,0v-1.279C158.49,194.187,158.235,194.187,158.235,194.293Z" transform="translate(-157.536 -194.214)" fill="#fff"/>
      </g>
    </g>
    <g id="Group_2314" data-name="Group 2314" transform="translate(817.287 225.301)">
      <g id="Group_2313" data-name="Group 2313">
        <path id="Path_43362" data-name="Path 43362" d="M183.7,205.572a.422.422,0,0,0-.319-.109.548.548,0,0,0-.213.042q-.1.042-.1.1a.165.165,0,0,0,.024.087.071.071,0,0,0,.063.039.333.333,0,0,0,.073-.033.318.318,0,0,1,.152-.033.154.154,0,0,1,.131.056.21.21,0,0,1,.042.131v.026h-.081a.737.737,0,0,0-.34.063.226.226,0,0,0-.118.218.266.266,0,0,0,.072.2.255.255,0,0,0,.184.069.387.387,0,0,0,.3-.165v.061c0,.115.238.11.238.006v-.482A.382.382,0,0,0,183.7,205.572Zm-.15.475h0a.168.168,0,0,1-.059.123.177.177,0,0,1-.122.056.11.11,0,0,1-.076-.025.1.1,0,0,1-.029-.076.092.092,0,0,1,.068-.094.6.6,0,0,1,.188-.023h.029Z" transform="translate(-183.016 -205.463)" fill="#fff"/>
      </g>
    </g>
    <g id="Group_2316" data-name="Group 2316" transform="translate(818.269 225.301)">
      <g id="Group_2315" data-name="Group 2315">
        <path id="Path_43363" data-name="Path 43363" d="M206.722,205.572a.331.331,0,0,0-.246-.108.309.309,0,0,0-.168.051.365.365,0,0,0-.129.148.321.321,0,0,0-.1-.144.227.227,0,0,0-.149-.055.278.278,0,0,0-.26.151v-.06c0-.109-.238-.1-.238,0v.775a.069.069,0,0,0,.036.056c.083.056.217.007.217-.056v-.465a.179.179,0,0,1,.045-.13.145.145,0,0,1,.108-.047.154.154,0,0,1,.113.049.174.174,0,0,1,.048.128v.467c0,.1.254.108.254,0v-.469a.178.178,0,0,1,.046-.129.147.147,0,0,1,.109-.048.152.152,0,0,1,.112.048.178.178,0,0,1,.047.13v.465a.069.069,0,0,0,.038.055c.089.06.215,0,.215-.055v-.466A.4.4,0,0,0,206.722,205.572Z" transform="translate(-205.435 -205.464)" fill="#fff"/>
      </g>
    </g>
    <g id="Group_2318" data-name="Group 2318" transform="translate(819.813 225.301)">
      <g id="Group_2317" data-name="Group 2317" transform="translate(0 0)">
        <path id="Path_43364" data-name="Path 43364" d="M241.434,206.153a.3.3,0,0,0-.094.037.321.321,0,0,1-.148.037.254.254,0,0,1-.167-.052.169.169,0,0,1-.063-.137v-.029h.4c.122,0,.183-.029.183-.173a.34.34,0,0,0-.119-.266.416.416,0,0,0-.286-.106.434.434,0,0,0-.3.116.365.365,0,0,0-.126.277v.167a.362.362,0,0,0,.133.292.517.517,0,0,0,.343.111.511.511,0,0,0,.247-.054q.1-.054.1-.109a.128.128,0,0,0-.028-.074A.082.082,0,0,0,241.434,206.153Zm-.421-.448a.2.2,0,0,1,.243,0,.128.128,0,0,1,.05.1.049.049,0,0,1-.013.04.073.073,0,0,1-.044.01h-.287v-.051h0A.125.125,0,0,1,241.013,205.7Z" transform="translate(-240.708 -205.464)" fill="#fff"/>
      </g>
    </g>
    <g id="Group_2320" data-name="Group 2320" transform="translate(821.214 224.808)">
      <g id="Group_2319" data-name="Group 2319">
        <path id="Path_43365" data-name="Path 43365" d="M272.7,194.292v1.279c0,.108.256.107.256,0v-1.279C272.956,194.186,272.7,194.186,272.7,194.292Z" transform="translate(-272.7 -194.212)" fill="#fff"/>
      </g>
    </g>
    <g id="Group_2322" data-name="Group 2322" transform="translate(821.627 225.301)">
      <g id="Group_2321" data-name="Group 2321">
        <path id="Path_43366" data-name="Path 43366" d="M282.819,206a.223.223,0,0,0-.086-.083.763.763,0,0,0-.111-.047,1.1,1.1,0,0,0-.112-.032.3.3,0,0,1-.088-.033.062.062,0,0,1-.035-.054.075.075,0,0,1,.035-.059.168.168,0,0,1,.1-.027.4.4,0,0,1,.131.025.408.408,0,0,0,.086.025.077.077,0,0,0,.066-.044.157.157,0,0,0,.027-.078q0-.053-.1-.091a.594.594,0,0,0-.217-.037.357.357,0,0,0-.268.088.293.293,0,0,0-.085.21.215.215,0,0,0,.048.145.267.267,0,0,0,.117.08q.069.024.137.041a.489.489,0,0,1,.116.044.081.081,0,0,1,.048.073q0,.082-.145.082a.355.355,0,0,1-.127-.021.564.564,0,0,1-.087-.04.113.113,0,0,0-.055-.02.073.073,0,0,0-.06.038.133.133,0,0,0-.026.074q0,.067.1.118a.568.568,0,0,0,.252.051.41.41,0,0,0,.267-.078.262.262,0,0,0,.1-.214A.257.257,0,0,0,282.819,206Z" transform="translate(-282.136 -205.465)" fill="#fff"/>
      </g>
    </g>
    <path id="Path_50604" data-name="Path 50604" d="M15436.887,6175.244s-5.3-1.017-5.166,1.852-1.059,5.782.646,7.589,6.174-.362,6.174-.362Z" transform="translate(-14608.655 -5954)" fill="#e5f1f9"/>
    <g id="Group_2330" data-name="Group 2330" transform="translate(809.272 218.37)">
      <g id="Group_2329" data-name="Group 2329" transform="translate(0 0)">
        <path id="Path_43370" data-name="Path 43370" d="M21.414,56.506h-.668a.328.328,0,0,0-.328.311,2.572,2.572,0,0,1-.139.714,5.752,5.752,0,0,1-.657,1.018,2.581,2.581,0,0,1-2.763.515h0a2.574,2.574,0,0,1-1.587-2.247.328.328,0,0,0-.328-.312h-.668a.351.351,0,0,1-.35-.35v-.321a.351.351,0,0,1,.35-.35h.664a.328.328,0,0,0,.328-.328v-.885h2.111a2.678,2.678,0,0,0,2.548-1.838,2.257,2.257,0,0,1,.5,1.41v1.313a.328.328,0,0,0,.328.328h.664a.351.351,0,0,1,.35.35v.321A.351.351,0,0,1,21.414,56.506ZM17.057,59.82a3.243,3.243,0,0,0,1.572,0v.794a.786.786,0,1,1-1.572,0Zm.786,2.237a1.443,1.443,0,0,0,1.443-1.443v-.06h.09a2.093,2.093,0,0,1,2.08,1.853l.28,2.423H20.57v-.977a.328.328,0,0,0-.657,0v.977h-4.14v-.977a.328.328,0,0,0-.657,0v.977H13.95l.28-2.423a2.093,2.093,0,0,1,2.08-1.853h.09v.06A1.445,1.445,0,0,0,17.843,62.057Zm3.417-7.229h-.182v-.985a2.914,2.914,0,0,0-.958-2.158.451.451,0,0,0-.747.257,2.022,2.022,0,0,1-2,1.672h-2.44a.328.328,0,0,0-.328.328v.885h-.182V52.594a2.143,2.143,0,0,1,2.14-2.14h1.9a1,1,0,0,1,.9.562l.041.085a.328.328,0,0,0,.3.185h.545A1.014,1.014,0,0,1,21.26,52.3Z" transform="translate(0 -47.201)" fill="url(#linear-gradient)"/>
      </g>
    </g>
    <g id="Group_2324" data-name="Group 2324" transform="translate(825.697 227.76)">
      <g id="Group_2323" data-name="Group 2323" transform="translate(0 0)">
        <path id="Path_43367" data-name="Path 43367" d="M377.7,261.663a.328.328,0,0,0-.428.181.849.849,0,0,1-1.572,0,.328.328,0,0,0-.609.246,1.506,1.506,0,0,0,2.79,0A.328.328,0,0,0,377.7,261.663Z" transform="translate(-375.064 -261.639)" fill="#fff"/>
      </g>
    </g>
    <g id="Group_2326" data-name="Group 2326" transform="translate(825.333 226.045)">
      <g id="Group_2325" data-name="Group 2325" transform="translate(0 0)">
        <path id="Path_43368" data-name="Path 43368" d="M367.077,222.461a.328.328,0,0,0-.328.328v.14a.328.328,0,0,0,.657,0v-.14A.328.328,0,0,0,367.077,222.461Z" transform="translate(-366.749 -222.461)" fill="#fff"/>
      </g>
    </g>
    <g id="Group_2328" data-name="Group 2328" transform="translate(828.242 226.045)">
      <g id="Group_2327" data-name="Group 2327" transform="translate(0 0)">
        <path id="Path_43369" data-name="Path 43369" d="M433.52,222.461a.328.328,0,0,0-.328.328v.14a.328.328,0,1,0,.657,0v-.14A.328.328,0,0,0,433.52,222.461Z" transform="translate(-433.192 -222.461)" fill="#fff"/>
      </g>
    </g>
  </g>
</svg>
