<svg xmlns="http://www.w3.org/2000/svg" xmlns:xlink="http://www.w3.org/1999/xlink" width="15" height="18" viewBox="0 0 15 18">
  <defs>
    <linearGradient id="linear-gradient" x1="0.5" x2="0.5" y2="1" gradientUnits="objectBoundingBox">
      <stop offset="0" stop-color="#5ca9dd"/>
      <stop offset="1" stop-color="#0675c1"/>
    </linearGradient>
  </defs>
  <g id="Group_4843" data-name="Group 4843" transform="translate(-397 -712)">
    <path id="Path_50619" data-name="Path 50619" d="M1,0H14a1,1,0,0,1,1,1V17a1,1,0,0,1-1,1H1a1,1,0,0,1-1-1V1A1,1,0,0,1,1,0Z" transform="translate(397 712)" fill="url(#linear-gradient)"/>
    <path id="Path_43332" data-name="Path 43332" d="M19.568,15.916a.335.335,0,0,1,.335-.336h1.152a4.253,4.253,0,0,0,1.613.656.314.314,0,0,1-.072.014H19.9A.334.334,0,0,1,19.568,15.916Zm-.819-2.682h.6a4.17,4.17,0,0,1-.136-.671h-.461a.335.335,0,1,0,0,.671ZM16.281,4.764a1.677,1.677,0,0,1-.695-1.316,1.258,1.258,0,1,1,2.516,0,1.676,1.676,0,0,1-.7,1.316A2.2,2.2,0,0,1,19.123,6.5c0,.75-4.556.75-4.556,0A2.2,2.2,0,0,1,16.281,4.764ZM16.2,6.429l.639.638.639-.638-.538-1.3h0l.209-.239a.945.945,0,0,1-.316.058.926.926,0,0,1-.316-.059l.208.24h.006Zm-3.3,11.818ZM14.9,11.7h4.3a4.308,4.308,0,0,1,.114-.671H14.9a.335.335,0,0,0,0,.671Zm0-3.056h6.026a4.29,4.29,0,0,1,.373-.243,4.248,4.248,0,0,1,1.046-.428H14.9a.336.336,0,0,0,0,.671Zm0,1.528h4.731a4.235,4.235,0,0,1,.416-.671H14.9a.335.335,0,0,0,0,.671Zm11.455.2a3.391,3.391,0,1,1-4.634-1.242A3.394,3.394,0,0,1,26.356,10.381Zm-.486.281a2.83,2.83,0,1,0-1.036,3.866A2.836,2.836,0,0,0,25.87,10.662Zm.1,4.143-1.458.842,1.123,1.943,1.457-.841Zm1.274,2.209-1.459.842a.842.842,0,1,0,1.459-.842Z" transform="translate(384.148 710.811)" fill="#fff"/>
  </g>
</svg>
