<svg xmlns="http://www.w3.org/2000/svg" xmlns:xlink="http://www.w3.org/1999/xlink" width="16.984" height="17.488" viewBox="0 0 16.984 17.488">
  <defs>
    <linearGradient id="linear-gradient" x1="0.5" x2="0.5" y2="1" gradientUnits="objectBoundingBox">
      <stop offset="0" stop-color="#5ca9dd"/>
      <stop offset="1" stop-color="#0675c1"/>
    </linearGradient>
  </defs>
  <g id="Group_4844" data-name="Group 4844" transform="translate(-942 -711)">
    <path id="Union_2" data-name="Union 2" d="M11.121.842h3.6a.475.475,0,0,1,.475.474V9.234L9.333,13.685,3.468,9.234V5.256h0V1.315A.475.475,0,0,1,3.942.842h7.179Zm6.7,16.812-5.288-5.279,5.288-4.013ZM16.093,6.195l1.5,1.223-1.5,1.137Zm-6.759,8.5A.447.447,0,0,0,9.6,14.6l2.215-1.681,5.42,5.41H1.428l5.42-5.41L9.063,14.6a.446.446,0,0,0,.27.091ZM.841,8.361,6.13,12.375.841,17.653Zm1.732.194-1.5-1.137,1.5-1.223Zm0,0" transform="translate(941.158 710.159)" fill="url(#linear-gradient)"/>
    <path id="Path_43381" data-name="Path 43381" d="M220.867,67.272a3.413,3.413,0,1,0,3.413-3.413A3.417,3.417,0,0,0,220.867,67.272Zm5.984,0A2.571,2.571,0,1,1,224.28,64.7,2.574,2.574,0,0,1,226.851,67.272Zm0,0" transform="translate(725.738 649.191)" fill="#fff"/>
    <path id="Path_43382" data-name="Path 43382" d="M270.07,120.188a.421.421,0,1,0-.595.595l.742.742a.421.421,0,0,0,.595,0l1.3-1.3a.421.421,0,0,0-.595-.595l-1.005,1.005Zm0,0" transform="translate(679.293 595.887)" fill="#fff"/>
  </g>
</svg>
