<svg id="Group_2690" data-name="Group 2690" xmlns="http://www.w3.org/2000/svg" width="13.59" height="18.12" viewBox="0 0 13.59 18.12">
  <path id="Path_43460" data-name="Path 43460" d="M77.213,6.8H76.08V5.285a5.285,5.285,0,0,0-10.57,0V6.8H64.378A.377.377,0,0,0,64,7.173V16.61a1.511,1.511,0,0,0,1.51,1.51H76.08a1.511,1.511,0,0,0,1.51-1.51V7.173A.377.377,0,0,0,77.213,6.8Zm-5.287,7.886a.378.378,0,0,1-.375.419H70.04a.378.378,0,0,1-.375-.419l.238-2.142a1.494,1.494,0,0,1-.618-1.214,1.51,1.51,0,1,1,3.02,0,1.494,1.494,0,0,1-.618,1.214ZM73.815,6.8h-6.04V5.285a3.02,3.02,0,0,1,6.04,0Z" transform="translate(-64 0)" fill="#0675c1"/>
</svg>
