<svg xmlns="http://www.w3.org/2000/svg" width="15.464" height="19.078" viewBox="0 0 15.464 19.078">
  <g id="Group_4489" data-name="Group 4489" transform="translate(-1178.854 -218)">
    <path id="Path_43371" data-name="Path 43371" d="M3.5,1.436V3.7a.243.243,0,0,1-.243.243H1.274l1.33-1.5ZM2,18.684A1.225,1.225,0,0,1,.778,17.46V4.9a1.047,1.047,0,0,1,.011-.146H3.26A1.052,1.052,0,0,0,4.311,3.7V.807a1.041,1.041,0,0,1,.246-.03h7.658A1.225,1.225,0,0,1,13.438,2V13.141l-.15,0A3.767,3.767,0,0,0,9.525,16.9c0,.05,0,.1,0,.15,0,.014,0,.027,0,.04q0,.063.008.126c0,.008,0,.017,0,.025q.007.074.016.147c0,.012,0,.025.005.037.006.039.012.078.018.117l.006.035c.009.048.018.1.029.143l.007.03c.009.039.019.078.029.116l.011.04c.013.047.027.093.042.14l.005.015c.014.042.028.083.043.125l.015.04q.022.059.046.117l.009.021c.019.045.039.088.059.132l.018.037c.017.035.034.07.052.1l.016.031.006.012H2Zm11.286,1.171A2.954,2.954,0,1,1,16.242,16.9a2.951,2.951,0,0,1-2.954,2.954Zm0,0" transform="translate(1178.076 217.223)" fill="#0675c1"/>
    <path id="Path_43372" data-name="Path 43372" d="M91.24,154.011h6.408a.4.4,0,1,0,0-.808H91.24a.4.4,0,1,0,0,.808Zm0,0" transform="translate(1090.881 70.181)" fill="#fff"/>
    <path id="Path_43373" data-name="Path 43373" d="M91.24,227.562h6.408a.4.4,0,1,0,0-.808H91.24a.4.4,0,1,0,0,.808Zm0,0" transform="translate(1090.881 -0.398)" fill="#fff"/>
    <path id="Path_43374" data-name="Path 43374" d="M136.058,300.309h-4.79a.4.4,0,1,0,0,.808h4.79a.4.4,0,1,0,0-.808Zm0,0" transform="translate(1052.472 -70.98)" fill="#fff"/>
    <path id="Path_43375" data-name="Path 43375" d="M91.251,300.309a.4.4,0,1,0,.405.4.4.4,0,0,0-.405-.4Zm0,0" transform="translate(1090.869 -70.98)" fill="#fff"/>
    <path id="Path_43376" data-name="Path 43376" d="M95.862,373.859H91.24a.4.4,0,1,0,0,.808h4.621a.4.4,0,1,0,0-.808Zm0,0" transform="translate(1090.881 -141.557)" fill="#fff"/>
    <path id="Path_43377" data-name="Path 43377" d="M294.838,381.462a.4.4,0,0,0-.572,0l-.829.829-.829-.829a.4.4,0,1,0-.572.572l.829.829-.829.829a.4.4,0,1,0,.572.572l.829-.829.829.829a.4.4,0,0,0,.572-.572l-.829-.829.829-.829A.4.4,0,0,0,294.838,381.462Zm0,0" transform="translate(897.926 -148.738)" fill="#fff"/>
  </g>
</svg>
