<svg id="Group_4787" data-name="Group 4787" xmlns="http://www.w3.org/2000/svg" xmlns:xlink="http://www.w3.org/1999/xlink" width="80.151" height="94.601" viewBox="0 0 80.151 94.601">
  <defs>
    <clipPath id="clip-path">
      <ellipse id="Ellipse_484" data-name="Ellipse 484" cx="31.893" cy="30.18" rx="31.893" ry="30.18" transform="translate(0 0)" fill="#f2f5fc"/>
    </clipPath>
  </defs>
  <path id="Path_50772" data-name="Path 50772" d="M56.956,0A40.121,40.121,0,0,0,16.88,40.076c0,12.586,11.126,27.561,17.758,35.368C38.861,80.413,52.024,94.6,56.956,94.6c5.963,0,22.211-18.968,22.373-19.16,6.611-7.8,17.7-22.761,17.7-35.365A40.12,40.12,0,0,0,56.956,0ZM82.3,39.78A25.187,25.187,0,1,1,57.109,14.592,25.216,25.216,0,0,1,82.3,39.78Z" transform="translate(-16.88)" fill="#f2f5fc"/>
  <path id="Path_50773" data-name="Path 50773" d="M47.445,0c-16.758,0-31.5,6.806-31.5,22.619C15.131,37.378,25.491,48.4,30.52,53.987,33.722,57.543,43.7,67.7,47.445,67.7c4.522,0,16.843-13.574,16.966-13.711,5.013-5.58,14.13-14.512,15.082-29.746C79.493,8.426,64.2,0,47.445,0ZM66.661,28.466c0,9.938-8.569,18.024-19.1,18.024S28.46,38.4,28.46,28.466s8.568-18.024,19.1-18.024S66.661,18.528,66.661,28.466Z" transform="translate(-6.746 16.849)" fill="#2980b9"/>
  <g id="Mask_Group_18" data-name="Mask Group 18" transform="translate(9.352 8.394)" clip-path="url(#clip-path)">
    <g id="Group_4786" data-name="Group 4786" transform="translate(-13.738 -0.929)">
      <path id="Path_50774" data-name="Path 50774" d="M0,0H90.383V62.6H0Z" transform="translate(0)" fill="#2980b9"/>
      <g id="Group_4785" data-name="Group 4785" transform="translate(27.302 17.592)">
        <g id="Group_4784" data-name="Group 4784" transform="translate(0 0)">
          <path id="Path_50775" data-name="Path 50775" d="M64.27,92.761a11.091,11.091,0,0,0-1.017-2.487,10.978,10.978,0,0,0-3.052-3.61,4.868,4.868,0,0,0-1.7-.883,4.668,4.668,0,0,0-1.441-.321H56.47a4.438,4.438,0,0,0,.17-1.845,5.331,5.331,0,0,0-5.6-5.215H50.7a6.415,6.415,0,0,0-4.663,2.246,3.784,3.784,0,0,0-.678,3.53c1.017,3.53,2.883,5.215,5.6,5.215h.254a6.183,6.183,0,0,0,3.476-1.2,5.311,5.311,0,0,0,1.441-1.925c.17,0,.424.08.678.08a5.085,5.085,0,0,1,1.187.4,6.974,6.974,0,0,1,1.441.883,10.548,10.548,0,0,1,2.628,3.289,11.53,11.53,0,0,1,1.187,4.894,6.557,6.557,0,0,1-.424,2.567,5.7,5.7,0,0,1-1.187,2.086,7.167,7.167,0,0,1-1.7,1.444,12.831,12.831,0,0,1-1.865.8c-.509.16-1.1.241-1.7.4-.593.08-1.017.08-1.357.16h-.339c.085-.08.085-.16.17-.241l.085-.241h0v-.642a1.1,1.1,0,0,0-.17-.481,2.46,2.46,0,0,0-.424-.8,3.552,3.552,0,0,0-1.187-1.043,2.6,2.6,0,0,0-.678-.321l-.254-4.092-.17-.08v-.16l-.254-.16c.085-.08.17-.16.085-.321l-.254-.16a1.771,1.771,0,0,0-.678.16l-.763.241c-.085,0-.085,0-.17.08h-.085c-.17,0-.424.08-.678.08l-.424.08c-.339.08-.763.08-1.1.16h-.254c-.509.08-.933.16-1.357.241h-.17c-.17,0-.339.08-.509.08a.926.926,0,0,0-.424.16l-.593.321c-.509.321-.763.4-.763.562l-.085.16h0c.085-.241-.17-.4-1.1-.963h0s-.085,0-.085-.08l-.424-.16a6.062,6.062,0,0,0-.678-.241h-.17l-1.611.08H38.5l-1.7-.16a1.289,1.289,0,0,0-1.017-.4c-.339,0-.509-.08-.593.16v.241a.914.914,0,0,0,.424.241l-.17.08v.08l-.085.08v1.364a.3.3,0,0,0-.17.08h0v-.08c-.17-.241-.424-.08-1.017.241l-.509.321a.08.08,0,0,0-.085.08l-.424.321-.339.321a.276.276,0,0,0-.085.161l-.17.321c-.085.16-.17.4-.254.562,0,.08,0,.08-.085.16v.642l.339.642h0v.08h0l.339.321h0l.085.08h.085l.085.08s.17.16.254.16h.17a.308.308,0,0,0,.085-.4c0-.08-.085-.08-.085-.16a.08.08,0,0,0-.085-.08v-.08h0l-.254-.321a.6.6,0,0,0-.17-.321v-.4l.254-.481.17-.241h0l.593-.562.593-.4c.17-.08.254-.241.424-.321l.254.16h.17a3.855,3.855,0,0,1,.424-.08,2.22,2.22,0,0,1,.678.08c.17,0,.254.08.424.08l.17.08.339.16a3.594,3.594,0,0,1,.593.4l-.17.16-.339.321-.593.481-2.12.8c-.848.321-.933.4-.933.642,0,.08.085.241.339.241a5.125,5.125,0,0,0,.848-.16c.17,0,.254-.08.424-.08v.883h0c-.085,0-.254.08-.763.16l-.254.08a2.632,2.632,0,0,1-.848.16,5.405,5.405,0,0,1-1.272.16h-.339a3.959,3.959,0,0,1-1.1-.16,1.387,1.387,0,0,1-.593-.321,1.279,1.279,0,0,1-.339-.562,2.929,2.929,0,0,1,.085-1.685,10.541,10.541,0,0,1,.763-1.845,13.753,13.753,0,0,1,5.172-5.135,8.449,8.449,0,0,1,2.12-.8,1.742,1.742,0,0,1,.593-.08,3.767,3.767,0,0,0,2.883,1.2h.254a4.925,4.925,0,0,0,2.459-.8,3.906,3.906,0,0,0,1.7-3.45A4.039,4.039,0,0,0,41.8,85.139h-.254a4.958,4.958,0,0,0-3.73,1.765,2.562,2.562,0,0,0-.424,2.567,9.142,9.142,0,0,0,.933,2.006h-.17A6.015,6.015,0,0,0,35.7,92.2a11.694,11.694,0,0,0-2.967,2.086,17.165,17.165,0,0,0-2.713,3.37,7.209,7.209,0,0,0-.848,2.086,5.247,5.247,0,0,0-.17,1.043,2.425,2.425,0,0,0,.17,1.123,1.6,1.6,0,0,0,.678.963,2.973,2.973,0,0,0,1.017.562,4.477,4.477,0,0,0,1.017.16h.848c.509-.08.933-.16,1.441-.241.339-.08.678-.241,1.017-.321.424-.16.593-.241.763-.321h0l.085,1.2-.17.4a.63.63,0,0,0,.085.562.454.454,0,0,0,.339.241h.085a.323.323,0,0,0,.254-.08l.17-.08-.085-.241h0l.17.241h.085a.323.323,0,0,0,.254-.08c.339-.08.763-.16,1.1-.241,1.441-.241,2.8-.4,3.815-.562l1.611-.241h.17l.17.08.848-.08.17-.16c.509.16,1.441.321,2.459.562a26.717,26.717,0,0,0,2.883.4c.17,0,.254,0,.254-.08l.254.08a3.258,3.258,0,0,0,1.441.4h.085a1.74,1.74,0,0,0,.678-.08,3.1,3.1,0,0,0,.763-.321,5.4,5.4,0,0,0,.763-.642c.254,0,.509.08.848.08h.424a4.357,4.357,0,0,0,1.017-.08,12.79,12.79,0,0,0,1.865-.321,10.234,10.234,0,0,0,2.2-.8,5.862,5.862,0,0,0,2.035-1.685A6.555,6.555,0,0,0,64.439,98.7a7.978,7.978,0,0,0,.424-2.888A28.234,28.234,0,0,0,64.27,92.761ZM43.837,91.638a4.386,4.386,0,0,1-2.12.4h0c-1.95,0-2.8-.8-3.052-3.049-.254-2.006.593-2.968,2.713-3.289h.17c2.12,0,2.8,2.728,2.8,3.049C44.685,90.434,44.6,91.237,43.837,91.638ZM54.35,87.466a4.644,4.644,0,0,1-2.967.722H51.3c-2.628,0-3.646-1.2-3.985-4.332-.339-2.808.763-4.172,3.561-4.573h.254c2.8,0,3.646,3.851,3.73,4.332C55.283,85.621,55.113,86.824,54.35,87.466Zm-7.461,14.6-.085.241c0,.08.085.161.509.481.254.16.678.4,1.1.642-.339-.08-.763-.16-1.1-.241a15.424,15.424,0,0,0-2.628-.4l-.593-5.536,7.461-1.6.254,3.61a.242.242,0,0,0-.085.16.3.3,0,0,0,.339.321h.17a3.791,3.791,0,0,1,.763.4,2.243,2.243,0,0,1,.848.883,2.354,2.354,0,0,1,.339.642.58.58,0,0,1,.085.321v.08a.08.08,0,0,1-.085.08v.08l-.085.16a.276.276,0,0,1-.085.16c-.085.16-.17.241-.254.4a2.517,2.517,0,0,1-.678.642,1.6,1.6,0,0,1-1.017.241,2.361,2.361,0,0,1-1.017-.241l-1.95-.883a13.8,13.8,0,0,0-1.357-.562C47.228,101.907,47.059,101.827,46.889,102.068Zm-10.428,1.043c0-.321-.085-.562-.085-.8a8.027,8.027,0,0,0-.254-1.6c.17-.08.339-.08.509-.16l.678-.241.678-.481a3.637,3.637,0,0,1,.593-.481l.254-.241h0c.085-.08.17-.16.17-.241s.085-.08.085-.16v-.321c0-.16-.085-.241-.17-.241l-.254-.241a4.549,4.549,0,0,0-.848-.481l-.17-.08-.339-.16c-.085,0-.17-.08-.254-.08a1.129,1.129,0,0,0-.509-.08h-.424v-.722l6.528,1.043.678,5.616a7.734,7.734,0,0,0-1.272.08c-1.441.16-2.883.321-4.239.481-.424.08-.848.16-1.187.241h-.085v-.16h0Zm3.052-7.14h0a3.352,3.352,0,0,0,.933-.08h.593c.085.08.254.08.339.16l.593.241h0s.085.08.085,0h.085l.509.241-3.137-.562Z" transform="translate(-29 -78.4)" fill="#fff"/>
          <path id="Path_50776" data-name="Path 50776" d="M55.233,106.343c.254-.16.424-.321.593-.4.085-.08.085-.16.17-.321,0-.16-.085-.321-.254-.321h-.085c-.085,0-.17.08-.254.08l-.085.08a4.131,4.131,0,0,0-.424.16,12.6,12.6,0,0,1-1.78.481c-.848.241-1.526.321-1.78.4-.17,0-.254.08-.339.08-.339.08-.593.08-.593.321l.085.241a1.33,1.33,0,0,0,.848.16h.17a9.016,9.016,0,0,0,1.95-.321A5.051,5.051,0,0,0,55.233,106.343Z" transform="translate(-32.256 -83.718)" fill="#fff"/>
        </g>
      </g>
    </g>
  </g>
</svg>
