<svg xmlns="http://www.w3.org/2000/svg" width="12.986" height="17.417" viewBox="0 0 12.986 17.417">
  <path id="Path_43494" data-name="Path 43494" d="M163.815,110.31a3.653,3.653,0,0,1-1.64-.393,3.607,3.607,0,0,1-1.989-3.235v-1.274a.406.406,0,1,1,.811,0v1.274c0,1.067-.811-.566-.811-.79v-4.018h-1.8a1.487,1.487,0,1,1,0-2.974h1.8V95.867h-1a1.487,1.487,0,0,1,0-2.974h2.483a1.489,1.489,0,0,1,1.487,1.487V98.9h.335a1.487,1.487,0,1,1,0,2.974h-.335v4.808a.626.626,0,0,0,.357.581.638.638,0,0,0,.686-.058,6.384,6.384,0,0,0,2.585-4.13h-.148a1.487,1.487,0,0,1,0-2.974H168.4a1.489,1.489,0,0,1,1.487,1.487,9.525,9.525,0,0,1-3.923,8.012A3.606,3.606,0,0,1,163.815,110.31Z" transform="translate(-156.902 -92.893)" fill="#0675c1"/>
</svg>
