<svg xmlns="http://www.w3.org/2000/svg" width="18.074" height="18.074" viewBox="0 0 18.074 18.074">
  <path id="Path_43461" data-name="Path 43461" d="M13.5,10.473q-.057-.173-.73-.509-.182-.106-.518-.288t-.61-.336q-.274-.154-.514-.3-.038-.029-.24-.168a2.7,2.7,0,0,0-.341-.206.629.629,0,0,0-.274-.067.8.8,0,0,0-.48.274,4.674,4.674,0,0,0-.528.6,5.788,5.788,0,0,1-.509.6.732.732,0,0,1-.442.274.653.653,0,0,1-.216-.048c-.086-.032-.152-.059-.2-.081s-.121-.067-.23-.135-.17-.1-.183-.11a10.088,10.088,0,0,1-2.256-1.67,10.083,10.083,0,0,1-1.67-2.256q-.01-.019-.11-.182t-.134-.23a2.08,2.08,0,0,1-.082-.2.65.65,0,0,1-.048-.216.732.732,0,0,1,.274-.442,5.782,5.782,0,0,1,.6-.509,4.672,4.672,0,0,0,.6-.528.8.8,0,0,0,.274-.48.627.627,0,0,0-.067-.274,2.669,2.669,0,0,0-.206-.341q-.139-.2-.168-.24-.144-.24-.3-.513t-.336-.61Q3.668.941,3.562.758,3.226.086,3.053.029A.538.538,0,0,0,2.852,0a3.163,3.163,0,0,0-.677.1,3.8,3.8,0,0,0-.658.2A2.573,2.573,0,0,0,.5,1.469,3.722,3.722,0,0,0,.01,3.254a3.707,3.707,0,0,0,.034.5,4.142,4.142,0,0,0,.12.552q.086.307.139.456T.5,5.3q.144.384.173.47a8.7,8.7,0,0,0,.8,1.68A14.234,14.234,0,0,0,3.538,9.989a14.241,14.241,0,0,0,2.539,2.069,8.709,8.709,0,0,0,1.68.8q.086.029.47.173t.533.2q.149.053.456.139a4.179,4.179,0,0,0,.552.12,3.561,3.561,0,0,0,2.29-.456,2.572,2.572,0,0,0,1.171-1.018,3.781,3.781,0,0,0,.2-.658,3.156,3.156,0,0,0,.1-.677A.535.535,0,0,0,13.5,10.473Z" transform="matrix(0.899, 0.438, -0.438, 0.899, 5.916, -0.004)" fill="#0675c1"/>
</svg>
