<svg xmlns="http://www.w3.org/2000/svg" width="18.499" height="17.772" viewBox="0 0 18.499 17.772">
  <path id="Path_43462" data-name="Path 43462" d="M7.776,21.235a4.6,4.6,0,1,0-4.6-4.6A4.6,4.6,0,0,0,7.776,21.235ZM10,18.449a2.19,2.19,0,0,1-2.181,1.213,2.19,2.19,0,0,1-2.181-1.213Zm8.382,7.774-4.211,3.509a.324.324,0,0,1-.428-.019l-2.1-2.1a.318.318,0,0,1,0-.449l.449-.449a.318.318,0,0,1,.449,0L14.03,28.2l3.543-2.952a.318.318,0,0,1,.447.041l.406.487A.318.318,0,0,1,18.385,26.223Zm-7.229,1.887.8.8a30.052,30.052,0,0,1-4.179.262c-4.437,0-6.609-.725-7.405-1.079A.687.687,0,0,1,0,27.513V26a4.457,4.457,0,0,1,3.939-4.412.368.368,0,0,1,.221.061,6.141,6.141,0,0,0,7.231,0,.368.368,0,0,1,.221-.061A4.457,4.457,0,0,1,15.552,26v.026l-1.479,1.233-1.031-1.031a1.015,1.015,0,0,0-1.436,0l-.449.449A1.016,1.016,0,0,0,11.157,28.109Z" transform="translate(0 -12.031)" fill="#0675c1"/>
</svg>
