<svg xmlns="http://www.w3.org/2000/svg" width="17.105" height="15.68" viewBox="0 0 17.105 15.68">
  <path id="svgexport-32" d="M9.978,1.425H7.127A.713.713,0,1,1,7.127,0H9.978a.713.713,0,1,1,0,1.425ZM1.425,2.851H15.68a1.426,1.426,0,0,1,1.425,1.425v9.978A1.426,1.426,0,0,1,15.68,15.68H1.425A1.426,1.426,0,0,1,0,14.254V4.276A1.426,1.426,0,0,1,1.425,2.851ZM5.345,5.7A1.782,1.782,0,1,1,3.564,7.483,1.784,1.784,0,0,1,5.345,5.7ZM2.851,12.29v.539H7.84V12.29A2.411,2.411,0,0,0,5.345,9.978,2.411,2.411,0,0,0,2.851,12.29Zm10.691-1.6H10.691a.713.713,0,1,1,0-1.425h2.851a.713.713,0,1,1,0,1.425ZM10.691,7.84h2.851a.713.713,0,1,0,0-1.425H10.691a.713.713,0,1,0,0,1.425Z" fill="#0675c1" fill-rule="evenodd"/>
</svg>
