<?xml version="1.0" encoding="utf-8"?>
<!-- Generator: Adobe Illustrator 23.0.1, SVG Export Plug-In . SVG Version: 6.00 Build 0)  -->
<svg version="1.1" id="Layer_1" xmlns="http://www.w3.org/2000/svg" xmlns:xlink="http://www.w3.org/1999/xlink" x="0px" y="0px"
	 viewBox="0 0 264 280" style="enable-background:new 0 0 264 280;" xml:space="preserve">
<style type="text/css">
	.st0{fill-rule:evenodd;clip-rule:evenodd;fill:#E6E6E6;}
	.st1{filter:url(#Adobe_OpacityMaskFilter);}
	.st2{fill-rule:evenodd;clip-rule:evenodd;fill:#FFFFFF;}
	.st3{mask:url(#mask-2_1_);}
	.st4{fill-rule:evenodd;clip-rule:evenodd;fill:#F2F5FC;}
	.st5{filter:url(#Adobe_OpacityMaskFilter_1_);}
	.st6{mask:url(#mask-4_1_);}
	.st7{fill-rule:evenodd;clip-rule:evenodd;fill:#D0C6AC;}
	.st8{filter:url(#Adobe_OpacityMaskFilter_2_);}
	.st9{mask:url(#mask-6_1_);}
	.st10{fill-rule:evenodd;clip-rule:evenodd;fill:#EDB98A;}
	.st11{filter:url(#Adobe_OpacityMaskFilter_3_);}
	.st12{mask:url(#mask-6_2_);fill-rule:evenodd;clip-rule:evenodd;fill-opacity:0.1;}
	.st13{fill-rule:evenodd;clip-rule:evenodd;fill:#B7C1DB;}
	.st14{filter:url(#Adobe_OpacityMaskFilter_4_);}
	.st15{mask:url(#react-mask-452_1_);}
	.st16{fill-rule:evenodd;clip-rule:evenodd;fill:#3C4F5C;}
	.st17{filter:url(#Adobe_OpacityMaskFilter_5_);}
	.st18{mask:url(#react-mask-452_2_);fill-rule:evenodd;clip-rule:evenodd;fill:#F4F4F4;}
	.st19{filter:url(#Adobe_OpacityMaskFilter_6_);}
	.st20{mask:url(#react-mask-452_3_);fill-rule:evenodd;clip-rule:evenodd;fill-opacity:0.16;}
	.st21{fill-rule:evenodd;clip-rule:evenodd;fill-opacity:0.7;}
	.st22{filter:url(#Adobe_OpacityMaskFilter_7_);}
	.st23{mask:url(#react-mask-458_1_);fill-rule:evenodd;clip-rule:evenodd;fill:#FFFFFF;}
	.st24{filter:url(#Adobe_OpacityMaskFilter_8_);}
	.st25{mask:url(#react-mask-458_2_);}
	.st26{fill-rule:evenodd;clip-rule:evenodd;fill:#FF4F6D;}
	.st27{fill-rule:evenodd;clip-rule:evenodd;fill-opacity:0.16;}
	.st28{fill-rule:evenodd;clip-rule:evenodd;fill-opacity:0.6;}
	.st29{filter:url(#Adobe_OpacityMaskFilter_9_);}
	.st30{mask:url(#react-mask-448_1_);}
	.st31{fill-rule:evenodd;clip-rule:evenodd;fill:#1F3140;}
	.st32{filter:url(#Adobe_OpacityMaskFilter_10_);}
	.st33{mask:url(#react-mask-447_1_);}
	.st34{fill-rule:evenodd;clip-rule:evenodd;fill:#2C1B18;}
</style>
<desc>Created with getavataaars.com</desc>
<g>
	<g transform="translate(-825.000000, -1100.000000)">
		<g transform="translate(825.000000, 1100.000000)">
			<g id="Circle" transform="translate(12.000000, 40.000000)">
				<g id="Circle-Background">
					<circle class="st0" cx="120" cy="120" r="120"/>
				</g>
				<defs>
					<filter id="Adobe_OpacityMaskFilter" filterUnits="userSpaceOnUse" x="0" y="0" width="240" height="240">
						<feColorMatrix  type="matrix" values="1 0 0 0 0  0 1 0 0 0  0 0 1 0 0  0 0 0 1 0"/>
					</filter>
				</defs>
				<mask maskUnits="userSpaceOnUse" x="0" y="0" width="240" height="240" id="mask-2_1_">
					<g class="st1">
						<circle id="path-1_1_" class="st2" cx="120" cy="120" r="120"/>
					</g>
				</mask>
				<g class="st3">
					<rect class="st4" width="240" height="240"/>
				</g>
			</g>
			<g id="Mask">
			</g>
			<defs>
				<filter id="Adobe_OpacityMaskFilter_1_" filterUnits="userSpaceOnUse" x="-1" y="0" width="265" height="280">
					<feColorMatrix  type="matrix" values="1 0 0 0 0  0 1 0 0 0  0 0 1 0 0  0 0 0 1 0"/>
				</filter>
			</defs>
			<mask maskUnits="userSpaceOnUse" x="-1" y="0" width="265" height="280" id="mask-4_1_">
				<g class="st5">
					<path id="path-3_1_" class="st2" d="M12,160c0,66.3,53.7,120,120,120s120-53.7,120-120h12V0H0v160H12z"/>
				</g>
			</mask>
			<g id="Avataaar" class="st6">
				<g id="Body" transform="translate(32.000000, 36.000000)">
					<g>
						<path class="st7" d="M124,144.6V163h4l0,0c39.8,0,72,32.2,72,72v9H0v-9c0-39.8,32.2-72,72-72l0,0h4v-18.4
							c-17.2-8.2-29.6-24.9-31.7-44.7C38.5,99.1,34,94.1,34,88V74c0-5.9,4.3-10.9,10-11.8V56l0,0c0-30.9,25.1-56,56-56l0,0l0,0
							c30.9,0,56,25.1,56,56v6.2c5.7,1,10,5.9,10,11.8v14c0,6.1-4.5,11.1-10.3,11.9C153.6,119.7,141.2,136.4,124,144.6z"/>
					</g>
					<defs>
						<filter id="Adobe_OpacityMaskFilter_2_" filterUnits="userSpaceOnUse" x="-32" y="0" width="264" height="244">
							<feColorMatrix  type="matrix" values="1 0 0 0 0  0 1 0 0 0  0 0 1 0 0  0 0 0 1 0"/>
						</filter>
					</defs>
					<mask maskUnits="userSpaceOnUse" x="-32" y="0" width="264" height="244" id="mask-6_1_">
						<g class="st8">
							<path id="path-5_1_" class="st2" d="M124,144.6V163h4l0,0c39.8,0,72,32.2,72,72v9H0v-9c0-39.8,32.2-72,72-72l0,0h4v-18.4
								c-17.2-8.2-29.6-24.9-31.7-44.7C38.5,99.1,34,94.1,34,88V74c0-5.9,4.3-10.9,10-11.8V56l0,0c0-30.9,25.1-56,56-56l0,0l0,0
								c30.9,0,56,25.1,56,56v6.2c5.7,1,10,5.9,10,11.8v14c0,6.1-4.5,11.1-10.3,11.9C153.6,119.7,141.2,136.4,124,144.6z"/>
						</g>
					</mask>
					<g class="st9">
						<g id="Color" transform="translate(-32.000000, 0.000000)">
							<rect class="st10" width="264" height="244"/>
						</g>
					</g>
					<defs>
						<filter id="Adobe_OpacityMaskFilter_3_" filterUnits="userSpaceOnUse" x="44" y="79" width="112" height="79">
							<feColorMatrix  type="matrix" values="1 0 0 0 0  0 1 0 0 0  0 0 1 0 0  0 0 0 1 0"/>
						</filter>
					</defs>
					<mask maskUnits="userSpaceOnUse" x="44" y="79" width="112" height="79" id="mask-6_2_">
						<g class="st11">
							<path id="path-5_2_" class="st2" d="M124,144.6V163h4l0,0c39.8,0,72,32.2,72,72v9H0v-9c0-39.8,32.2-72,72-72l0,0h4v-18.4
								c-17.2-8.2-29.6-24.9-31.7-44.7C38.5,99.1,34,94.1,34,88V74c0-5.9,4.3-10.9,10-11.8V56l0,0c0-30.9,25.1-56,56-56l0,0l0,0
								c30.9,0,56,25.1,56,56v6.2c5.7,1,10,5.9,10,11.8v14c0,6.1-4.5,11.1-10.3,11.9C153.6,119.7,141.2,136.4,124,144.6z"/>
						</g>
					</mask>
					<path id="Neck-Shadow" class="st12" d="M156,79v23c0,30.9-25.1,56-56,56s-56-25.1-56-56V79v15c0,30.9,25.1,56,56,56
						s56-25.1,56-56V79z"/>
				</g>
				<g transform="translate(0.000000, 170.000000)">
					<g id="Hoodie">
						<path class="st13" d="M108,13.1c-17.9,2-31.7,7.5-32,21.6C50.1,45.6,32,71.2,32,101l0,0v9h200v-9c0-29.8-18.1-55.4-44-66.4
							c-0.3-14.1-14.1-19.6-32-21.6V32l0,0c0,13.3-10.7,24-24,24l0,0c-13.3,0-24-10.7-24-24V13.1z"/>
					</g>
					<defs>
						<filter id="Adobe_OpacityMaskFilter_4_" filterUnits="userSpaceOnUse" x="0" y="0" width="264" height="110">
							<feColorMatrix  type="matrix" values="1 0 0 0 0  0 1 0 0 0  0 0 1 0 0  0 0 0 1 0"/>
						</filter>
					</defs>
					<mask maskUnits="userSpaceOnUse" x="0" y="0" width="264" height="110" id="react-mask-452_1_">
						<g class="st14">
							<path id="react-path-451_1_" class="st2" d="M108,13.1c-17.9,2-31.7,7.5-32,21.6C50.1,45.6,32,71.2,32,101l0,0v9h200v-9
								c0-29.8-18.1-55.4-44-66.4c-0.3-14.1-14.1-19.6-32-21.6V32l0,0c0,13.3-10.7,24-24,24l0,0c-13.3,0-24-10.7-24-24V13.1z"/>
						</g>
					</mask>
					<g class="st15">
						<rect class="st16" width="264" height="110"/>
					</g>
					<defs>
						<filter id="Adobe_OpacityMaskFilter_5_" filterUnits="userSpaceOnUse" x="95" y="58.2" width="74" height="51.8">
							<feColorMatrix  type="matrix" values="1 0 0 0 0  0 1 0 0 0  0 0 1 0 0  0 0 0 1 0"/>
						</filter>
					</defs>
					<mask maskUnits="userSpaceOnUse" x="95" y="58.2" width="74" height="51.8" id="react-mask-452_2_">
						<g class="st17">
							<path id="react-path-451_2_" class="st2" d="M108,13.1c-17.9,2-31.7,7.5-32,21.6C50.1,45.6,32,71.2,32,101l0,0v9h200v-9
								c0-29.8-18.1-55.4-44-66.4c-0.3-14.1-14.1-19.6-32-21.6V32l0,0c0,13.3-10.7,24-24,24l0,0c-13.3,0-24-10.7-24-24V13.1z"/>
						</g>
					</mask>
					<path id="Straps" class="st18" d="M102,61.7V110h-7V58.2C97.2,59.5,99.5,60.7,102,61.7z M169,58.2v40.3c0,1.9-1.6,3.5-3.5,3.5
						s-3.5-1.6-3.5-3.5V61.7C164.5,60.7,166.8,59.5,169,58.2z"/>
					<defs>
						<filter id="Adobe_OpacityMaskFilter_6_" filterUnits="userSpaceOnUse" x="65.5" y="12.7" width="133" height="55.3">
							<feColorMatrix  type="matrix" values="1 0 0 0 0  0 1 0 0 0  0 0 1 0 0  0 0 0 1 0"/>
						</filter>
					</defs>
					<mask maskUnits="userSpaceOnUse" x="65.5" y="12.7" width="133" height="55.3" id="react-mask-452_3_">
						<g class="st19">
							<path id="react-path-451_3_" class="st2" d="M108,13.1c-17.9,2-31.7,7.5-32,21.6C50.1,45.6,32,71.2,32,101l0,0v9h200v-9
								c0-29.8-18.1-55.4-44-66.4c-0.3-14.1-14.1-19.6-32-21.6V32l0,0c0,13.3-10.7,24-24,24l0,0c-13.3,0-24-10.7-24-24V13.1z"/>
						</g>
					</mask>
					<path id="Shadow" class="st20" d="M91,12.7c-15.1,2.8-25.5,8.5-25.5,19.6C65.5,52,98.5,68,132,68s66.5-16,66.5-35.7
						c0-11.1-10.4-16.7-25.5-19.6c9.1,3.4,15,9,15,18.4c0,20.4-27.8,36.9-56,36.9S76,51.5,76,31.1C76,21.7,81.9,16.1,91,12.7z"/>
				</g>
				<g id="Face" transform="translate(76.000000, 82.000000)">
					<g transform="translate(2.000000, 52.000000)">
						<g id="Mouth">
							<path class="st21" d="M35.1,15.1C36.2,24.6,44.2,32,54,32c9.8,0,17.9-7.4,18.9-17c0.1-0.8-0.8-2-1.8-2c-14.9,0-26.3,0-34,0
								C36,13,35,14.2,35.1,15.1z"/>
						</g>
						<defs>
							<filter id="Adobe_OpacityMaskFilter_7_" filterUnits="userSpaceOnUse" x="39" y="2" width="31" height="16">
								<feColorMatrix  type="matrix" values="1 0 0 0 0  0 1 0 0 0  0 0 1 0 0  0 0 0 1 0"/>
							</filter>
						</defs>
						<mask maskUnits="userSpaceOnUse" x="39" y="2" width="31" height="16" id="react-mask-458_1_">
							<g class="st22">
								<path id="react-path-457_1_" class="st2" d="M35.1,15.1C36.2,24.6,44.2,32,54,32c9.8,0,17.9-7.4,18.9-17
									c0.1-0.8-0.8-2-1.8-2c-14.9,0-26.3,0-34,0C36,13,35,14.2,35.1,15.1z"/>
							</g>
						</mask>
						<path id="Teeth" class="st23" d="M44,2h21c2.8,0,5,2.2,5,5v6c0,2.8-2.2,5-5,5H44c-2.8,0-5-2.2-5-5V7C39,4.2,41.2,2,44,2z"/>
						<defs>
							<filter id="Adobe_OpacityMaskFilter_8_" filterUnits="userSpaceOnUse" x="38" y="24" width="32" height="22">
								<feColorMatrix  type="matrix" values="1 0 0 0 0  0 1 0 0 0  0 0 1 0 0  0 0 0 1 0"/>
							</filter>
						</defs>
						<mask maskUnits="userSpaceOnUse" x="38" y="24" width="32" height="22" id="react-mask-458_2_">
							<g class="st24">
								<path id="react-path-457_2_" class="st2" d="M35.1,15.1C36.2,24.6,44.2,32,54,32c9.8,0,17.9-7.4,18.9-17
									c0.1-0.8-0.8-2-1.8-2c-14.9,0-26.3,0-34,0C36,13,35,14.2,35.1,15.1z"/>
							</g>
						</mask>
						<g id="Tongue" class="st25">
							<g transform="translate(38.000000, 24.000000)">
								<circle class="st26" cx="11" cy="11" r="11"/>
								<circle class="st26" cx="21" cy="11" r="11"/>
							</g>
						</g>
					</g>
					<g transform="translate(28.000000, 40.000000)">
						<path id="Nose" class="st27" d="M16,8c0,4.4,5.4,8,12,8l0,0c6.6,0,12-3.6,12-8"/>
					</g>
					<g transform="translate(0.000000, 8.000000)">
						<path id="Squint" class="st28" d="M16.2,22.4C18,18.6,22.2,16,27,16c4.8,0,9,2.6,10.8,6.4c0.6,1.1-0.2,2-1,1.4
							c-2.5-2.1-5.9-3.4-9.8-3.4c-3.7,0-7.1,1.2-9.6,3.2C16.5,24.3,15.6,23.6,16.2,22.4z"/>
						<path class="st28" d="M74.2,22.4C76,18.6,80.2,16,85,16c4.8,0,9,2.6,10.8,6.4c0.6,1.1-0.2,2-1,1.4c-2.5-2.1-5.9-3.4-9.8-3.4
							c-3.7,0-7.1,1.2-9.6,3.2C74.5,24.3,73.6,23.6,74.2,22.4z"/>
					</g>
					<g>
						<path id="Eyebrow" class="st28" d="M26.5,6.1c-5.8,0.3-15.2,4.5-15,10.3c0,0.2,0.3,0.3,0.4,0.1c2.8-3,22.3-5.9,29.2-4.4
							c0.6,0.1,1.1-0.5,0.7-0.9C38.5,7.5,31.7,5.9,26.5,6.1"/>
						<path class="st28" d="M86.5,6.1c5.8,0.3,15.2,4.5,15,10.3c0,0.2-0.3,0.3-0.4,0.1c-2.8-3-22.3-5.9-29.2-4.4
							c-0.6,0.1-1.1-0.5-0.7-0.9C74.5,7.5,81.3,5.9,86.5,6.1"/>
					</g>
				</g>
				<g id="Top">
					<defs>
						<filter id="Adobe_OpacityMaskFilter_9_" filterUnits="userSpaceOnUse" x="-1" y="0" width="264" height="280">
							<feColorMatrix  type="matrix" values="1 0 0 0 0  0 1 0 0 0  0 0 1 0 0  0 0 0 1 0"/>
						</filter>
					</defs>
					<mask maskUnits="userSpaceOnUse" x="-1" y="0" width="264" height="280" id="react-mask-448_1_">
						<g class="st29">
							<rect id="react-path-450_1_" class="st2" width="264" height="280"/>
						</g>
					</mask>
					<g class="st30">
						<g transform="translate(-1.000000, 0.000000)">
							<g id="Short-Hair">
								<path class="st31" d="M180.1,39.9c-2.8-2.8-6-5.2-9.1-7.6c-0.7-0.5-1.4-1-2.1-1.6c-0.2-0.1-1.7-1.2-1.9-1.7
									c-0.5-1-0.2-0.2-0.1-1.4c0.1-1.5,3.1-5.7,0.9-6.7c-1-0.4-2.8,0.7-3.8,1.1c-1.9,0.7-3.8,1.4-5.7,1.9c0.9-1.9,2.7-5.6-0.6-4.6
									c-2.6,0.8-5,2.8-7.6,3.7c0.9-1.4,4.3-5.8,1.2-6.1c-1-0.1-3.8,1.7-4.9,2.1c-3.1,1.2-6.3,1.9-9.6,2.5
									c-11.2,2-24.3,1.4-34.7,6.5c-8,3.9-15.9,10-20.5,17.8c-4.4,7.5-6.1,15.7-7,24.3c-0.7,6.3-0.7,12.8-0.4,19.1
									c0.1,2.1,0.3,11.6,3.3,8.7c1.5-1.4,1.5-7.3,1.9-9.2c0.8-3.9,1.5-7.8,2.7-11.6c2.2-6.7,4.8-13.8,10.3-18.4
									c3.5-3,6-6.9,9.4-9.9c1.5-1.3,0.4-1.2,2.8-1c1.6,0.1,3.3,0.2,4.9,0.2c3.8,0.1,7.6,0.1,11.4,0.1c7.6,0,15.3,0.1,22.9-0.3
									c3.4-0.2,6.8-0.3,10.2-0.6c1.9-0.2,5.2-1.4,6.8-0.5c1.4,0.8,2.9,3.6,3.9,4.7c2.4,2.7,5.3,4.7,8.1,6.9
									c5.9,4.6,8.9,10.3,10.7,17.5c1.8,7.1,1.3,13.7,3.5,20.8c0.4,1.2,1.4,3.4,2.7,1.5c0.2-0.4,0.2-2.3,0.2-3.4
									c0-4.5,1.1-7.9,1.1-12.5C190.9,68.5,190.5,50.5,180.1,39.9z"/>
							</g>
							<defs>
								<filter id="Adobe_OpacityMaskFilter_10_" filterUnits="userSpaceOnUse" x="0" y="0" width="264" height="280">
									<feColorMatrix  type="matrix" values="1 0 0 0 0  0 1 0 0 0  0 0 1 0 0  0 0 0 1 0"/>
								</filter>
							</defs>
							<mask maskUnits="userSpaceOnUse" x="0" y="0" width="264" height="280" id="react-mask-447_1_">
								<g class="st32">
									<path id="react-path-449_1_" class="st2" d="M180.1,39.9c-2.8-2.8-6-5.2-9.1-7.6c-0.7-0.5-1.4-1-2.1-1.6
										c-0.2-0.1-1.7-1.2-1.9-1.7c-0.5-1-0.2-0.2-0.1-1.4c0.1-1.5,3.1-5.7,0.9-6.7c-1-0.4-2.8,0.7-3.8,1.1
										c-1.9,0.7-3.8,1.4-5.7,1.9c0.9-1.9,2.7-5.6-0.6-4.6c-2.6,0.8-5,2.8-7.6,3.7c0.9-1.4,4.3-5.8,1.2-6.1
										c-1-0.1-3.8,1.7-4.9,2.1c-3.1,1.2-6.3,1.9-9.6,2.5c-11.2,2-24.3,1.4-34.7,6.5c-8,3.9-15.9,10-20.5,17.8
										c-4.4,7.5-6.1,15.7-7,24.3c-0.7,6.3-0.7,12.8-0.4,19.1c0.1,2.1,0.3,11.6,3.3,8.7c1.5-1.4,1.5-7.3,1.9-9.2
										c0.8-3.9,1.5-7.8,2.7-11.6c2.2-6.7,4.8-13.8,10.3-18.4c3.5-3,6-6.9,9.4-9.9c1.5-1.3,0.4-1.2,2.8-1c1.6,0.1,3.3,0.2,4.9,0.2
										c3.8,0.1,7.6,0.1,11.4,0.1c7.6,0,15.3,0.1,22.9-0.3c3.4-0.2,6.8-0.3,10.2-0.6c1.9-0.2,5.2-1.4,6.8-0.5
										c1.4,0.8,2.9,3.6,3.9,4.7c2.4,2.7,5.3,4.7,8.1,6.9c5.9,4.6,8.9,10.3,10.7,17.5c1.8,7.1,1.3,13.7,3.5,20.8
										c0.4,1.2,1.4,3.4,2.7,1.5c0.2-0.4,0.2-2.3,0.2-3.4c0-4.5,1.1-7.9,1.1-12.5C190.9,68.5,190.5,50.5,180.1,39.9z"/>
								</g>
							</mask>
							<g class="st33">
								<g transform="translate(0.000000, 0.000000) ">
									<rect class="st34" width="264" height="280"/>
								</g>
							</g>
						</g>
					</g>
				</g>
			</g>
		</g>
	</g>
</g>
</svg>
