<?xml version="1.0" encoding="utf-8"?>
<!-- Generator: Adobe Illustrator 23.0.1, SVG Export Plug-In . SVG Version: 6.00 Build 0)  -->
<svg version="1.1" id="Layer_1" xmlns="http://www.w3.org/2000/svg" xmlns:xlink="http://www.w3.org/1999/xlink" x="0px" y="0px"
	 viewBox="0 0 264 280" style="enable-background:new 0 0 264 280;" xml:space="preserve">
<style type="text/css">
	.st0{fill-rule:evenodd;clip-rule:evenodd;fill:#E6E6E6;}
	.st1{filter:url(#Adobe_OpacityMaskFilter);}
	.st2{fill-rule:evenodd;clip-rule:evenodd;fill:#FFFFFF;}
	.st3{mask:url(#mask-2_1_);}
	.st4{fill-rule:evenodd;clip-rule:evenodd;fill:#F2F5FC;}
	.st5{filter:url(#Adobe_OpacityMaskFilter_1_);}
	.st6{mask:url(#mask-4_1_);}
	.st7{fill-rule:evenodd;clip-rule:evenodd;fill:#D0C6AC;}
	.st8{filter:url(#Adobe_OpacityMaskFilter_2_);}
	.st9{mask:url(#mask-6_1_);}
	.st10{fill-rule:evenodd;clip-rule:evenodd;fill:#EDB98A;}
	.st11{filter:url(#Adobe_OpacityMaskFilter_3_);}
	.st12{mask:url(#mask-6_2_);fill-rule:evenodd;clip-rule:evenodd;fill-opacity:0.1;}
	.st13{filter:url(#Adobe_OpacityMaskFilter_4_);}
	.st14{mask:url(#react-mask-12_1_);}
	.st15{fill-rule:evenodd;clip-rule:evenodd;fill:#FFDEB5;}
	.st16{filter:url(#Adobe_OpacityMaskFilter_5_);}
	.st17{opacity:0.6;mask:url(#react-mask-12_2_);}
	.st18{fill-rule:evenodd;clip-rule:evenodd;fill-opacity:0.16;}
	.st19{fill-rule:evenodd;clip-rule:evenodd;fill-opacity:0.7;}
	.st20{fill-opacity:0.6;}
	.st21{filter:url(#Adobe_OpacityMaskFilter_6_);}
	.st22{mask:url(#react-mask-107_1_);}
	.st23{fill-rule:evenodd;clip-rule:evenodd;fill:#314756;}
	.st24{filter:url(#Adobe_OpacityMaskFilter_7_);}
	.st25{mask:url(#react-mask-108_1_);}
	.st26{fill-rule:evenodd;clip-rule:evenodd;fill:#4A312C;}
</style>
<desc>Created with getavataaars.com</desc>
<g>
	<g transform="translate(-825.000000, -1100.000000)">
		<g transform="translate(825.000000, 1100.000000)">
			<g id="Circle" transform="translate(12.000000, 40.000000)">
				<g id="Circle-Background">
					<circle class="st0" cx="120" cy="120" r="120"/>
				</g>
				<defs>
					<filter id="Adobe_OpacityMaskFilter" filterUnits="userSpaceOnUse" x="0" y="0" width="240" height="240">
						<feColorMatrix  type="matrix" values="1 0 0 0 0  0 1 0 0 0  0 0 1 0 0  0 0 0 1 0"/>
					</filter>
				</defs>
				<mask maskUnits="userSpaceOnUse" x="0" y="0" width="240" height="240" id="mask-2_1_">
					<g class="st1">
						<circle id="path-1_1_" class="st2" cx="120" cy="120" r="120"/>
					</g>
				</mask>
				<g class="st3">
					<rect class="st4" width="240" height="240"/>
				</g>
			</g>
			<g id="Mask">
			</g>
			<defs>
				<filter id="Adobe_OpacityMaskFilter_1_" filterUnits="userSpaceOnUse" x="0" y="0" width="280" height="280">
					<feColorMatrix  type="matrix" values="1 0 0 0 0  0 1 0 0 0  0 0 1 0 0  0 0 0 1 0"/>
				</filter>
			</defs>
			<mask maskUnits="userSpaceOnUse" x="0" y="0" width="280" height="280" id="mask-4_1_">
				<g class="st5">
					<path id="path-3_1_" class="st2" d="M12,160c0,66.3,53.7,120,120,120s120-53.7,120-120h12V0H0v160H12z"/>
				</g>
			</mask>
			<g id="Avataaar" class="st6">
				<g id="Body" transform="translate(32.000000, 36.000000)">
					<g>
						<path class="st7" d="M124,144.6V163h4l0,0c39.8,0,72,32.2,72,72v9H0v-9c0-39.8,32.2-72,72-72l0,0h4v-18.4
							c-17.2-8.2-29.6-24.9-31.7-44.7C38.5,99.1,34,94.1,34,88V74c0-5.9,4.3-10.9,10-11.8V56l0,0c0-30.9,25.1-56,56-56l0,0l0,0
							c30.9,0,56,25.1,56,56v6.2c5.7,1,10,5.9,10,11.8v14c0,6.1-4.5,11.1-10.3,11.9C153.6,119.7,141.2,136.4,124,144.6z"/>
					</g>
					<defs>
						<filter id="Adobe_OpacityMaskFilter_2_" filterUnits="userSpaceOnUse" x="-32" y="0" width="264" height="244">
							<feColorMatrix  type="matrix" values="1 0 0 0 0  0 1 0 0 0  0 0 1 0 0  0 0 0 1 0"/>
						</filter>
					</defs>
					<mask maskUnits="userSpaceOnUse" x="-32" y="0" width="264" height="244" id="mask-6_1_">
						<g class="st8">
							<path id="path-5_1_" class="st2" d="M124,144.6V163h4l0,0c39.8,0,72,32.2,72,72v9H0v-9c0-39.8,32.2-72,72-72l0,0h4v-18.4
								c-17.2-8.2-29.6-24.9-31.7-44.7C38.5,99.1,34,94.1,34,88V74c0-5.9,4.3-10.9,10-11.8V56l0,0c0-30.9,25.1-56,56-56l0,0l0,0
								c30.9,0,56,25.1,56,56v6.2c5.7,1,10,5.9,10,11.8v14c0,6.1-4.5,11.1-10.3,11.9C153.6,119.7,141.2,136.4,124,144.6z"/>
						</g>
					</mask>
					<g class="st9">
						<g id="Color" transform="translate(-32.000000, 0.000000)">
							<rect class="st10" width="264" height="244"/>
						</g>
					</g>
					<defs>
						<filter id="Adobe_OpacityMaskFilter_3_" filterUnits="userSpaceOnUse" x="44" y="79" width="112" height="79">
							<feColorMatrix  type="matrix" values="1 0 0 0 0  0 1 0 0 0  0 0 1 0 0  0 0 0 1 0"/>
						</filter>
					</defs>
					<mask maskUnits="userSpaceOnUse" x="44" y="79" width="112" height="79" id="mask-6_2_">
						<g class="st11">
							<path id="path-5_2_" class="st2" d="M124,144.6V163h4l0,0c39.8,0,72,32.2,72,72v9H0v-9c0-39.8,32.2-72,72-72l0,0h4v-18.4
								c-17.2-8.2-29.6-24.9-31.7-44.7C38.5,99.1,34,94.1,34,88V74c0-5.9,4.3-10.9,10-11.8V56l0,0c0-30.9,25.1-56,56-56l0,0l0,0
								c30.9,0,56,25.1,56,56v6.2c5.7,1,10,5.9,10,11.8v14c0,6.1-4.5,11.1-10.3,11.9C153.6,119.7,141.2,136.4,124,144.6z"/>
						</g>
					</mask>
					<path id="Neck-Shadow" class="st12" d="M156,79v23c0,30.9-25.1,56-56,56s-56-25.1-56-56V79v15c0,30.9,25.1,56,56,56
						s56-25.1,56-56V79z"/>
				</g>
				<g transform="translate(0.000000, 170.000000)">
					<g id="Clothes">
						<path class="st0" d="M166,29.3c37,3,66,34,66,71.8v8.9H32v-8.9C32,63,61.6,31.8,99,29.2c0,0.4,0,0.7,0,1.1
							c0,11.9,15,21.5,33.5,21.5S166,42.2,166,30.3C166,30,166,29.6,166,29.3z"/>
					</g>
					<defs>
						<filter id="Adobe_OpacityMaskFilter_4_" filterUnits="userSpaceOnUse" x="0" y="0" width="264" height="110">
							<feColorMatrix  type="matrix" values="1 0 0 0 0  0 1 0 0 0  0 0 1 0 0  0 0 0 1 0"/>
						</filter>
					</defs>
					<mask maskUnits="userSpaceOnUse" x="0" y="0" width="264" height="110" id="react-mask-12_1_">
						<g class="st13">
							<path id="react-path-11_1_" class="st2" d="M166,29.3c37,3,66,34,66,71.8v8.9H32v-8.9C32,63,61.6,31.8,99,29.2
								c0,0.4,0,0.7,0,1.1c0,11.9,15,21.5,33.5,21.5S166,42.2,166,30.3C166,30,166,29.6,166,29.3z"/>
						</g>
					</mask>
					<g class="st14">
						<rect class="st15" width="264" height="110"/>
					</g>
					<defs>
						<filter id="Adobe_OpacityMaskFilter_5_" filterUnits="userSpaceOnUse" x="92.9" y="4.9" width="79.3" height="53.8">
							<feColorMatrix  type="matrix" values="1 0 0 0 0  0 1 0 0 0  0 0 1 0 0  0 0 0 1 0"/>
						</filter>
					</defs>
					<mask maskUnits="userSpaceOnUse" x="92.9" y="4.9" width="79.3" height="53.8" id="react-mask-12_2_">
						<g class="st16">
							<path id="react-path-11_2_" class="st2" d="M166,29.3c37,3,66,34,66,71.8v8.9H32v-8.9C32,63,61.6,31.8,99,29.2
								c0,0.4,0,0.7,0,1.1c0,11.9,15,21.5,33.5,21.5S166,42.2,166,30.3C166,30,166,29.6,166,29.3z"/>
						</g>
					</mask>
					<g id="Shadowy" class="st17">
						<g transform="translate(92.000000, 4.000000)">
							<ellipse class="st18" cx="40.5" cy="27.8" rx="39.6" ry="26.9"/>
						</g>
					</g>
				</g>
				<g id="Face" transform="translate(76.000000, 82.000000)">
					<g transform="translate(2.000000, 52.000000)">
						<path id="Mouth" class="st19" d="M40.1,27.7C40.7,20.7,46.7,16,54,16c7.3,0,13.4,4.7,14,11.8c0,0.4-0.9,0.7-1.3,0.5
							c-5.5-2.8-9.7-4.2-12.6-4.2c-2.8,0-7,1.4-12.4,4.1C41,28.5,40,28.1,40.1,27.7z"/>
					</g>
					<g transform="translate(28.000000, 40.000000)">
						<path id="Nose" class="st18" d="M16,8c0,4.4,5.4,8,12,8l0,0c6.6,0,12-3.6,12-8"/>
					</g>
					<g transform="translate(0.000000, 8.000000)">
						<path id="Eye" class="st20" d="M29,25.2l5.5,5.5c0.5,0.4,1.2,0.4,1.6,0l1.6-1.6c0.4-0.5,0.4-1.2,0-1.6L32.2,22l5.5-5.5
							c0.4-0.5,0.4-1.2,0-1.6l-1.6-1.6c-0.5-0.4-1.2-0.4-1.6,0L29,18.8l-5.5-5.5c-0.5-0.4-1.2-0.4-1.6,0l-1.6,1.6
							c-0.4,0.4-0.4,1.1,0,1.6l5.5,5.5l-5.5,5.5c-0.4,0.5-0.4,1.2,0,1.6l1.6,1.6c0.5,0.4,1.2,0.4,1.6,0L29,25.2z"/>
						<path class="st20" d="M83,25.2l5.5,5.5c0.5,0.4,1.2,0.4,1.6,0l1.6-1.6c0.4-0.5,0.4-1.2,0-1.6L86.2,22l5.5-5.5
							c0.4-0.5,0.4-1.2,0-1.6l-1.6-1.6c-0.5-0.4-1.2-0.4-1.6,0L83,18.8l-5.5-5.5c-0.5-0.4-1.2-0.4-1.6,0l-1.6,1.6
							c-0.4,0.4-0.4,1.1,0,1.6l5.5,5.5l-5.5,5.5c-0.4,0.5-0.4,1.2,0,1.6l1.6,1.6c0.5,0.4,1.2,0.4,1.6,0L83,25.2z"/>
					</g>
					<g>
						<path id="Eyebrow" class="st20" d="M38,5.6C36.5,14,23.9,19.8,14.8,16c-1-0.4-2.2,0-2.6,1c-0.4,1,0,2.1,1,2.5
							C24.7,24.2,40,17.1,42,6.2c0.2-1-0.6-2-1.6-2.2C39.2,3.9,38.2,4.6,38,5.6z"/>
						<path class="st20" d="M74,5.6C75.5,14,88.1,19.8,97.2,16c1-0.4,2.2,0,2.6,1c0.4,1,0,2.1-1,2.5C87.3,24.2,72,17.1,70,6.2
							c-0.2-1,0.6-2,1.6-2.2C72.8,3.9,73.8,4.6,74,5.6z"/>
					</g>
				</g>
				<g id="Top">
					<defs>
						<filter id="Adobe_OpacityMaskFilter_6_" filterUnits="userSpaceOnUse" x="16" y="0" width="264" height="280">
							<feColorMatrix  type="matrix" values="1 0 0 0 0  0 1 0 0 0  0 0 1 0 0  0 0 0 1 0"/>
						</filter>
					</defs>
					<mask maskUnits="userSpaceOnUse" x="16" y="0" width="264" height="280" id="react-mask-107_1_">
						<g class="st21">
							<rect id="react-path-109_1_" class="st2" width="264" height="280"/>
						</g>
					</mask>
					<g class="st22">
						<g transform="translate(-1.000000, 0.000000)">
							<path id="Shadow" class="st18" d="M67,109.8c9-1.1,21.9-20.4,27.4-40.4c11.1,1.7,24.5,2.8,39,2.8c14.2,0,27.3-1,38.3-2.6
								c5.5,20,18.3,39.3,27.3,40.3V89c0-22.9-11.6-43-29.3-54.9c-0.5,2.5-0.9,5.2-1,8.2c-10.3-1.4-22.4-2.2-35.3-2.2
								c-13.2,0-25.5,0.8-36,2.3c-0.2-3-0.5-5.8-1-8.3C78.6,45.9,67,66.1,67,89l0,0V109.8z"/>
							<g id="Hair" transform="translate(17.000000, 0.000000)">
								<g>
									<path class="st23" d="M180.7,104.5c0.9,1.6,1.3,3.5,1.3,5.5v13c0,6-4.4,11-10.2,11.9c-1.7,20.2-14.3,37.4-31.8,45.7v9.4
										c3.8,1.9,8.1,2.9,12.5,2.9c7.6,0,14.6-3.1,20.1-8.2c1.5,0.2,2.9,0.2,4.4,0.2c18.4,0,34.3-12.3,41.6-30.1
										c6.3-5.1,10.4-13.4,10.4-22.9c0-1.8-0.1-3.5-0.4-5.2c2.2-6.4,3.4-13.4,3.4-20.8c0-12.9-3.7-24.7-10-34.3c0-0.6,0-1.1,0-1.7
										c0-11-5.5-20.4-13.5-25c-7.3-17.6-22.7-30-40.8-30.9c-4.4-5-10.5-8.1-17.2-8.1c-1,0-1.9,0.1-2.8,0.2
										C137.9,2.2,127.2,0,116,0S94.1,2.2,84.3,6.2C83.4,6.1,82.5,6,81.5,6c-6.7,0-12.8,3.1-17.2,8.1C46.3,15,30.8,27.4,23.5,45
										C15.5,49.6,10,59,10,70c0,0.6,0,1.2,0,1.7C3.7,81.3,0,93.1,0,106c0,7.3,1.2,14.3,3.4,20.8C3.1,128.5,3,130.2,3,132
										c0,9.5,4.1,17.8,10.4,22.9C20.7,172.7,36.6,185,55,185c1.5,0,3-0.1,4.4-0.2c5.4,5.1,12.4,8.2,20.1,8.2
										c4.4,0,8.7-1.1,12.5-2.9v-9.4c-17.5-8.3-30-25.5-31.8-45.7C54.4,134,50,129,50,123v-13c0-2,0.5-3.9,1.3-5.5
										c2.7-0.8,5.7-3.1,8.7-6.3c0,0,0,0,0,0v0c6.9-7.6,13.8-20.6,17.4-33.8c11.1,1.7,24.5,2.8,39,2.8c14.2,0,27.3-1,38.3-2.6
										c3.6,13.2,10.5,26.2,17.3,33.7v0c0,0,0,0,0,0C175,101.4,178,103.7,180.7,104.5z"/>
								</g>
								<defs>
									<filter id="Adobe_OpacityMaskFilter_7_" filterUnits="userSpaceOnUse" x="0" y="0" width="264" height="280">
										<feColorMatrix  type="matrix" values="1 0 0 0 0  0 1 0 0 0  0 0 1 0 0  0 0 0 1 0"/>
									</filter>
								</defs>
								<mask maskUnits="userSpaceOnUse" x="0" y="0" width="264" height="280" id="react-mask-108_1_">
									<g class="st24">
										<path id="react-path-110_1_" class="st2" d="M180.7,104.5c0.9,1.6,1.3,3.5,1.3,5.5v13c0,6-4.4,11-10.2,11.9
											c-1.7,20.2-14.3,37.4-31.8,45.7v9.4c3.8,1.9,8.1,2.9,12.5,2.9c7.6,0,14.6-3.1,20.1-8.2c1.5,0.2,2.9,0.2,4.4,0.2
											c18.4,0,34.3-12.3,41.6-30.1c6.3-5.1,10.4-13.4,10.4-22.9c0-1.8-0.1-3.5-0.4-5.2c2.2-6.4,3.4-13.4,3.4-20.8
											c0-12.9-3.7-24.7-10-34.3c0-0.6,0-1.1,0-1.7c0-11-5.5-20.4-13.5-25c-7.3-17.6-22.7-30-40.8-30.9c-4.4-5-10.5-8.1-17.2-8.1
											c-1,0-1.9,0.1-2.8,0.2C137.9,2.2,127.2,0,116,0S94.1,2.2,84.3,6.2C83.4,6.1,82.5,6,81.5,6c-6.7,0-12.8,3.1-17.2,8.1
											C46.3,15,30.8,27.4,23.5,45C15.5,49.6,10,59,10,70c0,0.6,0,1.2,0,1.7C3.7,81.3,0,93.1,0,106c0,7.3,1.2,14.3,3.4,20.8
											C3.1,128.5,3,130.2,3,132c0,9.5,4.1,17.8,10.4,22.9C20.7,172.7,36.6,185,55,185c1.5,0,3-0.1,4.4-0.2
											c5.4,5.1,12.4,8.2,20.1,8.2c4.4,0,8.7-1.1,12.5-2.9v-9.4c-17.5-8.3-30-25.5-31.8-45.7C54.4,134,50,129,50,123v-13
											c0-2,0.5-3.9,1.3-5.5c2.7-0.8,5.7-3.1,8.7-6.3c0,0,0,0,0,0v0c6.9-7.6,13.8-20.6,17.4-33.8c11.1,1.7,24.5,2.8,39,2.8
											c14.2,0,27.3-1,38.3-2.6c3.6,13.2,10.5,26.2,17.3,33.7v0c0,0,0,0,0,0C175,101.4,178,103.7,180.7,104.5z"/>
									</g>
								</mask>
								<g class="st25">
									<g transform="translate(0.000000, 0.000000) ">
										<rect class="st26" width="264" height="280"/>
									</g>
								</g>
							</g>
						</g>
					</g>
				</g>
			</g>
		</g>
	</g>
</g>
</svg>
