<?xml version="1.0" encoding="utf-8"?>
<!-- Generator: Adobe Illustrator 23.0.1, SVG Export Plug-In . SVG Version: 6.00 Build 0)  -->
<svg version="1.1" id="Layer_1" xmlns="http://www.w3.org/2000/svg" xmlns:xlink="http://www.w3.org/1999/xlink" x="0px" y="0px"
	 viewBox="0 0 264 280" style="enable-background:new 0 0 264 280;" xml:space="preserve">
<style type="text/css">
	.st0{fill-rule:evenodd;clip-rule:evenodd;fill:#E6E6E6;}
	.st1{filter:url(#Adobe_OpacityMaskFilter);}
	.st2{fill-rule:evenodd;clip-rule:evenodd;fill:#FFFFFF;}
	.st3{mask:url(#mask-2_1_);}
	.st4{fill-rule:evenodd;clip-rule:evenodd;fill:#F2F5FC;}
	.st5{filter:url(#Adobe_OpacityMaskFilter_1_);}
	.st6{mask:url(#mask-4_1_);}
	.st7{fill-rule:evenodd;clip-rule:evenodd;fill:#D0C6AC;}
	.st8{filter:url(#Adobe_OpacityMaskFilter_2_);}
	.st9{mask:url(#mask-6_1_);}
	.st10{fill-rule:evenodd;clip-rule:evenodd;fill:#EDB98A;}
	.st11{filter:url(#Adobe_OpacityMaskFilter_3_);}
	.st12{mask:url(#mask-6_2_);fill-rule:evenodd;clip-rule:evenodd;fill-opacity:0.1;}
	.st13{filter:url(#Adobe_OpacityMaskFilter_4_);}
	.st14{mask:url(#react-mask-2_1_);}
	.st15{fill-rule:evenodd;clip-rule:evenodd;fill:#262E33;}
	.st16{filter:url(#Adobe_OpacityMaskFilter_5_);}
	.st17{opacity:0.6;mask:url(#react-mask-2_2_);}
	.st18{fill-rule:evenodd;clip-rule:evenodd;fill-opacity:0.16;}
	.st19{fill-rule:evenodd;clip-rule:evenodd;fill:#3A4C5A;}
	.st20{fill-rule:evenodd;clip-rule:evenodd;fill:#2F4351;}
	.st21{fill-rule:evenodd;clip-rule:evenodd;fill-opacity:0.7;}
	.st22{fill-rule:evenodd;clip-rule:evenodd;fill-opacity:0.6;}
	.st23{fill-opacity:0.6;}
	.st24{filter:url(#Adobe_OpacityMaskFilter_6_);}
	.st25{mask:url(#react-mask-3_1_);}
	.st26{fill-rule:evenodd;clip-rule:evenodd;fill:#944F23;}
	.st27{filter:url(#Adobe_OpacityMaskFilter_7_);}
	.st28{mask:url(#react-mask-4_1_);}
	.st29{fill-rule:evenodd;clip-rule:evenodd;fill:#4A312C;}
	.st30{fill-rule:evenodd;clip-rule:evenodd;fill-opacity:0.24;}
	.st31{filter:url(#react-filter-8);}
	.st32{fill-rule:evenodd;clip-rule:evenodd;fill:#D6EAF2;}
</style>
<filter  filterUnits="objectBoundingBox" height="109.8%" id="react-filter-8" width="101.5%" x="-0.8%" y="-2.4%">
	<feOffset  dx="0" dy="2" in="SourceAlpha" result="shadowOffsetOuter1"></feOffset>
	
		<feColorMatrix  in="shadowOffsetOuter1" result="shadowMatrixOuter1" type="matrix" values="0 0 0 0 0   0 0 0 0 0   0 0 0 0 0  0 0 0 0.2 0">
		</feColorMatrix>
	<feMerge>
		<feMergeNode  in="shadowMatrixOuter1"></feMergeNode>
		<feMergeNode  in="SourceGraphic"></feMergeNode>
	</feMerge>
</filter>
<desc>Created with getavataaars.com</desc>
<g>
	<g transform="translate(-825.000000, -1100.000000)">
		<g transform="translate(825.000000, 1100.000000)">
			<g id="Circle" transform="translate(12.000000, 40.000000)">
				<g id="Circle-Background">
					<circle class="st0" cx="120" cy="120" r="120"/>
				</g>
				<defs>
					<filter id="Adobe_OpacityMaskFilter" filterUnits="userSpaceOnUse" x="0" y="0" width="240" height="240">
						<feColorMatrix  type="matrix" values="1 0 0 0 0  0 1 0 0 0  0 0 1 0 0  0 0 0 1 0"/>
					</filter>
				</defs>
				<mask maskUnits="userSpaceOnUse" x="0" y="0" width="240" height="240" id="mask-2_1_">
					<g class="st1">
						<circle id="path-1_1_" class="st2" cx="120" cy="120" r="120"/>
					</g>
				</mask>
				<g class="st3">
					<rect class="st4" width="240" height="240"/>
				</g>
			</g>
			<g id="Mask">
			</g>
			<defs>
				<filter id="Adobe_OpacityMaskFilter_1_" filterUnits="userSpaceOnUse" x="0" y="18" width="322" height="280">
					<feColorMatrix  type="matrix" values="1 0 0 0 0  0 1 0 0 0  0 0 1 0 0  0 0 0 1 0"/>
				</filter>
			</defs>
			<mask maskUnits="userSpaceOnUse" x="0" y="18" width="322" height="280" id="mask-4_1_">
				<g class="st5">
					<path id="path-3_1_" class="st2" d="M12,160c0,66.3,53.7,120,120,120s120-53.7,120-120h12V0H0v160H12z"/>
				</g>
			</mask>
			<g id="Avataaar" class="st6">
				<g id="Body" transform="translate(32.000000, 36.000000)">
					<g>
						<path class="st7" d="M124,144.6V163h4l0,0c39.8,0,72,32.2,72,72v9H0v-9c0-39.8,32.2-72,72-72l0,0h4v-18.4
							c-17.2-8.2-29.6-24.9-31.7-44.7C38.5,99.1,34,94.1,34,88V74c0-5.9,4.3-10.9,10-11.8V56l0,0c0-30.9,25.1-56,56-56l0,0l0,0
							c30.9,0,56,25.1,56,56v6.2c5.7,1,10,5.9,10,11.8v14c0,6.1-4.5,11.1-10.3,11.9C153.6,119.7,141.2,136.4,124,144.6z"/>
					</g>
					<defs>
						<filter id="Adobe_OpacityMaskFilter_2_" filterUnits="userSpaceOnUse" x="-32" y="0" width="264" height="244">
							<feColorMatrix  type="matrix" values="1 0 0 0 0  0 1 0 0 0  0 0 1 0 0  0 0 0 1 0"/>
						</filter>
					</defs>
					<mask maskUnits="userSpaceOnUse" x="-32" y="0" width="264" height="244" id="mask-6_1_">
						<g class="st8">
							<path id="path-5_1_" class="st2" d="M124,144.6V163h4l0,0c39.8,0,72,32.2,72,72v9H0v-9c0-39.8,32.2-72,72-72l0,0h4v-18.4
								c-17.2-8.2-29.6-24.9-31.7-44.7C38.5,99.1,34,94.1,34,88V74c0-5.9,4.3-10.9,10-11.8V56l0,0c0-30.9,25.1-56,56-56l0,0l0,0
								c30.9,0,56,25.1,56,56v6.2c5.7,1,10,5.9,10,11.8v14c0,6.1-4.5,11.1-10.3,11.9C153.6,119.7,141.2,136.4,124,144.6z"/>
						</g>
					</mask>
					<g class="st9">
						<g id="Color" transform="translate(-32.000000, 0.000000)">
							<rect class="st10" width="264" height="244"/>
						</g>
					</g>
					<defs>
						<filter id="Adobe_OpacityMaskFilter_3_" filterUnits="userSpaceOnUse" x="44" y="79" width="112" height="79">
							<feColorMatrix  type="matrix" values="1 0 0 0 0  0 1 0 0 0  0 0 1 0 0  0 0 0 1 0"/>
						</filter>
					</defs>
					<mask maskUnits="userSpaceOnUse" x="44" y="79" width="112" height="79" id="mask-6_2_">
						<g class="st11">
							<path id="path-5_2_" class="st2" d="M124,144.6V163h4l0,0c39.8,0,72,32.2,72,72v9H0v-9c0-39.8,32.2-72,72-72l0,0h4v-18.4
								c-17.2-8.2-29.6-24.9-31.7-44.7C38.5,99.1,34,94.1,34,88V74c0-5.9,4.3-10.9,10-11.8V56l0,0c0-30.9,25.1-56,56-56l0,0l0,0
								c30.9,0,56,25.1,56,56v6.2c5.7,1,10,5.9,10,11.8v14c0,6.1-4.5,11.1-10.3,11.9C153.6,119.7,141.2,136.4,124,144.6z"/>
						</g>
					</mask>
					<path id="Neck-Shadow" class="st12" d="M156,79v23c0,30.9-25.1,56-56,56s-56-25.1-56-56V79v15c0,30.9,25.1,56,56,56
						s56-25.1,56-56V79z"/>
				</g>
				<g transform="translate(0.000000, 170.000000)">
					<g id="Shirt" transform="translate(32.000000, 29.000000)">
						<g id="Clothes">
							<path class="st0" d="M134,0.3c37,3,66,34,66,71.8V81H0v-8.9C0,34,29.6,2.8,67,0.2c0,0.4,0,0.7,0,1.1
								c0,11.9,15,21.5,33.5,21.5S134,13.2,134,1.3C134,1,134,0.6,134,0.3z"/>
						</g>
						<defs>
							<filter id="Adobe_OpacityMaskFilter_4_" filterUnits="userSpaceOnUse" x="-32" y="-29" width="264" height="110">
								<feColorMatrix  type="matrix" values="1 0 0 0 0  0 1 0 0 0  0 0 1 0 0  0 0 0 1 0"/>
							</filter>
						</defs>
						<mask maskUnits="userSpaceOnUse" x="-32" y="-29" width="264" height="110" id="react-mask-2_1_">
							<g class="st13">
								<path id="react-path-1_1_" class="st2" d="M134,0.3c37,3,66,34,66,71.8V81H0v-8.9C0,34,29.6,2.8,67,0.2c0,0.4,0,0.7,0,1.1
									c0,11.9,15,21.5,33.5,21.5S134,13.2,134,1.3C134,1,134,0.6,134,0.3z"/>
							</g>
						</mask>
						<g class="st14">
							<g transform="translate(-32.000000, -29.000000)">
								<rect class="st15" width="264" height="110"/>
							</g>
						</g>
						<defs>
							<filter id="Adobe_OpacityMaskFilter_5_" filterUnits="userSpaceOnUse" x="60.9" y="-24.1" width="79.3" height="53.8">
								<feColorMatrix  type="matrix" values="1 0 0 0 0  0 1 0 0 0  0 0 1 0 0  0 0 0 1 0"/>
							</filter>
						</defs>
						<mask maskUnits="userSpaceOnUse" x="60.9" y="-24.1" width="79.3" height="53.8" id="react-mask-2_2_">
							<g class="st16">
								<path id="react-path-1_2_" class="st2" d="M134,0.3c37,3,66,34,66,71.8V81H0v-8.9C0,34,29.6,2.8,67,0.2c0,0.4,0,0.7,0,1.1
									c0,11.9,15,21.5,33.5,21.5S134,13.2,134,1.3C134,1,134,0.6,134,0.3z"/>
							</g>
						</mask>
						<g id="Shadowy" class="st17">
							<g transform="translate(60.000000, -25.000000)">
								<ellipse class="st18" cx="40.5" cy="27.8" rx="39.6" ry="26.9"/>
							</g>
						</g>
					</g>
					<g id="Blazer" transform="translate(32.000000, 28.000000)">
						<path id="Saco" class="st19" d="M68.8,1.1C30.5,2.8,0,34.4,0,73.1l0,0V82h69.4C66,69.9,64,55.7,64,40.5
							C64,26.2,65.7,12.7,68.8,1.1z M131.6,82H200v-8.9c0-38.3-30-69.7-67.8-71.9c3,11.6,4.8,25,4.8,39.3
							C137,55.7,135,69.9,131.6,82z"/>
						<path id="Pocket-hanky" class="st0" d="M149,58l9.6-7.2l0,0c1.4-1.1,3.4-1.1,4.9,0L170,56L149,58z"/>
						<path id="Wing" class="st20" d="M69,0c-4,19.3-2.3,46.7,5,82H58L44,46l6-9l-6-6L63,1C65,0.4,67,0,69,0z"/>
						<path class="st20" d="M131,0c4,19.3,2.3,46.7-5,82h16l14-36l-6-9l6-6L137,1C135,0.4,133,0,131,0z"/>
					</g>
				</g>
				<g id="Face" transform="translate(76.000000, 82.000000)">
					<g transform="translate(2.000000, 52.000000)">
						<path id="Mouth" class="st21" d="M40,15c0,7.7,6.3,14,14,14l0,0c7.7,0,14-6.3,14-14"/>
					</g>
					<g transform="translate(28.000000, 40.000000)">
						<path id="Nose" class="st18" d="M16,8c0,4.4,5.4,8,12,8l0,0c6.6,0,12-3.6,12-8"/>
					</g>
					<g transform="translate(0.000000, 8.000000)">
						<circle id="Eye" class="st22" cx="30" cy="22" r="6"/>
						<circle class="st22" cx="82" cy="22" r="6"/>
					</g>
					<g>
						<g id="I-Browse" transform="translate(12.000000, 6.000000)">
							<path id="Eyebrow" class="st23" d="M3.6,11.2c3.9-5.5,14.6-8.6,23.9-6.3c1.1,0.3,2.2-0.4,2.4-1.5c0.3-1.1-0.4-2.2-1.5-2.4
								C17.7-1.7,5.3,1.9,0.4,8.8c-0.6,0.9-0.4,2.1,0.5,2.8S3,12.1,3.6,11.2z"/>
							<path class="st23" d="M84.4,11.2c-3.9-5.5-14.6-8.6-23.9-6.3c-1.1,0.3-2.2-0.4-2.4-1.5s0.4-2.2,1.5-2.4
								c10.7-2.6,23.2,0.9,28.1,7.9c0.6,0.9,0.4,2.1-0.5,2.8S85,12.1,84.4,11.2z"/>
						</g>
					</g>
				</g>
				<g id="Top">
					<defs>
						<filter id="Adobe_OpacityMaskFilter_6_" filterUnits="userSpaceOnUse" x="58" y="18" width="264" height="280">
							<feColorMatrix  type="matrix" values="1 0 0 0 0  0 1 0 0 0  0 0 1 0 0  0 0 0 1 0"/>
						</filter>
					</defs>
					<mask maskUnits="userSpaceOnUse" x="58" y="18" width="264" height="280" id="react-mask-3_1_">
						<g class="st24">
							<rect id="react-path-5_1_" class="st2" width="264" height="280"/>
						</g>
					</mask>
					<g class="st25">
						<g transform="translate(-1.000000, 0.000000)">
							<g id="Hair" transform="translate(59.000000, 18.000000)">
								<g id="Mask-Hair">
									<path class="st26" d="M133.5,81.3c3.9,2,6.5,6,6.5,10.7v13c0,6-4.4,11-10.2,11.9c-1.7,20.2-14.3,37.4-31.8,45.7l0,0V181h4
										c17.5,0,33.5,6.2,46,16.6V74c0-20.4-8.3-38.9-21.7-52.3S94.4,0,74,0C33.1,0,0,33.1,0,74v183.7c13.6-1.9,24-13.6,24-27.7
										v-45.6c6.9-2.2,14.3-3.4,22-3.4h4v-18.4c-11.2-5.3-20.4-14.3-26-25.4v-62c9.1-3,18.8-7.2,28.3-12.8
										c15.4-8.9,28.1-19.6,36.7-30.1c1.8,5.2,4.1,10.4,7,15.5c8.8,15.2,21.1,26.3,33.9,32v0.2c0.4,0.1,0.8,0.2,1.2,0.3
										C132,80.7,132.7,81.1,133.5,81.3z"/>
								</g>
								<defs>
									<filter id="Adobe_OpacityMaskFilter_7_" filterUnits="userSpaceOnUse" x="0" y="0" width="264" height="280">
										<feColorMatrix  type="matrix" values="1 0 0 0 0  0 1 0 0 0  0 0 1 0 0  0 0 0 1 0"/>
									</filter>
								</defs>
								<mask maskUnits="userSpaceOnUse" x="0" y="0" width="264" height="280" id="react-mask-4_1_">
									<g class="st27">
										<path id="react-path-6_1_" class="st2" d="M133.5,81.3c3.9,2,6.5,6,6.5,10.7v13c0,6-4.4,11-10.2,11.9
											c-1.7,20.2-14.3,37.4-31.8,45.7l0,0V181h4c17.5,0,33.5,6.2,46,16.6V74c0-20.4-8.3-38.9-21.7-52.3S94.4,0,74,0
											C33.1,0,0,33.1,0,74v183.7c13.6-1.9,24-13.6,24-27.7v-45.6c6.9-2.2,14.3-3.4,22-3.4h4v-18.4c-11.2-5.3-20.4-14.3-26-25.4
											v-62c9.1-3,18.8-7.2,28.3-12.8c15.4-8.9,28.1-19.6,36.7-30.1c1.8,5.2,4.1,10.4,7,15.5c8.8,15.2,21.1,26.3,33.9,32v0.2
											c0.4,0.1,0.8,0.2,1.2,0.3C132,80.7,132.7,81.1,133.5,81.3z"/>
									</g>
								</mask>
								<g class="st28">
									<g transform="translate(0.000000, 0.000000) ">
										<rect class="st29" width="264" height="280"/>
									</g>
								</g>
							</g>
							<path id="Shadow" class="st30" d="M192.5,99.3c4.9,1.8,9.8,2.7,14.5,2.8l0,0V92c0-20.4-8.3-38.9-21.7-52.3
								C198.7,53.1,207,71.6,207,92v123.6c-12.5-10.4-28.5-16.6-46-16.6h-4v-18.4l0,0c17.5-8.3,30-25.5,31.8-45.7
								C194.6,134,199,129,199,123v-13C199,105.4,196.4,101.3,192.5,99.3z M190.2,98.4c-0.4-0.1-0.8-0.2-1.2-0.3v-0.2
								C189.4,98.1,189.8,98.3,190.2,98.4z M83,155.2c5.6,11.1,14.8,20,26,25.4V199h-4c-7.7,0-15.1,1.2-22,3.4V155.2z"/>
							<g transform="translate(62.000000, 85.000000)">
								<g id="Glasses" transform="translate(8.000000, 8.000000)" class="st31">
									<path id="Frame-Stuff_1_" class="st32" d="M46.2,7.3c2.4,0,3.5,0.4,3.9,2.9c0.4,2.5,0,5.3-0.5,7.8
										c-0.7,3.8-1.9,7.5-4.7,10.2c-1.5,1.5-3.3,2.6-5.2,3.4c-1,0.4-2.1,0.7-3.1,1c-0.3,0.1-3,0.4-1.3,0.2c-3.8,0.4-8,0.4-11.1-2
										c-3.5-2.7-6-7-7-11.2c-0.6-2.5-1.9-8.4,0.5-10.4C20.4,6.9,46.2,7.3,46.2,7.3L46.2,7.3z M22.2,0.5
										c-5.4,0.2-9.1,1.1-11.8,6.6C5.5,17,14,32,23.4,36c11,4.8,23.2-0.5,29-10c3.1-5,4.6-12.7,4.5-18.5C56.8,0.1,51.6-0.1,45.5,0
										L22.2,0.5z"/>
									<path class="st32" d="M79.7,7.3c-2.4,0-3.5,0.4-3.9,2.9c-0.4,2.5,0,5.3,0.5,7.8c0.7,3.8,1.9,7.5,4.7,10.2
										c1.5,1.5,3.3,2.6,5.2,3.4c1,0.4,2.1,0.7,3.1,1c0.3,0.1,3,0.4,1.3,0.2c3.8,0.4,8,0.4,11.1-2c3.5-2.7,6-7,7-11.2
										c0.6-2.5,1.9-8.4-0.5-10.4C105.6,6.9,79.7,7.3,79.7,7.3L79.7,7.3z M103.7,0.5c5.4,0.2,9.1,1.1,11.8,6.6
										c4.9,10-3.5,24.9-12.9,29c-11,4.8-23.2-0.5-29-10c-3.1-5-4.6-12.7-4.5-18.5c0.1-7.4,5.3-7.6,11.4-7.5L103.7,0.5z"/>
									<path class="st32" d="M13.2,4.9C9.8,5.1,5.9,5.2,2.7,6.6c-3.4,1.6-3.9,5.1,0.4,5.6c1.9,0.2,3.8-0.1,5.7-0.5
										c1.5-0.3,3.7-0.2,5.1-0.8C16.6,9.9,16.5,4.7,13.2,4.9"/>
									<path class="st32" d="M112.7,4.9c3.4,0.2,7.3,0.2,10.5,1.7c3.4,1.6,3.9,5.1-0.4,5.6c-1.9,0.2-3.8-0.1-5.7-0.5
										c-1.5-0.3-3.7-0.2-5.1-0.8C109.3,9.9,109.5,4.7,112.7,4.9"/>
									<path class="st32" d="M73.1,7c-1.9-2.3-7-3.6-10.2-3.6c-3.2,0-8.1,1.3-10.1,3.6c-1,1.2-1,2.7,0.7,3.4
										c2.1,0.9,4-0.7,5.7-1.6c2.2-1.1,5.5-1,7.5,0c1.7,0.8,3.6,2.5,5.7,1.6C74.1,9.7,74.1,8.2,73.1,7"/>
								</g>
							</g>
						</g>
					</g>
				</g>
			</g>
		</g>
	</g>
</g>
</svg>
