<?xml version="1.0" encoding="utf-8"?>
<!-- Generator: Adobe Illustrator 23.0.1, SVG Export Plug-In . SVG Version: 6.00 Build 0)  -->
<svg version="1.1" id="Layer_1" xmlns="http://www.w3.org/2000/svg" xmlns:xlink="http://www.w3.org/1999/xlink" x="0px" y="0px"
	 viewBox="0 0 264 280" style="enable-background:new 0 0 264 280;" xml:space="preserve">
<style type="text/css">
	.st0{fill-rule:evenodd;clip-rule:evenodd;fill:#E6E6E6;}
	.st1{filter:url(#Adobe_OpacityMaskFilter);}
	.st2{fill-rule:evenodd;clip-rule:evenodd;fill:#FFFFFF;}
	.st3{mask:url(#mask-2_1_);}
	.st4{fill-rule:evenodd;clip-rule:evenodd;fill:#F2F5FC;}
	.st5{filter:url(#Adobe_OpacityMaskFilter_1_);}
	.st6{mask:url(#mask-4_1_);}
	.st7{fill-rule:evenodd;clip-rule:evenodd;fill:#D0C6AC;}
	.st8{filter:url(#Adobe_OpacityMaskFilter_2_);}
	.st9{mask:url(#mask-6_1_);}
	.st10{fill-rule:evenodd;clip-rule:evenodd;fill:#FFDBB4;}
	.st11{filter:url(#Adobe_OpacityMaskFilter_3_);}
	.st12{mask:url(#mask-6_2_);fill-rule:evenodd;clip-rule:evenodd;fill-opacity:0.1;}
	.st13{filter:url(#Adobe_OpacityMaskFilter_4_);}
	.st14{mask:url(#react-mask-876_1_);}
	.st15{fill-rule:evenodd;clip-rule:evenodd;fill:#FFAFB9;}
	.st16{filter:url(#Adobe_OpacityMaskFilter_5_);}
	.st17{mask:url(#react-mask-876_2_);}
	.st18{fill-rule:evenodd;clip-rule:evenodd;fill-opacity:0.7;}
	.st19{fill-rule:evenodd;clip-rule:evenodd;fill-opacity:0.16;}
	.st20{fill-rule:evenodd;clip-rule:evenodd;fill-opacity:0.6;}
	.st21{fill-opacity:0.6;}
	.st22{filter:url(#Adobe_OpacityMaskFilter_6_);}
	.st23{mask:url(#react-mask-850_1_);}
	.st24{fill-rule:evenodd;clip-rule:evenodd;fill:#944F23;}
	.st25{filter:url(#Adobe_OpacityMaskFilter_7_);}
	.st26{mask:url(#react-mask-851_1_);}
	.st27{fill-rule:evenodd;clip-rule:evenodd;fill:#2C1B18;}
	.st28{fill-rule:evenodd;clip-rule:evenodd;fill-opacity:0.24;}
	.st29{fill:#252C2F;}
</style>
<desc>Created with getavataaars.com</desc>
<g>
	<g transform="translate(-825.000000, -1100.000000)">
		<g transform="translate(825.000000, 1100.000000)">
			<g id="Circle" transform="translate(12.000000, 40.000000)">
				<g id="Circle-Background">
					<circle class="st0" cx="120" cy="120" r="120"/>
				</g>
				<defs>
					<filter id="Adobe_OpacityMaskFilter" filterUnits="userSpaceOnUse" x="0" y="0" width="240" height="240">
						<feColorMatrix  type="matrix" values="1 0 0 0 0  0 1 0 0 0  0 0 1 0 0  0 0 0 1 0"/>
					</filter>
				</defs>
				<mask maskUnits="userSpaceOnUse" x="0" y="0" width="240" height="240" id="mask-2_1_">
					<g class="st1">
						<circle id="path-1_1_" class="st2" cx="120" cy="120" r="120"/>
					</g>
				</mask>
				<g class="st3">
					<rect class="st4" width="240" height="240"/>
				</g>
			</g>
			<g id="Mask">
			</g>
			<defs>
				<filter id="Adobe_OpacityMaskFilter_1_" filterUnits="userSpaceOnUse" x="0" y="18" width="322" height="280">
					<feColorMatrix  type="matrix" values="1 0 0 0 0  0 1 0 0 0  0 0 1 0 0  0 0 0 1 0"/>
				</filter>
			</defs>
			<mask maskUnits="userSpaceOnUse" x="0" y="18" width="322" height="280" id="mask-4_1_">
				<g class="st5">
					<path id="path-3_1_" class="st2" d="M12,160c0,66.3,53.7,120,120,120s120-53.7,120-120h12V0H0v160H12z"/>
				</g>
			</mask>
			<g id="Avataaar" class="st6">
				<g id="Body" transform="translate(32.000000, 36.000000)">
					<g>
						<path class="st7" d="M124,144.6V163h4l0,0c39.8,0,72,32.2,72,72v9H0v-9c0-39.8,32.2-72,72-72l0,0h4v-18.4
							c-17.2-8.2-29.6-24.9-31.7-44.7C38.5,99.1,34,94.1,34,88V74c0-5.9,4.3-10.9,10-11.8V56l0,0c0-30.9,25.1-56,56-56l0,0l0,0
							c30.9,0,56,25.1,56,56v6.2c5.7,1,10,5.9,10,11.8v14c0,6.1-4.5,11.1-10.3,11.9C153.6,119.7,141.2,136.4,124,144.6z"/>
					</g>
					<defs>
						<filter id="Adobe_OpacityMaskFilter_2_" filterUnits="userSpaceOnUse" x="-32" y="0" width="264" height="244">
							<feColorMatrix  type="matrix" values="1 0 0 0 0  0 1 0 0 0  0 0 1 0 0  0 0 0 1 0"/>
						</filter>
					</defs>
					<mask maskUnits="userSpaceOnUse" x="-32" y="0" width="264" height="244" id="mask-6_1_">
						<g class="st8">
							<path id="path-5_1_" class="st2" d="M124,144.6V163h4l0,0c39.8,0,72,32.2,72,72v9H0v-9c0-39.8,32.2-72,72-72l0,0h4v-18.4
								c-17.2-8.2-29.6-24.9-31.7-44.7C38.5,99.1,34,94.1,34,88V74c0-5.9,4.3-10.9,10-11.8V56l0,0c0-30.9,25.1-56,56-56l0,0l0,0
								c30.9,0,56,25.1,56,56v6.2c5.7,1,10,5.9,10,11.8v14c0,6.1-4.5,11.1-10.3,11.9C153.6,119.7,141.2,136.4,124,144.6z"/>
						</g>
					</mask>
					<g class="st9">
						<g id="Color" transform="translate(-32.000000, 0.000000)">
							<rect class="st10" width="264" height="244"/>
						</g>
					</g>
					<defs>
						<filter id="Adobe_OpacityMaskFilter_3_" filterUnits="userSpaceOnUse" x="44" y="79" width="112" height="79">
							<feColorMatrix  type="matrix" values="1 0 0 0 0  0 1 0 0 0  0 0 1 0 0  0 0 0 1 0"/>
						</filter>
					</defs>
					<mask maskUnits="userSpaceOnUse" x="44" y="79" width="112" height="79" id="mask-6_2_">
						<g class="st11">
							<path id="path-5_2_" class="st2" d="M124,144.6V163h4l0,0c39.8,0,72,32.2,72,72v9H0v-9c0-39.8,32.2-72,72-72l0,0h4v-18.4
								c-17.2-8.2-29.6-24.9-31.7-44.7C38.5,99.1,34,94.1,34,88V74c0-5.9,4.3-10.9,10-11.8V56l0,0c0-30.9,25.1-56,56-56l0,0l0,0
								c30.9,0,56,25.1,56,56v6.2c5.7,1,10,5.9,10,11.8v14c0,6.1-4.5,11.1-10.3,11.9C153.6,119.7,141.2,136.4,124,144.6z"/>
						</g>
					</mask>
					<path id="Neck-Shadow" class="st12" d="M156,79v23c0,30.9-25.1,56-56,56s-56-25.1-56-56V79v15c0,30.9,25.1,56,56,56
						s56-25.1,56-56V79z"/>
				</g>
				<g transform="translate(0.000000, 170.000000)">
					<g id="Clothes">
						<path class="st0" d="M165.6,29.3c37.1,2.9,66.4,33.9,66.4,71.8v8.9H32v-8.9c0-38.2,29.8-69.5,67.4-71.9
							c-0.3,1.1-0.4,2.2-0.4,3.3C99,44.4,114,54,132.5,54S166,44.4,166,32.5C166,31.4,165.9,30.3,165.6,29.3L165.6,29.3z"/>
					</g>
					<defs>
						<filter id="Adobe_OpacityMaskFilter_4_" filterUnits="userSpaceOnUse" x="0" y="0" width="264" height="110">
							<feColorMatrix  type="matrix" values="1 0 0 0 0  0 1 0 0 0  0 0 1 0 0  0 0 0 1 0"/>
						</filter>
					</defs>
					<mask maskUnits="userSpaceOnUse" x="0" y="0" width="264" height="110" id="react-mask-876_1_">
						<g class="st13">
							<path id="react-path-875_1_" class="st2" d="M165.6,29.3c37.1,2.9,66.4,33.9,66.4,71.8v8.9H32v-8.9
								c0-38.2,29.8-69.5,67.4-71.9c-0.3,1.1-0.4,2.2-0.4,3.3C99,44.4,114,54,132.5,54S166,44.4,166,32.5
								C166,31.4,165.9,30.3,165.6,29.3L165.6,29.3z"/>
						</g>
					</mask>
					<g class="st14">
						<rect class="st15" width="264" height="110"/>
					</g>
					<defs>
						<filter id="Adobe_OpacityMaskFilter_5_" filterUnits="userSpaceOnUse" x="99" y="59" width="66" height="42">
							<feColorMatrix  type="matrix" values="1 0 0 0 0  0 1 0 0 0  0 0 1 0 0  0 0 0 1 0"/>
						</filter>
					</defs>
					<mask maskUnits="userSpaceOnUse" x="99" y="59" width="66" height="42" id="react-mask-876_2_">
						<g class="st16">
							<path id="react-path-875_2_" class="st2" d="M165.6,29.3c37.1,2.9,66.4,33.9,66.4,71.8v8.9H32v-8.9
								c0-38.2,29.8-69.5,67.4-71.9c-0.3,1.1-0.4,2.2-0.4,3.3C99,44.4,114,54,132.5,54S166,44.4,166,32.5
								C166,31.4,165.9,30.3,165.6,29.3L165.6,29.3z"/>
						</g>
					</mask>
					<g class="st17">
						<g transform="translate(77.000000, 58.000000)">
							<path class="st2" d="M87.7,13.4C86.3,7,81.5,3.3,75.2,1.8c-2.5-0.6-10.9-2.4-9.6,2.4c0.6,2.2,0.3,4-1.6,5.8
								c-1.8,1.8-5.2,2.2-7,0c-1.5-1.9,0.4-4.7-0.7-6.6c-0.4-0.7-1.2-1.1-2-0.7c-1.1,0.5-0.5,1.6-1.1,2.3c-0.8,1.2-1.2,0.8-2-0.4
								c-0.5-0.8,0-1.6-1.2-1.9c-1.4-0.4-1.9,0.8-2,1.9c-0.1,0.7,0.3,1.8,0.3,2.5c0,1.4-0.1,3.3-0.7,4.5c-1.1,2.1-2.7,1.5-4.4,0.1
								c-2-1.6-2.6-3.4-2.2-5.8c0.5-2.9,0.3-5.7-3.3-3.9c-5,2.6-9.7,7.1-12.6,11.9c-2.4,4-4.4,8.9-2.2,13.5c2.2,4.7,5.9,8.7,11,9.9
								c1.3,0.3,5.1,1.8,6.3,0.6c1.9-2-2.5-3.8-3.4-5c-1.3-1.7-2.3-4.9-1-6.8c1.8-2.4,3.6-1.1,5,0.6c1.1,1.3,2.7,4.8,4.5,2
								c1.2-1.9,1.1-5.1,4.4-3.7c4.7,2,4.9,11.1,5.7,15.3c0.4,1.8,2,4.1,3.5,1.5c0.8-1.4,0.4-4.4,0.2-5.9c-0.3-3-1.1-5.9-0.1-8.9
								c0.6-1.7,2-4.2,4.1-2.8c1.7,1.1,1,5.8,3.4,5.8c2.1,0,1.5-3.8,2.6-5c1.7-1.9,4.9-1,5.9,1.2c1.3,3-2.2,5.1-2,7.8
								c0.2,2.6,3.5,1.6,4.9,0.9c2.9-1.4,5.1-3.9,6.7-6.6C87,24.2,88.7,18.2,87.7,13.4"/>
						</g>
					</g>
				</g>
				<g id="Face" transform="translate(76.000000, 82.000000)">
					<g transform="translate(2.000000, 52.000000)">
						<path id="Mouth" class="st18" d="M40,15c0,7.7,6.3,14,14,14l0,0c7.7,0,14-6.3,14-14"/>
					</g>
					<g transform="translate(28.000000, 40.000000)">
						<path id="Nose" class="st19" d="M16,8c0,4.4,5.4,8,12,8l0,0c6.6,0,12-3.6,12-8"/>
					</g>
					<g transform="translate(0.000000, 8.000000)">
						<path id="Squint" class="st20" d="M16.2,22.4C18,18.6,22.2,16,27,16c4.8,0,9,2.6,10.8,6.4c0.6,1.1-0.2,2-1,1.4
							c-2.5-2.1-5.9-3.4-9.8-3.4c-3.7,0-7.1,1.2-9.6,3.2C16.5,24.3,15.6,23.6,16.2,22.4z"/>
						<path class="st20" d="M74.2,22.4C76,18.6,80.2,16,85,16c4.8,0,9,2.6,10.8,6.4c0.6,1.1-0.2,2-1,1.4c-2.5-2.1-5.9-3.4-9.8-3.4
							c-3.7,0-7.1,1.2-9.6,3.2C74.5,24.3,73.6,23.6,74.2,22.4z"/>
					</g>
					<g>
						<g id="I-Browse" transform="translate(12.000000, 6.000000)">
							<path id="Eyebrow" class="st21" d="M3.6,11.2c3.9-5.5,14.6-8.6,23.9-6.3c1.1,0.3,2.2-0.4,2.4-1.5c0.3-1.1-0.4-2.2-1.5-2.4
								C17.7-1.7,5.3,1.9,0.4,8.8c-0.6,0.9-0.4,2.1,0.5,2.8S3,12.1,3.6,11.2z"/>
							<path class="st21" d="M84.4,11.2c-3.9-5.5-14.6-8.6-23.9-6.3c-1.1,0.3-2.2-0.4-2.4-1.5s0.4-2.2,1.5-2.4
								c10.7-2.6,23.2,0.9,28.1,7.9c0.6,0.9,0.4,2.1-0.5,2.8S85,12.1,84.4,11.2z"/>
						</g>
					</g>
				</g>
				<g id="Top">
					<defs>
						<filter id="Adobe_OpacityMaskFilter_6_" filterUnits="userSpaceOnUse" x="58" y="18" width="264" height="280">
							<feColorMatrix  type="matrix" values="1 0 0 0 0  0 1 0 0 0  0 0 1 0 0  0 0 0 1 0"/>
						</filter>
					</defs>
					<mask maskUnits="userSpaceOnUse" x="58" y="18" width="264" height="280" id="react-mask-850_1_">
						<g class="st22">
							<rect id="react-path-852_1_" class="st2" width="264" height="280"/>
						</g>
					</mask>
					<g class="st23">
						<g transform="translate(-1.000000, 0.000000)">
							<g id="Hair" transform="translate(59.000000, 18.000000)">
								<g id="Mask-Hair">
									<path class="st24" d="M133.5,81.3c3.9,2,6.5,6,6.5,10.7v13c0,6-4.4,11-10.2,11.9c-1.7,20.2-14.3,37.4-31.8,45.7l0,0V181h4
										c17.5,0,33.5,6.2,46,16.6V74c0-20.4-8.3-38.9-21.7-52.3S94.4,0,74,0C33.1,0,0,33.1,0,74v183.7c13.6-1.9,24-13.6,24-27.7
										v-45.6c6.9-2.2,14.3-3.4,22-3.4h4v-18.4c-11.2-5.3-20.4-14.3-26-25.4v-62c9.1-3,18.8-7.2,28.3-12.8
										c15.4-8.9,28.1-19.6,36.7-30.1c1.8,5.2,4.1,10.4,7,15.5c8.8,15.2,21.1,26.3,33.9,32v0.2c0.4,0.1,0.8,0.2,1.2,0.3
										C132,80.7,132.7,81.1,133.5,81.3z"/>
								</g>
								<defs>
									<filter id="Adobe_OpacityMaskFilter_7_" filterUnits="userSpaceOnUse" x="0" y="0" width="264" height="280">
										<feColorMatrix  type="matrix" values="1 0 0 0 0  0 1 0 0 0  0 0 1 0 0  0 0 0 1 0"/>
									</filter>
								</defs>
								<mask maskUnits="userSpaceOnUse" x="0" y="0" width="264" height="280" id="react-mask-851_1_">
									<g class="st25">
										<path id="react-path-853_1_" class="st2" d="M133.5,81.3c3.9,2,6.5,6,6.5,10.7v13c0,6-4.4,11-10.2,11.9
											c-1.7,20.2-14.3,37.4-31.8,45.7l0,0V181h4c17.5,0,33.5,6.2,46,16.6V74c0-20.4-8.3-38.9-21.7-52.3S94.4,0,74,0
											C33.1,0,0,33.1,0,74v183.7c13.6-1.9,24-13.6,24-27.7v-45.6c6.9-2.2,14.3-3.4,22-3.4h4v-18.4c-11.2-5.3-20.4-14.3-26-25.4
											v-62c9.1-3,18.8-7.2,28.3-12.8c15.4-8.9,28.1-19.6,36.7-30.1c1.8,5.2,4.1,10.4,7,15.5c8.8,15.2,21.1,26.3,33.9,32v0.2
											c0.4,0.1,0.8,0.2,1.2,0.3C132,80.7,132.7,81.1,133.5,81.3z"/>
									</g>
								</mask>
								<g class="st26">
									<g transform="translate(0.000000, 0.000000) ">
										<rect class="st27" width="264" height="280"/>
									</g>
								</g>
							</g>
							<path id="Shadow" class="st28" d="M192.5,99.3c4.9,1.8,9.8,2.7,14.5,2.8l0,0V92c0-20.4-8.3-38.9-21.7-52.3
								C198.7,53.1,207,71.6,207,92v123.6c-12.5-10.4-28.5-16.6-46-16.6h-4v-18.4l0,0c17.5-8.3,30-25.5,31.8-45.7
								C194.6,134,199,129,199,123v-13C199,105.4,196.4,101.3,192.5,99.3z M190.2,98.4c-0.4-0.1-0.8-0.2-1.2-0.3v-0.2
								C189.4,98.1,189.8,98.3,190.2,98.4z M83,155.2c5.6,11.1,14.8,20,26,25.4V199h-4c-7.7,0-15.1,1.2-22,3.4V155.2z"/>
							<g transform="translate(62.000000, 85.000000)">
								<g id="Wayfarers" transform="translate(6.000000, 7.000000)">
									<path id="Left" class="st29" d="M34,41h-2.8C17.3,41,9,33.3,9,20.5C9,10.1,10.8,0,32.5,0h2.9C57.2,0,59,10.1,59,20.5
										C59,32.6,48.7,41,34,41z M32.4,6C13,6,13,12.8,13,21.5C13,28.6,16.1,37,31,37h3c12.4,0,21-6.4,21-15.5C55,12.8,55,6,35.6,6
										H32.4z"/>
									<path id="Right" class="st29" d="M96,41h-2.8C79.3,41,71,33.3,71,20.5C71,10.1,72.8,0,94.5,0h2.9
										C119.2,0,121,10.1,121,20.5C121,32.6,110.7,41,96,41z M94.4,6C75,6,75,12.8,75,21.5C75,28.6,78.1,37,93,37h3
										c12.4,0,21-6.4,21-15.5C117,12.8,117,6,97.6,6H94.4z"/>
									<path id="Stuff" class="st29" d="M3,5.8C3.6,5.1,11.2,0,32.5,0c17.9,0,21.6,1.9,27.4,4.7l0.4,0.2c0.4,0.1,2.4,0.8,4.8,0.9
										c2.2-0.1,4-0.7,4.6-0.9C76.2,1.7,82.6,0,97.5,0c21.3,0,28.9,5.1,29.5,5.8c1.6,0,3,1.3,3,2.9v2.9c0,1.6-1.3,2.9-3,2.9
										c0,0-6.9,0-6.9,2.9s-2-4.2-2-5.8V8.7c-3.6-1.4-10.1-3.9-20.7-3.9C85.7,4.8,79.8,6.9,74.7,9l0.1,0.1l0,2l-2.2,5.3l-2.7-1.1
										c-0.2-0.1-0.8-0.3-1.5-0.5c-2-0.5-4.1-0.7-6-0.3c-0.7,0.1-1.3,0.3-1.9,0.6l-2.6,1.3l-2.6-5.2l0.1-2.3l0.1-0.2
										c-4.4-2-8.4-4.1-22.8-4.1c-10.6,0-17.1,2.6-20.7,3.9v2.8c0,1.6-3,8.7-3,5.8S3,14.4,3,14.4c-1.6,0-3-1.3-3-2.9V8.7
										C0,7.1,1.3,5.8,3,5.8z"/>
								</g>
							</g>
						</g>
					</g>
				</g>
			</g>
		</g>
	</g>
</g>
</svg>
