<?xml version="1.0" encoding="utf-8"?>
<!-- Generator: Adobe Illustrator 23.0.1, SVG Export Plug-In . SVG Version: 6.00 Build 0)  -->
<svg version="1.1" id="Layer_1" xmlns="http://www.w3.org/2000/svg" xmlns:xlink="http://www.w3.org/1999/xlink" x="0px" y="0px"
	 viewBox="0 0 264 280" style="enable-background:new 0 0 264 280;" xml:space="preserve">
<style type="text/css">
	.st0{fill-rule:evenodd;clip-rule:evenodd;fill:#E6E6E6;}
	.st1{filter:url(#Adobe_OpacityMaskFilter);}
	.st2{fill-rule:evenodd;clip-rule:evenodd;fill:#FFFFFF;}
	.st3{mask:url(#mask-2_1_);}
	.st4{fill-rule:evenodd;clip-rule:evenodd;fill:#F2F5FC;}
	.st5{filter:url(#Adobe_OpacityMaskFilter_1_);}
	.st6{mask:url(#mask-4_1_);}
	.st7{fill-rule:evenodd;clip-rule:evenodd;fill:#D0C6AC;}
	.st8{filter:url(#Adobe_OpacityMaskFilter_2_);}
	.st9{mask:url(#mask-6_1_);}
	.st10{fill-rule:evenodd;clip-rule:evenodd;fill:#FFDBB4;}
	.st11{filter:url(#Adobe_OpacityMaskFilter_3_);}
	.st12{mask:url(#mask-6_2_);fill-rule:evenodd;clip-rule:evenodd;fill-opacity:0.1;}
	.st13{filter:url(#Adobe_OpacityMaskFilter_4_);}
	.st14{mask:url(#react-mask-597_1_);}
	.st15{fill-rule:evenodd;clip-rule:evenodd;fill:#FFAFB9;}
	.st16{filter:url(#Adobe_OpacityMaskFilter_5_);}
	.st17{mask:url(#react-mask-597_2_);}
	.st18{fill-rule:evenodd;clip-rule:evenodd;fill-opacity:0.7;}
	.st19{fill-rule:evenodd;clip-rule:evenodd;fill-opacity:0.16;}
	.st20{fill-rule:evenodd;clip-rule:evenodd;fill-opacity:0.6;}
	.st21{fill-opacity:0.6;}
	.st22{filter:url(#Adobe_OpacityMaskFilter_6_);}
	.st23{mask:url(#react-mask-842_1_);}
	.st24{fill-rule:evenodd;clip-rule:evenodd;fill:#944F23;}
	.st25{filter:url(#Adobe_OpacityMaskFilter_7_);}
	.st26{mask:url(#react-mask-843_1_);}
	.st27{fill-rule:evenodd;clip-rule:evenodd;fill:#4A312C;}
	.st28{opacity:0.44;}
	.st29{fill-rule:evenodd;clip-rule:evenodd;fill:#FFFFFF;fill-opacity:0.16;}
	.st30{fill-rule:evenodd;clip-rule:evenodd;}
	.st31{fill-rule:evenodd;clip-rule:evenodd;fill:#252C2F;}
</style>
<desc>Created with getavataaars.com</desc>
<g>
	<g transform="translate(-825.000000, -1100.000000)">
		<g transform="translate(825.000000, 1100.000000)">
			<g id="Circle" transform="translate(12.000000, 40.000000)">
				<g id="Circle-Background">
					<circle class="st0" cx="120" cy="120" r="120"/>
				</g>
				<defs>
					<filter id="Adobe_OpacityMaskFilter" filterUnits="userSpaceOnUse" x="0" y="0" width="240" height="240">
						<feColorMatrix  type="matrix" values="1 0 0 0 0  0 1 0 0 0  0 0 1 0 0  0 0 0 1 0"/>
					</filter>
				</defs>
				<mask maskUnits="userSpaceOnUse" x="0" y="0" width="240" height="240" id="mask-2_1_">
					<g class="st1">
						<circle id="path-1_1_" class="st2" cx="120" cy="120" r="120"/>
					</g>
				</mask>
				<g class="st3">
					<rect class="st4" width="240" height="240"/>
				</g>
			</g>
			<g id="Mask">
			</g>
			<defs>
				<filter id="Adobe_OpacityMaskFilter_1_" filterUnits="userSpaceOnUse" x="-1" y="0" width="265" height="280">
					<feColorMatrix  type="matrix" values="1 0 0 0 0  0 1 0 0 0  0 0 1 0 0  0 0 0 1 0"/>
				</filter>
			</defs>
			<mask maskUnits="userSpaceOnUse" x="-1" y="0" width="265" height="280" id="mask-4_1_">
				<g class="st5">
					<path id="path-3_1_" class="st2" d="M12,160c0,66.3,53.7,120,120,120s120-53.7,120-120h12V0H0v160H12z"/>
				</g>
			</mask>
			<g id="Avataaar" class="st6">
				<g id="Body" transform="translate(32.000000, 36.000000)">
					<g>
						<path class="st7" d="M124,144.6V163h4l0,0c39.8,0,72,32.2,72,72v9H0v-9c0-39.8,32.2-72,72-72l0,0h4v-18.4
							c-17.2-8.2-29.6-24.9-31.7-44.7C38.5,99.1,34,94.1,34,88V74c0-5.9,4.3-10.9,10-11.8V56l0,0c0-30.9,25.1-56,56-56l0,0l0,0
							c30.9,0,56,25.1,56,56v6.2c5.7,1,10,5.9,10,11.8v14c0,6.1-4.5,11.1-10.3,11.9C153.6,119.7,141.2,136.4,124,144.6z"/>
					</g>
					<defs>
						<filter id="Adobe_OpacityMaskFilter_2_" filterUnits="userSpaceOnUse" x="-32" y="0" width="264" height="244">
							<feColorMatrix  type="matrix" values="1 0 0 0 0  0 1 0 0 0  0 0 1 0 0  0 0 0 1 0"/>
						</filter>
					</defs>
					<mask maskUnits="userSpaceOnUse" x="-32" y="0" width="264" height="244" id="mask-6_1_">
						<g class="st8">
							<path id="path-5_1_" class="st2" d="M124,144.6V163h4l0,0c39.8,0,72,32.2,72,72v9H0v-9c0-39.8,32.2-72,72-72l0,0h4v-18.4
								c-17.2-8.2-29.6-24.9-31.7-44.7C38.5,99.1,34,94.1,34,88V74c0-5.9,4.3-10.9,10-11.8V56l0,0c0-30.9,25.1-56,56-56l0,0l0,0
								c30.9,0,56,25.1,56,56v6.2c5.7,1,10,5.9,10,11.8v14c0,6.1-4.5,11.1-10.3,11.9C153.6,119.7,141.2,136.4,124,144.6z"/>
						</g>
					</mask>
					<g class="st9">
						<g id="Color" transform="translate(-32.000000, 0.000000)">
							<rect class="st10" width="264" height="244"/>
						</g>
					</g>
					<defs>
						<filter id="Adobe_OpacityMaskFilter_3_" filterUnits="userSpaceOnUse" x="44" y="79" width="112" height="79">
							<feColorMatrix  type="matrix" values="1 0 0 0 0  0 1 0 0 0  0 0 1 0 0  0 0 0 1 0"/>
						</filter>
					</defs>
					<mask maskUnits="userSpaceOnUse" x="44" y="79" width="112" height="79" id="mask-6_2_">
						<g class="st11">
							<path id="path-5_2_" class="st2" d="M124,144.6V163h4l0,0c39.8,0,72,32.2,72,72v9H0v-9c0-39.8,32.2-72,72-72l0,0h4v-18.4
								c-17.2-8.2-29.6-24.9-31.7-44.7C38.5,99.1,34,94.1,34,88V74c0-5.9,4.3-10.9,10-11.8V56l0,0c0-30.9,25.1-56,56-56l0,0l0,0
								c30.9,0,56,25.1,56,56v6.2c5.7,1,10,5.9,10,11.8v14c0,6.1-4.5,11.1-10.3,11.9C153.6,119.7,141.2,136.4,124,144.6z"/>
						</g>
					</mask>
					<path id="Neck-Shadow" class="st12" d="M156,79v23c0,30.9-25.1,56-56,56s-56-25.1-56-56V79v15c0,30.9,25.1,56,56,56
						s56-25.1,56-56V79z"/>
				</g>
				<g transform="translate(0.000000, 170.000000)">
					<g id="Clothes">
						<path class="st0" d="M165.6,29.3c37.1,2.9,66.4,33.9,66.4,71.8v8.9H32v-8.9c0-38.2,29.8-69.5,67.4-71.9
							c-0.3,1.1-0.4,2.2-0.4,3.3C99,44.4,114,54,132.5,54S166,44.4,166,32.5C166,31.4,165.9,30.3,165.6,29.3L165.6,29.3z"/>
					</g>
					<defs>
						<filter id="Adobe_OpacityMaskFilter_4_" filterUnits="userSpaceOnUse" x="0" y="0" width="264" height="110">
							<feColorMatrix  type="matrix" values="1 0 0 0 0  0 1 0 0 0  0 0 1 0 0  0 0 0 1 0"/>
						</filter>
					</defs>
					<mask maskUnits="userSpaceOnUse" x="0" y="0" width="264" height="110" id="react-mask-597_1_">
						<g class="st13">
							<path id="react-path-596_1_" class="st2" d="M165.6,29.3c37.1,2.9,66.4,33.9,66.4,71.8v8.9H32v-8.9
								c0-38.2,29.8-69.5,67.4-71.9c-0.3,1.1-0.4,2.2-0.4,3.3C99,44.4,114,54,132.5,54S166,44.4,166,32.5
								C166,31.4,165.9,30.3,165.6,29.3L165.6,29.3z"/>
						</g>
					</mask>
					<g class="st14">
						<rect class="st15" width="264" height="110"/>
					</g>
					<defs>
						<filter id="Adobe_OpacityMaskFilter_5_" filterUnits="userSpaceOnUse" x="94" y="58" width="76" height="44">
							<feColorMatrix  type="matrix" values="1 0 0 0 0  0 1 0 0 0  0 0 1 0 0  0 0 0 1 0"/>
						</filter>
					</defs>
					<mask maskUnits="userSpaceOnUse" x="94" y="58" width="76" height="44" id="react-mask-597_2_">
						<g class="st16">
							<path id="react-path-596_2_" class="st2" d="M165.6,29.3c37.1,2.9,66.4,33.9,66.4,71.8v8.9H32v-8.9
								c0-38.2,29.8-69.5,67.4-71.9c-0.3,1.1-0.4,2.2-0.4,3.3C99,44.4,114,54,132.5,54S166,44.4,166,32.5
								C166,31.4,165.9,30.3,165.6,29.3L165.6,29.3z"/>
						</g>
					</mask>
					<g class="st17">
						<g id="Selena" transform="translate(77.000000, 58.000000)">
							<g transform="translate(17.000000, 0.000000)">
								<path id="Bom-Bom" class="st2" d="M65.3,7.6c-0.2,0.9-1.9,5.1-3.2,3c-0.5-0.8,0.4-3.5,0.7-4.2c0.6-1.5,1-1.6,2.3-2.3
									C65.1,5.2,65.4,6.4,65.3,7.6 M62.3,10.9C62.3,10.9,62.5,11,62.3,10.9 M62.3,10.9C62.3,10.9,62.3,10.9,62.3,10.9 M55,6.2
									C55,6.2,55.1,6.2,55,6.2 M42.6,11.2c-0.2,1.2-0.5,2.4-0.9,3.6c-0.2-1.7,0.1-3.5,1-5C42.6,10.3,42.6,10.7,42.6,11.2
									 M42.5,8.7C42.5,8.6,42.4,8.4,42.5,8.7 M25.9,18.8c0.2-1.5,0.8-3,1.9-4C27.5,16.4,26.7,17.4,25.9,18.8 M75.8,5.3
									c0,0.6-2.1,2.3-2.6,2.8c-0.9,0.8-1.8,1.4-3.1,1.3c-3.5-0.5-2.1-4.2-2.6-6.5c-0.4-1.8-0.9-1.1-2.1-1.2
									c-1.1-0.1-1.5-0.7-2.7,0.2c-2.1,1.5-3.8,3.5-4.7,6c-0.3-1.7-1.2-4.5-3.5-4.1C53,4,51.7,6.6,51,8c-0.1-1.2-0.7-3.1-2.2-2.2
									c-1,0.6-1,3.4-1.2,4.4c-0.5,2.1-1.4,7.6-4.6,6.9c1-1.9,3.3-8,1.3-9.9c-2.7-2.8-4.8,4.2-4.9,5.8c-0.1,1.2,0.8,3.9,0.3,4.7
									c-0.6,0.9-2.4,1.3-3.3,0.6c-1.4-1.1-0.9-2.8-0.5-4.2c0.4-1.8,0.6-3.6,0.7-5.4c0.1-1.4,1.3-7.5-1-7.6
									c-2.1-0.1-2.3,5.1-2.5,6.6c-0.2,1.8-0.3,3.5-0.2,5.3c0.1,1.8,0.4,3-0.3,4.6c-0.7,1.8-4.3,7.2-6.4,3.6c2.2-1,4.9-5.5,3.7-8.1
									c-1.7-3.5-5.4,1.9-6,3.7c-0.9,2.9-0.5,6.7,2.9,7.7c3.5,1,6.2-2.3,7.4-5.2c1,1.6,2.8,2,4.5,1.5c0.7-0.2,1.3-0.5,1.9-0.9
									c1.1-0.8,0.4-0.5,1.6-0.5c3.3-0.1,5.1-1.2,6.3-4.5c0,0.9,0.3,2.4,1.6,1.8c1-0.4,1-2,1.1-2.9c0.6-2.7,1.5-5.5,3.6-7.4
									c1.8,2,0.5,5.4,1.7,7.6c1.9,3.3,2.8-2.5,3.1-3.7c0.1,4.9,5.9,3.1,7.1-0.2C70.2,13.5,77.1,10.3,75.8,5.3"/>
								<path id="Bidi" class="st2" d="M69.4,15.3c-3.6,0-7.6,1-11.1,1.8c-3.5,0.8-7.1,1.8-10.5,3c-3.9,1.3-7.8,2.6-11.6,4.1
									c-3.3,1.4-7.5,2.4-9.5,5.4c0,0,2.1-0.1,2.3-0.1c1-0.2,2-0.5,2.9-1c1.7-0.7,3.5-1.5,5.2-2.3c3.9-1.7,8-3.1,12-4.6
									c4-1.5,8.1-2.7,12.3-3.6c3.4-0.8,7.2-0.9,10.3-2.3c-0.1,0,0,0,0.2-0.1C71.8,15.8,69.7,15.3,69.4,15.3"/>
								<path class="st2" d="M22.1,20.8c-2.3-1-5.5-0.6-7.8-0.2c-2.1,0.3-5.5,0.9-6.8,1.1c-1.1,0.1-4.4,1-5-0.2
									c-0.6-1.3,2.7-5.4,3.5-6.4C9.2,10.8,13.2,6,18,3.2c-0.4,2-0.8,3.9-1.2,5.9c-0.2,0.8-0.9,5.2,0.5,5.5c0.6,0.1,1.8-2.8,1.9-3
									c0.8-2.2,1-4.7,1.4-7c0.2-1.3,1.2-4.1-0.7-4.5c-1.6-0.4-3.8,1.7-4.9,2.6c-3.3,2.7-6.1,5.9-8.8,9.2c-1.3,1.6-2.6,3.2-3.7,5
									c-0.9,1.5-3.1,4.5-2.1,6.3c1.7,3.2,9.8,0.4,12.4,0c2-0.3,4.2-0.7,6.2-0.4c2.2,0.3,2.1,1.3,1.3,3.2c-1.5,4-4.8,7.4-7.7,10.3
									c-1.3,1.3-6.4,7.4-7.7,4.1c-0.9-2.3-0.1-5,0.9-7.1c0.5-1,1.1-1.9,1.6-2.8C7.5,30.2,8.1,28,8.3,28c-3.9,1.4-6.1,6.6-6.3,10.3
									c-0.1,1.7,0.1,4.3,1.8,5.4c1.7,1,3.2-0.2,4.5-1.2c3.6-2.6,6.9-6,9.9-9.3C19.8,31.3,26.6,22.8,22.1,20.8"/>
							</g>
						</g>
					</g>
				</g>
				<g id="Face" transform="translate(76.000000, 82.000000)">
					<g transform="translate(2.000000, 52.000000)">
						<path id="Mouth" class="st18" d="M40,15c0,7.7,6.3,14,14,14l0,0c7.7,0,14-6.3,14-14"/>
					</g>
					<g transform="translate(28.000000, 40.000000)">
						<path id="Nose" class="st19" d="M16,8c0,4.4,5.4,8,12,8l0,0c6.6,0,12-3.6,12-8"/>
					</g>
					<g transform="translate(0.000000, 8.000000)">
						<circle id="Eye" class="st20" cx="30" cy="22" r="6"/>
						<circle class="st20" cx="82" cy="22" r="6"/>
					</g>
					<g>
						<g id="I-Browse" transform="translate(12.000000, 6.000000)">
							<path id="Eyebrow" class="st21" d="M3.6,11.2c3.9-5.5,14.6-8.6,23.9-6.3c1.1,0.3,2.2-0.4,2.4-1.5c0.3-1.1-0.4-2.2-1.5-2.4
								C17.7-1.7,5.3,1.9,0.4,8.8c-0.6,0.9-0.4,2.1,0.5,2.8S3,12.1,3.6,11.2z"/>
							<path class="st21" d="M84.4,11.2c-3.9-5.5-14.6-8.6-23.9-6.3c-1.1,0.3-2.2-0.4-2.4-1.5s0.4-2.2,1.5-2.4
								c10.7-2.6,23.2,0.9,28.1,7.9c0.6,0.9,0.4,2.1-0.5,2.8S85,12.1,84.4,11.2z"/>
						</g>
					</g>
				</g>
				<g>
					<defs>
						<filter id="Adobe_OpacityMaskFilter_6_" filterUnits="userSpaceOnUse" x="-1" y="0" width="264" height="280">
							<feColorMatrix  type="matrix" values="1 0 0 0 0  0 1 0 0 0  0 0 1 0 0  0 0 0 1 0"/>
						</filter>
					</defs>
					<mask maskUnits="userSpaceOnUse" x="-1" y="0" width="264" height="280" id="react-mask-842_1_">
						<g class="st22">
							<rect id="react-path-844_1_" class="st2" width="264" height="280"/>
						</g>
					</mask>
					<g class="st23">
						<g transform="translate(-1.000000, 0.000000)">
							<g id="Behind">
								<g id="Combined-Shape">
									<path class="st24" d="M59,102.3c0,16.6,0,43.1,0,79.7c0,4.4,3.6,8,8,8h42v-9.4c-17.5-8.3-30-25.5-31.8-45.7
										C71.4,134,67,129,67,123v-13c0-3.5,1.5-6.6,3.9-8.8c11.5-2.6,24.1-7.5,36.5-14.7c12.1-7,22.5-15.2,30.5-23.7
										c-3.4,7.9-7.6,14.8-12.4,20.8c12.7-5.5,21.3-14.4,25.9-26.6c0.4,0.9,0.8,1.8,1.2,2.8c10.3,23,27.9,39.4,45.8,44.7
										c0.5,2.1,0.8,4.1,0.8,5.6v13c0,6-4.4,11-10.2,11.9c-1.7,20.2-14.3,37.4-31.8,45.7v9.4h18c17.7,0,32-14.3,32-32
										c0-24.1,0-42.1,0-54.1c0-0.1,0-0.2,0-0.3c-0.1-12.3-0.3-19.4-0.6-21.4C201.6,46,170.6,18,133,18c-36.1,0-66.1,25.8-73,60
										c-5.5,0-10,5.6-10,12.5c0,4.6,1.7,8.6,4.9,10.8C55.8,101.9,57.3,102.2,59,102.3z"/>
								</g>
								<defs>
									<filter id="Adobe_OpacityMaskFilter_7_" filterUnits="userSpaceOnUse" x="0" y="0" width="264" height="280">
										<feColorMatrix  type="matrix" values="1 0 0 0 0  0 1 0 0 0  0 0 1 0 0  0 0 0 1 0"/>
									</filter>
								</defs>
								<mask maskUnits="userSpaceOnUse" x="0" y="0" width="264" height="280" id="react-mask-843_1_">
									<g class="st25">
										<path id="react-path-845_1_" class="st2" d="M59,102.3c0,16.6,0,43.1,0,79.7c0,4.4,3.6,8,8,8h42v-9.4
											c-17.5-8.3-30-25.5-31.8-45.7C71.4,134,67,129,67,123v-13c0-3.5,1.5-6.6,3.9-8.8c11.5-2.6,24.1-7.5,36.5-14.7
											c12.1-7,22.5-15.2,30.5-23.7c-3.4,7.9-7.6,14.8-12.4,20.8c12.7-5.5,21.3-14.4,25.9-26.6c0.4,0.9,0.8,1.8,1.2,2.8
											c10.3,23,27.9,39.4,45.8,44.7c0.5,2.1,0.8,4.1,0.8,5.6v13c0,6-4.4,11-10.2,11.9c-1.7,20.2-14.3,37.4-31.8,45.7v9.4h18
											c17.7,0,32-14.3,32-32c0-24.1,0-42.1,0-54.1c0-0.1,0-0.2,0-0.3c-0.1-12.3-0.3-19.4-0.6-21.4C201.6,46,170.6,18,133,18
											c-36.1,0-66.1,25.8-73,60c-5.5,0-10,5.6-10,12.5c0,4.6,1.7,8.6,4.9,10.8C55.8,101.9,57.3,102.2,59,102.3z"/>
									</g>
								</mask>
								<g class="st26">
									<g transform="translate(0.000000, 0.000000) ">
										<rect class="st27" width="264" height="280"/>
									</g>
								</g>
							</g>
							<g id="Top" transform="translate(50.000000, 18.000000)" class="st28">
								<path class="st29" d="M11.9,84.8c13.8-1.8,29.8-7.2,45.4-16.3c12.1-7,22.5-15.2,30.5-23.7c-3.4,7.9-7.6,14.8-12.4,20.8
									C88,60,96.7,51.1,101.3,38.9c0.4,0.9,0.8,1.8,1.2,2.8c11.9,26.8,33.9,44.5,54.6,46.5l0,0V74c0-40.9-33.1-74-74-74
									C46.9,0,16.9,25.8,10.3,60c-0.1,0-0.2,0-0.3,0C4.5,60,0,65.6,0,72.5C0,79,3.9,84.3,9,84.9v0.2c0.3,0,0.6-0.1,1-0.1
									c0,0,0,0,0,0C10.6,85,11.3,84.9,11.9,84.8z"/>
							</g>
							<g transform="translate(62.000000, 85.000000)">
								<g id="Lennon-Glasses">
									<g>
										<path id="react-path-846" class="st30" d="M80.5,16.4C84.4,8.5,92.6,3,102,3c8.9,0,16.7,4.9,20.8,12.1
											c0.2-0.1,0.4-0.1,0.7-0.1h8c1.4,0,2.5,1.1,2.5,2.5s-1.1,2.5-2.5,2.5H125c0.7,2.2,1,4.6,1,7c0,13.3-10.7,24-24,24
											S78,40.3,78,27c0-1.4,0.1-2.8,0.4-4.2c-0.1-4.4-3.4-7.8-7.5-7.8c-3.7,0-6.9,2.9-7.4,6.8c0.4,1.7,0.6,3.4,0.6,5.2
											c0,13.3-10.7,24-24,24S16,40.3,16,27c0-2.4,0.4-4.8,1-7h-6.5C9.1,20,8,18.9,8,17.5S9.1,15,10.5,15l0,0h8
											c0.2,0,0.4,0,0.7,0.1C23.3,7.9,31.1,3,40,3c9.4,0,17.5,5.3,21.4,13.2c2.1-3.1,5.5-5.2,9.4-5.2
											C74.9,11,78.4,13.1,80.5,16.4z M40,47c11,0,20-9,20-20S51,7,40,7s-20,9-20,20S29,47,40,47z M102,47c11,0,20-9,20-20
											s-9-20-20-20s-20,9-20,20S91,47,102,47z"/>
									</g>
									<g>
										<path class="st31" d="M80.5,16.4C84.4,8.5,92.6,3,102,3c8.9,0,16.7,4.9,20.8,12.1c0.2-0.1,0.4-0.1,0.7-0.1h8
											c1.4,0,2.5,1.1,2.5,2.5s-1.1,2.5-2.5,2.5H125c0.7,2.2,1,4.6,1,7c0,13.3-10.7,24-24,24S78,40.3,78,27
											c0-1.4,0.1-2.8,0.4-4.2c-0.1-4.4-3.4-7.8-7.5-7.8c-3.7,0-6.9,2.9-7.4,6.8c0.4,1.7,0.6,3.4,0.6,5.2c0,13.3-10.7,24-24,24
											S16,40.3,16,27c0-2.4,0.4-4.8,1-7h-6.5C9.1,20,8,18.9,8,17.5S9.1,15,10.5,15l0,0h8c0.2,0,0.4,0,0.7,0.1
											C23.3,7.9,31.1,3,40,3c9.4,0,17.5,5.3,21.4,13.2c2.1-3.1,5.5-5.2,9.4-5.2C74.9,11,78.4,13.1,80.5,16.4z M40,47
											c11,0,20-9,20-20S51,7,40,7s-20,9-20,20S29,47,40,47z M102,47c11,0,20-9,20-20s-9-20-20-20s-20,9-20,20S91,47,102,47z"/>
									</g>
								</g>
							</g>
						</g>
					</g>
				</g>
			</g>
		</g>
	</g>
</g>
</svg>
