<?xml version="1.0" encoding="utf-8"?>
<!-- Generator: Adobe Illustrator 23.0.1, SVG Export Plug-In . SVG Version: 6.00 Build 0)  -->
<svg version="1.1" id="Layer_1" xmlns="http://www.w3.org/2000/svg" xmlns:xlink="http://www.w3.org/1999/xlink" x="0px" y="0px"
	 viewBox="0 0 264 280" style="enable-background:new 0 0 264 280;" xml:space="preserve">
<style type="text/css">
	.st0{fill-rule:evenodd;clip-rule:evenodd;fill:#E6E6E6;}
	.st1{filter:url(#Adobe_OpacityMaskFilter);}
	.st2{fill-rule:evenodd;clip-rule:evenodd;fill:#FFFFFF;}
	.st3{mask:url(#mask-2_1_);}
	.st4{fill-rule:evenodd;clip-rule:evenodd;fill:#F2F5FC;}
	.st5{filter:url(#Adobe_OpacityMaskFilter_1_);}
	.st6{mask:url(#mask-4_1_);}
	.st7{fill-rule:evenodd;clip-rule:evenodd;fill:#D0C6AC;}
	.st8{filter:url(#Adobe_OpacityMaskFilter_2_);}
	.st9{mask:url(#mask-6_1_);}
	.st10{fill-rule:evenodd;clip-rule:evenodd;fill:#AE5D29;}
	.st11{filter:url(#Adobe_OpacityMaskFilter_3_);}
	.st12{mask:url(#mask-6_2_);fill-rule:evenodd;clip-rule:evenodd;fill-opacity:0.1;}
	.st13{filter:url(#Adobe_OpacityMaskFilter_4_);}
	.st14{mask:url(#react-mask-597_1_);}
	.st15{fill-rule:evenodd;clip-rule:evenodd;fill:#FFAFB9;}
	.st16{filter:url(#Adobe_OpacityMaskFilter_5_);}
	.st17{mask:url(#react-mask-597_2_);}
	.st18{fill-rule:evenodd;clip-rule:evenodd;fill-opacity:0.7;}
	.st19{fill-rule:evenodd;clip-rule:evenodd;fill-opacity:0.16;}
	.st20{fill-rule:evenodd;clip-rule:evenodd;fill-opacity:0.6;}
	.st21{fill-opacity:0.6;}
	.st22{filter:url(#Adobe_OpacityMaskFilter_6_);}
	.st23{mask:url(#react-mask-802_1_);}
	.st24{fill-rule:evenodd;clip-rule:evenodd;fill:#28354B;}
	.st25{filter:url(#Adobe_OpacityMaskFilter_7_);}
	.st26{mask:url(#react-mask-803_1_);}
	.st27{fill-rule:evenodd;clip-rule:evenodd;fill:#4A312C;}
	.st28{fill-rule:evenodd;clip-rule:evenodd;}
	.st29{fill-rule:evenodd;clip-rule:evenodd;fill:#252C2F;}
</style>
<desc>Created with getavataaars.com</desc>
<g>
	<g transform="translate(-825.000000, -1100.000000)">
		<g transform="translate(825.000000, 1100.000000)">
			<g id="Circle" transform="translate(12.000000, 40.000000)">
				<g id="Circle-Background">
					<circle class="st0" cx="120" cy="120" r="120"/>
				</g>
				<defs>
					<filter id="Adobe_OpacityMaskFilter" filterUnits="userSpaceOnUse" x="0" y="0" width="240" height="240">
						<feColorMatrix  type="matrix" values="1 0 0 0 0  0 1 0 0 0  0 0 1 0 0  0 0 0 1 0"/>
					</filter>
				</defs>
				<mask maskUnits="userSpaceOnUse" x="0" y="0" width="240" height="240" id="mask-2_1_">
					<g class="st1">
						<circle id="path-1_1_" class="st2" cx="120" cy="120" r="120"/>
					</g>
				</mask>
				<g class="st3">
					<rect class="st4" width="240" height="240"/>
				</g>
			</g>
			<g id="Mask">
			</g>
			<defs>
				<filter id="Adobe_OpacityMaskFilter_1_" filterUnits="userSpaceOnUse" x="0" y="34" width="338" height="280">
					<feColorMatrix  type="matrix" values="1 0 0 0 0  0 1 0 0 0  0 0 1 0 0  0 0 0 1 0"/>
				</filter>
			</defs>
			<mask maskUnits="userSpaceOnUse" x="0" y="34" width="338" height="280" id="mask-4_1_">
				<g class="st5">
					<path id="path-3_1_" class="st2" d="M12,160c0,66.3,53.7,120,120,120s120-53.7,120-120h12V0H0v160H12z"/>
				</g>
			</mask>
			<g id="Avataaar" class="st6">
				<g id="Body" transform="translate(32.000000, 36.000000)">
					<g>
						<path class="st7" d="M124,144.6V163h4l0,0c39.8,0,72,32.2,72,72v9H0v-9c0-39.8,32.2-72,72-72l0,0h4v-18.4
							c-17.2-8.2-29.6-24.9-31.7-44.7C38.5,99.1,34,94.1,34,88V74c0-5.9,4.3-10.9,10-11.8V56l0,0c0-30.9,25.1-56,56-56l0,0l0,0
							c30.9,0,56,25.1,56,56v6.2c5.7,1,10,5.9,10,11.8v14c0,6.1-4.5,11.1-10.3,11.9C153.6,119.7,141.2,136.4,124,144.6z"/>
					</g>
					<defs>
						<filter id="Adobe_OpacityMaskFilter_2_" filterUnits="userSpaceOnUse" x="-32" y="0" width="264" height="244">
							<feColorMatrix  type="matrix" values="1 0 0 0 0  0 1 0 0 0  0 0 1 0 0  0 0 0 1 0"/>
						</filter>
					</defs>
					<mask maskUnits="userSpaceOnUse" x="-32" y="0" width="264" height="244" id="mask-6_1_">
						<g class="st8">
							<path id="path-5_1_" class="st2" d="M124,144.6V163h4l0,0c39.8,0,72,32.2,72,72v9H0v-9c0-39.8,32.2-72,72-72l0,0h4v-18.4
								c-17.2-8.2-29.6-24.9-31.7-44.7C38.5,99.1,34,94.1,34,88V74c0-5.9,4.3-10.9,10-11.8V56l0,0c0-30.9,25.1-56,56-56l0,0l0,0
								c30.9,0,56,25.1,56,56v6.2c5.7,1,10,5.9,10,11.8v14c0,6.1-4.5,11.1-10.3,11.9C153.6,119.7,141.2,136.4,124,144.6z"/>
						</g>
					</mask>
					<g class="st9">
						<g id="Color" transform="translate(-32.000000, 0.000000)">
							<rect class="st10" width="264" height="244"/>
						</g>
					</g>
					<defs>
						<filter id="Adobe_OpacityMaskFilter_3_" filterUnits="userSpaceOnUse" x="44" y="79" width="112" height="79">
							<feColorMatrix  type="matrix" values="1 0 0 0 0  0 1 0 0 0  0 0 1 0 0  0 0 0 1 0"/>
						</filter>
					</defs>
					<mask maskUnits="userSpaceOnUse" x="44" y="79" width="112" height="79" id="mask-6_2_">
						<g class="st11">
							<path id="path-5_2_" class="st2" d="M124,144.6V163h4l0,0c39.8,0,72,32.2,72,72v9H0v-9c0-39.8,32.2-72,72-72l0,0h4v-18.4
								c-17.2-8.2-29.6-24.9-31.7-44.7C38.5,99.1,34,94.1,34,88V74c0-5.9,4.3-10.9,10-11.8V56l0,0c0-30.9,25.1-56,56-56l0,0l0,0
								c30.9,0,56,25.1,56,56v6.2c5.7,1,10,5.9,10,11.8v14c0,6.1-4.5,11.1-10.3,11.9C153.6,119.7,141.2,136.4,124,144.6z"/>
						</g>
					</mask>
					<path id="Neck-Shadow" class="st12" d="M156,79v23c0,30.9-25.1,56-56,56s-56-25.1-56-56V79v15c0,30.9,25.1,56,56,56
						s56-25.1,56-56V79z"/>
				</g>
				<g transform="translate(0.000000, 170.000000)">
					<g id="Clothes">
						<path class="st0" d="M165.6,29.3c37.1,2.9,66.4,33.9,66.4,71.8v8.9H32v-8.9c0-38.2,29.8-69.5,67.4-71.9
							c-0.3,1.1-0.4,2.2-0.4,3.3C99,44.4,114,54,132.5,54S166,44.4,166,32.5C166,31.4,165.9,30.3,165.6,29.3L165.6,29.3z"/>
					</g>
					<defs>
						<filter id="Adobe_OpacityMaskFilter_4_" filterUnits="userSpaceOnUse" x="0" y="0" width="264" height="110">
							<feColorMatrix  type="matrix" values="1 0 0 0 0  0 1 0 0 0  0 0 1 0 0  0 0 0 1 0"/>
						</filter>
					</defs>
					<mask maskUnits="userSpaceOnUse" x="0" y="0" width="264" height="110" id="react-mask-597_1_">
						<g class="st13">
							<path id="react-path-596_1_" class="st2" d="M165.6,29.3c37.1,2.9,66.4,33.9,66.4,71.8v8.9H32v-8.9
								c0-38.2,29.8-69.5,67.4-71.9c-0.3,1.1-0.4,2.2-0.4,3.3C99,44.4,114,54,132.5,54S166,44.4,166,32.5
								C166,31.4,165.9,30.3,165.6,29.3L165.6,29.3z"/>
						</g>
					</mask>
					<g class="st14">
						<rect class="st15" width="264" height="110"/>
					</g>
					<defs>
						<filter id="Adobe_OpacityMaskFilter_5_" filterUnits="userSpaceOnUse" x="106" y="60" width="49" height="41">
							<feColorMatrix  type="matrix" values="1 0 0 0 0  0 1 0 0 0  0 0 1 0 0  0 0 0 1 0"/>
						</filter>
					</defs>
					<mask maskUnits="userSpaceOnUse" x="106" y="60" width="49" height="41" id="react-mask-597_2_">
						<g class="st16">
							<path id="react-path-596_2_" class="st2" d="M165.6,29.3c37.1,2.9,66.4,33.9,66.4,71.8v8.9H32v-8.9
								c0-38.2,29.8-69.5,67.4-71.9c-0.3,1.1-0.4,2.2-0.4,3.3C99,44.4,114,54,132.5,54S166,44.4,166,32.5
								C166,31.4,165.9,30.3,165.6,29.3L165.6,29.3z"/>
						</g>
					</mask>
					<g class="st17">
						<g id="Diamond" transform="translate(77.000000, 58.000000)">
							<g transform="translate(29.000000, 2.000000)">
								<path id="Fill-21" class="st2" d="M34.8,27.7c-2.4,2.7-4.9,5.2-7.3,7.8c1-3.6,1.7-7.6,3.2-11c0.4-1,0.1-1.1,0.9-1.5
									c0.6-0.3,2.1,0,2.8,0.1c1.6,0,3.2,0.2,4.7,0C37.6,24.6,36.2,26.2,34.8,27.7 M19.5,31.8c-2.7-3.3-5.4-6.6-8.7-9.3
									c1.3,0.1,2.7,0,4,0.2c1.9,0.4,1.8,1,2.8,3c1.5,2.9,2.9,5.8,4,8.8C21,33.6,20.2,32.7,19.5,31.8 M10.4,19.3
									c1-1.6,1.1-3,2.9-3.8c2.1-0.9,5.3-0.7,7.5-0.9c-1.4,1.5-3,3.1-3.6,5.1c-0.9-1.7-2-3.2-3.7-4.2c-0.2-0.1,1.2,4.6,1.3,4.9
									c-1.7-0.1-3.5-0.4-5.2-0.1C9.9,20,10.2,19.6,10.4,19.3 M26.8,14.3c1.6,0,3.2,0.2,4.7,0.4c-1.3,1.7-1.6,3.6-2.1,5.6
									c-0.5-2.3-2.2-4.4-3.7-6C26.1,14.3,26.5,14.3,26.8,14.3 M23.3,15.3c0.2-0.2,4.5,5.1,5.1,5.6c-3.3,0-6.6-0.2-9.9-0.3
									C20.4,19.1,21.5,16.9,23.3,15.3 M26,32.4c-0.4,1.3-0.8,2.7-1.2,4c-1.6-4.7-3.9-9.2-6-13.7c3.3,0.1,6.7,0.2,10,0.3
									C28,26.2,26.9,29.3,26,32.4 M33.2,15c1.3,1.1,3.1,3.4,3.7,4.2c0.1,0.1,0.1,0.2,0.2,0.2c0.2,0.3,1,1.3,1.3,1.6
									c-2.2-0.2-4.5-0.1-6.8-0.2c0.5-2.1,1.1-4,0.6-6.1C32.5,14.8,32.9,14.9,33.2,15 M40.9,20.6c-2.2-2.7-4.4-7.3-7.9-8.1
									c-3.5-0.8-7.5-0.5-11.1-0.2c-3.1,0.2-8.1-0.2-10.8,1.6c-1.4,0.9-2.4,3-2.9,4.6c-0.4,1.4,0.3,2.3-1.2,2.3
									c-0.1,0,2.5,3.7,2.8,4c2.3,2.1,4.4,4.2,6.5,6.6c2.8,3.4,5.4,8.3,9.1,9.7c-0.7-0.3,2.8-3,3.2-3.4c2.1-2.3,4.2-4.6,6.4-6.8
									c1.9-2.1,4.1-4,5.9-6.2C42.4,23,42.4,22.4,40.9,20.6"/>
								<path id="Fill-23" class="st2" d="M7,12c0,0-0.9-2-0.8-1.9c-0.5-0.7-1-1.2-1.7-1.7C3.7,7.8,0.1,7.3,0,7
									C1.5,9.7,4.2,11.1,7,12"/>
								<path id="Fill-25" class="st2" d="M22.4,7.2c0.2,0.7,0.4,1.3,0.8,1.8C23.2,9.1,24,4.8,24,4.5C24,3.8,23.6,0,22.8,0
									C21.5,0,22.1,6.5,22.4,7.2"/>
								<path id="Fill-27" class="st2" d="M49,5c-3,0-9.7,5.9-8.9,9c0,0,0.4-0.4,0.4-0.3c0,0,0,0,0.1,0c1.3-1,2.7-2,4-3.2
									c0.9-0.8,2-1.6,2.8-2.5C47.4,7.8,49.3,5,49,5"/>
							</g>
						</g>
					</g>
				</g>
				<g id="Face" transform="translate(76.000000, 82.000000)">
					<g transform="translate(2.000000, 52.000000)">
						<path id="Mouth" class="st18" d="M40,15c0,7.7,6.3,14,14,14l0,0c7.7,0,14-6.3,14-14"/>
					</g>
					<g transform="translate(28.000000, 40.000000)">
						<path id="Nose" class="st19" d="M16,8c0,4.4,5.4,8,12,8l0,0c6.6,0,12-3.6,12-8"/>
					</g>
					<g transform="translate(0.000000, 8.000000)">
						<circle id="Eye" class="st20" cx="30" cy="22" r="6"/>
						<circle class="st20" cx="82" cy="22" r="6"/>
					</g>
					<g>
						<g id="I-Browse" transform="translate(12.000000, 6.000000)">
							<path id="Eyebrow" class="st21" d="M3.6,11.2c3.9-5.5,14.6-8.6,23.9-6.3c1.1,0.3,2.2-0.4,2.4-1.5c0.3-1.1-0.4-2.2-1.5-2.4
								C17.7-1.7,5.3,1.9,0.4,8.8c-0.6,0.9-0.4,2.1,0.5,2.8S3,12.1,3.6,11.2z"/>
							<path class="st21" d="M84.4,11.2c-3.9-5.5-14.6-8.6-23.9-6.3c-1.1,0.3-2.2-0.4-2.4-1.5s0.4-2.2,1.5-2.4
								c10.7-2.6,23.2,0.9,28.1,7.9c0.6,0.9,0.4,2.1-0.5,2.8S85,12.1,84.4,11.2z"/>
						</g>
					</g>
				</g>
				<g id="Top">
					<defs>
						<filter id="Adobe_OpacityMaskFilter_6_" filterUnits="userSpaceOnUse" x="69" y="34" width="269" height="280">
							<feColorMatrix  type="matrix" values="1 0 0 0 0  0 1 0 0 0  0 0 1 0 0  0 0 0 1 0"/>
						</filter>
					</defs>
					<mask maskUnits="userSpaceOnUse" x="69" y="34" width="269" height="280" id="react-mask-802_1_">
						<g class="st22">
							<rect id="react-path-804_1_" class="st2" width="264" height="280"/>
						</g>
					</mask>
					<g class="st23">
						<g transform="translate(-1.000000, 0.000000)">
							<g id="Hair" transform="translate(75.000000, 34.000000)">
								<g id="Caesar">
									<path class="st24" d="M82,24.4c-7-0.7-15.4-1.1-23.7-1.1C39,23.2,19.6,25.5,16,28C6.3,35.2,2.5,62.4,3,64
										c-0.3,1.2-1.7,1.5-2,0C0.3,53.7,1,1.7,58,1s57.7,52.7,57,63c-0.3,1.5-1.7,1.2-2,0c0.5-1.6-3.3-28.8-13-36
										c-1.8-1.2-7.2-2.4-14.6-3.3L89,16L82,24.4z"/>
								</g>
								<defs>
									<filter id="Adobe_OpacityMaskFilter_7_" filterUnits="userSpaceOnUse" x="0" y="0" width="264" height="280">
										<feColorMatrix  type="matrix" values="1 0 0 0 0  0 1 0 0 0  0 0 1 0 0  0 0 0 1 0"/>
									</filter>
								</defs>
								<mask maskUnits="userSpaceOnUse" x="0" y="0" width="264" height="280" id="react-mask-803_1_">
									<g class="st25">
										<path id="react-path-805_1_" class="st2" d="M82,24.4c-7-0.7-15.4-1.1-23.7-1.1C39,23.2,19.6,25.5,16,28
											C6.3,35.2,2.5,62.4,3,64c-0.3,1.2-1.7,1.5-2,0C0.3,53.7,1,1.7,58,1s57.7,52.7,57,63c-0.3,1.5-1.7,1.2-2,0
											c0.5-1.6-3.3-28.8-13-36c-1.8-1.2-7.2-2.4-14.6-3.3L89,16L82,24.4z"/>
									</g>
								</mask>
								<g class="st26">
									<g transform="translate(0.000000, 0.000000) ">
										<rect class="st27" width="264" height="280"/>
									</g>
								</g>
							</g>
							<g transform="translate(62.000000, 85.000000)">
								<g id="Lennon-Glasses">
									<g>
										<path id="react-path-808" class="st28" d="M80.5,16.4C84.4,8.5,92.6,3,102,3c8.9,0,16.7,4.9,20.8,12.1
											c0.2-0.1,0.4-0.1,0.7-0.1h8c1.4,0,2.5,1.1,2.5,2.5s-1.1,2.5-2.5,2.5H125c0.7,2.2,1,4.6,1,7c0,13.3-10.7,24-24,24
											S78,40.3,78,27c0-1.4,0.1-2.8,0.4-4.2c-0.1-4.4-3.4-7.8-7.5-7.8c-3.7,0-6.9,2.9-7.4,6.8c0.4,1.7,0.6,3.4,0.6,5.2
											c0,13.3-10.7,24-24,24S16,40.3,16,27c0-2.4,0.4-4.8,1-7h-6.5C9.1,20,8,18.9,8,17.5S9.1,15,10.5,15l0,0h8
											c0.2,0,0.4,0,0.7,0.1C23.3,7.9,31.1,3,40,3c9.4,0,17.5,5.3,21.4,13.2c2.1-3.1,5.5-5.2,9.4-5.2
											C74.9,11,78.4,13.1,80.5,16.4z M40,47c11,0,20-9,20-20S51,7,40,7s-20,9-20,20S29,47,40,47z M102,47c11,0,20-9,20-20
											s-9-20-20-20s-20,9-20,20S91,47,102,47z"/>
									</g>
									<g>
										<path class="st29" d="M80.5,16.4C84.4,8.5,92.6,3,102,3c8.9,0,16.7,4.9,20.8,12.1c0.2-0.1,0.4-0.1,0.7-0.1h8
											c1.4,0,2.5,1.1,2.5,2.5s-1.1,2.5-2.5,2.5H125c0.7,2.2,1,4.6,1,7c0,13.3-10.7,24-24,24S78,40.3,78,27
											c0-1.4,0.1-2.8,0.4-4.2c-0.1-4.4-3.4-7.8-7.5-7.8c-3.7,0-6.9,2.9-7.4,6.8c0.4,1.7,0.6,3.4,0.6,5.2c0,13.3-10.7,24-24,24
											S16,40.3,16,27c0-2.4,0.4-4.8,1-7h-6.5C9.1,20,8,18.9,8,17.5S9.1,15,10.5,15l0,0h8c0.2,0,0.4,0,0.7,0.1
											C23.3,7.9,31.1,3,40,3c9.4,0,17.5,5.3,21.4,13.2c2.1-3.1,5.5-5.2,9.4-5.2C74.9,11,78.4,13.1,80.5,16.4z M40,47
											c11,0,20-9,20-20S51,7,40,7s-20,9-20,20S29,47,40,47z M102,47c11,0,20-9,20-20s-9-20-20-20s-20,9-20,20S91,47,102,47z"/>
									</g>
								</g>
							</g>
						</g>
					</g>
				</g>
			</g>
		</g>
	</g>
</g>
</svg>
