<svg xmlns="http://www.w3.org/2000/svg" width="87.578" height="91.019" viewBox="0 0 87.578 91.019">
  <g id="Group_3504" data-name="Group 3504" transform="translate(-1081 -3877)">
    <g id="Group_3444" data-name="Group 3444" transform="translate(796.578 1769)">
      <circle id="Ellipse_430" data-name="Ellipse 430" cx="41" cy="41" r="41" transform="translate(290 2108)" fill="#0675c1" opacity="0.1"/>
      <g id="businessman-paper-of-the-application-for-a-job" transform="translate(273.338 2131.734)">
        <path id="Path_43332" data-name="Path 43332" d="M42.316,58.593a1.232,1.232,0,0,1,1.234-1.236h4.243a15.655,15.655,0,0,0,5.939,2.415,1.155,1.155,0,0,1-.264.053H43.549A1.23,1.23,0,0,1,42.316,58.593ZM39.3,48.718h2.2a15.352,15.352,0,0,1-.5-2.469H39.3a1.235,1.235,0,1,0,0,2.469ZM30.216,17.538a6.172,6.172,0,0,1-2.558-4.845,4.631,4.631,0,1,1,9.262,0,6.169,6.169,0,0,1-2.562,4.845c3.63.92,6.318,4.074,6.318,6.408,0,2.759-16.774,2.759-16.774,0C23.9,21.612,26.592,18.46,30.216,17.538Zm-.28,6.13,2.352,2.348,2.354-2.348-1.979-4.783h.018l.769-.879a3.477,3.477,0,0,1-1.162.212A3.411,3.411,0,0,1,31.126,18l.767.883h.02Zm31,40.923,0,0-.059-.1c-.031,0-.057.008-.085.008H17.8a4.035,4.035,0,0,1-4.031-4.03V6.715A4.035,4.035,0,0,1,17.8,2.686H60.8a4.034,4.034,0,0,1,4.03,4.029v24.6a15.556,15.556,0,0,1,2.688,2.11V6.715A6.723,6.723,0,0,0,60.8,0H17.8a6.723,6.723,0,0,0-6.72,6.715V60.462A6.723,6.723,0,0,0,17.8,67.176H60.8a6.672,6.672,0,0,0,1.524-.191Zm-35.8-21.5H40.966a15.858,15.858,0,0,1,.42-2.47H25.136a1.235,1.235,0,0,0,0,2.47Zm0-11.251H47.319a15.8,15.8,0,0,1,1.372-.9,15.638,15.638,0,0,1,3.849-1.575H25.134a1.236,1.236,0,0,0,0,2.471Zm0,5.625H42.551A15.59,15.59,0,0,1,44.081,35H25.134a1.235,1.235,0,0,0,0,2.469Zm42.171.751a12.485,12.485,0,1,1-17.061-4.571A12.494,12.494,0,0,1,67.306,38.216ZM65.518,39.25A10.418,10.418,0,1,0,61.7,53.484,10.44,10.44,0,0,0,65.518,39.25Zm.355,15.25-5.367,3.1,4.133,7.154L70,61.659Zm4.691,8.132-5.371,3.1a3.1,3.1,0,1,0,5.371-3.1Z" fill="#2b2b2c"/>
      </g>
    </g>
  </g>
</svg>
