<svg xmlns="http://www.w3.org/2000/svg" width="82" height="91.019" viewBox="0 0 82 91.019">
  <g id="Group_3406" data-name="Group 3406" transform="translate(-488 -936)">
    <circle id="Ellipse_431" data-name="Ellipse 431" cx="41" cy="41" r="41" transform="translate(488 936)" fill="rgba(6,117,193,0.1)"/>
    <g id="approved" transform="translate(444.406 958.679)">
      <g id="Group_3388" data-name="Group 3388" transform="translate(44 22.29)">
        <g id="Group_3387" data-name="Group 3387">
          <path id="Path_43560" data-name="Path 43560" d="M46.278,167.391a1.334,1.334,0,1,0,.391.944A1.344,1.344,0,0,0,46.278,167.391Z" transform="translate(-44 -167)"/>
        </g>
      </g>
      <g id="Group_3390" data-name="Group 3390" transform="translate(44)">
        <g id="Group_3389" data-name="Group 3389">
          <path id="Path_43561" data-name="Path 43561" d="M96.589,0H69.583a1.335,1.335,0,1,0,0,2.67H96.589A1.336,1.336,0,0,1,97.924,4V64.335a1.336,1.336,0,0,1-1.335,1.335H48a1.336,1.336,0,0,1-1.335-1.335V28.608a1.335,1.335,0,0,0-2.67,0V64.335a4.009,4.009,0,0,0,4,4H96.589a4.009,4.009,0,0,0,4-4V4A4.009,4.009,0,0,0,96.589,0Z" transform="translate(-44)"/>
        </g>
      </g>
      <g id="Group_3392" data-name="Group 3392" transform="translate(54.771 5.339)">
        <g id="Group_3391" data-name="Group 3391">
          <path id="Path_43562" data-name="Path 43562" d="M142.222,40a17.967,17.967,0,0,0-2.713.206,1.335,1.335,0,0,0,.4,2.639,15.268,15.268,0,0,1,2.308-.175,15.074,15.074,0,0,1,11.536,24.788,13.373,13.373,0,0,0-6.968-5.831,6.52,6.52,0,0,0,1.972-4.675v-1.3a6.54,6.54,0,1,0-13.081,0v1.3a6.519,6.519,0,0,0,1.972,4.675,13.376,13.376,0,0,0-6.982,5.855,15.033,15.033,0,0,1-3.324-7.214,1.335,1.335,0,0,0-2.633.442A17.754,17.754,0,1,0,142.222,40Zm-3.871,15.65a3.871,3.871,0,1,1,7.742,0v1.3a3.871,3.871,0,1,1-7.742,0Zm3.871,17.185a15.065,15.065,0,0,1-9.569-3.4,10.676,10.676,0,0,1,19.127-.023A15.013,15.013,0,0,1,142.222,72.835Z" transform="translate(-124.696 -40)"/>
        </g>
      </g>
      <g id="Group_3394" data-name="Group 3394" transform="translate(64.336 53.123)">
        <g id="Group_3393" data-name="Group 3393">
          <path id="Path_43563" data-name="Path 43563" d="M216.645,398H197.692a1.335,1.335,0,1,0,0,2.669h18.953a1.335,1.335,0,1,0,0-2.669Z" transform="translate(-196.357 -398.002)"/>
        </g>
      </g>
      <g id="Group_3396" data-name="Group 3396" transform="translate(58.634 45.649)">
        <g id="Group_3395" data-name="Group 3395" transform="translate(0)">
          <path id="Path_43564" data-name="Path 43564" d="M155.918,342.391a1.334,1.334,0,1,0,.391.944A1.344,1.344,0,0,0,155.918,342.391Z" transform="translate(-153.64 -342)"/>
        </g>
      </g>
      <g id="Group_3398" data-name="Group 3398" transform="translate(58.634 53.123)">
        <g id="Group_3397" data-name="Group 3397" transform="translate(0)">
          <path id="Path_43565" data-name="Path 43565" d="M155.918,398.391a1.334,1.334,0,1,0,.391.944A1.342,1.342,0,0,0,155.918,398.391Z" transform="translate(-153.64 -398)"/>
        </g>
      </g>
      <g id="Group_3400" data-name="Group 3400" transform="translate(64.336 45.649)">
        <g id="Group_3399" data-name="Group 3399">
          <path id="Path_43566" data-name="Path 43566" d="M216.645,342H197.692a1.335,1.335,0,1,0,0,2.669h18.953a1.335,1.335,0,1,0,0-2.669Z" transform="translate(-196.357 -342.002)"/>
        </g>
      </g>
      <g id="Group_3402" data-name="Group 3402" transform="translate(49.702 7.301)">
        <g id="Group_3401" data-name="Group 3401">
          <path id="Path_43567" data-name="Path 43567" d="M96.715,55.092a1.335,1.335,0,0,0-1.888,0L90.48,59.439l-1.485-1.485a1.335,1.335,0,0,0-1.888,1.888l2.429,2.429a1.335,1.335,0,0,0,1.888,0l5.291-5.291A1.335,1.335,0,0,0,96.715,55.092Z" transform="translate(-86.716 -54.701)"/>
        </g>
      </g>
      <g id="Group_3404" data-name="Group 3404" transform="translate(44)">
        <g id="Group_3403" data-name="Group 3403">
          <path id="Path_43568" data-name="Path 43568" d="M54.945,0A10.945,10.945,0,1,0,65.89,10.945,10.957,10.957,0,0,0,54.945,0Zm0,19.22a8.275,8.275,0,1,1,8.275-8.275A8.285,8.285,0,0,1,54.945,19.22Z" transform="translate(-44)"/>
        </g>
      </g>
    </g>
  </g>
</svg>
