<svg id="Group_3334" data-name="Group 3334" xmlns="http://www.w3.org/2000/svg" width="21.037" height="21.47" viewBox="0 0 21.037 21.47">
  <g id="youtube" transform="translate(0 0)">
    <ellipse id="Ellipse_244" data-name="Ellipse 244" cx="10.518" cy="10.735" rx="10.518" ry="10.735" fill="#d22215"/>
    <path id="Path_44259" data-name="Path 44259" d="M119.037,152.333H112a2.5,2.5,0,0,0-2.5,2.5v3.518a2.5,2.5,0,0,0,2.5,2.5h7.038a2.5,2.5,0,0,0,2.5-2.5v-3.518a2.5,2.5,0,0,0-2.5-2.5Zm-1.691,4.431-3.292,1.57a.132.132,0,0,1-.189-.119v-3.238a.132.132,0,0,1,.192-.118l3.292,1.668a.132.132,0,0,1,0,.237Z" transform="translate(-105 -145.857)" fill="#fff"/>
  </g>
</svg>
