<svg xmlns="http://www.w3.org/2000/svg" width="83.738" height="91" viewBox="0 0 83.738 91">
  <g id="maleTutoring" transform="translate(-13204.84 1923)">
    <circle id="Ellipse_430" data-name="Ellipse 430" cx="41" cy="41" r="41" transform="translate(13206.578 -1923)" fill="#0675c1" opacity="0.1"/>
    <g id="teacher_1_" data-name="teacher (1)" transform="translate(13191.84 -1899.082)">
      <path id="Path_54242" data-name="Path 54242" d="M29,23h6.395v2.132H29Z" transform="translate(1.053 1.448)" fill="#2b2b2c"/>
      <path id="Path_54243" data-name="Path 54243" d="M60.962,28.712H59.9v-3.2a3.2,3.2,0,0,0-6.395,0v3.394a3.193,3.193,0,0,0-2.132,3v2.5a5.3,5.3,0,0,0,1.561,3.769l.495.495-.81,4.859A20.259,20.259,0,0,0,38.388,32.075l-.426-1.7a7.471,7.471,0,0,0,4.8-5.926h.085a4.258,4.258,0,0,0,3.551-6.615l.34-1.359A12.449,12.449,0,0,0,34.652,1h-2.8a12.45,12.45,0,0,0-12.08,15.475l.34,1.36a4.255,4.255,0,0,0,3.55,6.613h.085a7.472,7.472,0,0,0,4.8,5.926l-.421,1.682A18.529,18.529,0,0,0,13,50.181v5.177A11.738,11.738,0,0,0,24.724,67.082h9.592a4.258,4.258,0,0,0,4.193-3.571,11.557,11.557,0,0,1,3.913-.693h4.684V60.434l1.486,1.782a7.6,7.6,0,0,0,13.436-4.864V38.745l.57-.57a5.3,5.3,0,0,0,1.561-3.769v-2.5a3.2,3.2,0,0,0-3.2-3.2ZM56.7,24.448a1.066,1.066,0,0,1,1.066,1.066v3.394a3.185,3.185,0,0,0-1.066.635,3.168,3.168,0,0,0-1.066-.635V25.514A1.066,1.066,0,0,1,56.7,24.448ZM34.177,58.555a3.043,3.043,0,0,0-5.624-.45l-.224.45H25.79V47.9h2.553a11.578,11.578,0,0,1,5.974,1.661v9Zm-2.894-23.24-2.907,2.325L27.109,34.47a16.371,16.371,0,0,1,1.721-.383ZM32.99,41.5h.523l1.753,6.137a13.7,13.7,0,0,0-3.612-1.463Zm.668-2.132h-.814l-.919-1.837,1.326-1.061,1.326,1.061Zm1.56-4.055L37.657,34.1c.582.117,1.152.262,1.713.431l-1.246,3.113Zm5.493-17.261a2.132,2.132,0,1,1-2.132-2.132A2.134,2.134,0,0,1,40.712,18.053Zm2.132,4.263V18.053a2.132,2.132,0,0,1,0,4.263ZM31.849,3.132h2.8A10.324,10.324,0,0,1,44.667,15.959l-.085.342a4.219,4.219,0,0,0-1.738-.379h-.052A5.322,5.322,0,0,0,38.176,11.2l-.563-.07a3.769,3.769,0,0,1-3.3-3.735H32.185a5.9,5.9,0,0,0,5.163,5.849l.563.07a3.179,3.179,0,0,1,1.409.549,4.339,4.339,0,0,0-.74-.074,4.258,4.258,0,0,0-4.112,3.2H32.034a4.21,4.21,0,0,0-6.194-2.633,3.188,3.188,0,0,1,3.038-2.686,8.24,8.24,0,0,0,2.716,3.008L32.775,12.9a6.1,6.1,0,0,1-2.722-5.087V7.395H27.922v.421a8.276,8.276,0,0,0,.208,1.8,5.324,5.324,0,0,0-4.471,5.242v1.066a4.219,4.219,0,0,0-1.738.379l-.085-.342A10.324,10.324,0,0,1,31.849,3.132Zm-3.928,12.79a2.132,2.132,0,1,1-2.132,2.132A2.134,2.134,0,0,1,27.922,15.922Zm-6.395,4.263a2.134,2.134,0,0,1,2.132-2.132v4.263A2.134,2.134,0,0,1,21.527,20.185Zm4.263,3.2V21.724a4.213,4.213,0,0,0,6.244-2.6h2.434a4.213,4.213,0,0,0,6.244,2.6v1.658a5.335,5.335,0,0,1-5.329,5.329H31.119a5.335,5.335,0,0,1-5.329-5.329Zm5.329,7.461h4.263c.166,0,.33-.014.493-.025l.4,1.585-3.022,1.511L30.229,32.4l.4-1.585c.163.011.327.025.493.025ZM15.132,55.357V50.181a16.405,16.405,0,0,1,9.962-15.01l2.373,5.93L30.224,38.9l.824,1.647-1.509,5.281c-.4-.035-.8-.059-1.2-.059H23.658V58.359a3.193,3.193,0,0,1-2.132-3V43.633H19.395V55.357a5.335,5.335,0,0,0,5.329,5.329h3.2V64.95h-3.2A9.6,9.6,0,0,1,15.132,55.357ZM34.317,64.95H30.053V59.872l.407-.814a.91.91,0,0,1,1.725.407v1.221h2.132a2.132,2.132,0,1,1,0,4.263Zm10.658-4.263H42.422a13.662,13.662,0,0,0-4.127.637,4.261,4.261,0,0,0-1.847-2.176v-9.59A11.581,11.581,0,0,1,42.422,47.9h2.553Zm9.455,2.132a5.452,5.452,0,0,1-4.2-1.968L47.107,57.1V45.765H42.422a13.718,13.718,0,0,0-5.184,1.019l-1.783-6.243.824-1.647L39.036,41.1l2.336-5.84A18.151,18.151,0,0,1,51.578,46.839l.31,1.054-1.57,9.421,2.1.35L55.47,39.37H59.9V57.352a5.473,5.473,0,0,1-5.467,5.467Zm6.661-26.15-.57.57H55.009l-.57-.57a3.181,3.181,0,0,1-.937-2.262v-2.5a1.066,1.066,0,1,1,2.132,0,3.2,3.2,0,0,0,3.2,3.2h3.122A3.185,3.185,0,0,1,61.091,36.668Zm.937-3.693h-3.2a1.066,1.066,0,1,1,0-2.132h2.132a1.066,1.066,0,0,1,1.066,1.066Z" fill="#2b2b2c"/>
    </g>
  </g>
</svg>
