<svg xmlns="http://www.w3.org/2000/svg" width="87.942" height="91.019" viewBox="0 0 87.942 91.019">
  <g id="Group_3407" data-name="Group 3407" transform="translate(-592 -936)">
    <circle id="Ellipse_432" data-name="Ellipse 432" cx="41" cy="41" r="41" transform="translate(592 936)" fill="rgba(6,117,193,0.1)"/>
    <g id="idea" transform="translate(606.185 959)">
      <g id="Group_3364" data-name="Group 3364" transform="translate(60.609 25.589)">
        <g id="Group_3363" data-name="Group 3363">
          <path id="Path_43548" data-name="Path 43548" d="M407.482,193a1.329,1.329,0,1,0-1.879,1.879l.062.06A1.329,1.329,0,0,0,407.482,193Z" transform="translate(-405.214 -192.615)"/>
        </g>
      </g>
      <g id="Group_3366" data-name="Group 3366" transform="translate(43.412 20.356)">
        <g id="Group_3365" data-name="Group 3365">
          <path id="Path_43549" data-name="Path 43549" d="M292.53,156.669a20.8,20.8,0,0,0-2.32-1.369,17.817,17.817,0,0,0-13.511-1.288,1.328,1.328,0,0,0,.788,2.537,15.209,15.209,0,0,1,11.528,1.124,18.5,18.5,0,0,1,2.023,1.194,1.328,1.328,0,1,0,1.492-2.2Z" transform="translate(-275.764 -153.23)"/>
        </g>
      </g>
      <g id="Group_3368" data-name="Group 3368" transform="translate(16.298 8.43)">
        <g id="Group_3367" data-name="Group 3367" transform="translate(0)">
          <path id="Path_43550" data-name="Path 43550" d="M127.634,96.015a17.094,17.094,0,0,1-1.463-3.66c1.554-3.829.987-8.067-1.6-11.943-3.979-5.961-12.135-10.288-19.392-10.288a23.772,23.772,0,0,0-10.952,2.661,11.372,11.372,0,1,0-17.12,11.75,2.22,2.22,0,0,1,1.283,1.973v7.774a2.693,2.693,0,0,0,2.69,2.69h.452a23.66,23.66,0,0,0,8.012,14.981,5.239,5.239,0,0,1-.363,2.582c-.411,1.43-1.042,3.018-1.6,4.42-.373.938-.694,1.748-.889,2.36a1.329,1.329,0,0,0,1.266,1.731h18.963a2.156,2.156,0,0,0,2.018-1.608,12.986,12.986,0,0,0,.55-2.011c.158-.718.528-2.4.9-2.6a.27.27,0,0,1,.074,0,1.306,1.306,0,0,0,.206.016c1.986,0,3.609.09,5.04.169,4.2.233,6.734.374,8.957-2.829,1.131-1.629,1-4,.867-6.52a23.727,23.727,0,0,1-.014-3.747,11.59,11.59,0,0,1,1.176-.877c1.252-.86,2.435-1.672,2.435-2.907C129.128,99.2,128.56,97.958,127.634,96.015ZM78.5,82.269a8.716,8.716,0,1,1,9.092,0,4.834,4.834,0,0,0-2.329,2.846H80.824A4.837,4.837,0,0,0,78.5,82.269Zm6.541,5.5v1.943H81.047V87.773Zm-3.957,6.543a.038.038,0,0,1-.033-.033V92.373h3.989v1.909a.038.038,0,0,1-.033.033Zm44.109,6.536c-1.143.785-2.131,1.463-2.277,2.49a23.65,23.65,0,0,0-.035,4.467c.1,1.866.215,3.981-.4,4.862-1.322,1.9-2.465,1.923-6.628,1.691-1.373-.076-3.078-.171-5.1-.174a2.832,2.832,0,0,0-2.965,1.757,12.343,12.343,0,0,0-.9,2.91,14.116,14.116,0,0,1-.394,1.533H89.871l.18-.453c1.914-4.819,3.126-8.353,1.281-9.948a21.024,21.024,0,0,1-7.119-13.016H85a2.693,2.693,0,0,0,2.69-2.69V86.511a2.221,2.221,0,0,1,1.283-1.976,11.3,11.3,0,0,0,5.4-8.794,21.107,21.107,0,0,1,10.8-2.96c6.33,0,13.717,3.915,17.182,9.106a9.971,9.971,0,0,1,1.319,9.54c-.521,1.255.252,3,1.556,5.731a23.976,23.976,0,0,1,1.2,2.766A12.552,12.552,0,0,1,125.189,100.851Z" transform="translate(-71.668 -63.458)"/>
        </g>
      </g>
      <g id="Group_3370" data-name="Group 3370" transform="translate(29.429 14.41)">
        <g id="Group_3369" data-name="Group 3369">
          <path id="Path_43551" data-name="Path 43551" d="M175.272,111.986a5.319,5.319,0,0,0-2.82-3.368,1.329,1.329,0,0,0-1.218,2.362,2.663,2.663,0,0,1,1.473,1.7,4.028,4.028,0,0,1-.369,2.745,1.328,1.328,0,1,0,2.24,1.428A6.659,6.659,0,0,0,175.272,111.986Z" transform="translate(-170.514 -108.47)"/>
        </g>
      </g>
      <g id="Group_3372" data-name="Group 3372" transform="translate(26.343)">
        <g id="Group_3371" data-name="Group 3371">
          <path id="Path_43552" data-name="Path 43552" d="M148.607,0a1.329,1.329,0,0,0-1.328,1.328V5.116a1.328,1.328,0,0,0,2.657,0V1.328A1.329,1.329,0,0,0,148.607,0Z" transform="translate(-147.279)"/>
        </g>
      </g>
      <g id="Group_3374" data-name="Group 3374" transform="translate(7.815 18.528)">
        <g id="Group_3373" data-name="Group 3373" transform="translate(0)">
          <path id="Path_43553" data-name="Path 43553" d="M12.931,139.465H9.143a1.328,1.328,0,1,0,0,2.657h3.787a1.328,1.328,0,0,0,0-2.657Z" transform="translate(-7.815 -139.465)"/>
        </g>
      </g>
      <g id="Group_3376" data-name="Group 3376" transform="translate(17.079 2.482)">
        <g id="Group_3375" data-name="Group 3375" transform="translate(0)">
          <path id="Path_43554" data-name="Path 43554" d="M81.917,22.627l-1.893-3.278a1.328,1.328,0,1,0-2.3,1.328l1.893,3.278a1.328,1.328,0,1,0,2.3-1.328Z" transform="translate(-77.545 -18.684)"/>
        </g>
      </g>
      <g id="Group_3378" data-name="Group 3378" transform="translate(10.297 9.264)">
        <g id="Group_3377" data-name="Group 3377">
          <path id="Path_43555" data-name="Path 43555" d="M31.767,71.806l-3.279-1.893a1.328,1.328,0,0,0-1.328,2.3l3.279,1.893a1.328,1.328,0,0,0,1.328-2.3Z" transform="translate(-26.495 -69.735)"/>
        </g>
      </g>
      <g id="Group_3380" data-name="Group 3380" transform="translate(39.11 9.264)">
        <g id="Group_3379" data-name="Group 3379">
          <path id="Path_43556" data-name="Path 43556" d="M249.14,70.4a1.328,1.328,0,0,0-1.815-.486L244.047,71.8a1.328,1.328,0,1,0,1.328,2.3l3.279-1.893A1.328,1.328,0,0,0,249.14,70.4Z" transform="translate(-243.382 -69.732)"/>
        </g>
      </g>
      <g id="Group_3382" data-name="Group 3382" transform="translate(10.297 25.898)">
        <g id="Group_3381" data-name="Group 3381">
          <path id="Path_43557" data-name="Path 43557" d="M32.254,195.61a1.328,1.328,0,0,0-1.814-.487l-3.28,1.893a1.329,1.329,0,1,0,1.328,2.3l3.279-1.893A1.328,1.328,0,0,0,32.254,195.61Z" transform="translate(-26.495 -194.946)"/>
        </g>
      </g>
      <g id="Group_3384" data-name="Group 3384" transform="translate(17.079 31.768)">
        <g id="Group_3383" data-name="Group 3383" transform="translate(0)">
          <path id="Path_43558" data-name="Path 43558" d="M81.158,239.3a1.329,1.329,0,0,0-1.815.486l-1.62,2.806a1.329,1.329,0,1,0,2.3,1.328l1.62-2.806A1.328,1.328,0,0,0,81.158,239.3Z" transform="translate(-77.545 -239.127)"/>
        </g>
      </g>
      <g id="Group_3386" data-name="Group 3386" transform="translate(33.713 2.482)">
        <g id="Group_3385" data-name="Group 3385">
          <path id="Path_43559" data-name="Path 43559" d="M206.649,18.861a1.328,1.328,0,0,0-1.815.486l-1.893,3.278a1.328,1.328,0,1,0,2.3,1.328l1.893-3.278A1.328,1.328,0,0,0,206.649,18.861Z" transform="translate(-202.763 -18.683)"/>
        </g>
      </g>
    </g>
  </g>
</svg>
