<svg xmlns="http://www.w3.org/2000/svg" xmlns:xlink="http://www.w3.org/1999/xlink" width="313.441" height="226.474" viewBox="0 0 313.441 226.474">
  <defs>
    <linearGradient id="linear-gradient" x1="0.5" x2="0.5" y2="1" gradientUnits="objectBoundingBox">
      <stop offset="0" stop-color="#5ca9dd"/>
      <stop offset="1" stop-color="#0675c1"/>
    </linearGradient>
  </defs>
  <g id="special_child" data-name="special child" transform="translate(-15401 2449.707)">
    <g id="Group_5371" data-name="Group 5371" transform="translate(-0.203)">
      <path id="Path_54417" data-name="Path 54417" d="M351.741,477.4c0,.105-70.172.2-156.709.2S38.3,477.5,38.3,477.4s70.157-.2,156.732-.2S351.741,477.283,351.741,477.4Z" transform="translate(15362.903 -2701.235)" fill="#263238"/>
    </g>
    <g id="Group_5372" data-name="Group 5372" transform="translate(-10.442 2)">
      <g id="Group_5351" data-name="Group 5351" transform="translate(15520.719 -2405.578)">
        <path id="Path_54370" data-name="Path 54370" d="M1600.168,1091a1.419,1.419,0,0,1-1.3-.829l-4.794-10.328H1578.12a1.421,1.421,0,0,1,0-2.841h16.869a1.437,1.437,0,0,1,1.3.829l5.179,11.157a1.429,1.429,0,0,1-.681,1.894A1.544,1.544,0,0,1,1600.168,1091Z" transform="translate(-1576.7 -1077)" fill="#035c9a"/>
      </g>
      <path id="Path_54369" data-name="Path 54369" d="M1587.112,1078.821H1574.86a2.172,2.172,0,0,1-2.16-2.16h0a2.172,2.172,0,0,1,2.16-2.16h12.252a2.173,2.173,0,0,1,2.16,2.16h0A2.153,2.153,0,0,1,1587.112,1078.821Z" transform="translate(13946.835 -3480.818)" fill="#035c9a"/>
      <rect id="Rectangle_2551" data-name="Rectangle 2551" width="4.469" height="93.576" transform="translate(15625.42 -2240.128) rotate(180)" fill="#035c9a" opacity="0.2"/>
      <g id="Group_5352" data-name="Group 5352" transform="translate(15615.182 -2241.155)" opacity="0.2">
        <path id="Path_54375" data-name="Path 54375" d="M1911.821,1640.561a7.961,7.961,0,1,0-7.961,7.961A7.963,7.963,0,0,0,1911.821,1640.561Z" transform="translate(-1895.9 -1632.6)" fill="#035c9a"/>
        <path id="Path_54376" data-name="Path 54376" d="M1913.7,1653.023a2.723,2.723,0,1,1,2.723,2.723A2.716,2.716,0,0,1,1913.7,1653.023Z" transform="translate(-1908.432 -1645.062)" fill="#263238"/>
      </g>
      <g id="Group_5353" data-name="Group 5353" transform="translate(15486.626 -2405.578)">
        <path id="Path_54377" data-name="Path 54377" d="M1484.968,1091a1.419,1.419,0,0,1-1.3-.829l-4.794-10.328h-15.951a1.421,1.421,0,0,1,0-2.841h16.868a1.437,1.437,0,0,1,1.3.829l5.179,11.157a1.429,1.429,0,0,1-.681,1.894A1.544,1.544,0,0,1,1484.968,1091Z" transform="translate(-1461.5 -1077)" fill="#035c9a"/>
      </g>
      <g id="Group_5354" data-name="Group 5354" transform="translate(15542.885 -2300.106)" opacity="0.2">
        <g id="Group_5360" data-name="Group 5360" transform="translate(3.729 3.522)">
          <g id="Group_5354-2" data-name="Group 5354" transform="translate(24.913)">
            <path id="Path_54378" data-name="Path 54378" d="M1748.389,1512.833c-.325-1.48,16.543-60.786,18.467-67.533l.562.148c-5.179,18.141-18.555,65.58-18.437,67.267Z" transform="translate(-1748.384 -1445.3)" fill="#2d53a0"/>
          </g>
          <g id="Group_5355" data-name="Group 5355" transform="translate(0.503 24.469)">
            <path id="Path_54379" data-name="Path 54379" d="M1665.9,1527.989c1.48-.325,60.786,16.543,67.533,18.467l-.148.562c-18.141-5.179-65.58-18.555-67.267-18.437Z" transform="translate(-1665.9 -1527.984)" fill="#2d53a0"/>
          </g>
          <g id="Group_5356" data-name="Group 5356" transform="translate(6.599 12.193)">
            <path id="Path_54380" data-name="Path 54380" d="M1686.618,1486.5c1.509.266,49.688,38.679,55.193,43.059l-.355.444c-14.738-11.749-53.358-42.408-54.956-42.941Z" transform="translate(-1686.5 -1486.5)" fill="#2d53a0"/>
          </g>
          <g id="Group_5357" data-name="Group 5357" transform="translate(0 29.333)">
            <path id="Path_54381" data-name="Path 54381" d="M1733.627,1544.443c-1.42-.533-62.473,7.961-69.427,8.937l.089.562c18.674-2.6,67.533-9.292,69.161-8.967Z" transform="translate(-1664.2 -1544.419)" fill="#2d53a0"/>
          </g>
          <g id="Group_5358" data-name="Group 5358" transform="translate(20.656 1.746)">
            <path id="Path_54382" data-name="Path 54382" d="M1734.385,1451.2c1.184.977,23.853,58.3,26.427,64.811l-.533.207c-6.925-17.549-25.155-63.36-26.279-64.6Z" transform="translate(-1734 -1451.2)" fill="#2d53a0"/>
          </g>
          <g id="Group_5359" data-name="Group 5359" transform="translate(6.126 12.932)">
            <path id="Path_54383" data-name="Path 54383" d="M1740.655,1489c-1.509.237-50.221,38.028-55.755,42.319l.355.444c14.915-11.571,53.92-41.7,55.518-42.2Z" transform="translate(-1684.9 -1489)" fill="#2d53a0"/>
          </g>
        </g>
        <ellipse id="Ellipse_543" data-name="Ellipse 543" cx="4.765" cy="4.765" rx="4.765" ry="4.765" transform="translate(31.226 35.596) rotate(-22.5)" fill="#263238"/>
        <g id="Group_5361" data-name="Group 5361" transform="translate(0 0)">
          <path id="Path_54384" data-name="Path 54384" d="M1651.6,1470.836a37.436,37.436,0,1,1,37.436,37.436A37.479,37.479,0,0,1,1651.6,1470.836Zm4,0a33.441,33.441,0,1,0,33.441-33.441A33.482,33.482,0,0,0,1655.6,1470.836Z" transform="translate(-1651.6 -1433.4)" fill="#035c9a"/>
        </g>
      </g>
      <path id="Path_54370-2" data-name="Path 54370" d="M1471.912,1078.821H1459.66a2.172,2.172,0,0,1-2.16-2.16h0a2.173,2.173,0,0,1,2.16-2.16h12.252a2.172,2.172,0,0,1,2.16,2.16h0A2.172,2.172,0,0,1,1471.912,1078.821Z" transform="translate(14027.942 -3480.818)" fill="#035c9a"/>
      <path id="Union_19" data-name="Union 19" d="M1168.867,369.887c-.71-.3-3.7-5.061-5.238-5.12-1.414-.054-5.6-1.782-6.272-2.062-2.187-.317-28.232-4.186-32.2-9.005-8.2-9.944-8.76-36.993-9.145-39.864s7.783-8.641,13.613-4.232c0,0,1.273,33.352,4.379,36.667,2.012,2.131,23.705,12.37,23.705,12.37v0c.49.051,6.928.743,7.754,1.654.858.947,4,6.156,4.083,7.133.082.9.038,2.489-.531,2.489A.389.389,0,0,1,1168.867,369.887Z" transform="translate(14450.369 -2701.008)" fill="#f2f5fc" stroke="#263238" stroke-width="1"/>
      <path id="Path_54372" data-name="Path 54372" d="M1624.887,1199.976l-64.485.681-29-90.676,59.632-.681Z" transform="translate(13975.912 -3505.32)" fill="url(#linear-gradient)"/>
      <path id="Path_54374" data-name="Path 54374" d="M1939.641,1574.986h-21.574s-.8-3.433.622-5.771c1.243-2.072.769-3.255-.148-4.972a8.085,8.085,0,0,0,3.64.681,7.686,7.686,0,0,0,3.2-1.125,74.064,74.064,0,0,0,6.156,6.452C1932.894,1571.258,1939.2,1570.9,1939.641,1574.986Z" transform="translate(13703.832 -3825.315)" fill="#1a3670"/>
      <path id="Path_54375-2" data-name="Path 54375" d="M1654.679,1299.22a17.85,17.85,0,0,0,17.875,14.767c10.861-.118,26.723-.355,32.553-.562,12.341-.474,16.957.03,16.928.385-.562,5.179-1.006,2.959,4.735,2.575,0,0,20.331-.562,14.235-14.471-6.067-13.909-63.8-18.23-68.894-17.638C1667.76,1284.749,1652.46,1285.814,1654.679,1299.22Z" transform="translate(13889.271 -3628.476)" fill="#1d1d1d"/>
      <path id="Path_54376-2" data-name="Path 54376" d="M1896.092,1352.351c-.266,9.825-1.776,37.052,2.042,58.921.977,5.534-6.984,5.712-7.043,5.712-1.509.177-4.173.3-5.061-.8-6.126-7.606-14.8-42.97-12.459-57.649,1.154-7.162,8.286-7.043,14.057-9.677C1891.209,1347.26,1896.21,1348.444,1896.092,1352.351Z" transform="translate(13735.277 -3673.498)" fill="#1d1d1d"/>
      <rect id="Rectangle_2552" data-name="Rectangle 2552" width="4.469" height="74.695" transform="translate(15529.513 -2261.128) rotate(180)" fill="#035c9a"/>
      <path id="Path_54377-2" data-name="Path 54377" d="M1653.028,921.829a19.838,19.838,0,0,1,18.082,4.054,52.183,52.183,0,0,1,6.9,7.043c5.623,6.984-3.936,14.767-2.457,17.164s4.646,4.173,3.611,9.381c-1.036,5.238-9.559,12.429-12.429,12.9-29.179,4.705-42.852-10.743-33.53-20.035s4.587-21.722,12.252-27.078A24.734,24.734,0,0,1,1653.028,921.829Z" transform="translate(13906.28 -3372.834)" fill="#263238"/>
      <path id="Path_54378-2" data-name="Path 54378" d="M1704.3,1050.477a26.985,26.985,0,0,1-9.056,4.5c-14.146,4.143-20.331-7.665-22.847-15.833a12.433,12.433,0,0,1,4.765-1.776c1.036-.177,2.1-.326,3.019-.414,1.539-1.332,3.64-6.511,3.729-14.353l.681.148,11.453,2.427s-.3,3.61-.355,7.014c-.03,2.663.059,5.209.622,5.8.8.237,1.509.474,1.509.474.177.266.177.148.118.059A70.283,70.283,0,0,1,1704.3,1050.477Z" transform="translate(13876.641 -3444.278)" fill="#f2f5fc" stroke="#263238" stroke-width="0.5"/>
      <path id="Path_54379-2" data-name="Path 54379" d="M1725.053,1025.356s-.326,3.61-.355,7.014c-6.422-.266-9.736-6.185-11.1-9.47Z" transform="translate(13847.632 -3444.489)" fill="#fff"/>
      <path id="Path_54380-2" data-name="Path 54380" d="M1723.323,980.94s-15.241.03-15.093-9.44c.118-9.47-1.746-15.862,7.961-16.277,9.736-.414,11.571,3.226,12.311,6.392C1729.212,964.782,1727.288,980.7,1723.323,980.94Z" transform="translate(13851.464 -3396.817)" fill="#f2f5fc" stroke="#263238" stroke-width="0.5"/>
      <path id="Path_54381-2" data-name="Path 54381" d="M1716.388,951.559c-2.308-2.9-4.113-2.279-5.12-1.45a10.61,10.61,0,0,0-13.7,1.983,25.851,25.851,0,0,1-6.067,10.624s2.812,1.983,9.174.207a16.087,16.087,0,0,0,10.861-10.713c.917.858,2.072,1.361,3.048,3.255a14.941,14.941,0,0,1,2.1,7.369S1719.851,955.91,1716.388,951.559Z" transform="translate(13863.192 -3392.059)" fill="#2b2b2c"/>
      <rect id="Rectangle_2553" data-name="Rectangle 2553" width="54.127" height="4.38" transform="translate(15650.422 -2246.28) rotate(180)" fill="#035c9a"/>
      <path id="Path_54382-2" data-name="Path 54382" d="M1632.28,1299.22a17.85,17.85,0,0,0,17.875,14.767c10.861-.118,26.723-.355,32.553-.562,12.34-.474,16.957.03,16.928.385-.562,5.179-1.006,2.959,4.735,2.575,0,0,20.331-.562,14.234-14.471-6.067-13.909-63.8-18.23-68.895-17.638C1645.36,1284.749,1630.06,1285.814,1632.28,1299.22Z" transform="translate(13905.041 -3628.476)" fill="#2b2b2c"/>
      <path id="Path_54383-2" data-name="Path 54383" d="M1630.616,1116.483c1.036-7.073-1.479-33.855,4.114-42.23,4.054-6.067,9.648-8.434,16.6-8.553,2.219,1.273,10.713,6.037,14.057,5.179a1.153,1.153,0,0,0,.177-.059c1.569-.473,2.1-1.628.71-2.515,0,0,5.682,1.213,7.428,3.226,1.687,1.924,1.628,6.037,2.16,10.92.148,1.213.148,2.427.3,3.61.681,5.475-1.095,6.067-7.132,21.84-2.959,7.724-1.569,13.88.414,17.993a8,8,0,0,1-2.93,10.269c-11.9,7.546-35.039,20.627-35.838,9.174C1629.846,1133.736,1629.2,1126.279,1630.616,1116.483Z" transform="translate(13906.646 -3474.623)" fill="#0675c1"/>
      <path id="Union_18" data-name="Union 18" d="M1179,368.384c-.71-.3-3.669-5.415-5.208-5.5a44.881,44.881,0,0,1-6.388-1.715c-1.022.075-34.927,2.529-36.88-.357-8.05-11.749-13.7-42.2-14.471-45.308-.8-3.108,7.6-10.418,14.5-6.244,0,0,5.711,38.8,9.529,42.082,2.456,2.131,26.931,6.067,26.931,6.067l.013.114-.012-.114s7.753.444,8.582,1.391c.858.947,4,6.156,4.083,7.132.082.9.038,2.489-.531,2.489A.389.389,0,0,1,1179,368.384Z" transform="translate(14426.89 -2701.694)" fill="#f2f5fc" stroke="#263238" stroke-width="1"/>
      <path id="Path_54385" data-name="Path 54385" d="M1917.241,1573.986h-21.574s-.8-3.433.621-5.771c1.243-2.072.77-3.255-.148-4.972a8.085,8.085,0,0,0,3.64.681,7.685,7.685,0,0,0,3.2-1.125,74.079,74.079,0,0,0,6.155,6.451C1910.494,1570.258,1916.8,1569.9,1917.241,1573.986Z" transform="translate(13719.604 -3824.611)" fill="#2b478b"/>
      <path id="Path_54386" data-name="Path 54386" d="M1873.692,1352.351c-.266,9.825-1.776,37.052,2.042,58.921.977,5.534-6.984,5.712-7.043,5.712-1.509.177-4.173.3-5.061-.8-6.126-7.606-14.8-42.97-12.459-57.649,1.154-7.162,8.286-7.043,14.057-9.677C1868.809,1347.26,1873.81,1348.444,1873.692,1352.351Z" transform="translate(13751.049 -3673.498)" fill="#2b2b2c"/>
      <path id="Path_54387" data-name="Path 54387" d="M1754.975,1022.857s-1.48-.474-5.475.089c0,0,.3,1.568,3.285,1.539A2.368,2.368,0,0,0,1754.975,1022.857Z" transform="translate(13822.356 -3444.327)" fill="#2b2b2c"/>
      <path id="Path_54388" data-name="Path 54388" d="M1664.6,1104.938s-10.358,8.967-22.373,5.919c0,0-4.321-28.943,10.713-29.357C1652.943,1081.5,1665.432,1086.442,1664.6,1104.938Z" transform="translate(13898.286 -3485.747)" fill="url(#linear-gradient)"/>
      <rect id="Rectangle_2554" data-name="Rectangle 2554" width="72.357" height="5.682" transform="translate(15601.864 -2304.906) rotate(180)" fill="#035c9a"/>
      <rect id="Rectangle_2555" data-name="Rectangle 2555" width="5.978" height="70.788" transform="matrix(-0.866, 0.5, -0.5, -0.866, 15601.496, -2249.277)" fill="#035c9a"/>
      <path id="Path_54389" data-name="Path 54389" d="M1606.4,1387.318c1.332,0,6.333-4.735,14.235-4.469,7.872.266,51.848,0,51.848,0s5.741-.592,6.274,4.5H1606.4Z" transform="translate(13923.107 -3697.901)" fill="#2d53a0"/>
      <rect id="Rectangle_2556" data-name="Rectangle 2556" width="4.469" height="93.576" transform="translate(15600.088 -2240.128) rotate(180)" fill="#035c9a"/>
      <path id="Path_54391" data-name="Path 54391" d="M1581.8,1306.481h84.4a9.384,9.384,0,0,0-9.381-9.381h-69.427a5.608,5.608,0,0,0-5.593,5.593Z" transform="translate(13940.428 -3637.542)" fill="#035c9a"/>
      <g id="Group_5355-2" data-name="Group 5355" transform="translate(15489.852 -2300.106)">
        <g id="Group_5369" data-name="Group 5369" transform="translate(3.699 3.522)">
          <g id="Group_5363" data-name="Group 5363" transform="translate(24.943)">
            <path id="Path_54407" data-name="Path 54407" d="M1569.189,1512.833c-.326-1.48,16.543-60.786,18.467-67.533l.562.148c-5.179,18.141-18.555,65.58-18.437,67.267Z" transform="translate(-1569.184 -1445.3)" fill="#2d53a0"/>
          </g>
          <g id="Group_5364" data-name="Group 5364" transform="translate(0.533 24.469)">
            <path id="Path_54408" data-name="Path 54408" d="M1486.7,1527.989c1.48-.325,60.786,16.543,67.533,18.467l-.148.562c-18.141-5.179-65.58-18.555-67.267-18.437Z" transform="translate(-1486.7 -1527.984)" fill="#2d53a0"/>
          </g>
          <g id="Group_5365" data-name="Group 5365" transform="translate(6.629 12.193)">
            <path id="Path_54409" data-name="Path 54409" d="M1507.418,1486.5c1.509.266,49.688,38.679,55.193,43.059l-.355.444c-14.738-11.749-53.358-42.408-54.956-42.941Z" transform="translate(-1507.3 -1486.5)" fill="#2d53a0"/>
          </g>
          <g id="Group_5366" data-name="Group 5366" transform="translate(0 29.333)">
            <path id="Path_54410" data-name="Path 54410" d="M1554.327,1544.443c-1.42-.533-62.473,7.961-69.427,8.937l.089.562c18.674-2.6,67.533-9.292,69.161-8.967Z" transform="translate(-1484.9 -1544.419)" fill="#2d53a0"/>
          </g>
          <g id="Group_5367" data-name="Group 5367" transform="translate(20.686 1.746)">
            <path id="Path_54411" data-name="Path 54411" d="M1555.185,1451.2c1.184.977,23.853,58.3,26.427,64.811l-.533.207c-6.925-17.549-25.155-63.36-26.279-64.6Z" transform="translate(-1554.8 -1451.2)" fill="#2d53a0"/>
          </g>
          <g id="Group_5368" data-name="Group 5368" transform="translate(6.155 12.932)">
            <path id="Path_54412" data-name="Path 54412" d="M1561.455,1489c-1.509.237-50.22,38.028-55.755,42.319l.355.444c14.915-11.571,53.92-41.7,55.518-42.2Z" transform="translate(-1505.7 -1489)" fill="#2d53a0"/>
          </g>
        </g>
        <path id="Path_54413" data-name="Path 54413" d="M1582.8,1551.065a4.765,4.765,0,1,1,4.765,4.765A4.761,4.761,0,0,1,1582.8,1551.065Z" transform="translate(-1550.128 -1512.889)" fill="#2b2b2c"/>
        <g id="Group_5370" data-name="Group 5370" transform="translate(0 0)">
          <path id="Path_54414" data-name="Path 54414" d="M1472.4,1470.836a37.436,37.436,0,1,1,37.436,37.436A37.48,37.48,0,0,1,1472.4,1470.836Zm4,0a33.441,33.441,0,1,0,33.441-33.441A33.482,33.482,0,0,0,1476.4,1470.836Z" transform="translate(-1472.4 -1433.4)" fill="#035c9a"/>
        </g>
      </g>
      <g id="Group_5356-2" data-name="Group 5356" transform="translate(15589.85 -2241.155)">
        <path id="Path_54415" data-name="Path 54415" d="M1826.221,1640.561a7.961,7.961,0,1,0-7.961,7.961A7.963,7.963,0,0,0,1826.221,1640.561Z" transform="translate(-1810.3 -1632.6)" fill="#035c9a"/>
        <path id="Path_54416" data-name="Path 54416" d="M1828.1,1653.023a2.723,2.723,0,1,1,2.723,2.723A2.716,2.716,0,0,1,1828.1,1653.023Z" transform="translate(-1822.832 -1645.062)" fill="#263238"/>
      </g>
    </g>
  </g>
</svg>
