<svg xmlns="http://www.w3.org/2000/svg" width="82" height="89.898" viewBox="0 0 82 89.898">
  <g id="Group_3502" data-name="Group 3502" transform="translate(-231 -3879)">
    <g id="Group_3442" data-name="Group 3442" transform="translate(-72 2943)">
      <circle id="Ellipse_430" data-name="Ellipse 430" cx="41" cy="41" r="41" transform="translate(303 936)" fill="#0675c1" opacity="0.1"/>
    </g>
    <path id="user_1_" data-name="user (1)" d="M51.4,46.432,41.06,41.261a2.848,2.848,0,0,1-1.582-2.56v-3.66c.248-.3.509-.648.778-1.03a24.776,24.776,0,0,0,3.2-6.278,4.3,4.3,0,0,0,2.519-3.916v-4.33a4.317,4.317,0,0,0-1.083-2.842V10.887a9.7,9.7,0,0,0-2.265-7.064C40.4,1.286,36.794,0,31.9,0S23.4,1.286,21.173,3.822a9.707,9.707,0,0,0-2.265,7.065v5.758a4.317,4.317,0,0,0-1.083,2.842v4.33a4.3,4.3,0,0,0,1.621,3.366,22.722,22.722,0,0,0,3.792,7.835V38.6a2.861,2.861,0,0,1-1.491,2.512L12.09,46.38A9.763,9.763,0,0,0,7,54.955v3.505c0,5.138,16.288,6.5,24.9,6.5s24.9-1.358,24.9-6.5V55.166A9.714,9.714,0,0,0,51.4,46.432Z" transform="translate(225.672 3902.441)" fill="none" stroke="#2b2b2c" stroke-width="3"/>
  </g>
</svg>
